<?xml version="1.0" encoding="UTF-8"?>
<svg id="Layer_1" data-name="Layer 1" xmlns="http://www.w3.org/2000/svg" viewBox="0 0 380 380">
  <defs>
    <style>
      .cls-1 {
        fill: none;
        stroke: #000;
        stroke-linecap: round;
        stroke-linejoin: round;
        stroke-width: 4px;
      }
    </style>
  </defs>
<path d="M10 10 H370 V370 H10 Z" fill="none" stroke="black" stroke-width="2"></path>
  <path class="cls-1" d="M199.91,198c63.85-20.38,31.25-96.45,31.25-96.45,12.23-40.75,0-72,0-72-24.45,1.36-48.91,35.32-48.91,35.32-19.92-9.03-40.75,0-40.75,0-13.58-28.53-50.26-35.32-50.26-35.32,0,0-5.43,40.75,0,73.36,0,0-24.45,62.49,33.96,95.09"/>
  <path class="cls-1" d="M114.89,191.34c-1.07,6.17-3.08,12.26-5.53,18.01s-5.2,10.78-8.7,15.62c-1.93,2.68-4.05,5.22-6.37,7.56-3.21,3.25-8.01,8.08-9.84,12.43-7.33,17.46-6.54,38.43.51,55.9,5.65,14.01,16.62,24.74,29.92,31.62,0,0-29.02-8.74-30.83,4.16-.7,5.02,3.42,9.43,8.48,9.43h41.44s18.37,10.87,21.09-6.79l-5.43-93.06"/>
  <line class="cls-1" x1="108.44" y1="248.26" x2="137.16" y2="346.3"/>
  <path class="cls-1" d="M174.78,245.77l-5.21,96.68s5.66,15.85,18.79,2.94l28.53-95.32"/>
  <line class="cls-1" x1="155.08" y1="342.68" x2="169.57" y2="342.45"/>
  <path class="cls-1" d="M213.21,192.24c1.71,7.11,4.27,14.09,7.3,20.73,2.7,5.9,5.89,11.62,9.84,16.78,4.53,5.92,9.92,10.85,13.3,17.6,1.51,3.02,2.88,6.11,4.01,9.29,2.76,7.78,4.23,16.09,3.58,24.35-1.69,21.42-17.86,36.74-35.94,46.28,0,0,27.17-2.94,25.36,12,0,0-.68,6.57-5.66,7.02l-46.64-.91"/>
  <path class="cls-1" d="M220.97,325.7c14.14,1.31,29.34-.5,42.57-5.65,20.67-8.03,33.28-27.51,36.57-48.82,2.83-18.33-1.26-36.93-9.85-53.23,0,0-21.51-40.15-5.89-54.64,2.83-2.42,5.84-4.7,8.97-6.73,4.43-2.87,10.33-5.04,10.85-11.06.24-2.76-.16-5.91-1.64-8.31-4.56-7.36-15.74-3.6-21.93-1.09-16.47,6.68-26.58,22.68-27.99,40.36-1.04,13.08,2.47,26.14,7.74,38,0,0,23.77,43.02,13.36,65.89,0,0-5.41,19.66-29.01,23.12"/>
  <path class="cls-1" d="M92.56,29.83s32.41,28.47,32.63,38.43c0,0-26.75,17.66-33.96,34.64"/>
  <path class="cls-1" d="M231.16,29.54s-27.17,25.81-31.92,39.85c0,0,22.64,11.77,31.92,32.15"/>
  <path class="cls-1" d="M199.23,146.38s34.19-12.69,48.23-13.37"/>
  <line class="cls-1" x1="199.23" y1="152.04" x2="249.04" y2="148.64"/>
  <line class="cls-1" x1="199.23" y1="156.79" x2="243.61" y2="166.07"/>
  <path class="cls-1" d="M124.71,145.49s-32.57-11.13-47.52-12.48"/>
  <line class="cls-1" x1="122.93" y1="150.34" x2="75.75" y2="148.64"/>
  <line class="cls-1" x1="125.19" y1="155.66" x2="78.32" y2="166.07"/>
  <circle class="cls-1" cx="135.32" cy="129.85" r="6.26"/>
  <circle class="cls-1" cx="189.3" cy="129.85" r="6.26"/>
  <path class="cls-1" d="M167.82,151.66l1.97-3.42c.93-1.61-.23-3.62-2.09-3.62h-12.2c-1.86,0-3.02,2.01-2.09,3.62l1.97,3.42c2.76,4.79,9.67,4.79,12.44,0Z"/>
  <path class="cls-1" d="M177.49,160.87s-10.05,13.58-15.89-4.08c-5.17,16.98-15.35,4.08-15.35,4.08"/>
</svg>