<?xml version="1.0" encoding="UTF-8"?>
<svg id="Layer_1" data-name="Layer 1" xmlns="http://www.w3.org/2000/svg" viewBox="0 0 380 380">
  <defs>
    <style>
      .cls-1 {
        fill: none;
        stroke: #000;
        stroke-linecap: round;
        stroke-linejoin: round;
        stroke-width: 4px;
      }
    </style>
  </defs>
  <path d="M10 10 H370 V370 H10 Z" fill="none" stroke="black" stroke-width="2"></path>
  <path class="cls-1" d="M141.32,218.12s-8.43,5.25-13.3,10.66c0,0-1.35-5.14-16.24-2.98-14.89,2.17-48.45-6.77-56.3-5.95,0,0-9.47,1.62-12.99,6.23,0,0,3.52,6.77,20.03,10.29,0,0-27.88,7.04-32.21,14.89,0,0,3.52,9.47,11.37,9.2,0,0-12.45,4.33-11.37,14.35,0,0,10.56,7.31,21.92,1.35,0,0-11.91,8.66-14.07,19.22,0,0,30.04,7.04,86.61-31.4,0,0-.54,21.11,19.49,41.68,0,0,8.66,7.85,8.12,11.64,0,0-12.72,4.06-15.7,13.8,0,0-2.71,7.58,4.33,12.18,0,0-4.87-4.87-.27-10.01,0,0,7.09-8.12,11.66-3.52,0,0,2.08,2.71,2.92,6.23,0,0-.51,8.12,4.36,9.2,0,0,3.52,7.85-5.68,8.93,0,0,10.02,2.06,9.78-9.35-.01-.56-.14-1.11-.37-1.62-1.04-2.29-3.9-9.79.38-15.01,0,0,2.96-3.51,1.74-14.13-.09-.8-.28-1.58-.54-2.33-1.79-5.14-11.07-26.37,1.32-35.36,17.43-.73,34.6-6.74,50.31-14.01,3.46-1.6,6.96-3.13,10.34-4.92s6.06-4,9.14-5.98c6.96-4.47,14.75-8.03,22.54-10.78,4.13-1.46,8.38-2.65,12.72-3.28,4.74-.69,9.31-.17,14.02.46,3.38.45,9.84,6.61,11.64,10.49,0,0,10.98-11.4-11.48-25.71,0,0,1.35-7.85-31.4-13.26,0,0-22.19-11.37-31.94-9.74,0,0-8.66-4.06-18.95-6.23,0,0-9.61-6.77-15.77-15.16,0,0-32.95-40.06-55.69-47.64,0,0-17.59-17.59,3.25-54.4,0,0-6.77.81-12.18,8.39,0,0,16.24-17.59,16.51-25.44,0,0-26.25,2.17-33.29,23.55,0,0-.46-8.26.12-16.16.31-4.21,2.08-8.18,4.97-11.25,3.98-4.22,9.55-11.36,10.07-18.6,0,0-24.9-4.87-38.16,25.17,0,0,7.85-22.19,10.01-36,0,0-24.36-1.62-33.29,30.04,0,0-5.95,9.2-1.62,26.25,0,0-33.02-27.88-37.35-30.59,0,0-.81,16.24,6.5,25.98,0,0-6.01,0-6.52,2.44,0,0-1.06,16.24,12.21,23.55,0,0-18.41-4.33-19.49,1.89,0,0,3.25,9.2,8.39,10.83,0,0-8.93,1.35-8.39,6.23,0,0,5.95,7.04,14.62,10.01,0,0-3.52,3.25-3.52,6.23,0,0,5.41,3.79,7.85,4.87,0,0-2.71,3.79-2.71,6.77,0,0,4.06,2.44,5.95,4.6,0,0-1.89-1.08-1.35,3.52,0,0,4.87,6.77,13.8,9.47,0,0-1.35,9.74,11.37,13.26,0,0-1.62,8.72,13.53,9.23,0,0-.54,10.53,11.37,11.88,0,0,6.23,8.39,16.78,1.89,0,0-10.56,8.93,6.23,8.93,0,0,5.23-.27,8.48-.63l2.8,2.98,11.55.54,2.44,3.88s20.57-3.7,24.54-6.59"/>
  <path class="cls-1" d="M176.47,165.73s9.74-5.97,18.67-4.89c0,0-2.44.81-2.98-4.33,0,0,10.29-4.06,17.32-3.25,0,0-3.52.54-3.79-5.68,0,0,10.83-8.93,19.22-7.58,0,0-2.98-11.64,14.62-14.35,0,0,3.25-19.22,15.43-15.97,0,0,6.23,3.52,5.95,15.7l5.14,12.14s-7.04-36.77,7.85-41.1c0,0,9.2-5.68,7.58,5.95,0,0-1.08,8.66-1.35,11.91,0,0,13.26-30.59,32.75-33.02,0,0,18.95-3.25,12.72,6.23,0,0-9.47,16.51-11.37,22.74.52-1.72,5.37-4.57,6.91-5.76,2.91-2.25,5.92-4.36,9.05-6.28,6.05-3.71,12.61-6.75,19.56-8.31,2.8-.63,14.7-3.1,16.47-.06,1.63,2.8-4.52,8.33-5.98,9.85,0,0-19.76,17.86-23.28,22.47,0,0,5.41,2.98,3.25,8.39,0,0,10.83-7.31,7.31,3.79,0,0-14.62,38.98-37.08,44.39,0,0-5.41,15.43-35.73,8.66,0,0-5.14-1.62-11.37,6.77l-12.9,13.37"/>
  <path class="cls-1" d="M283.87,232.05s12.67,6.19,10.61,12.07"/>
  <path class="cls-1" d="M152.38,317.28s9.03-5.66,13.45,1.09"/>
  <path class="cls-1" d="M136.68,331.09s1.89-2.17,4.06,2.17"/>
  <path class="cls-1" d="M159.69,345.16s-.27-3.4,3.25-3.19"/>
  <path class="cls-1" d="M126.39,132.69c-1.08-.54-12.99-3.25-15.97-9.47,0,0,.27,12.45,4.06,17.05,0,0-1.08,4.17-6.23,3.85,0,0,6.77,3.19,12.99,3.19,0,0-13.53,4.33-15.16,7.85,0,0,15.7.81,17.59,4.87,0,0,.54,4.33-2.17,5.68,0,0,12.18-2.17,17.19-1.35,0,0-13.26,8.39-16.31,14.35,0,0-.88,5.95,6.7,6.5,0,0-2.44,4.39,7.58,5.17,0,0-9.07,7.01-14.28,7.28,0,0,20.5,8.12,24.56,7.31,0,0,.27.27-2.98,4.6,0,0,13.8-6.5,17.32-5.41"/>
  <path class="cls-1" d="M197.85,185.74s16.78-12.18,25.98-10.29c0,0,0-2.44-2.98-3.52,0,0,21.92-7.04,29.23-3.52,0,0-1.08-1.35-2.98-3.52,0,0,17.59,1.35,18.41,4.33,0,0,2.17,0,2.17-2.84,0,0,2.17.41,2.17,4.47,0,0,18.95-5.95,24.36,2.17,0,0,5.95,1.35,7.04-2.44,0,0,4.53,6.77-4.09,11.64"/>
  <path class="cls-1" d="M109.06,226.7s6.24-.93,7.05,3.01c0,0-33.83,4.21-39.52,23.97,0,0,7.04-2.71,5.95,0,0,0-10.29,7.31-11.1,13.26,0,0,12.99-4.6,13.26-2.71,0,0-11.1,5.68-11.64,9.47,0,0,9.2-4.33,10.83-3.52,0,0-1.89,1.71-1.44,2.8,0,0,.72-.63,2.53-.27,0,0,.9,4.51,9.56.99,0,0,18.5-9.29,21.56-8.66"/>
  <path class="cls-1" d="M276.37,223.19c0,.29-.03,2.44-2.44,2.44-1.35,0-2.44-1.09-2.44-2.44s1.09-2.44,2.44-2.44,2.44,1.09,2.44,2.44Z"/>
  <path class="cls-1" d="M222.21,199.54s13.26,7.58,13.26,11.1c0,0-5.95,2.71-9.47,3.79,0,0,5.95,1.08,5.68,4.33,0,0-3.78,2.43-7.58,4.06,0,0,7.31,0,7.03,2.44,0,0-4.6,6.89-7.03,7.51,0,0,11.09-1.82,11.37,1.42,0,0-3.79,1.89-5.68,3.52.37-.31,2.5.29,2.91.4,3.41.96,1.44,7.26-1.56,7.72,0,0,7.47-1.48,7.85,1.08l-4.12,4.81"/>
  <path class="cls-1" d="M285.55,222.55s-1.56-2.86-3.49-1.7c0,0-1.12,6.57-3.28,8.2,0,0-7.31,1.55-10.29,3.21,0,0-1.89.47,1.08,2.01,0,0,10.94.53,15.81,3.51"/>
</svg>