<?xml version="1.0" encoding="UTF-8"?>
<svg id="Layer_1" data-name="Layer 1" xmlns="http://www.w3.org/2000/svg" viewBox="0 0 380 380">
  <defs>
    <style>
      .cls-1 {
        fill: none;
        stroke: #000;
        stroke-linecap: round;
        stroke-linejoin: round;
        stroke-width: 4px;
      }
    </style>
  </defs>
  <path d="M10 10 H370 V370 H10 Z" fill="none" stroke="black" stroke-width="2"></path>
  <path class="cls-1" d="M227.49,31.18s9.72,11.55,9.72,21.27c0,0,14.59,10.33,14.59,25.52,0,0-4.86,22.49,14.59,33.42l26.29,15.35c5.4,3.15,9.38,8.33,10.81,14.42,1.19,5.07.92,10.41-4.6,12.18-2.61.84-5.46.43-7.87-.88l-16.63-9.01c-4.74-2.57-9.48-5.13-14.22-7.7-5.07-2.75-8.48-5.33-14.43-4.78-4.48.41-8.97.77-13.45,1.15-1.47.13-20.47.98-20.59,1.76-1.02,6.46-1.52,13.06-1.59,19.59-.05,5.05.13,10.21,1.2,15.16,1.64,7.61,7.74,12.65,12.14,18.71,4.02,5.52,7.61,11.37,10.62,17.51,7.42,15.14,11.47,33.04,4.89,49.22-5.61,13.79-15.56,24-29.14,29.58-15.64,6.42-32.97,8.66-49.72,9.8-1.44.1-2.87.18-4.31.26,0,0-39.5-3.65-42.54,19.45,0,0-19.45-25.52,7.9-37.68,0,0,55.3-30.39,60.16-60.77.75-4.68-2.07-12.07-2.91-16.76-1.1-6.07-2.23-12.12-3.4-18.17-1.3-6.74-3.16-13.55-2.81-20.47s3.72-13.46,6.36-19.87c2.97-7.21,7.68-17.57,16.14-19.52l17.02,13.98"/>
  <path class="cls-1" d="M227.49,31.18s-4.25,14.59-15.19,18.84c0,0-71.1-10.33-78.39,68.06,0,0-2.43,18.23,0,48.01.09,1.15,2.68,3.59,3.33,4.52,2.68,3.83,5.17,7.81,7.42,11.91,5.53,10.08,10.53,21.9,9.6,33.65-.69,8.64-5.61,15.79-12.78,20.44-3.55,2.3-7.5,3.96-11.55,5.16-5.19,1.54-7.62,1.29-12.57-.6-5.07-1.94-10.01-4.27-14.7-7.01-13.42-7.85-27.28-19.49-25.63-36.42.85-8.71,2.76-17.64,7.63-25.05,11.34-17.27,32.78-13.71,49.25-6.58"/>
  <path class="cls-1" d="M104.59,235.24c-3,11.54-6.52,23.05-11.96,33.7-2.64,5.17-5.7,10.23-9.43,14.69-5.53,6.6-6.78,12.07-7.19,20.52-.26,5.44.21,10.93,1.55,16.21,3.73,14.66,14.12,26.06,27.03,33.51,0,0,53.62,33.42,69.42-24.92,0,0,4.73-21.15-27.39-35.39"/>
  <path class="cls-1" d="M113.24,313.16s15.24,27.36,33.42,3.65"/>
  <path class="cls-1" d="M174.25,173.99s48.47,22.96,66.65,50.07"/>
  <path class="cls-1" d="M181.3,214.71s35.24,1.34,57.43,39.87"/>
  <path class="cls-1" d="M156.18,250.85s42.47-.89,47.77,34.96"/>
  <line class="cls-1" x1="113.24" y1="183.11" x2="129.95" y2="202.55"/>
  <line class="cls-1" x1="101.08" y1="202.55" x2="118.71" y2="219.57"/>
  <path class="cls-1" d="M191.63,46.98l-24.92-30.39s-63.81,21.27-53.48,90.55l20.66,10.94"/>
  <line class="cls-1" x1="142.41" y1="34.83" x2="165.47" y2="59.74"/>
  <line class="cls-1" x1="121.59" y1="59.74" x2="146.66" y2="75.54"/>
  <line class="cls-1" x1="112.24" y1="87.68" x2="138.64" y2="94.74"/>
  <ellipse class="cls-1" cx="218.37" cy="79.8" rx="11.55" ry="14.94"/>
</svg>