<?xml version="1.0" encoding="UTF-8"?>
<svg id="Layer_1" data-name="Layer 1" xmlns="http://www.w3.org/2000/svg" viewBox="0 0 380 380">
  <defs>
    <style>
      .cls-1 {
        stroke-linecap: round;
      }

      .cls-1, .cls-2 {
        fill: none;
        stroke: #000;
        stroke-linejoin: round;
        stroke-width: 4px;
      }
    </style>
  </defs>
  <path d="M10 10 H370 V370 H10 Z" fill="none" stroke="black" stroke-width="2"></path>
  <path class="cls-2" d="M32.11,206.21s89.53,29.84,131.81,24.04c0,0,76.27-2.49,86.22-43.94,7.52-31.33,23.01-70.78,63.37-59.41,18.66,5.26,27.88,16.11,32.62,34.57,4.9,19.09-.47,37.58-16.41,49.71,0,0-24.87,20.72-41.45,29.01,0,0-33.16,14.92-30.67,43.11,0,4.95,3.08,12.99,0,17.21-1.82,2.5-6.65,3.69-9.74,3.69h-34.06c-5.5,0-12.32-7.02-12.09-12.52l3.66-28.27s-50.57,15.75-86.22-8.29c0,0-11.28,20.31-15.23,33.47-1.62,5.39-5.52,9.78-10.74,11.89-9.86,3.98-26.06,7.77-41.59-.84-11.88-6.59-9.25-24.01-6.51-34.83,2.46-9.69,5.75-23.85,18.79-33.33-12.84-4.68-28.63-9.67-31.76-25.28Z"/>
  <path class="cls-2" d="M146.43,266.3v16.55c0,7.76-6,14.16-13.73,14.73-7.9.59-18.3-.93-28.73-9.14"/>
  <path class="cls-2" d="M288.27,240.2s15.36,16.54,16.66,38.15c.56,9.35-7.26,13.84-15.47,15.14-10.1,1.6-22.42,1.33-31.86-2.72"/>
  <circle class="cls-2" cx="317.8" cy="166.93" r="8.6"/>
  <path class="cls-2" d="M52,212.32c-.92-5.38-1.17-10.91-1.17-16.35,0-13.03,1.92-26.09,5.87-38.51,5.35-16.83,14.56-32.27,26.98-44.84,21.6-21.86,51.86-36.73,82.88-37.38.87-.02,1.73-.03,2.6-.05,8.73-.17,17.47.26,26.13,1.35,21.28,2.68,42.4,9.55,59.66,22.57,10.84,8.17,19.79,18.62,26.36,30.49"/>
  <path class="cls-2" d="M91.53,105.37s50.67,31.96,173.45,2.46"/>
  <line class="cls-2" x1="132.19" y1="117.66" x2="114.41" y2="187.44"/>
  <line class="cls-2" x1="196.88" y1="120.33" x2="210.09" y2="190"/>
  <path class="cls-2" d="M53.77,168.47s81.77,45.1,197,14.17"/>
  <line class="cls-1" x1="329.72" y1="211.18" x2="305.02" y2="197.09"/>
</svg>