<?xml version="1.0" encoding="UTF-8"?>
<svg id="Layer_1" data-name="Layer 1" xmlns="http://www.w3.org/2000/svg" viewBox="0 0 380 380">
  <defs>
    <style>
      .cls-1 {
        fill: none;
        stroke: #000;
        stroke-linecap: round;
        stroke-linejoin: round;
        stroke-width: 4px;
      }
    </style>
  </defs>
  <path class="cls-1" d="M57.53,160.81s-7.38-5.78-7.38-5.78c3.63-5.3,10.96-6.2,16.85-5.48,7.1.86,11.39,4.36,16.96,8.31,9.42,6.69,21,10.99,32.31,13.21,14.76,5.46,64.83-6.42,64.83-6.42,11.23,0,106.56-27.28,106.56-27.28,24.39-6.1,40.44-1.93,40.44-1.93,23.83,8.12,35.78,16.35,41.68,21.99,3.67,3.52,4.12,9.24,1.03,13.28-11.29,14.74-23.07,24.91-40.52,31.12-14.96,5.33-30.67,8.56-46.31,11.12-12.49,2.05-25.09,3.68-37.71,4.64"/>
  <path class="cls-1" d="M165.92,224.36s3.66,4.51,22.28,1.94"/>
  <line class="cls-1" x1="89.35" y1="181.71" x2="124.61" y2="207.68"/>
  <polyline class="cls-1" points="60.78 149.6 69.09 125.83 82.89 125.83 106.48 168.52"/>
  <polygon class="cls-1" points="32.18 204.14 7.15 194.51 60.78 160.49 75.51 160.49 102.79 175.22 32.18 204.14"/>
  <line class="cls-1" x1="69.09" y1="125.83" x2="76.63" y2="152.56"/>
  <line class="cls-1" x1="7.15" y1="194.51" x2="75.51" y2="160.49"/>
  <path class="cls-1" d="M252.69,147.18l-22.16-49.59s13.8-6.42,24.39,2.25l27.92,38.36"/>
  <path class="cls-1" d="M282.84,189.05l-60.34,9.63-101.74,82.48s28.37,9.63,45.16-2.89l116.92-89.22Z"/>
  <path class="cls-1" d="M126.1,276.84s8.01,3.02,18.97,1.87c7.93-.83,15.44-3.97,21.75-8.83l102.07-78.6"/>
  <path class="cls-1" d="M236.9,95.72s7.11-1.03,14.81,8.92l25.03,34.55"/>
  <ellipse class="cls-1" cx="166.67" cy="211.84" rx="10.7" ry="12.52" transform="translate(-71.29 85.24) rotate(-23.79)"/>
  <path class="cls-1" d="M160.87,200.23l-49.99,10.61c-2.64.6-3.51,3.94-1.49,5.73,5.05,4.46,19.47,9.7,57.15,8.8"/>
  <path class="cls-1" d="M150.66,170.46l-5.17-4.56c-1.38-1.22-.86-3.49.92-3.97,7.48-2.03,23.29-6.29,32.44-8.53,3.35-.82,6.87-.88,10.21-.03,4.11,1.05,8.05,3.47,4.96,9.02"/>
  <path class="cls-1" d="M155.65,208.31s9.84-6.16,14.27,3.53c0,0,4.54,13.01-11.4,7.15"/>
  <path class="cls-1" d="M339.72,139.79s-15.07,16.85-23.72,23.17c-2.41,1.76-1.67,5.52,1.21,6.3,2.89.77,7.1.91,13.13-.72,0,0,15.11-5.89,22.16-22.85"/>
  <path class="cls-1" d="M175.3,220.51s15.25-.64,23.85-2.89"/>
  <path class="cls-1" d="M254.6,211.84s69.31-7.68,104.3-43.31c4.02-4.09,5.7-9.33,6.26-14.99"/>
  <circle class="cls-1" cx="177.37" cy="192.59" r="5.08"/>
  <circle class="cls-1" cx="194.37" cy="190.65" r="5.08"/>
  <circle class="cls-1" cx="210.74" cy="188.72" r="5.08"/>
  <circle class="cls-1" cx="227.11" cy="186.16" r="5.08"/>
  <circle class="cls-1" cx="243.17" cy="182.94" r="5.08"/>
  <circle class="cls-1" cx="259.32" cy="179.97" r="5.08"/>
  <circle class="cls-1" cx="275.47" cy="177" r="5.08"/>
  <circle class="cls-1" cx="291.62" cy="174.03" r="5.08"/>
</svg>