<?xml version="1.0" encoding="UTF-8"?>
<svg id="Layer_1" data-name="Layer 1" xmlns="http://www.w3.org/2000/svg" viewBox="0 0 380 380">
  <defs>
    <style>
      .cls-1 {
        fill: none;
        stroke: #000;
        stroke-linecap: round;
        stroke-linejoin: round;
        stroke-width: 4px;
      }
    </style>
  </defs>
  <line class="cls-1" x1="247.23" y1="263.86" x2="126.97" y2="263.86"/>
  <path class="cls-1" d="M60.25,263.86H27.58c-6.98,0-12.63-5.65-12.63-12.63V114.5c0-6.98,5.65-12.63,12.63-12.63h226.73c9.12,0,17.46,5.15,21.55,13.3l24.32,48.45c2.54,5.06,7.17,8.74,12.67,10.07,15.88,3.84,48.63,14.19,51.33,34.71l.86,43.24c.13,6.71-5.27,12.22-11.98,12.22h-38.03"/>
  <path class="cls-1" d="M202.2,101.87v-13.73c0-4.09,3.32-7.41,7.41-7.41h27.73c4.09,0,7.41,3.32,7.41,7.41v13.73"/>
  <path class="cls-1" d="M150.31,263.86V126.98c0-3.71,3.01-6.72,6.72-6.72h35.14c3.71,0,6.72,3.01,6.72,6.72v136.87"/>
  <path class="cls-1" d="M327.4,177.91v8.8c0,9.86-7.99,17.85-17.85,17.85l-294.6.47"/>
  <path class="cls-1" d="M363.58,205.44s-28.49-4.73-27.39,17.51H14.95"/>
  <path class="cls-1" d="M364.12,237.26s-30.16,3.66-27.93-14.31"/>
  <polyline class="cls-1" points="363.58 213.98 355.4 213.98 355.4 237.26"/>
  <line class="cls-1" x1="355.4" y1="226.52" x2="364.54" y2="226.34"/>
  <circle class="cls-1" cx="93.75" cy="266.05" r="33.22"/>
  <circle class="cls-1" cx="93.75" cy="266.05" r="11.63"/>
  <circle class="cls-1" cx="281.55" cy="266.05" r="33.22"/>
  <circle class="cls-1" cx="281.55" cy="266.05" r="11.63"/>
  <circle class="cls-1" cx="164.59" cy="177.91" r="4.91"/>
  <line class="cls-1" x1="190.08" y1="177.91" x2="169.5" y2="177.91"/>
  <line class="cls-1" x1="188.04" y1="135.09" x2="188.04" y2="160.35"/>
  <path class="cls-1" d="M221.36,123.96h32.17c5.13,0,9.8,2.96,11.99,7.59l15.75,33.3c2.13,4.51-1.11,9.71-6.09,9.78l-53.69.82c-4.33.07-7.88-3.43-7.88-7.76v-35.98c0-4.28,3.47-7.76,7.76-7.76Z"/>
  <g>
    <path class="cls-1" d="M88.12,162.37v11.71c0,4.85-3.93,8.79-8.79,8.79h0c-4.85,0-8.79-3.93-8.79-8.79v-11.71"/>
    <path class="cls-1" d="M70.54,162.37h-11.71c-4.85,0-8.79-3.93-8.79-8.79h0c0-4.85,3.93-8.79,8.79-8.79h11.71s0-11.71,0-11.71c0-4.85,3.93-8.79,8.79-8.79h0c4.85,0,8.79,3.93,8.79,8.79v11.71h11.71c4.85,0,8.79,3.93,8.79,8.79h0c0,4.85-3.93,8.79-8.79,8.79h-11.71"/>
  </g>
</svg>