<?xml version="1.0" encoding="UTF-8"?>
<svg id="Layer_1" data-name="Layer 1" xmlns="http://www.w3.org/2000/svg" viewBox="0 0 380 380">
  <defs>
    <style>
      .cls-1 {
        stroke-linecap: round;
        stroke-linejoin: round;
      }

      .cls-1, .cls-2 {
        fill: none;
        stroke: #000;
        stroke-width: 4px;
      }

      .cls-2 {
        stroke-miterlimit: 10;
      }
    </style>
  </defs>
  <path class="cls-2" d="M265.95,153.94c4.22,4.1,4.22,10.88,0,14.98-7.96,7.75-21.47,18.72-34.13,18.72-19.57,0-35.43-11.74-35.43-26.21s15.86-26.21,35.43-26.21c12.66,0,26.17,10.97,34.13,18.72Z"/>
  <path class="cls-2" d="M198,169.92c6.24,14.31-9.89,34.29-46.39,33.2-7.28,7.94-16.91,10.83-21.66,1.93-1.37-2.56-2.22-5.37-2.57-8.26-1.3-10.73,1.65-13.33,16.32-16.02,18.25-24.25,48.05-25.15,54.29-10.85Z"/>
  <ellipse class="cls-2" cx="72.99" cy="215.2" rx="56.23" ry="34.68" transform="translate(-50.68 24.56) rotate(-14.24)"/>
  <ellipse class="cls-2" cx="137.58" cy="157.32" rx="4.85" ry="21.5" transform="translate(-54.05 73.91) rotate(-25.31)"/>
  <ellipse class="cls-2" cx="108.78" cy="167.91" rx="4.1" ry="27.07" transform="translate(-89.78 143.4) rotate(-50.03)"/>
  <path class="cls-1" d="M167.83,162.7s2.36-25.83,12.78-31.51c.59-.32,1.33,0,1.47.66.68,3.03,1.5,12.07-6.27,28.98"/>
  <path class="cls-1" d="M149.68,205.06c-1.25,3.48-2.66,6.92-4.2,10.28-1.22,2.65-2.53,5.28-4.08,7.76-2.58,4.13-6.08,7.72-8.8,11.81-2.47,3.71-5.25,7.74-6.47,12.07,0,0,20.11-3.46,26.39-21.48,0,0,3-9.84,1.91-22.35"/>
  <path class="cls-1" d="M166.19,202.34s1.23,12.88,12.31,22.16c0,0,7.25,7.37,20.27,9.28,0,0-5.36-16.65-32.58-31.44Z"/>
  <path class="cls-1" d="M183.51,197.1s9.88,14.21,42.37,5.24c0,0-4.91-9.61-40.36-6.33"/>
  <path class="cls-1" d="M225.57,201.89s20.25,41.9,39.27,31.07"/>
  <path class="cls-1" d="M198.76,233.78s14.47,36.4,30.22,35.95"/>
  <path class="cls-1" d="M126.13,246.98s-3.09,2.82-4.82,37.86c0,0-1.09,26.58-16.38,25.94"/>
  <path class="cls-1" d="M88.04,150.52s-4.13-.83-10.14,10.91l-11.98,19.8"/>
  <path class="cls-1" d="M180.62,131.19s-.86-4.12,18.14,1.03c0,0,18.11,7.37,25.21-7.92"/>
  <ellipse class="cls-1" cx="337.28" cy="73.51" rx="13.11" ry="3" transform="translate(-7.77 83.53) rotate(-13.96)"/>
  <ellipse class="cls-1" cx="350.02" cy="146.88" rx="3" ry="13.11" transform="translate(80.73 414.41) rotate(-67.58)"/>
  <path class="cls-1" d="M324.56,76.67c-7.65,2.07-15.25,4.37-22.79,6.82-12.95,4.2-26.15,8.65-38.14,15.18-12.68,6.91-19.72,18.35-25.31,31.28-.81,1.86-1.57,3.75-2.31,5.64"/>
  <path class="cls-1" d="M337.9,141.88c-9.37-3.85-18.94-7.28-28.62-10.26-9.67-2.98-19.69-6.42-29.95-5.92-4.82.24-9.76,1.97-14.22,3.7-8.76,3.39-17.86,8.75-22.17,17.47"/>
  <path class="cls-2" d="M64.46,181.59s-8.13,51.39,17.06,67.22"/>
  <path class="cls-2" d="M46.08,188.47s-5.48,46.32,17.13,63.29"/>
  <path class="cls-2" d="M28.93,200.32s-3.1,33.89,12.15,48.49"/>
</svg>