<?xml version="1.0" encoding="UTF-8"?>
<svg id="Layer_1" data-name="Layer 1" xmlns="http://www.w3.org/2000/svg" viewBox="0 0 380 380">
  <defs>
    <style>
      .cls-1 {
        fill: none;
        stroke: #000;
        stroke-linecap: round;
        stroke-linejoin: round;
        stroke-width: 4px;
      }
    </style>
  </defs>
  <path class="cls-1" d="M159.42,127.69v-54.25c0-1.77.8-3.45,2.17-4.58l3.24-2.65c2.32-1.9,5.8-.25,5.8,2.75v58.74"/>
  <path class="cls-1" d="M184.55,122.94s-23.09,14.94-46.53-3.4"/>
  <path class="cls-1" d="M159.42,90.33s-99.51-9.51-116.15,73.7c-7.23,36.13-4.1,76.42,11.35,109.99,21.61,46.96,64.68,74.25,116.01,75.11,12.22.62,24.68.05,36.79-1.6,8.9-1.21,18.38-2.91,26.44-7.06,21.29-10.95,38.49-35.71,49.15-56.71,14.29-28.15,20.56-59.78,21.09-91.2,0,0,2.72-40.08-32.94-76.42"/>
  <path class="cls-1" d="M170.63,104.6s10.19-20.03,18-19.36c10.2.88,18.3,13.66,27.08,19.17,13.2,8.29,28.66,12.4,44.24,11.73,14.89-1.33,28.87-6.32,43.76-7.52,11.06-.89,26.25-3.35,36.73,1.41,0,0-26.49-50.26-50.6-65.89,0,0-42.11-31.92-79.81,2.38,0,0-23.09,22.42-39.4,46.53"/>
  <path class="cls-1" d="M194.38,77.11c38.64-23.81,83.48-19.31,121.6,5.15,7.66,4.92,14.94,11.06,19.56,19.02"/>
</svg>