<?xml version="1.0" encoding="UTF-8"?>
<svg id="Layer_1" data-name="Layer 1" xmlns="http://www.w3.org/2000/svg" viewBox="0 0 380 380">
  <defs>
    <style>
      .cls-1 {
        fill: none;
        stroke: #000;
        stroke-linecap: round;
        stroke-linejoin: round;
        stroke-width: 4px;
      }
    </style>
  </defs>
  <path class="cls-1" d="M55.64,113.39s-1.53-68.26,50.43-79.98"/>
  <path class="cls-1" d="M171.79,33.4s52.98,14.26,49.42,79.98"/>
  <rect class="cls-1" x="42.4" y="113.39" width="192.57" height="23.43" rx="7.9" ry="7.9"/>
  <path class="cls-1" d="M113.21,113.39l-6.24-85.99c-.48-6.66,4.79-12.33,11.47-12.33h41.06c6.65,0,11.92,5.63,11.47,12.27l-5.8,86.05"/>
  <path class="cls-1" d="M192.72,136.82v24.83c0,2.99,5.42,4.7,7.81,2.91l5.49-7.87c-1.6,65.17-40.55,84.91-59.4,90.39-5.65,1.64-11.6,1.93-17.38.82-57.16-11.02-60.86-91.21-60.86-91.21l9.01,6.52c2.4,1.74,5.77.02,5.77-2.94v-23.45"/>
  <path class="cls-1" d="M68.38,156.69s-13.25,4.08-12.74,15.79c0,0-5.26,18.21,19.28,18.53"/>
  <path class="cls-1" d="M208,156.69s13.25,4.08,12.74,15.79c0,0,5.26,18.21-19.28,18.53"/>
  <path class="cls-1" d="M55.64,136.82s-6.11,103.92-6.11,114.62c0,0-1.02,16.81,12.74,28.02"/>
  <path class="cls-1" d="M221.84,136.82s6.11,103.92,6.11,114.62c0,0,1.02,16.81-12.74,28.02"/>
  <path class="cls-1" d="M106.08,255.45s-2.55-1.97-13.25,11.79l-15.79,40.25,19.87,11.21-10.19,12.74,41.77,30.57-26.75-127.15"/>
  <path class="cls-1" d="M172.24,254.38s10.25,4.7,11.27,7.76l16.81,41.93-18.34,12.07,9.51,13.75-41.6,32.09,27.07-130.32"/>
  <path class="cls-1" d="M92.83,267.23s-69.79,18.17-68.26,67.92v17.59c-.02,6.77,5.5,12.24,12.27,12.18l312.25-2.81c5.69-.05,8.5-6.92,4.49-10.95l-107.95-108.21c-3.04-3.05-8.26-.95-8.34,3.35l-2.32,115.67"/>
  <path class="cls-1" d="M185.2,266.35s48.74,16.88,51.04,32.06"/>
  <path class="cls-1" d="M110.51,276.54s27.49,12.36,57.12,0"/>
  <line class="cls-1" x1="65.04" y1="335.16" x2="65.04" y2="361.99"/>
  <line class="cls-1" x1="215.34" y1="335.16" x2="215.34" y2="363.35"/>
  <path class="cls-1" d="M260.94,302.12v33.17c0,1.29,1.05,2.34,2.34,2.34h36.45c2.14,0,3.15-2.63,1.57-4.07l-36.45-33.17c-1.5-1.37-3.91-.3-3.91,1.73Z"/>
  <line class="cls-1" x1="236.72" y1="274.35" x2="248.72" y2="274.35"/>
  <line class="cls-1" x1="236.72" y1="296.83" x2="248.72" y2="296.83"/>
  <line class="cls-1" x1="236.72" y1="317.3" x2="248.72" y2="317.3"/>
  <line class="cls-1" x1="236.72" y1="338.78" x2="248.72" y2="338.78"/>
  <path class="cls-1" d="M309.85,88.42l-21.4,39.23v121.83c0,2.83.66,5.62,1.99,8.11,2.75,5.13,8.63,12.7,19.4,12.7,0,0,11.23.66,19.06-8.12,3.2-3.59,4.89-8.29,4.89-13.1v-121.93s-23.94-38.72-23.94-38.72Z"/>
  <path class="cls-1" d="M302.65,101.63s5.69,5.06,15.37,0"/>
  <line class="cls-1" x1="288.45" y1="127.65" x2="333.79" y2="127.14"/>
  <line class="cls-1" x1="288.45" y1="231.67" x2="333.79" y2="231.67"/>
</svg>