<?xml version="1.0" encoding="UTF-8"?>
<svg id="Layer_1" data-name="Layer 1" xmlns="http://www.w3.org/2000/svg" viewBox="0 0 380 380">
  <defs>
    <style>
      .cls-1 {
        fill: none;
        stroke: #000;
        stroke-linecap: round;
        stroke-linejoin: round;
        stroke-width: 4px;
      }
    </style>
  </defs>
  <circle class="cls-1" cx="188.63" cy="119.58" r="107.89"/>
  <ellipse class="cls-1" cx="189.24" cy="133.67" rx="75.3" ry="62.56"/>
  <path class="cls-1" d="M118.89,201.89s-95.45,27.04-85.23,155.06c.51,6.4,5.82,11.36,12.24,11.36h287.81c6.26,0,11.52-4.7,12.2-10.92,3.53-32.5,5.52-128.02-87.54-155.49"/>
  <line class="cls-1" x1="188.63" y1="227.47" x2="188.63" y2="368.3"/>
  <line class="cls-1" x1="91.72" y1="313.39" x2="91.72" y2="368.3"/>
  <line class="cls-1" x1="286.43" y1="313.39" x2="286.43" y2="368.3"/>
  <circle class="cls-1" cx="127.67" cy="269.45" r="21.47"/>
  <rect class="cls-1" x="208.55" y="247.99" width="81.88" height="42.94" rx="10.44" ry="10.44"/>
  <line class="cls-1" x1="230.51" y1="261.13" x2="267.79" y2="261.13"/>
  <line class="cls-1" x1="230.85" y1="277.44" x2="268.12" y2="277.44"/>
  <path class="cls-1" d="M193.24,94.72s37.28,2,37.61,31.29"/>
  <path class="cls-1" d="M83.62,94.72h-17.19c-10.85,0-19.64,8.79-19.64,19.64,0,17.16.63,34.47-.1,51.6-.2,4.82,3.57,7.26,6.76,10.31v77.98"/>
  <path class="cls-1" d="M293.63,94.72h23.25c8.55,0,15.48,6.93,15.48,15.48v48.31c0,2.05.27,4.31,0,6.34-.52,3.95-4.17,6.79-6.66,9.63l.2,76.84"/>
</svg>