<?xml version="1.0" encoding="UTF-8"?>
<svg id="Layer_1" data-name="Layer 1" xmlns="http://www.w3.org/2000/svg" viewBox="0 0 380 380">
  <defs>
    <style>
      .cls-1 {
        fill: none;
        stroke: #000;
        stroke-linecap: round;
        stroke-linejoin: round;
        stroke-width: 4px;
      }
    </style>
  </defs>
  <path class="cls-1" d="M100.53,76.18c90.05-15.17,113.14,34.51,113.14,34.51,20.45,24.29,19.13,106.33,19.13,106.33,34.96-7.59,63.66-21.44,63.66-21.44.66-44.53-14.18-93.35-14.18-93.35-18.14-45.85-78.83-50.47-78.83-50.47-81.47-4.95-102.91,24.41-102.91,24.41-13,3.78-21.43,13.17-26.75,22.24-5.1,8.7-8.02,18.5-8.83,28.55l-4.34,54.11c-22.43,9.9-16.16,105.22-16.16,105.22,0,21.77,22.1,29.69,22.1,29.69,50.8,19.13,128.09,20.78,128.09,20.78,21.88.33,23.64-27.38,23.64-27.38,0,0,4.29-85.1-15.5-104.56,0,0-6.27-11.21-38.26-16.49l-87.41-9.9s-10.35-1.45-16.49,2.64"/>
  <path class="cls-1" d="M45.51,219.97s64.92,35.32,153.98,20.81"/>
  <path class="cls-1" d="M172.44,243.79l-5.4,26.39c-.57,2.77-.32,5.64.72,8.27l.52,1.32c1.55,3.92,7,4.16,8.88.39l.69-1.39c1.2-2.41,1.69-5.1,1.41-7.78l-2.87-27.2"/>
  <path class="cls-1" d="M44.74,227.88s53.88,24.59,126.41,22.21"/>
  <path class="cls-1" d="M177.08,250.25s17.13-2.55,22.41-3.87"/>
  <path class="cls-1" d="M50.98,193.99s-.21-3.99,15.25-3.99c0,0,79.89,7.24,104.92,13.17,0,0,27.02,6.6,28.33,27.38l4.62,85.43s3.3,20.13-12.2,20.78"/>
  <rect class="cls-1" x="120" y="114.45" width="37.6" height="27.38" rx="9.97" ry="9.97" transform="translate(14.51 -14.12) rotate(6.14)"/>
  <path class="cls-1" d="M210.72,355.56s62.33-7.26,91.36-25.07c0,0,5.66-2.61,7.78-15.27.85-5.06.82-10.22.08-15.3-2.83-19.22-13.1-89.83-13.47-104.34"/>
  <path class="cls-1" d="M157.24,52.91s2.33-21.88,29.38-28.51c0,0,28.7-6.45,46.51,14.25,0,0,9.49,12.26,11.01,24.73"/>
  <path class="cls-1" d="M168.48,51.21s-.72-12.1,10.78-17.48c3.44-1.61,7.29-2.18,11.08-1.83,9.98.91,35.16,5.19,38.25,25.25"/>
  <path class="cls-1" d="M200.7,23.45s17.38,6.14,23.59,23.34"/>
  <path class="cls-1" d="M244.15,57.89s24.28-23.27,50.34-19.97c0,0,28.37-.66,34.63,40.57l6.93,117.1s.33,13.52-10.56,12.86c0,0-5.61.45-9.8-6.99-1.57-2.78-2.41-5.91-2.61-9.1-1.16-18.55-7.09-111.04-10.35-118.16,0,0-6.7-14.14-12.63-14.14"/>
  <path class="cls-1" d="M266.16,78.46s31.4-31.11,52.46-27.25"/>
  <path class="cls-1" d="M325.49,208.45s-9.24,0-8.58,6.6c0,0-3.3,10.23,8.58,8.25l6.6.25s3.3,2.05,3.96-6.19c0,0,2.37-9.62-6.27-8.88l-4.29-.02Z"/>
  <path class="cls-1" d="M303.91,257.9s15.27.74,17.6-34.41"/>
  <path class="cls-1" d="M307.44,282.85s28.93-9.77,26.29-59.07"/>
  <rect class="cls-1" x="55.52" y="285.85" width="29.36" height="20.56" rx="10.28" ry="10.28" transform="translate(44.79 -7.14) rotate(8.55)"/>
  <path class="cls-1" d="M50.76,305.76s-1.35,23.42,26.68,31.01l116.77,19.25c7.28,1.2,14.8.42,21.56-2.55,5.6-2.46,11.54-6.68,15.85-13.91,3.57-6,5.18-12.96,4.92-19.94l-3.74-102.59"/>
  <path class="cls-1" d="M126.6,60.07s37.64,1.38,72.09,13.21c16.28,5.59,30.73,15.66,41,29.47,1.34,1.81,2.65,3.71,3.88,5.71,4.53,7.35,7.4,15.6,8.59,24.15,1.73,12.33,5.26,40.67,7.08,77.31"/>
  <path class="cls-1" d="M140.7,55.94s37.64,1.38,72.09,13.21c16.28,5.59,30.73,15.66,41,29.47,1.34,1.81,2.65,3.71,3.88,5.71,4.53,7.35,7.4,15.6,8.59,24.15,1.73,12.33,5.26,40.02,7.08,76.66"/>
</svg>