<?xml version="1.0" encoding="UTF-8"?>
<svg id="Layer_1" data-name="Layer 1" xmlns="http://www.w3.org/2000/svg" viewBox="0 0 380 380">
  <defs>
    <style>
      .cls-1 {
        fill: none;
        stroke: #000;
        stroke-linecap: round;
        stroke-linejoin: round;
        stroke-width: 4px;
      }
    </style>
  </defs>
  <path class="cls-1" d="M52.28,120.66c2.7-2.86,4.36-6.55,4.69-10.47,1.25-14.69,5.26-50.22,14.54-47.57,11.67,3.33,20.84,1.25,22.5,7.92,0,0,8.33-2.5,12.5,1.67.7,3.35,1.43,6.68,2.18,10.02,1.29,5.71,1.02,11.76,5.63,15.93,1.99,1.8,4.15,3.45,6.29,5.07,7.49,5.65,15.55,10.58,23.98,14.7,25.59,12.51,54.66,16.93,82.53,10.2,20-4.83,38.35-14.89,54.43-27.58,11.81-9.31,22.2-19.62,35.71-26.73,6.89-3.63,15.5-7.42,23.47-5.73,7.15,1.51,13.01,9.3,13.29,16.47.37,9.5-3.96,19.92-6.92,28.85-3.14,9.49-7.22,18.8-13.14,26.91-2.57,3.53-5.54,6.82-9.08,9.4,2.15-1.57,10.71,3.92,12.18,5.12,8.3,6.75,6.79,17.64,2.88,26.46-1.88,4.24-5.15,7.68-6.83,12.03-.66,1.69-1.1,3.38-1.89,5.03-1.81,3.79-4.19,7.3-6.82,10.57-10.1,12.51-24.19,21.48-38.59,28.27l-.1.05s27.5,17.5-.83,39.17c0,0-99.18,92.52-215.04,0,0,0-85.76-83.35-17.57-155.74Z"/>
  <path class="cls-1" d="M60.35,89.57s6.58,5.97,19.92,12.64c0,0,12.09-3.33,13.75-31.67"/>
  <path class="cls-1" d="M92.59,81.92s11.05,2.13,15.2-3.79"/>
  <path class="cls-1" d="M77.19,102.21s-1.83,12.5,0,20c0,0,10.23,29.49,12.03,42.19.3,2.09.75,4.15,1.39,6.16,4.91,15.64,27.14,69.95,99.41,72.09,0,0,28.82.37,39.97-1.99,2.36-.5,4.74-.84,7.13-1.1,10.78-1.18,35.76-3.61,48.61-2.33"/>
  <path class="cls-1" d="M283.64,246.4c-94.18,39.17-157.53,12.5-157.53,12.5-64.6-20-59.59-132.11-59.59-132.11"/>
  <path class="cls-1" d="M283.64,237.06s-4.42,9.5,13.83,21.92"/>
  <path class="cls-1" d="M80.27,102.21s4.59,16.49.42,30.54"/>
  <path class="cls-1" d="M94.02,84.7s0,105.85,103.35,117.52c9.44,1.07,19.05.97,28.5,0,20.97-2.15,39.51-12.06,58.73-19.9,15.16-6.19,30.56-12.12,45.3-19.27"/>
  <path class="cls-1" d="M100.19,82.29s9.99,73.7,74.84,90.15c0,0,37.76,12.28,94.85-9.8,0,0,32.92-12.5,55.01-12.92,0,0,5,5.42,5,13.34,0,0,13.02,2.97,8.8,20.86"/>
  <path class="cls-1" d="M339.54,75.95c-20.88,26.81-45.94,51.91-76.47,67.55-14.22,7.28-30.53,13.15-46.73,13.08-17.12-.08-35.47-4.41-51.55-10.1-11.68-4.14-22.96-9.78-32.67-17.55-11.92-9.55-21.3-22.48-25-37.43-.91-3.67-1.56-7.49-1.51-11.29"/>
  <path class="cls-1" d="M337.78,67.73s1.85,7.06,3.52,8.22c0,0,10.13,1.05,12.08,13.44"/>
</svg>