<?xml version="1.0" encoding="UTF-8"?>
<svg id="Layer_1" data-name="Layer 1" xmlns="http://www.w3.org/2000/svg" viewBox="0 0 380 380">
  <defs>
    <style>
      .cls-1 {
        fill: none;
        stroke: #000;
        stroke-linecap: round;
        stroke-linejoin: round;
        stroke-width: 4px;
      }
    </style>
  </defs>
  <path class="cls-1" d="M83.3,124.41v-46.49c0-1.52-.2-2.73.41-4.24,1.6-3.98,5.89-6.19,9.71-7.51,6.83-2.36,14.04-2.43,21.17-2.8,7.8-.4,15.6-.73,23.4-1.04,11.37-.45,22.75-.83,34.13-1.11,12.72-.31,25.44-.51,38.17-.53,12.22-.01,24.44.14,36.65.65,9.92.42,19.73,1.33,29.59,2.42,5.08.56,9.53.83,13.4,4.52,4.39,4.19,5.64,10.53,5.64,16.37v39.77"/>
  <path class="cls-1" d="M68.74,144.58l10.22-18.41c.61-1.09,1.76-1.77,3-1.77h15.34"/>
  <line class="cls-1" x1="179.04" y1="120.49" x2="199.22" y2="120.49"/>
  <path class="cls-1" d="M281.54,124.41h16.58c1.18,0,2.26.67,2.79,1.72l9.22,18.45"/>
  <path class="cls-1" d="M127.52,87.66c-7.97-.81-15.92-1.37-23.87.63-1.22.31-2.42.69-3.56,1.23-1.72.82-2.62,2.73-2.21,4.59.69,3.13,1.35,6.27,1.9,9.43.64,3.64,1.43,6.69.28,10.3-.66,2.07-1.18,4.22-1.48,6.38-.61,4.41-.36,10.56,5.15,11.39.28.04.56.07.84.08,2.39.12,5.14-.66,7.52-.91,5.74-.61,11.51-1.05,17.28-1.24,5.69-.18,11.43-.17,17.08.55,2.4.31,4.7.83,7.02,1.47,5.51,1.51,13.08.33,18.26-1.93,2.5-1.09,4.81-2.8,6-5.32,1.83-3.86.13-7.34-.38-11.22-.55-4.18-.51-8.73-.2-12.93.16-2.19.48-4.38,1.1-6.49.6-2.04.01-2.89-1.86-3.97-5.48-3.14-12.09-3.09-18.09-2.08-2.94.49-5.9.87-8.87,1.11-7.32.61-14.62-.34-21.91-1.08Z"/>
  <path class="cls-1" d="M54.11,164.31l9.11-18.21c.3-.6.89-.99,1.56-1.04,10.9-.74,21.8-1.46,32.7-2.16,18.07-1.16,36.15-2.27,54.24-3.26,14.29-.78,28.68-1.86,43-1.78,17.68.1,35.53,1.92,53.18,2.96,19.01,1.12,38.02,2.23,57.01,3.61,2.76.2,5.27.39,8.19.63.61.05,1.15.39,1.46.91l11.08,18.47c.78,1.31-.22,2.96-1.74,2.86-14.9-1.01-29.8-1.96-44.7-2.86-20.71-1.25-41.43-2.44-62.17-3.28-18.51-.75-36.85-.33-55.34.32-17.66.62-35.32,1.3-52.97,2.13-16.12.75-32.3,1.42-48.37,2.97-1.44.14-2.89.29-4.33.46-1.49.18-2.59-1.37-1.91-2.72Z"/>
  <path class="cls-1" d="M57.21,166.89l-35.53,58.04c-1.46,2.39-2.24,5.14-2.24,7.94v37.72h341.1v-39.23c0-2.91-.84-5.76-2.41-8.21l-35.69-55.61"/>
  <polyline class="cls-1" points="19.45 270.59 22.81 289.07 356.99 289.07 360 271.9"/>
  <polyline class="cls-1" points="22.81 289.07 22.81 301.95 356.99 301.95 356.99 289.07"/>
  <polyline class="cls-1" points="22.81 301.95 25.05 319.32 41.85 319.32 41.85 302.54"/>
  <polyline class="cls-1" points="337.61 301.95 337.61 319.32 353.26 319.32 356.55 301.95"/>
  <line class="cls-1" x1="22.81" y1="228.58" x2="41.85" y2="228.58"/>
  <path class="cls-1" d="M99.54,228.58s59.43-5.43,87.61-2.39c.93.1,1.85.14,2.78.12,10.78-.21,76.46-1.33,88.28,2.27"/>
  <line class="cls-1" x1="345.15" y1="226.93" x2="356.99" y2="228.58"/>
  <path class="cls-1" d="M211.56,86.95c-.72-.07-1.44-.08-2.16.07-1.91.38-3.66,1.42-5.29,2.43-1.72,1.07-3.19,2.58-3.83,4.54-1.09,3.37.68,6.94.59,10.33-.11,4.29-.14,8.58-.35,12.87-.12,2.46-.75,5.16-.61,7.59.05.84.27,1.43.8,2.1,3.35,4.24,11.29,4.69,16.12,4.92,7.1.34,14.18-1.54,21.28-1.78,3.5-.12,7-.07,10.49.2,1.78.14,3.55.34,5.32.6,2.92.44,5.38,1.12,8.37,1.01,4.54-.16,9.38-.76,13.54-2.71,1.91-.89,3.79-2.17,4.79-4.09,1.55-2.99-.08-6.15-.64-9.17-.43-2.28-.77-4.59-.98-6.9-.26-2.78-.65-5.61-.26-8.4.21-1.47.65-2.84,1.38-4.13,1.19-2.09.62-3.17-1.17-4.57-1.32-1.03-2.83-1.87-4.34-2.57-3-1.38-6.31-2.02-9.59-2.25-6.8-.47-13.75,0-20.56,0-5.65,0-11.3-.38-16.94-.01-4.14.27-8.3.76-12.46.39-1.17-.1-2.32-.39-3.48-.51Z"/>
</svg>