<?xml version="1.0" encoding="UTF-8"?>
<svg id="Layer_1" data-name="Layer 1" xmlns="http://www.w3.org/2000/svg" viewBox="0 0 380 380">
  <defs>
    <style>
      .cls-1 {
        fill: none;
        stroke: #000;
        stroke-linecap: round;
        stroke-linejoin: round;
        stroke-width: 4px;
      }
    </style>
  </defs>
  <path class="cls-1" d="M206.66,112.57c21.4-9.43,12.69-24.3,12.69-24.3-8.7-17.77-29.79-17.04-29.79-17.04-22.17-.36-30.05,17.77-30.05,17.77-5.44,15.23,12.33,23.57,12.33,23.57"/>
  <path class="cls-1" d="M173.51,112.57s-10.62,1.09-15.03,17.04c0,0-7.31,14.51-1.87,27.56,0,0,12.95,30.82,32.95,32.64,0,0,27.25-6.16,34.5-35.18,0,0,1.81-42.43-22.48-42.07h-28.07Z"/>
  <path class="cls-1" d="M199.81,72.68s16.15-38.15,55.96-44.44"/>
  <path class="cls-1" d="M121.84,27.27s40.81,4.43,56.91,45.41"/>
  <path class="cls-1" d="M221.1,130.43s20.01-21.13,26.13-13.07c0,0,5.8,4.35-.81,9.67l-23.48,11.43"/>
  <path class="cls-1" d="M158.67,128.95s-18.62-18.19-25.06-12.23c0,0-5.96,5.09-.81,10.28l22.71,11.47"/>
  <path class="cls-1" d="M243.52,115.52s10.96-37.32,21.76-32.97c0,0,6.93,2.58,3.22,11.6,0,0-6.09,16.28-18.92,24.82"/>
  <path class="cls-1" d="M137.47,114.79c-3.82-9.48-8-19.24-13.75-27.73-1.27-1.87-2.76-4.18-4.76-5.37-2.49-1.48-5.47,1.01-6.89,3.02-1.74,2.47-1.52,5.72-.72,8.49,0,0,4.06,13.87,20,26.52"/>
  <path class="cls-1" d="M265.28,82.55s9.99-11.44,22.24-17.57c0,0,4.51-2.1,3.22-5"/>
  <path class="cls-1" d="M113.26,81.02c-2.89-7.12-11.94-12.99-18.75-15.93-2.67-1.15-5.46-1.08-6.03-4.63"/>
  <path class="cls-1" d="M166.42,173.94s-54.74,19.34-45.39,33.68c0,0,6.16,15.97,45.39-33.68Z"/>
  <path class="cls-1" d="M214.35,173.94s31.43,44.32,43.84,33.2c0,0,14.5-11.59-43.84-33.2Z"/>
  <path class="cls-1" d="M119.99,204.74s-34.9,24.47-24.26,37.37c0,0,10.36,12.25,27.67-32.39"/>
  <path class="cls-1" d="M259.3,205.61s34.18,22.81,24.35,36.83c0,0-16.64,8.49-27.1-34.2"/>
  <path class="cls-1" d="M95.73,242.11s-7.46,13.94-17.12,21.29c-1.05.8-2.19,1.44-3.4,1.98-2.09.94-5.81,3-5.11,5.58"/>
  <path class="cls-1" d="M172.7,181.09s-30.47,13.64-28.01,80.04c0,0,.36,19.02,7.29,25.63,0,0-1.13,11.44,9.67,22.73,2.74,11.39,7,23.34,13.73,32.98,4.35,6.24,12.71,13.52,20.59,8.7,4.07-2.49,6.99-6.74,9.36-10.76,5.55-9.43,9-20.11,11.93-30.6,0,0,7.9-2.26,10.96-22.24,0,0,5.88-2.1,7.13-27.08,0,0,2.26-60.96-26.85-80.69"/>
  <path class="cls-1" d="M158.06,195.75s-43.95,40.88-31.38,58.77c0,0,11.7,7.09,20.56-30.32"/>
  <path class="cls-1" d="M124.25,252.1s-22.72,36.26-8.54,43.68c0,0,14.66,7.38,14.98-41.04"/>
  <path class="cls-1" d="M115.72,295.78s-4.31,9.77-12.5,18.5c-.93.99-1.95,1.92-3.07,2.71-1.28.9-3.32,2.87-2.64,6.03"/>
  <path class="cls-1" d="M231.08,218.99c11.25,39.41,21.15,35.05,21.15,35.05,19.02-7.74-29.78-58.29-29.78-58.29"/>
  <path class="cls-1" d="M255.59,251.4s22.75,37.45,9.05,44.38c0,0-17.41,5.33-15.71-42.22"/>
  <path class="cls-1" d="M264.64,295.78s6.25,14.69,13.07,19.53c.25.18.51.33.78.48,1.25.72,5.43,3.32,5.02,5.93"/>
  <path class="cls-1" d="M283.66,242.43s8.22,14.51,19.99,22.4c0,0,6.61,3.22,6.29,6.12"/>
  <path class="cls-1" d="M224.09,152.02s19.11-3.06,48.44-21.76c0,0,54.15-30.78,88-12.89,0,0,24.34,16.44-2.42,37.71-3.92,2.01-7.8,4.1-11.64,6.26-3.91,2.2-8.05,4.2-11.4,7.23-3,2.72-4.82,6.42-7.14,9.7-4.2,5.95-10.27,14.7-18,16.13,0,0-19.53,7.13-38.94-2.4,0,0-36.98-14.1-51.33-25.91"/>
  <path class="cls-1" d="M155.25,152.78s-25.32-6.56-44.19-19.46c0,0-31.12-20.36-56.42-21.54,0,0-44.47-2.95-45.29,21.38-.32,9.62,6.39,17.71,13.74,23.17,5.78,4.3,12.83,6.51,18.59,10.75,5.16,3.81,9.31,9,12.64,14.43,0,0,12.57,23.05,48.83,12.57,0,0,36.75-12.89,57.38-26.92"/>
  <path class="cls-1" d="M161.65,309.48s28.37,19.5,55.6.32"/>
  <path class="cls-1" d="M156.61,157.17s-59.24,11.24-63.71-33.91"/>
  <path class="cls-1" d="M21.71,155.27s40.12-22.39,71.19,14.23c0,0,23.38,0,30.49,1.45,0,0,26.81-.45,35.27-9.47"/>
  <path class="cls-1" d="M43.47,112.57s7.4,30,23.39,38.62"/>
  <path class="cls-1" d="M76.83,155.73s17.77-13.07,26.66-9.26"/>
  <path class="cls-1" d="M56.46,182.52s19.51-15.19,36.44-13.01"/>
  <path class="cls-1" d="M103.14,194.08s-1.36-17.33,20.25-23.13"/>
  <path class="cls-1" d="M150.29,218.46s34.97,33.64,80.79.53"/>
  <path class="cls-1" d="M144.68,247.16s42.9,39.32,89.64.83"/>
  <path class="cls-1" d="M148.33,281.01s37,34.33,82.75,1.15"/>
  <path class="cls-1" d="M164.09,82.2c6.83.45,7.87,7,7.17,12.61-.77,6.16-3.02,12.67,2.25,17.76"/>
  <path class="cls-1" d="M216.04,83.02c-7.23-1.12-7.82,7.48-7.31,12.6.28,2.82,1.27,5.38,1.75,8.12.71,4.08-1.98,7.13-5.48,8.82"/>
  <path class="cls-1" d="M222.97,158.42s62.82,6.85,64.09-35.15"/>
  <path class="cls-1" d="M221.1,163.19s61.43,23.41,82.54-8.95c0,0,20.85-13,53.22,1.49"/>
  <path class="cls-1" d="M337.33,111.8s-10.6,36.31-28.82,40.2"/>
  <path class="cls-1" d="M276.69,146.32s22.44,1.6,26.95,7.92"/>
  <path class="cls-1" d="M281.79,169.3s31.04,1.31,41.03,14.17"/>
  <path class="cls-1" d="M252.03,170.58s20.27,6.26,24.66,22.86"/>
</svg>