<?xml version="1.0" encoding="UTF-8"?>
<svg id="Layer_1" data-name="Layer 1" xmlns="http://www.w3.org/2000/svg" viewBox="0 0 380 380">
  <defs>
    <style>
      .cls-1 {
        fill: none;
        stroke: #000;
        stroke-linecap: round;
        stroke-linejoin: round;
        stroke-width: 4px;
      }
    </style>
  </defs>
  <path class="cls-1" d="M233.58,73.1s26.35-.29,29.35,14.67c0,0,3.94,10.83-11.73,17.74-1.62.71-2.6,2.39-2.44,4.15.21,2.34.79,5.41,2.33,7.1"/>
  <path class="cls-1" d="M233.58,80.16s19.83-.29,21.46,9.23c0,0,3.73,5.83-8.46,10.79-2.99,1.22-5.07,4.05-5.2,7.28-.12,2.8.36,6.72,2.23,12.1"/>
  <polyline class="cls-1" points="248.88 129.35 253.96 141.86 144.67 158.17 139.98 148.11"/>
  <path class="cls-1" d="M132.71,151.92l3.81,8.97-65.35,76.32c-1.74,2.03-.39,5.17,2.27,5.31l80.2,4.27"/>
  <path class="cls-1" d="M162.89,226.95l-23.38-57.36-55.99,64.66c-.78.9-.18,2.3,1.01,2.35l68.85,3.18"/>
  <polyline class="cls-1" points="186.27 228.04 259.39 151.92 255.58 148.11 147.39 164.97 169.68 223.96"/>
  <path class="cls-1" d="M255.58,125.28l53.95,113.16c1,2.1.19,4.61-1.85,5.73h0c-2.6,1.43-5.87.37-7.14-2.31l-37.97-79.92-69.78,73.17"/>
  <rect class="cls-1" x="128.1" y="139.97" width="11.96" height="9.24" rx="3.46" ry="3.46" transform="translate(-41.63 55.1) rotate(-20.17)"/>
  <rect class="cls-1" x="244.09" y="117.66" width="11.96" height="9.24" rx="3.46" ry="3.46" transform="translate(-28.17 113.78) rotate(-24.31)"/>
  <path class="cls-1" d="M178.84,265.67c-17.24,1.92-25.2-8.56-25.2-19.87s9.17-20.48,20.48-20.48,20.48,9.17,20.48,20.48c0,7.56-4.1,14.17-10.2,17.72"/>
  <path class="cls-1" d="M174.92,260.13c-8.71,0-15.14-6.42-15.14-14.34s6.42-14.34,14.34-14.34,14.34,6.42,14.34,14.34c0,4.6-2.16,8.69-5.53,11.31"/>
  <polyline class="cls-1" points="165.5 234.35 168.19 240.98 160.76 240.62"/>
  <polyline class="cls-1" points="172.22 231.59 176.03 239.73 181.67 233.61"/>
  <line class="cls-1" x1="159.79" y1="247.52" x2="169.82" y2="247.8"/>
  <polyline class="cls-1" points="186.36 239.73 178.44 247.31 185.54 254.3"/>
  <path class="cls-1" d="M181.67,271.99l-10.84-24.22c-.75-1.67-.08-3.63,1.53-4.49h0c1.7-.91,3.8-.09,4.44,1.72l9.55,27"/>
  <rect class="cls-1" x="173.13" y="271.99" width="24.83" height="10.69" rx="4.3" ry="4.3"/>
  <line class="cls-1" x1="171.6" y1="249.49" x2="169.19" y2="259.12"/>
  <path class="cls-1" d="M154.1,115.58c0,4.25-14.31,9.7-29.72,9.7s-25.77-.82-25.77-14.05c0-3.85,11.74-3.4,24.87-.06,3,.76,6.09,1.14,9.18,1.17,12.78.1,21.44-.53,21.44,3.25Z"/>
  <line class="cls-1" x1="122.46" y1="126.27" x2="128.46" y2="140.05"/>
  <line class="cls-1" x1="130.9" y1="125.28" x2="136.33" y2="138.98"/>
  <rect class="cls-1" x="204.22" y="70.92" width="29.36" height="10.33" rx="3.6" ry="3.6" transform="translate(3.16 -8.56) rotate(2.26)"/>
  <path class="cls-1" d="M142.7,246.25c-3.44,35.31-32.69,62.89-68.27,62.89-37.89,0-68.61-31.28-68.61-69.87s30.72-69.87,68.61-69.87c15.9,0,30.53,5.51,42.16,14.75"/>
  <path class="cls-1" d="M122.35,189.28c12.76,12.69,20.69,30.4,20.69,50"/>
  <path class="cls-1" d="M133.68,246.74c-3.61,30.05-28.76,53.32-59.24,53.32-32.96,0-59.69-27.21-59.69-60.78s26.72-60.78,59.69-60.78c13.65,0,26.23,4.67,36.29,12.52"/>
  <path class="cls-1" d="M116.5,196.16c10.88,11.01,17.62,25.46,17.62,42.32"/>
  <path class="cls-1" d="M112.55,200.72c9.47,9.71,15.39,23.03,15.6,37.75"/>
  <path class="cls-1" d="M127.8,245.61c-3.08,27.23-25.8,48.37-53.36,48.37-29.67,0-53.72-24.49-53.72-54.71s24.05-54.71,53.72-54.71c12.15,0,23.36,4.11,32.36,11.04"/>
  <path class="cls-1" d="M85.88,244.01c-1.84,4.6-6.27,7.85-11.45,7.85-6.82,0-12.36-5.63-12.36-12.58s6.07-13.96,15.34-11.24"/>
  <line class="cls-1" x1="61.45" y1="186.18" x2="70.39" y2="228.04"/>
  <line class="cls-1" x1="83.17" y1="185.84" x2="75.76" y2="226.81"/>
  <line class="cls-1" x1="103.79" y1="193.46" x2="90.64" y2="214.47"/>
  <line class="cls-1" x1="86.82" y1="230.43" x2="117.89" y2="208.6"/>
  <line class="cls-1" x1="87.05" y1="236.46" x2="125.46" y2="228.04"/>
  <line class="cls-1" x1="42.82" y1="195.04" x2="67.29" y2="229.26"/>
  <line class="cls-1" x1="28.7" y1="210.57" x2="63.66" y2="233.23"/>
  <line class="cls-1" x1="21.42" y1="230.43" x2="61.45" y2="237.66"/>
  <line class="cls-1" x1="21.97" y1="251.06" x2="62.28" y2="241.5"/>
  <line class="cls-1" x1="29.78" y1="269.7" x2="63.66" y2="245.8"/>
  <line class="cls-1" x1="44.78" y1="284.9" x2="67.29" y2="250.19"/>
  <line class="cls-1" x1="71.27" y1="251.86" x2="64.13" y2="292.97"/>
  <line class="cls-1" x1="75.76" y1="251.86" x2="84.75" y2="292.97"/>
  <line class="cls-1" x1="81.6" y1="250.19" x2="104.44" y2="283.63"/>
  <line class="cls-1" x1="84.75" y1="246.28" x2="118.44" y2="268.14"/>
  <line class="cls-1" x1="100.79" y1="243.98" x2="126.46" y2="249.49"/>
  <path class="cls-1" d="M280.11,174.75c7.87-3.2,16.46-4.97,25.45-4.97,37.89,0,68.61,31.28,68.61,69.87s-30.72,69.87-68.61,69.87-68.61-31.28-68.61-69.87c0-25.46,13.37-47.73,33.34-59.94"/>
  <path class="cls-1" d="M283.23,183.26c6.9-2.84,14.44-4.4,22.34-4.4,32.96,0,59.69,27.21,59.69,60.78s-26.72,60.78-59.69,60.78-59.69-27.21-59.69-60.78c0-21.75,11.22-40.83,28.08-51.57"/>
  <path class="cls-1" d="M285.84,188.75c6.11-2.46,12.76-3.8,19.72-3.8,29.67,0,53.72,24.49,53.72,54.71s-24.05,54.71-53.72,54.71-53.72-24.49-53.72-54.71c0-19.68,10.2-36.93,25.52-46.57"/>
  <line class="cls-1" x1="290.98" y1="187.35" x2="297.63" y2="213.47"/>
  <line class="cls-1" x1="312.7" y1="186.21" x2="306.89" y2="227.19"/>
  <line class="cls-1" x1="333.32" y1="192.8" x2="312.73" y2="229.13"/>
  <line class="cls-1" x1="317.95" y1="232.52" x2="348.48" y2="207.11"/>
  <line class="cls-1" x1="318.18" y1="236.83" x2="356.59" y2="226.41"/>
  <line class="cls-1" x1="272.35" y1="197.02" x2="291.72" y2="223.78"/>
  <line class="cls-1" x1="258.1" y1="214.01" x2="293.7" y2="235.36"/>
  <line class="cls-1" x1="251.85" y1="235.66" x2="292.58" y2="238.91"/>
  <line class="cls-1" x1="253.96" y1="254.88" x2="292.95" y2="243.81"/>
  <line class="cls-1" x1="264.4" y1="274.79" x2="295.82" y2="248.43"/>
  <line class="cls-1" x1="280.11" y1="287.83" x2="300.6" y2="251.25"/>
  <line class="cls-1" x1="303.98" y1="252.27" x2="300.67" y2="293.38"/>
  <line class="cls-1" x1="309.48" y1="252.08" x2="320.02" y2="291.52"/>
  <line class="cls-1" x1="313.33" y1="249.86" x2="339.85" y2="281.76"/>
  <line class="cls-1" x1="317.03" y1="246.52" x2="352.1" y2="266.99"/>
  <line class="cls-1" x1="318.18" y1="242.93" x2="357.59" y2="247.02"/>
  <path class="cls-1" d="M305.57,227.03c6.97,0,12.62,5.65,12.62,12.62s-5.65,12.62-12.62,12.62-12.62-5.65-12.62-12.62c0-2.64.81-5.08,2.19-7.11"/>
</svg>