<?xml version="1.0" encoding="UTF-8"?>
<svg id="Layer_1" data-name="Layer 1" xmlns="http://www.w3.org/2000/svg" viewBox="0 0 380 380">
  <defs>
    <style>
      .cls-1 {
        fill: none;
        stroke: #000;
        stroke-linecap: round;
        stroke-linejoin: round;
        stroke-width: 4px;
      }
    </style>
  </defs>
  <path class="cls-1" d="M22.37,150.43s1.99,14.93-3.34,24.07c-.7,1.2-.64,2.69.1,3.86l75.57,118.99c.74,1.16,2.2,1.61,3.46,1.06,14.58-6.35,98.08-42.2,123.73-41.68,0,0,12.22,11.37,22.45-4.55,0,0,95.62-35.63,114.73-38.49,1.36-.2,2.37-1.38,2.37-2.75v-11.34l-90.95-118.24s-97.49,14.21-112.27,46.61c0,0-39.79-21.32-135.86,22.45Z"/>
  <path class="cls-1" d="M22.37,150.43l79.3,128.19s85.84-46.61,132.45-31.27c0,0,48.32-41.5,127.34-47.75"/>
  <line class="cls-1" x1="158.23" y1="127.97" x2="234.12" y2="247.35"/>
  <path class="cls-1" d="M196.18,131.95s28-20.46,64.09-26.43"/>
  <path class="cls-1" d="M214.06,158.39s28-20.46,64.09-26.43"/>
  <path class="cls-1" d="M225.55,171.6s28-20.46,64.09-26.43"/>
  <path class="cls-1" d="M57.62,168.05s43.77-21.03,85.55-21.32"/>
  <path class="cls-1" d="M96.56,170.32s25.3-12.98,50.59-12.93"/>
  <path class="cls-1" d="M200.87,146.73c-.4.32,15.86-11.45,30.41-13.92"/>
  <path class="cls-1" d="M135.5,175.44s15.63-5.4,22.74-5.12"/>
  <path class="cls-1" d="M117.59,278.61s55.29-25.01,92.94-26.43"/>
  <path class="cls-1" d="M253.74,241.95s41.21-22.17,66.51-25.3"/>
</svg>