<?xml version="1.0" encoding="UTF-8"?>
<svg id="Layer_1" data-name="Layer 1" xmlns="http://www.w3.org/2000/svg" viewBox="0 0 380 380">
  <defs>
    <style>
      .cls-1 {
        fill: none;
        stroke: #000;
        stroke-linecap: round;
        stroke-linejoin: round;
        stroke-width: 4px;
      }
    </style>
  </defs>
  <path class="cls-1" d="M112.06,269.46s-141.27.11-56.59-104.35c15.67-18.57,36.33-32.26,59.56-39.37,47.17-14.43,134.91-30.83,210.48,13.37,4.32,2.53,8.21,5.72,11.49,9.5,13.83,15.97,39.61,59.23-47.5,93.46,0,0-77.06,29.54-177.44,27.4Z"/>
  <path class="cls-1" d="M71.52,149.2s2.39,32.64,17.65,42.59c2.41,1.57,5.68.72,7-1.83,3.09-5.97,2.97-15.73-7.45-50.63"/>
  <path class="cls-1" d="M146.93,119.33s7.5,34.37,17.61,52.13c2.42,4.26,8.77,3.42,9.92-1.35,2.1-8.71,2.87-25.15-4.25-55.09"/>
  <path class="cls-1" d="M223.32,111.6s4.97,53.43,12.17,52.94c2.96-.2,4.64.53,6.72-2.05,1.81-2.26,2.73-5.18,3.22-8,2.26-13.14,2.83-27.17,1.49-40.43"/>
  <path class="cls-1" d="M295.8,125.07s-.65,29.36,4.19,43.15c1.04,2.97,5.96,4.33,7.71,1.71,3.37-5.06,4.17-19.27,4.28-37.03"/>
  <path class="cls-1" d="M62.83,238.85s68.28,15.41,180.01-22.05"/>
</svg>