<?xml version="1.0" encoding="UTF-8"?>
<svg id="Layer_1" data-name="Layer 1" xmlns="http://www.w3.org/2000/svg" viewBox="0 0 380 380">
  <defs>
    <style>
      .cls-1 {
        fill: none;
        stroke: #000;
        stroke-linecap: round;
        stroke-linejoin: round;
        stroke-width: 4px;
      }
    </style>
  </defs>
  <path class="cls-1" d="M236.71,115.38s8.9-29.9,39.51-17.8c0,0,28.48-29.58,52.68,7.46,0,0,24.92,10.7,8.9,35.97,0,0,8.19,6.05,1.78,18.51,0,0,12.46,7.48-1.07,26.7,0,0-12.1,30.61-25.27,18.87,0,0-25.27,23.49-38.8-4.27,0,0-23.85-.71-22.78-18.51,0,0-4.27,4.98-7.83,3.92,0,0-17.09,25.75-30.26,7.36,0,0-39.16,6.53-38.09-24.09,0,0-10.32,8.54-15.66,1.78,0,0-17.44,9.61-25.27-6.05,0,0-34.53,3.92-33.82-33.82"/>
  <path class="cls-1" d="M104.28,117.16s-3.56-32.39,21.36-26.7c0,0,7.83-14.24,18.15-9.26,0,0,13.17-17.09,31.33-2.85"/>
  <path class="cls-1" d="M162.31,94.93s5.58-21.2,27.17-16.57c0,0,14.83,4.66,14.83,16.57"/>
  <path class="cls-1" d="M134.54,165.22s8.19,27.53-13.53,28.36c0,0-10.32,31.09-22.07,7.24,0,0-64.43,47.58-49.13-10.56,0,0-28.12-.47-6.41-21.48,0,0-7.48-8.54,6.41-10.68,0,0-12.82-23.85,10.32-34.53,0,0-12.1-53.75,30.26-55.53,0,0,9.26-16.38,18.15-6.41,0,0,11.39-30.61,41.65-13.53,0,0,38.8-46.28,67.28,2.85,0,0,14.95-17.8,21-2.85,0,0,19.22-27.77,32.75,7.48,0,0,39.57-2.38,37.79,32.15"/>
  <path class="cls-1" d="M270.95,200.46c-7.42,8-13.9,16.98-19.75,26.15-11.47,17.97-18.96,37.95-24.4,58.49-4.95,18.71-9.44,37.49-10.26,56.92-.12,2.81-1.95,5.24-4.61,6.15-8.49,2.91-27.57,7.38-44.7-3.19-1.93-1.19-3.1-3.3-3.07-5.56.15-11.17-.33-22.37-1.42-33.49-1.54-15.64-4.3-31.27-10.22-45.88-4.19-10.35-7.71-20.9-12.63-30.98-5.3-10.86-11.67-22.28-21.09-30.12"/>
  <path class="cls-1" d="M135.22,183.01s27.8,30.27,33.5,52.69c0,0-1.78-49.13-8.9-64.43"/>
  <path class="cls-1" d="M190.5,191.99s-1.62,35.88-1.02,47.27c0,0,11.27-37.56,14.83-45.11"/>
  <path class="cls-1" d="M224.58,200.2s-6.74,14.14-8.88,39.06c0,0,12.84-29.59,36.6-51.31"/>
</svg>