<?xml version="1.0" encoding="UTF-8"?>
<svg id="Layer_1" data-name="Layer 1" xmlns="http://www.w3.org/2000/svg" viewBox="0 0 380 380">
  <defs>
    <style>
      .cls-1 {
        fill: none;
        stroke: #000;
        stroke-linecap: round;
        stroke-linejoin: round;
        stroke-width: 4px;
      }
    </style>
  </defs>
  <path class="cls-1" d="M220.14,217.45l-7.69-3.55-32.23-113.54c-3.31-11.65-14.23-19.47-26.33-18.84l-62.15,3.23c-14.03.73-24.93,12.49-24.61,26.53l1.1,47.58H30.63c-1.24,0-2.42.52-3.27,1.42l-9.18,9.88c-.67.73-1.09,1.66-1.17,2.64l-3.42,38.72"/>
  <line class="cls-1" x1="15.07" y1="237.57" x2="18.92" y2="256.8"/>
  <path class="cls-1" d="M26.02,256.8h-10.81c-1.7,0-2.92,1.63-2.44,3.26l7.95,27.24c.51,1.74,2.11,2.94,3.92,2.94h17.65"/>
  <line class="cls-1" x1="125.45" y1="255.32" x2="149.43" y2="255.32"/>
  <line class="cls-1" x1="120.11" y1="287.58" x2="155.63" y2="287.58"/>
  <path class="cls-1" d="M221.31,253.84l26.95-.9-1.86,26.78c-.13,1.85-1.46,3.4-3.27,3.8l-18.27,4.06"/>
  <path class="cls-1" d="M118.36,238.25c5.04,7.4,7.98,16.33,7.98,25.95,0,25.5-20.67,46.16-46.16,46.16s-46.36-20.62-46.36-48.33"/>
  <path class="cls-1" d="M36.73,260.85h-9.12c-1.07,0-1.9-.93-1.78-2,1.2-10.25,3.41-21.14,8.58-30.18,1.9-3.32,4.35-6.36,7.09-9.02,5.02-4.88,11.03-8.72,17.5-11.38,9.88-4.06,20.69-5.29,31.3-4.5,9.33.7,17.97,3.72,25.86,8.76,6.44,4.11,12.08,9.63,15.46,16.56.79,1.62.01,3.57-1.69,4.16l-12.58,4.37c-1.08.37-2.28.11-3.09-.7-5.07-5.03-11.7-8.5-18.56-10.32-7.62-2.02-15.6-1.8-23.31-.4-3.06.55-5.88,1.26-8.69,2.58-7.51,3.53-13.58,9.62-17.92,16.61-2.6,4.18-4.61,8.71-6.16,13.38-.41,1.24-1.57,2.08-2.87,2.08Z"/>
  <circle class="cls-1" cx="80.07" cy="263.12" r="11.69"/>
  <path class="cls-1" d="M215.26,247.09c7.08,6.83,11.5,16.49,11.5,27.22,0,20.68-16.43,37.44-36.69,37.44s-36.69-16.76-36.69-37.44c0-5.75.69-10.62,2.96-15.49"/>
  <path class="cls-1" d="M158.64,258.92l-7.97-1.07c-1.03-.14-1.66-1.19-1.3-2.16,1.44-3.84,5.52-12.73,14.43-19.62,7.25-5.61,16.33-8.29,25.49-7.87,8.39.38,20.87,2.18,29.88,8.88.85.63,1.05,1.83.48,2.73l-4.46,6.94c-.61.94-1.85,1.22-2.8.62-3.84-2.42-14.19-7.56-29.32-4.56,0,0-16.85,4.38-22.79,15.3-.32.59-.97.91-1.63.82Z"/>
  <circle class="cls-1" cx="190.06" cy="274.31" r="9.1"/>
  <rect class="cls-1" x="9.15" y="211.33" width="16.67" height="26.24" rx="6.28" ry="6.28"/>
  <line class="cls-1" x1="32.43" y1="166.25" x2="50.38" y2="166.25"/>
  <line class="cls-1" x1="32.43" y1="172.76" x2="50.38" y2="172.76"/>
  <line class="cls-1" x1="32.43" y1="179.27" x2="50.38" y2="179.27"/>
  <path class="cls-1" d="M177.28,186.72l-95.33-34.87-1.45-38.57c-.18-4.78,3.48-8.83,8.25-9.13l64.17-4.09c6.32-.4,12.02,3.77,13.55,9.91l17.65,70.59c1.01,4.05-2.92,7.59-6.84,6.15Z"/>
  <path class="cls-1" d="M171.07,178.68l-81.61-31-1.73-32.33c-.15-3.87,3.92-5.49,7.78-5.73l55.27-3.31c5.11-.33,8.62,3.6,9.87,8.57l15.39,59.92c.82,3.28-1.81,5.04-4.98,3.87Z"/>
  <line class="cls-1" x1="81.95" y1="151.85" x2="87.27" y2="203.54"/>
  <line class="cls-1" x1="184.61" y1="182.03" x2="190.06" y2="195.65"/>
  <path class="cls-1" d="M192.03,199.59v-1.76c0-1.21-.98-2.19-2.19-2.19h-19.12c-.87,0-1.57.7-1.57,1.57v9.49c0,1.08.88,1.96,1.96,1.96h18.65c1.26,0,2.27-1.02,2.27-2.27v-1.48l2.96,11.25c-34.33,3.35-47.74,24.66-47.74,24.66l-21.8-6.03"/>
  <rect class="cls-1" x="186.57" y="199.79" width="9.07" height="4.73" rx="2.22" ry="2.22"/>
  <polyline class="cls-1" points="261.28 226.62 217.78 203.54 225.47 247.09 262.77 256.8"/>
  <path class="cls-1" d="M342.24,299.57l-27.7-4.89-25.45-33.83-7.96-73.85c-.18-1.7-1.62-2.99-3.33-2.99h-13.38c-1.89,0-3.4,1.55-3.35,3.44l2.28,90.07,21.01,25.45,57.64-.49c1.78-.02,1.99-2.59.24-2.9Z"/>
  <circle class="cls-1" cx="237.7" cy="232.16" r="9.47"/>
  <circle class="cls-1" cx="237.7" cy="232.16" r="4.13"/>
  <path class="cls-1" d="M283.75,211.33s21.91-13.71,21.91,18.84c0,0,35.81-12.14,22.79,23.67,0,0,29.3-14.5,24.27,16.13,0,0,19.53.15,18.05,17.61,0,0-1.88,20.7-26.68,12.42"/>
  <path class="cls-1" d="M297.68,256.8s6.81-10.55,13.02,4.04c0,0,15.98-12.33,14.5,10.75.1-1.51,6.96-2.47,7.94-2.43,7.35.35,13.21,13.94,6.27,18.41"/>
  <polyline class="cls-1" points="101.2 84.25 100.92 78.99 132.39 76.69 134.03 81.94"/>
  <path class="cls-1" d="M105.33,78.01v-5.38c0-1.66.94-3.06,2.16-3.21l16.93-1.14c1.8-.23,3.47,1.29,4,3.63l1.16,4.13"/>
</svg>