<?xml version="1.0" encoding="UTF-8"?>
<svg id="Layer_1" data-name="Layer 1" xmlns="http://www.w3.org/2000/svg" viewBox="0 0 380 380">
  <defs>
    <style>
      .cls-1 {
        fill: none;
        stroke: #000;
        stroke-linecap: round;
        stroke-linejoin: round;
        stroke-width: 4px;
      }
    </style>
  </defs>
  <path class="cls-1" d="M322.81,249.32h31.86c7.14,0,12.54-6.46,11.27-13.49l-18.55-102.89c-3.18-17.65-18.55-30.49-36.48-30.49H46.66c-20.55,0-37.22,16.66-37.22,37.22v105.36c0,2.37,1.92,4.29,4.29,4.29h26.37c2.26,0,4.15-1.73,4.35-3.98.88-10.04,6.07-35.62,35.96-35.62,0,0,30.65,0,33.61,36.38.15,1.83,1.68,3.23,3.52,3.23h131.15c1.57,0,2.86-1.22,2.94-2.79.38-7.32,3.08-27.02,21.03-34.18,8.6-3.43,18.29-3.16,26.78.55,9.35,4.09,20.71,13.4,21.37,34.48.03,1.08.92,1.94,2,1.94Z"/>
  <ellipse class="cls-1" cx="79.46" cy="246.15" rx="30.07" ry="31.39"/>
  <ellipse class="cls-1" cx="79.46" cy="246.15" rx="9.02" ry="9.42"/>
  <ellipse class="cls-1" cx="286.2" cy="246.15" rx="30.07" ry="31.39"/>
  <ellipse class="cls-1" cx="286.2" cy="246.15" rx="9.02" ry="9.42"/>
  <path class="cls-1" d="M366.12,131.41v-3.92c0-1.83-1.49-3.32-3.32-3.32H39.31c-9.5,0-17.2,7.7-17.2,17.2v81.28c0,2.98-2.42,5.4-5.4,5.4h-6.86"/>
  <rect class="cls-1" x="46.1" y="139.34" width="57.94" height="41.64" rx="17.48" ry="17.48"/>
  <rect class="cls-1" x="121.16" y="139.34" width="57.94" height="41.64" rx="17.48" ry="17.48"/>
  <rect class="cls-1" x="193.55" y="139.34" width="57.94" height="41.64" rx="17.48" ry="17.48"/>
  <rect class="cls-1" x="258.71" y="139.34" width="46.07" height="41.64" rx="17.48" ry="17.48"/>
  <path class="cls-1" d="M66.15,212.12l11.05-9.14c6.94-5.74,15.67-8.88,24.67-8.88h211.27"/>
  <path class="cls-1" d="M97.18,214.89l7.69-4.87c2.42-1.53,5.22-2.34,8.08-2.34h125.71c2.08,0,4.1-.69,5.75-1.95l15.11-11.62"/>
  <path class="cls-1" d="M366.22,152.76h0c-2.39,0-4.33-1.94-4.33-5v-11.29c0-1.73,1.94-3.67,4.33-3.67h0c2.39,0,4.33,1.94,4.33,4.33v11.29c0,2.39-1.94,4.33-4.33,4.33Z"/>
  <path class="cls-1" d="M323.33,187.2v-44.46c0-1.87,1.52-3.39,3.39-3.39h2.88c4.77,0,8.88,3.37,9.81,8.06l6.77,34.13c1.06,5.33-3.02,10.3-8.46,10.3h-9.75c-2.56,0-4.64-2.08-4.64-4.64Z"/>
  <circle class="cls-1" cx="342.57" cy="216.96" r="6"/>
  <path class="cls-1" d="M314.51,124.17v79.84c0,1.78.64,3.51,1.81,4.86l14.3,16.59c1.41,1.64,3.47,2.59,5.64,2.59h28.28"/>
</svg>