<?xml version="1.0" encoding="UTF-8"?>
<svg id="Layer_1" data-name="Layer 1" xmlns="http://www.w3.org/2000/svg" viewBox="0 0 380 380">
  <defs>
    <style>
      .cls-1 {
        stroke-miterlimit: 10;
      }

      .cls-1, .cls-2 {
        fill: none;
        stroke: #000;
        stroke-width: 4px;
      }

      .cls-2 {
        stroke-linejoin: round;
      }
    </style>
  </defs>
  <circle class="cls-1" cx="189.95" cy="137.9" r="15.27"/>
  <path class="cls-1" d="M180.78,150.11c-3.52,3.71-6.45,8.25-7.73,13.25-1.6,6.21.54,13.03,3.65,18.43,2.03,3.53,4.99,6.63,8.9,8.01,1.4.5,2.87.76,4.36.82,0,0,13.3-.25,17.24-17.24,0,0,3.57-10.8-8.07-23.26"/>
  <path class="cls-1" d="M200.48,185.87c8.73,32.43-1.82,67.46-7.44,82.52-1.07,2.86-5.11,2.9-6.21.04-17.87-46.44-7.13-82.56-7.13-82.56"/>
  <path class="cls-2" d="M203.81,156.24c2.48-4.11,5.11-8.14,7.77-12.13,6.4-9.61,13.15-18.99,20.28-28.07,8.71-11.1,17.99-21.82,28.24-31.53,6.74-6.39,14.21-11.93,21.83-17.22,5.6-3.88,11.2-7.56,17.41-10.38,13.26-6.02,29.49-8.74,41.97.55,2.82,2.1,4.99,4.96,6.21,8.26,2.95,8.02,5.54,25.45-9.77,52.97,0,0,14.53,37.69-19.46,75.38,0,0-26.85,30.55-70.7,24.14,0,0-29.89-4.68-43.44-10.1"/>
  <path class="cls-2" d="M226.8,122.62c3.95-3.71,8.11-7.22,12.33-10.62,8.71-7.02,17.89-13.61,27.75-18.93,8.63-4.65,19.24-9.5,29.32-7.86,7.22,1.18,15.74,8.3,17.44,15.6,2.67,11.44-9.83,20.69-18,25.99.89-.57,4.69.72,5.61.93,3.91.9,7.8,2.26,11.21,4.41,2.98,1.87,5.59,4.39,7.07,7.62,5.9,12.92-7.81,22.58-18.92,24.24-3.19.48-6.43.51-9.64.24,0,0,24.39,11.09,11.09,28.58-2.34,3.08-5.4,5.31-8.91,6.97-10.93,5.18-24,4.73-35.65,2.96-13.07-1.99-26.17-5.33-38.8-9.15-5.87-1.77-11.7-3.73-17.38-6.03"/>
  <path class="cls-1" d="M284.5,215.1c15.01,6.1,22.27,19.85,24.45,24.74.47,1.06.84,2.17,1.11,3.3,7.37,31.66-19.48,42.32-23.91,43.85-.56.19-1.11.41-1.65.66-7.93,3.81-9.06,10.62-9.06,10.62-9.36,32.03-34,30.3-34,30.3-31.29-1.97-40.14-90.4-40.14-90.4,0,0,15.26,58.13,41.37,59.12,0,0,8.25-.23,10.82-9.96.18-.66.26-1.35.27-2.04.06-2.34.41-8.68,2.42-13.07"/>
  <path class="cls-1" d="M252.6,218.79s36.63,10.26,33.92,31.44c0,0-5.2,28.73-24.28,25.49-1.57-.27-3.02-.98-4.24-1.99-8.35-6.94-45.4-38.37-54.18-56.26"/>
  <ellipse class="cls-1" cx="220.37" cy="58.93" rx="7.64" ry="5.42" transform="translate(45.73 205.69) rotate(-55.02)"/>
  <path class="cls-1" d="M215.99,65.19s-21.81,34.02-22.2,57.92"/>
  <circle class="cls-1" cx="280.11" cy="187.14" r="6.55"/>
  <path class="cls-2" d="M176.19,156.24c-2.48-4.11-5.11-8.14-7.77-12.13-6.4-9.61-13.15-18.99-20.28-28.07-8.71-11.1-17.99-21.82-28.24-31.53-6.74-6.39-14.21-11.93-21.83-17.22-5.6-3.88-11.2-7.56-17.41-10.38-13.26-6.02-29.49-8.74-41.97.55-2.82,2.1-4.99,4.96-6.21,8.26-2.95,8.02-5.54,25.45,9.77,52.97,0,0-14.53,37.69,19.46,75.38,0,0,26.85,30.55,70.7,24.14,0,0,30.67-4.85,44.22-10.27"/>
  <path class="cls-2" d="M153.2,122.62c-3.95-3.71-8.11-7.22-12.33-10.62-8.71-7.02-17.89-13.61-27.75-18.93-8.63-4.65-19.24-9.5-29.32-7.86-7.22,1.18-15.74,8.3-17.44,15.6-2.67,11.44,9.83,20.69,18,25.99-.89-.57-4.69.72-5.61.93-3.91.9-7.8,2.26-11.21,4.41-2.98,1.87-5.59,4.39-7.07,7.62-5.9,12.92,7.81,22.58,18.92,24.24,3.19.48,6.43.51,9.64.24,0,0-24.39,11.09-11.09,28.58,2.34,3.08,5.4,5.31,8.91,6.97,10.93,5.18,24,4.73,35.65,2.96,13.07-1.99,26.17-5.33,38.8-9.15,5.87-1.77,12.16-3.38,17.85-5.69"/>
  <path class="cls-1" d="M95.5,215.1c-15.01,6.1-22.27,19.85-24.45,24.74-.47,1.06-.84,2.17-1.11,3.3-7.37,31.66,19.48,42.32,23.91,43.85.56.19,1.11.41,1.65.66,7.93,3.81,9.06,10.62,9.06,10.62,9.36,32.03,34,30.3,34,30.3,31.29-1.97,40.14-89.84,40.14-89.84,0,0-15.26,57.56-41.37,58.55,0,0-8.25-.23-10.82-9.96-.18-.66-.26-1.35-.27-2.04-.06-2.34-.41-8.68-2.42-13.07"/>
  <path class="cls-1" d="M127.4,218.79s-36.63,10.26-33.92,31.44c0,0,5.2,28.73,24.28,25.49,1.57-.27,3.02-.98,4.24-1.99,8.35-6.94,45.83-38.37,54.62-56.26"/>
  <ellipse class="cls-1" cx="159.63" cy="58.93" rx="5.42" ry="7.64" transform="translate(-4.95 102.17) rotate(-34.98)"/>
  <path class="cls-1" d="M164.01,65.19s21.81,34.02,22.2,57.92"/>
  <circle class="cls-1" cx="99.89" cy="187.14" r="6.55"/>
</svg>