<?xml version="1.0" encoding="UTF-8"?>
<svg id="Layer_1" data-name="Layer 1" xmlns="http://www.w3.org/2000/svg" viewBox="0 0 380 380">
  <defs>
    <style>
      .cls-1 {
        fill: none;
        stroke: #000;
        stroke-linecap: round;
        stroke-linejoin: round;
        stroke-width: 4px;
      }
    </style>
  </defs>
  <path class="cls-1" d="M278.28,104.43c0,10.67-10.52,19.33-23.51,19.33s-23.51-8.65-23.51-19.33,9.01-22.17,23.51-19.33c14.18-1.48,23.51,8.65,23.51,19.33Z"/>
  <path class="cls-1" d="M265.43,69.74s-9.56,4.55-10.13,13.42"/>
  <path class="cls-1" d="M229.14,104.21s-25.03-2.27-49.15,5.92c0,0-115.59,28.67-114.68,53.7,0,0-4.1,12.29,13.65,14.11h241.19s12.29-.46,11.83-16.38v-20.63s3.19-13.56-15.02-17.17l-40.99-10.96"/>
  <path class="cls-1" d="M77.14,154.73s-15.93,10.47,107.4,3.66"/>
  <path class="cls-1" d="M234.6,154.73s37.77.91,78.27-10.47"/>
  <path class="cls-1" d="M64.9,172.48l6.73,82.99c.41,5.02,3.51,9.47,8.15,11.45,3.31,1.42,7.91,2.74,14.2,3.4h223.37c5.88,0,10.71-4.65,10.93-10.53l3.49-91.89"/>
  <path class="cls-1" d="M67.3,202.08s6.51,9.38,25.62,10.01c2.52.08,5.05-.3,7.42-1.16,6-2.17,21.12-5.79,37.32,4.78,0,0,9.44,6.01,30.41.52,1.1-.29,2.17-.71,3.2-1.18,3.67-1.67,14.63-5.46,27.27,1.57,0,0,7.37,5.01,25.12-3.64,0,0,13.24-7.26,25.65-.27,1.08.61,2.19,1.17,3.38,1.52,3.96,1.18,12.98,2.72,24.41-2.64,2.14-1,4.42-1.66,6.78-1.87,5.27-.47,14.57-.44,22.8,4,2.21,1.19,4.67,1.92,7.18,1.86,4.6-.11,11.63-1.48,16.4-8.04"/>
  <path class="cls-1" d="M69.33,227.13c2.91,10.12,16.45,10.09,24.84,9.15,4.64-.52,9.1-1.6,13.58-2.88,4.48-1.29,8.81-.5,13.18,1.04,2.58.91,5.08,2.07,7.49,3.34,1.68.89,3.45,1.6,5.28,2.1,11.59,3.17,23.29,4.17,34.5-.99,8.71-4,19.24-4.32,27.71.48,0,0,8.99,7.39,28.89-2.68,2.72-1.38,5.72-2.1,8.77-2.22,4.19-.16,8.44-.1,12.58.61,5.68.97,10.32,4.73,16.08,5.4,6.19.73,12.41-.75,17.72-4,3.29-2.02,7.08-3.19,10.93-2.9,1.97.15,4.07.66,6.04,1.81,5.3,3.09,11.58,4.25,17.66,4.37,4.85.1,12.03.08,14.65-4.92"/>
  <path class="cls-1" d="M69.33,238.46c-11.08-.66-23.21,1.08-33.11,6.21-5.3,2.75-9.99,6.68-13.06,11.85-5.96,10.04-6.38,21.54,3.08,29.3,19.3,15.83,46.37,17.71,70.16,20.51,31.62,3.72,63.53,4.05,95.33,3.88,33.15-.18,66.62.54,99.6-3.28,19.91-2.31,70.65-7.45,69.77-36.62,0,0-1.15-27.3-30.84-27.76"/>
</svg>