<?xml version="1.0" encoding="UTF-8"?>
<svg id="Layer_1" data-name="Layer 1" xmlns="http://www.w3.org/2000/svg" viewBox="0 0 380 380">
  <defs>
    <style>
      .cls-1 {
        fill: none;
        stroke: #000;
        stroke-linecap: round;
        stroke-linejoin: round;
        stroke-width: 4px;
      }
    </style>
  </defs>
  <path class="cls-1" d="M13.36,251.43S-1.43,90.55,132.24,75.27c0,0,10.5,7.64,31.03,0,0,0,116.96-3.34,137.49,153.25,0,0-42.01-21.96-108.37,4.77,0,0-83.07,29.6-128.9,33.9,0,0-47.26-8.59-50.13-15.75Z"/>
  <path class="cls-1" d="M163.27,75.27c-2.86-18.14-16.23-16.23-16.23-16.23-14.32-.48-14.8,16.23-14.8,16.23"/>
  <path class="cls-1" d="M92.81,262.37s-19.98-76.56,8.87-131.73c0,0,18.76-42.56,34.92-52.79"/>
  <path class="cls-1" d="M269.25,220.33s-.98-62.95-47.99-109.26c0,0-27.68-26.95-65.15-33.36"/>
  <path class="cls-1" d="M63.49,267.19s38.5,54.99,97.82,53.82c13.4-.27,26.48-4.12,38.02-10.94,10.41-6.15,26.13-15.75,40.33-25.69,0,0,45.83-28.24,80.2-22,0,0,33.42,7.68,47.26,15.79,0,0-30.55-31.51-66.36-49.65"/>
  <path class="cls-1" d="M277.5,267.19s57.63,24.35,89.62,10.98"/>
</svg>