<?xml version="1.0" encoding="UTF-8"?>
<svg id="Layer_1" data-name="Layer 1" xmlns="http://www.w3.org/2000/svg" viewBox="0 0 380 380">
  <defs>
    <style>
      .cls-1 {
        fill: none;
        stroke: #000;
        stroke-linecap: round;
        stroke-linejoin: round;
        stroke-width: 4px;
      }
    </style>
  </defs>
  <path class="cls-1" d="M349.41,170.53c-3.82-8.13-25.57-32.5-25.57-32.5-6.99-20.2-29.63-51.31-37.87-62.26-1.98-2.63-4.87-4.41-8.11-5-50.9-9.31-143.07-8.5-182.27.71-3.05.25-4.56,2.11-6.91,4.08-12.18,14.95-33.96,62.47-33.96,62.47,0,0-21.51,24.38-24.38,30.11"/>
  <path class="cls-1" d="M97.97,78.64c18.27-1.66,99.46-8.15,178.17-.31,4.01.4,7.62,2.63,9.76,6.05,7.24,11.61,26.77,38.96,30.95,51.07.31.9-.36,1.83-1.31,1.8-20.56-.8-207.65-6.19-249.34-.95-2.24.28-3.86-2.08-2.79-4.07,6.19-11.51,21.42-39.57,27.9-49.57,1.49-2.29,3.94-3.77,6.66-4.01Z"/>
  <path class="cls-1" d="M281.86,206.57c5.38-9.61,22.82-32.97,66.41-35.87,2.08-.14,4.06.91,5.11,2.72,3.37,5.8,9.68,18.98,3.06,27.23-1.2,1.5-2.98,2.43-4.89,2.63l-67.29,6.95c-1.99.21-3.37-1.91-2.39-3.66Z"/>
  <path class="cls-1" d="M26.52,170.53s.9-7.66,46.49,11.16c2.92,1.2,5.62,2.87,8,4.94,4.71,4.08,12.61,11.46,16.96,18.46,1.55,2.49-.16,5.72-3.09,5.8-15.23.42-56.61.69-71.7-8.15-1.81-1.06-2.91-3.01-2.87-5.11.12-6.53.96-21.83,6.21-27.1Z"/>
  <path class="cls-1" d="M20.3,190.02s-12.44,26.88,0,59.86c0,0,1.92,27.72,25.34,28.68l36.71,1.69c4.14.19,8.26-.83,11.75-3.06,3.64-2.33,7.71-6.03,9.38-11.53,0,0,3.35-18.16,25.81-18.16l124.76-.96s10.52-.96,17.21,12.91l6.5,12.85c2.33,4.61,7.04,7.54,12.21,7.6,16.56.19,52.19.33,57.3-1.86,0,0,11.95-3.29,16.73-51.09,0,0,1.12-33.93-4.7-33.93"/>
  <path class="cls-1" d="M20.3,249.87s-2.86,33.94,18.65,35.85h49.71s9.18,3.38,8.42-10.74"/>
  <path class="cls-1" d="M358.56,257.47s.65,28.01-17.99,28.61c0,0-34.89,1.56-65.96-2.27l-178.57-1.09"/>
  <path class="cls-1" d="M18.28,243.88v61.44s-2.28,10.52,12.06,10.52h19.12s8.93.48,9.96-10.99l-.78-18.76"/>
  <path class="cls-1" d="M320.44,286.08v19.72s-1.86,9.57,10.57,10.04h21.03s6.95.48,7.3-11c0,0,3.45-37.79,1.41-53.56"/>
  <path class="cls-1" d="M54.73,138.02l-7.17-3.35s1.59-16.25-8.77-15.3c0,0-23.82-1.95-24.02,9.3,0,0-3.07,6,7.93,9.34,0,0,21.6,4.51,27.77,4.88"/>
  <path class="cls-1" d="M325.27,138.02l7.17-3.35s-1.59-16.25,8.77-15.3c0,0,23.82-1.95,24.02,9.3,0,0,3.07,6-7.93,9.34,0,0-21.6,4.51-27.77,4.88"/>
  <path class="cls-1" d="M126.25,224.9s-10.99-2.55-15.3-14.66c0,0-15.77-23.1,3.35-25.97,0,0,103.25-5.26,152,0,0,0,18.64-.48,9.08,13.86,0,0-9.56,27.72-25.81,28.68,0,0-91.78,5.26-123.32-1.91Z"/>
  <path class="cls-1" d="M278.12,190.38s11.73-2.01,17.17,0"/>
  <path class="cls-1" d="M84.22,189.49s14.59-.49,20.66,3.36"/>
  <circle class="cls-1" cx="40.72" cy="256.51" r="7.43"/>
  <circle class="cls-1" cx="337.31" cy="256.51" r="7.43"/>
  <path class="cls-1" d="M101.21,270.42s156.18,3.94,175.43,0"/>
  <path class="cls-1" d="M106.59,246.05l-67.85-1.87c-5.84-.16-10.66,4.53-10.66,10.37v3.47c0,5.57,4.4,10.14,9.96,10.36l51.34,2.05"/>
  <path class="cls-1" d="M267.91,244.59l70.46-.6c6.61-.06,11.99,5.28,11.99,11.89v.56c0,6.43-5.11,11.7-11.54,11.89l-47.26,1.4"/>
  <polygon class="cls-1" points="259.31 201.95 119.49 201.95 117.98 195.86 260.82 195.86 259.31 201.95"/>
  <polygon class="cls-1" points="254.23 214.1 123.85 214.1 122.44 208 255.65 208 254.23 214.1"/>
  <path class="cls-1" d="M36.55,207.37s-12.63-13.33-8.48-27.77"/>
  <path class="cls-1" d="M345.45,201.95s8.03-10.87,4.92-22.35"/>
</svg>