<?xml version="1.0" encoding="UTF-8"?>
<svg id="Layer_1" data-name="Layer 1" xmlns="http://www.w3.org/2000/svg" viewBox="0 0 380 380">
  <defs>
    <style>
      .cls-1 {
        fill: none;
        stroke: #000;
        stroke-linecap: round;
        stroke-linejoin: round;
        stroke-width: 4px;
      }
    </style>
  </defs>
  <path class="cls-1" d="M73.21,326.84c.55-2.8,1.28-5.56,2.06-8.18,3.67-12.39,7.38-24.76,11.33-37.06,8.62-26.84,18.09-53.45,29.31-79.32,10.43-24.06,22.28-47.94,37.87-69.13,11.73-15.95,26.67-32.16,46.06-38.41,13.99-4.51,28.55-2.29,41.38,4.59,5.86,3.14,12.49,4.04,18.28,7.96,11.92,8.08,18.76,20.77,19.21,35.16.9,28.87-17.76,56.98-34.13,79.12-16,21.65-34.31,41.57-53.33,60.59-24.01,24.01-48.35,47.89-75.4,68.51-9.63,7.34-22.32,13.26-33.76,5.79-10.55-6.9-11.05-18.6-8.87-29.63Z"/>
  <path class="cls-1" d="M269.02,115.82s37.67-21.25,59.1-15.29c0,0-3.57-22.62-36.91-21.43"/>
  <path class="cls-1" d="M245.82,99.45s52.54,5.83,58.49-66.79c0,0-50.15-1.07-58.49,66.79Z"/>
  <path class="cls-1" d="M230.14,94.64s-13.28-14.82.5-44.34c.87-1.86,1.55-3.8,2.04-5.8,1.29-5.28,3.24-15.56,1.99-25.54,0,0,20.55-8.33,32.6,27.38"/>
  <line class="cls-1" x1="131.49" y1="292.01" x2="158.28" y2="310.47"/>
  <line class="cls-1" x1="176.29" y1="249.15" x2="202.33" y2="267.61"/>
  <line class="cls-1" x1="211.68" y1="203.54" x2="240.84" y2="225.57"/>
  <line class="cls-1" x1="175.29" y1="131.48" x2="195.38" y2="145.17"/>
  <line class="cls-1" x1="165.02" y1="189.81" x2="130.49" y2="171.39"/>
  <line class="cls-1" x1="136.44" y1="241.6" x2="107.29" y2="223.15"/>
  <line class="cls-1" x1="241.21" y1="157.67" x2="260.26" y2="171.39"/>
</svg>