<?xml version="1.0" encoding="UTF-8"?>
<svg id="Layer_1" data-name="Layer 1" xmlns="http://www.w3.org/2000/svg" viewBox="0 0 380 380">
  <defs>
    <style>
      .cls-1 {
        fill: none;
        stroke: #030303;
        stroke-linecap: round;
        stroke-linejoin: round;
        stroke-width: 4px;
      }
    </style>
  </defs>
  <path class="cls-1" d="M104.51,176.29c0-8.66-3.04-59.05-3.04-59.05,0-27-10.19-105.96-10.19-105.96h-17.83s13.25,82.02,13.25,115.64c0,0,3.06,76.46,2.29,165.06v24.45l6.88,4.58,8.66-2.04,2.01-108.52"/>
  <path class="cls-1" d="M82.11,11.27s19.36,115.64,13.75,309.74"/>
  <polyline class="cls-1" points="92.46 20.61 206.42 15.86 206.42 89.73 100.45 96.39"/>
  <polyline class="cls-1" points="221.07 161.39 220.28 7.2 204.38 7.2 204.38 15.29"/>
  <line class="cls-1" x1="211.79" y1="7.2" x2="211.79" y2="159.75"/>
  <line class="cls-1" x1="204.38" y1="90.58" x2="204.38" y2="159.75"/>
  <path class="cls-1" d="M96.03,188.73l61.54,34.64,148.98-27.62v-7.7c-21.51-12.45-82.19-26.26-82.19-26.26-84.45-10.64-128.52,20.39-128.52,20.39l60.37,33.27,150.34-27.4"/>
  <line class="cls-1" x1="96.89" y1="203.62" x2="151.45" y2="236.27"/>
  <line class="cls-1" x1="173.42" y1="236.27" x2="289.34" y2="213.18"/>
  <polyline class="cls-1" points="151.45 221.1 151.45 368.73 159.15 372.8 173.42 369.41 173.42 222.01"/>
  <line class="cls-1" x1="157.57" y1="223.37" x2="157.57" y2="372.8"/>
  <polyline class="cls-1" points="203.64 230.25 204.38 285.41 210.77 289.71 218.47 287.44 218.47 227.13"/>
  <line class="cls-1" x1="211.05" y1="228.78" x2="211.05" y2="289.71"/>
  <polyline class="cls-1" points="302.49 196.5 302.49 334.54 290.47 338.84 281.42 334.31 281.42 214.54"/>
  <line class="cls-1" x1="290.44" y1="198.73" x2="290.44" y2="338.84"/>
</svg>