<?xml version="1.0" encoding="UTF-8"?>
<svg id="Layer_1" data-name="Layer 1" xmlns="http://www.w3.org/2000/svg" viewBox="0 0 380 380">
  <defs>
    <style>
      .cls-1 {
        fill: none;
        stroke: #000;
        stroke-linecap: round;
        stroke-linejoin: round;
        stroke-width: 4px;
      }
    </style>
  </defs>
  <path class="cls-1" d="M180.44,71.79l-121.38,12.67s-28.34,48.35-31.01,165.73l20.78,6.31s14.48-3.54,17.56-.27c1.15,1.22-.6,5.42-.6,5.42l153.32,46.56,127.61-23.98c4.82-.91,6.87-6.66,3.72-10.41l-80.64-99.32s-38.35,18.31-47.68-.67c-7.34-21.67,23.99-23.99,23.99-23.99l-34-40.41s-9,3.38-10.66.38c-4-5.5,2.58-9.98,2.58-9.98l-23.59-28.03Z"/>
  <path class="cls-1" d="M59.06,84.46l25.34,40.01s20.67,5,13.67,23.01c0,0,10.33,13.32,10.34,13.34.05.06,7.19-2.49,7.7-2.61,4.82-1.19,10.23-1.79,14.99-.04,6.89,2.52,9.22,10.1,9.58,16.78.39,7.34-2.33,12.89-10.6,11.55,0,0,3.33,17.01-8.34,17.01,0,0-17.67,0-13.34-42.68"/>
  <path class="cls-1" d="M130.09,186.5s96.37,114.37,89.03,121.71"/>
  <path class="cls-1" d="M98.07,147.48s-2.57,12.49-8.03,10.92c-1.79-.52-2.97-2.21-3.05-4.07-.28-6.64-1.26-27.76-2.59-29.86"/>
  <ellipse class="cls-1" cx="74.39" cy="200.01" rx="28.47" ry="13.29" transform="translate(-133.56 247.95) rotate(-82.58)"/>
  <ellipse class="cls-1" cx="128.09" cy="223.66" rx="16.26" ry="12.39" transform="translate(-129.43 234.26) rotate(-62.56)"/>
  <ellipse class="cls-1" cx="153.34" cy="244.72" rx="11.56" ry="7.81" transform="translate(-109.13 365.18) rotate(-82.58)"/>
  <ellipse class="cls-1" cx="199.61" cy="227.35" rx="22.17" ry="16.17"/>
  <ellipse class="cls-1" cx="285.14" cy="241.18" rx="12.67" ry="9" transform="translate(-65.51 112.64) rotate(-20.09)"/>
  <ellipse class="cls-1" cx="262.7" cy="218.62" rx="9.32" ry="5.88" transform="translate(-59.12 103.56) rotate(-20.09)"/>
  <ellipse class="cls-1" cx="165.26" cy="141.51" rx="11" ry="7.81"/>
  <ellipse class="cls-1" cx="125.75" cy="128" rx="7.5" ry="5.7" transform="translate(-53.68 126.41) rotate(-45)"/>
</svg>