<?xml version="1.0" encoding="UTF-8"?>
<svg id="Layer_1" data-name="Layer 1" xmlns="http://www.w3.org/2000/svg" viewBox="0 0 380 380">
  <defs>
    <style>
      .cls-1 {
        fill: none;
        stroke: #000;
        stroke-linecap: round;
        stroke-linejoin: round;
        stroke-width: 4px;
      }
    </style>
  </defs>
  <path class="cls-1" d="M96.1,94.03v50.04s63.57-12.83,134.38,0l-2.2-50.04s31.94-24.49,7.46-61.55c0,0-15.22-15.96-41.03-5.33,0,0-31.77-43.06-64.86,0,0,0-22.5-11.87-41.03,6,0,0-25.15,31.77,7.28,60.89Z"/>
  <path class="cls-1" d="M96.1,144.07s-8.93,102.18,66.15,109.46c0,0,68.23.18,68.23-109.46"/>
  <path class="cls-1" d="M232.44,158.27s16.05-3.3,17.37,15.21c0,0,0,18.7-21.52,17.18"/>
  <path class="cls-1" d="M93.45,158.27s-16.05-3.3-17.37,15.21c0,0,0,18.7,21.52,17.18"/>
  <path class="cls-1" d="M131.19,242.55s4.63,24.36-15.89,33.22c0,0-79.73,8.86-81.56,49.23v29.88c0,9.45,7.66,17.11,17.11,17.11h261.13c8.03,0,15.56-6.37,15.85-14.39.32-8.76,1.03-19.25-1.18-28.13-2.33-9.39-9.84-14.98-19.51-15.27l-23.22,1.24c-9.46,1.91-11.55,9.55-11.46,17.49l.39,17.23s.88,21.18,14.78,21.84"/>
  <line class="cls-1" x1="272.45" y1="332.93" x2="293.32" y2="332.93"/>
  <line class="cls-1" x1="272.72" y1="344.87" x2="294.65" y2="344.87"/>
  <line class="cls-1" x1="273.7" y1="356.8" x2="294.65" y2="356.8"/>
  <path class="cls-1" d="M283.92,315.44v-46c0-3.67-2.98-6.65-6.65-6.65h-11.24c-6.12,0-11.09-4.96-11.09-11.09v-52.28c0-6.12,4.96-11.09,11.09-11.09h69.16c6.12,0,11.09,4.96,11.09,11.09v52.4c0,6.08-4.89,11.02-10.96,11.08l-12.9.14c-3.65.04-6.58,3.01-6.58,6.65v46.6"/>
  <line class="cls-1" x1="278.76" y1="210.18" x2="278.76" y2="243.53"/>
  <line class="cls-1" x1="300.6" y1="209.55" x2="300.6" y2="242.9"/>
  <line class="cls-1" x1="322.44" y1="210.18" x2="322.44" y2="243.53"/>
  <path class="cls-1" d="M193.95,244.5s1.9,26.31,10.18,31.27c0,0,71.71,10.17,79.79,26.05"/>
  <line class="cls-1" x1="115.29" y1="275.77" x2="153.69" y2="295.61"/>
  <path class="cls-1" d="M204.13,275.77s-77.25,24.08-74.61,42.28l-.07,53.94"/>
  <line class="cls-1" x1="87.17" y1="337.91" x2="87.17" y2="371.99"/>
  <circle class="cls-1" cx="159.31" cy="324.67" r="5.62"/>
  <circle class="cls-1" cx="192.21" cy="324.67" r="5.62"/>
  <circle class="cls-1" cx="192.21" cy="356.8" r="5.62"/>
  <circle class="cls-1" cx="159.31" cy="356.8" r="5.62"/>
  <line class="cls-1" x1="164.43" y1="74.12" x2="164.43" y2="104.4"/>
  <line class="cls-1" x1="131.67" y1="74.12" x2="143.58" y2="104.4"/>
  <line class="cls-1" x1="198.18" y1="74.12" x2="184.78" y2="104.4"/>
</svg>