<?xml version="1.0" encoding="UTF-8"?>
<svg id="Layer_1" data-name="Layer 1" xmlns="http://www.w3.org/2000/svg" viewBox="0 0 380 380">
  <defs>
    <style>
      .cls-1 {
        fill: none;
        stroke: #000;
        stroke-linecap: round;
        stroke-linejoin: round;
        stroke-width: 4px;
      }
    </style>
  </defs>
  <circle class="cls-1" cx="190" cy="199.05" r="137.66"/>
  <circle class="cls-1" cx="190" cy="199.05" r="112.88"/>
  <circle class="cls-1" cx="190" cy="199.05" r="13.37"/>
  <path class="cls-1" d="M98.31,96.38s-27.87-29.49,5.17-46.79c0,0,31.4-23.02,45.59,17.99"/>
  <path class="cls-1" d="M284.78,96.38s27.87-29.49-5.17-46.79c0,0-31.4-23.02-45.59,17.99"/>
  <circle class="cls-1" cx="190" cy="37" r="13.37"/>
  <line class="cls-1" x1="190" y1="50.38" x2="190" y2="61.39"/>
  <line class="cls-1" x1="190" y1="105.44" x2="190" y2="120.38"/>
  <line class="cls-1" x1="123.81" y1="132.86" x2="134.38" y2="143.42"/>
  <line class="cls-1" x1="96.39" y1="199.05" x2="111.34" y2="199.05"/>
  <line class="cls-1" x1="123.81" y1="265.24" x2="134.38" y2="254.67"/>
  <line class="cls-1" x1="190" y1="292.65" x2="190" y2="277.71"/>
  <line class="cls-1" x1="256.19" y1="265.24" x2="245.62" y2="254.67"/>
  <line class="cls-1" x1="283.61" y1="199.05" x2="268.66" y2="199.05"/>
  <line class="cls-1" x1="256.19" y1="132.86" x2="245.62" y2="143.42"/>
  <line class="cls-1" x1="190" y1="149.49" x2="190" y2="185.67"/>
  <line class="cls-1" x1="199.83" y1="208.11" x2="217.53" y2="225"/>
  <path class="cls-1" d="M121.27,318.34l-22.29,34.06c-1.62,2.47-4.37,3.96-7.33,3.96h-3.37c-2.55,0-4.32-2.55-3.43-4.94l17.29-46.41"/>
  <path class="cls-1" d="M260.3,318.34l22.26,34.03c1.63,2.49,4.41,4,7.39,4h3.41c2.51,0,4.25-2.51,3.38-4.86l-17.31-46.48"/>
</svg>