<?xml version="1.0" encoding="UTF-8"?>
<svg id="Layer_1" data-name="Layer 1" xmlns="http://www.w3.org/2000/svg" viewBox="0 0 380 380">
  <defs>
    <style>
      .cls-1 {
        fill: none;
        stroke: #030303;
        stroke-linecap: round;
        stroke-linejoin: round;
        stroke-width: 4px;
      }
    </style>
  </defs>
  <g>
    <rect class="cls-1" x="26.74" y="40.81" width="273.23" height="203.82" rx="39.74" ry="39.74"/>
    <rect class="cls-1" x="39.14" y="61.19" width="248.44" height="163.06" rx="16.81" ry="16.81"/>
    <rect class="cls-1" x="138.57" y="229.21" width="49.58" height="7.87" rx="3.93" ry="3.93"/>
    <g>
      <path class="cls-1" d="M129.47,244.63s-3.31,16.71-5.14,18.55"/>
      <path class="cls-1" d="M198.7,244.63s.55,11.57,4.04,18.55"/>
      <path class="cls-1" d="M110.56,274.19s2.02-11.02,16.34-11.02h76c.97,0,1.93.15,2.84.45,3.29,1.1,10.69,4.27,10.4,10.56h-105.58Z"/>
      <line class="cls-1" x1="147.29" y1="254.73" x2="181.26" y2="254.73"/>
    </g>
  </g>
  <g>
    <path class="cls-1" d="M297.34,339.19H29.3c-10.11,0-16.64-10.69-12.03-19.68l17.1-29.19c3.45-6.72,7.12-8.78,14.67-8.78h231.02c5.34,0,8.09,1.83,10.65,6.52l18.55,31.04c4.95,9.05-1.6,20.1-11.92,20.1Z"/>
    <path class="cls-1" d="M293.92,320.46H29.61c-1.12,0-1.8-1.24-1.2-2.19l18.37-28.23c.84-1.29,2.28-2.07,3.82-2.07l224.23.34c1.65,0,3.2.85,4.1,2.23l17.04,26.16c1.05,1.62-.11,3.76-2.04,3.76Z"/>
    <line class="cls-1" x1="51.98" y1="320.46" x2="70.53" y2="287.98"/>
    <line class="cls-1" x1="89.26" y1="288.04" x2="75.85" y2="320.46"/>
    <line class="cls-1" x1="108.91" y1="288.07" x2="98.81" y2="320.46"/>
    <line class="cls-1" x1="126.72" y1="288.1" x2="123.96" y2="308.9"/>
    <line class="cls-1" x1="145.08" y1="288.13" x2="143.98" y2="308.9"/>
    <line class="cls-1" x1="163.36" y1="288.13" x2="163.36" y2="308.9"/>
    <line class="cls-1" x1="181.8" y1="289.07" x2="184.74" y2="308.9"/>
    <line class="cls-1" x1="200.89" y1="288.52" x2="208.8" y2="320.46"/>
    <line class="cls-1" x1="218.9" y1="288.24" x2="231.38" y2="320.46"/>
    <line class="cls-1" x1="238.9" y1="288.52" x2="253.42" y2="320.46"/>
    <line class="cls-1" x1="258.18" y1="288.52" x2="275.27" y2="320.46"/>
    <line class="cls-1" x1="44.3" y1="293.86" x2="281.07" y2="294.4"/>
    <line class="cls-1" x1="39.58" y1="301.11" x2="285.8" y2="301.11"/>
    <line class="cls-1" x1="34.51" y1="308.9" x2="290.71" y2="308.9"/>
    <path class="cls-1" d="M16.4,321.64s-2.61,8.74,13.73,8.01l269.01.04s11.98-.25,11.41-7.31"/>
  </g>
  <g>
    <path class="cls-1" d="M324.51,282.64s-20.01,5.71-10.65,21.59c0,0,10.12,13.51,13.64,19.43,1.33,2.24,3.08,4.22,5.24,5.69,4.52,3.09,12.48,6.27,22.81,1.22,0,0,11.55-4.99,8.03-20.88-.6-2.72-1.76-5.29-3.32-7.6-4.95-7.3-18.31-23.77-35.74-19.45Z"/>
    <path class="cls-1" d="M311.9,297.97s9.41,2.01,16.01,6.36c2.9,1.92,5.02,4.79,6,8.13,1.15,3.93,2.22,10.56-.66,17.22"/>
    <path class="cls-1" d="M320.03,284.51s8.45,8.02,13.57,9.33c2.02.51,3.77-1.62,2.82-3.47s-4.55-3.99-12.46-7.18"/>
  </g>
</svg>