<?xml version="1.0" encoding="UTF-8"?>
<svg id="Layer_1" data-name="Layer 1" xmlns="http://www.w3.org/2000/svg" viewBox="0 0 380 380">
  <defs>
    <style>
      .cls-1 {
        fill: none;
        stroke: #000;
        stroke-linecap: round;
        stroke-linejoin: round;
        stroke-width: 4px;
      }
    </style>
  </defs>
  <path class="cls-1" d="M306.07,309.17s-22.1-113.45-200.38-134.08c0,0-47.15-2.95-61.88,0,33.4,14.85,68.4,34.29,94.01,60.64,14.17,14.58,20.05,34.08,30.89,50.87,11.03,17.08,25.43,32.53,43.29,42.55,16.25,9.11,40.26,13.32,58.56,8.66,14.62-3.72,26.66-17.34,35.51-28.65Z"/>
  <path class="cls-1" d="M235.59,218.17s-14.98-118.22,54.27-180.1c0,0-20.72,86.76,19.18,135.24,9.72,11.81,17.28,25.28,21.22,40.07,7,26.28,8.72,64.6-24.2,95.79"/>
  <path class="cls-1" d="M284.32,330.83s19.83,32.54,41.48,27.94c5.38-1.14,9.37-5.66,10.02-11.12,1.28-10.87.4-24.43-19.33-50.02"/>
  <path class="cls-1" d="M147.25,182.11S67.67,96.12,82.23,30.54c1.14-5.14,5.38-9.1,10.62-9.58,17.57-1.62,63.55,6.7,149.83,99.61"/>
  <path class="cls-1" d="M215.86,206.61S91.24,62.37,86.08,28.49"/>
  <path class="cls-1" d="M235.44,163.24S154.76,55.52,88.46,26.74"/>
  <path class="cls-1" d="M97.39,103.71s36.78-37.4,70.05-51.16"/>
  <path class="cls-1" d="M117.37,139.56s42.15-52.4,80.06-63.32"/>
  <path class="cls-1" d="M139.61,168.02s53.96-60.73,83.19-68.05"/>
  <path class="cls-1" d="M167.44,185.4s38.47-45.5,73.44-57.38"/>
  <path class="cls-1" d="M204.16,200.91s14.69-22.09,30.06-25.03"/>
</svg>