<?xml version="1.0" encoding="UTF-8"?>
<svg id="Layer_1" data-name="Layer 1" xmlns="http://www.w3.org/2000/svg" viewBox="0 0 380 380">
  <defs>
    <style>
      .cls-1 {
        fill: none;
        stroke: #000;
        stroke-linecap: round;
        stroke-linejoin: round;
        stroke-width: 4px;
      }
    </style>
  </defs>
  <path class="cls-1" d="M224.4,292.64l48.82-63.31c19.24-24.95,1.45-61.13-30.06-61.13h-107.52c-31.51,0-49.29,36.18-30.05,61.13l48.82,63.31c17.69,22.95,52.31,22.95,70,0Z"/>
  <path class="cls-1" d="M176.22,69.15s-70.22-36.11-108.12,35.62c-.47.89-.78,1.86-.92,2.86-.6,4.29-2.11,16.91-.99,29.21.42,4.54,4.19,8.03,8.75,7.93,8.79-.18,22.97.07,29.68,3.17,2.7,1.25,5.82,1.17,8.29-.49l10.89-7.33c2.54-1.71,3.98-4.64,3.79-7.7l-1.04-16.34c-.17-2.71.94-5.34,3.01-7.11l46.66-39.83"/>
  <path class="cls-1" d="M157.19,85.39v19.98c0,7.81-3.91,15.1-10.41,19.43l-18.88,12.56"/>
  <path class="cls-1" d="M67.24,141.82s-.43,14.06.62,23.04c.62,5.27,3.11,10.14,6.9,13.86l23.18,22.68"/>
  <line class="cls-1" x1="108.01" y1="150.76" x2="108.01" y2="177.96"/>
  <path class="cls-1" d="M204.68,71.54s70.22-36.11,108.12,35.62c.47.89.78,1.86.92,2.86.6,4.29,2.11,16.91.99,29.21-.42,4.54-4.19,8.03-8.75,7.93-8.79-.18-22.97.07-29.68,3.17-2.7,1.25-5.82,1.17-8.29-.49l-10.89-7.33c-2.54-1.71-3.98-4.64-3.79-7.7l1.04-16.34c.17-2.71-.94-5.34-3.01-7.11l-46.66-39.83"/>
  <path class="cls-1" d="M223.71,87.78v19.98c0,7.81,3.91,15.1,10.41,19.43l18.88,12.56"/>
  <path class="cls-1" d="M313.67,144.21s.43,14.06-.62,23.04c-.62,5.27-3.11,10.14-6.9,13.86l-23.18,22.68"/>
  <line class="cls-1" x1="272.89" y1="153.15" x2="272.89" y2="180.35"/>
  <path class="cls-1" d="M102.34,224.42h-33.9c-2.76,0-5.41,1.04-7.43,2.91l-23.15,21.47c-2.63,2.44-3.99,5.94-3.69,9.51l1.08,12.99c.3,3.58,2.33,6.78,5.45,8.57l5.97,3.44c2.42,1.39,5.45-.27,5.58-3.06l.68-14.47c.16-3.45,1.77-6.67,4.43-8.88l14.52-12.05c1.84-1.52,4.12-2.41,6.5-2.52l35.96-1.65"/>
  <path class="cls-1" d="M118.31,245.83s-29.06,21.55-40.96,34.47c-2.13,2.31-3.32,5.32-3.32,8.46v22.47c0,2.17,1.23,4.15,3.18,5.1l5.81,2.85c2.84,1.39,6.18-.51,6.43-3.66l1.59-19.85c.21-2.59,1.44-4.98,3.42-6.66l33.44-28.24"/>
  <path class="cls-1" d="M140.78,274.99l-15.6,18.32c-.87,1.02-1.33,2.32-1.3,3.65l.5,24.87c.04,2.11,1.29,4,3.21,4.87l3.43,1.55c3.43,1.55,7.37-.75,7.7-4.5l1.87-21.43c.12-1.38.76-2.67,1.8-3.6l9.88-8.84"/>
  <path class="cls-1" d="M277.66,226.81h33.9c2.76,0,5.41,1.04,7.43,2.91l23.15,21.47c2.63,2.44,3.99,5.94,3.69,9.51l-1.08,12.99c-.3,3.58-2.33,6.78-5.45,8.57l-5.97,3.44c-2.42,1.39-5.45-.27-5.58-3.06l-.68-14.47c-.16-3.45-1.77-6.67-4.43-8.88l-14.52-12.05c-1.84-1.52-4.12-2.41-6.5-2.52l-35.96-1.65"/>
  <path class="cls-1" d="M261.69,248.23s29.06,21.55,40.96,34.47c2.13,2.31,3.32,5.32,3.32,8.46v22.47c0,2.17-1.23,4.15-3.18,5.1l-5.81,2.85c-2.84,1.39-6.18-.51-6.43-3.66l-1.59-19.85c-.21-2.59-1.44-4.98-3.42-6.66l-33.44-28.24"/>
  <path class="cls-1" d="M239.22,277.38l15.6,18.32c.87,1.02,1.33,2.32,1.3,3.65l-.5,24.87c-.04,2.11-1.29,4-3.21,4.87l-3.43,1.55c-3.43,1.55-7.37-.75-7.7-4.5l-1.87-21.43c-.12-1.38-.76-2.67-1.8-3.6l-9.88-8.84"/>
  <line class="cls-1" x1="157.19" y1="157.66" x2="159.58" y2="164.36"/>
  <line class="cls-1" x1="223.25" y1="157.62" x2="221.05" y2="164.39"/>
  <circle class="cls-1" cx="153.89" cy="149.13" r="7.31"/>
  <circle class="cls-1" cx="225.35" cy="149.13" r="7.31"/>
</svg>