<?xml version="1.0" encoding="UTF-8"?>
<svg id="Layer_1" data-name="Layer 1" xmlns="http://www.w3.org/2000/svg" viewBox="0 0 380 380">
  <defs>
    <style>
      .cls-1 {
        fill: none;
        stroke: #000;
        stroke-linecap: round;
        stroke-linejoin: round;
        stroke-width: 4px;
      }
    </style>
  </defs>
  <polygon class="cls-1" points="207.71 160.57 153.71 242.99 153.71 272.22 361.98 272.22 361.98 220.66 339.25 198.74 340.06 189.4 251.96 189.4 252.37 160.57 207.71 160.57"/>
  <polyline class="cls-1" points="211.77 258.01 251.96 223.5 251.96 189.4"/>
  <polygon class="cls-1" points="202.43 185.34 170.36 235.68 184.16 235.68 213.39 185.34 202.43 185.34"/>
  <polygon class="cls-1" points="222.73 185.34 194.31 235.68 222.73 235.68 243.03 216.4 243.03 185.34 222.73 185.34"/>
  <line class="cls-1" x1="153.71" y1="258.01" x2="361.98" y2="258.01"/>
  <line class="cls-1" x1="251.96" y1="199.95" x2="339.25" y2="199.95"/>
  <line class="cls-1" x1="186.88" y1="272.22" x2="186.88" y2="281.15"/>
  <line class="cls-1" x1="269.83" y1="272.22" x2="269.83" y2="281.15"/>
  <path class="cls-1" d="M134.74,281.15h187.37c6.22,0,12.39,1.29,18,3.98,9.04,4.34,19.22,13.31,19.44,31.74,0,0-.96,24.06-21.42,31.97-3.8,1.47-7.87,2.13-11.94,2.13H125.7s-25.76-1.09-29.26-29.67c-.46-3.79-.22-7.63.74-11.32.03-.12.07-.25.1-.37,4.55-16.86,19.99-28.47,37.45-28.47Z"/>
  <path class="cls-1" d="M132.12,288.39c1.26-.17,2.52-.26,3.79-.25,4.14.01,8.27,0,12.41,0h144.4c8.91,0,17.81,0,26.72,0,.49,0,.98-.03,1.47,0,0,0,30.96,1.95,31.34,28.58,0,0-1.15,24.36-28.28,27.28h-191.87c-11.16,0-22.02-7.54-25.99-18.06-6.53-17.28,6.62-35.65,26.02-37.55Z"/>
  <circle class="cls-1" cx="132.2" cy="316.07" r="19.49"/>
  <circle class="cls-1" cx="132.2" cy="316.07" r="9.74"/>
  <circle class="cls-1" cx="179.87" cy="316.07" r="19.49"/>
  <circle class="cls-1" cx="179.87" cy="316.07" r="9.74"/>
  <circle class="cls-1" cx="228.15" cy="316.07" r="19.49"/>
  <circle class="cls-1" cx="228.15" cy="316.07" r="9.74"/>
  <circle class="cls-1" cx="275.82" cy="316.07" r="19.49"/>
  <circle class="cls-1" cx="275.82" cy="316.07" r="9.74"/>
  <circle class="cls-1" cx="323.5" cy="316.07" r="19.49"/>
  <circle class="cls-1" cx="323.5" cy="316.07" r="9.74"/>
  <polyline class="cls-1" points="200.37 171.78 119.21 92.37 96.06 115.51 181.91 199.95"/>
  <polyline class="cls-1" points="116.77 94.8 77.19 54.61 59.53 72.58 99.26 112.31"/>
  <path class="cls-1" d="M75.52,56.3l-25.44-26.66s-26.19-5.01-25.88,13.33c0,0-2.63,19.14,23.45,15.29l11.88,12.52"/>
  <line class="cls-1" x1="24.13" y1="41.49" x2="24.13" y2="251.92"/>
  <line class="cls-1" x1="44.3" y1="251.92" x2="25.11" y2="49.9"/>
  <path class="cls-1" d="M21.16,251.92h24.97l3.7,15.22-11.83,19.88c-2.09,3.2-6.8,3.15-8.82-.1l-10.45-18.57,2.44-16.44Z"/>
  <path class="cls-1" d="M29.18,286.93s-18.67,18.07-7.71,29.14c4.42,4.46,11.74,5.21,17.5,3.38,7.61-2.42,9.77-8.25,8.68-15.81,0,0-7.11,10.38-14.66,8.27-12.68-3.55,1.53-19.04,5-24.88"/>
  <circle class="cls-1" cx="33.57" cy="274.09" r="5.92"/>
  <circle class="cls-1" cx="37.3" cy="43.95" r="5.95"/>
  <line class="cls-1" x1="105.89" y1="125.18" x2="139.71" y2="183.43"/>
  <line class="cls-1" x1="125.54" y1="144.5" x2="145.53" y2="180.5"/>
  <polyline class="cls-1" points="170.36 216.4 148.22 179.15 135.92 185.34 163.12 228.63"/>
</svg>