<?xml version="1.0" encoding="UTF-8"?>
<svg id="Layer_1" data-name="Layer 1" xmlns="http://www.w3.org/2000/svg" viewBox="0 0 380 380">
  <defs>
    <style>
      .cls-1 {
        fill: none;
        stroke: #000;
        stroke-linecap: round;
        stroke-linejoin: round;
        stroke-width: 4px;
      }
    </style>
  </defs>
  <path class="cls-1" d="M316.74,63.4c-14.28-3.83-59.74-8.46-81.23,78.5-2.74,11.1-7.63,21.55-14.21,30.9-18.73,26.59-60.53,73.72-124.98,80.25-7.88.8-15.6,2.66-22.82,5.91-21.37,9.62-56.67,32.72-25.33,71.9,10.84,13.55,26.73,22.08,43.98,23.88,33.89,3.54,97.67-.11,157.68-60.13,0,0,76.58-71.3,97.71-159.77,0,0,13.8-45.18-23.43-68.24-2.29-1.42-4.77-2.51-7.37-3.21Z"/>
  <path class="cls-1" d="M313.98,61.73s3.74-26.54,13.25-26.53c0,0,10.87-.59,3.74,33.91"/>
  <path class="cls-1" d="M97.99,280.09s-39.61,1.32-35.65,27.73"/>
  <path class="cls-1" d="M125.72,273.49s106.56-21.21,138.64-116.19"/>
  <line class="cls-1" x1="270.2" y1="133.06" x2="267.44" y2="144.04"/>
  <path class="cls-1" d="M307.18,130.85s2.57,5.56,0,11.22"/>
  <path class="cls-1" d="M287.25,184.46s1.01,8.27-.93,11.18"/>
  <path class="cls-1" d="M251.71,231.37s.73,5.31-3.56,10.64"/>
  <path class="cls-1" d="M212.26,274.11s-1.98,5.98-8.86,6.89"/>
  <path class="cls-1" d="M160.34,300.39s-2,6.06-9.45,6.06"/>
  <path class="cls-1" d="M106.68,315.96s-3.36,6.61-10.64,3.57"/>
</svg>