<?xml version="1.0" encoding="UTF-8"?>
<svg id="Layer_1" data-name="Layer 1" xmlns="http://www.w3.org/2000/svg" viewBox="0 0 380 380">
  <defs>
    <style>
      .cls-1 {
        fill: none;
        stroke: #000;
        stroke-linecap: round;
        stroke-linejoin: round;
        stroke-width: 4px;
      }
    </style>
  </defs>
  <ellipse class="cls-1" cx="148.87" cy="60.75" rx="103.85" ry="34.19"/>
  <ellipse class="cls-1" cx="149.6" cy="60.75" rx="89.81" ry="28.03"/>
  <path class="cls-1" d="M71.26,74.46s56.54-40.21,156.7-2"/>
  <path class="cls-1" d="M45.01,60.75s2.59,235.05,2.59,235.24c.08,7.29,3.56,13.27,8.89,18.22,10.22,9.48,24.77,13.7,37.82,17.66,15.88,4.81,32.22,8.08,48.85,8.37,23.15.41,46.25-3.57,68.16-10.98,0,0,17.28-5.82,29.04-16.63,6.21-5.7,9.76-13.74,9.85-22.17l2.5-229.7"/>
  <path class="cls-1" d="M59.8,316.95s1.48,19.32,37.7,28.93c0,0,45.83,17,102.37,0,0,0,33.96-7.52,38.23-31.29"/>
  <line class="cls-1" x1="67.19" y1="118.59" x2="69.04" y2="288.23"/>
  <path class="cls-1" d="M252.72,94.94s24.39-24.02,57.28,4.07c0,0,31.78,25.13,23.65,86.48,0,0-3.43,59.62-41.57,90.51-6.73,5.45-14.61,9.24-23.08,11.05-5.52,1.18-12.25,2-18.77,1.19"/>
  <path class="cls-1" d="M252.72,132.26s6.86-10.65,17.86-16.6c21.4-11.58,39.42,9.74,44.28,28.57,5,19.39,1.19,40.39-4.96,59.06-7.45,22.62-22.39,57.43-51.3,55.74-2.84-.17-5.65-.72-8.37-1.55"/>
</svg>