<?xml version="1.0" encoding="UTF-8"?>
<svg id="Layer_1" data-name="Layer 1" xmlns="http://www.w3.org/2000/svg" viewBox="0 0 380 380">
  <defs>
    <style>
      .cls-1 {
        fill: none;
        stroke: #000;
        stroke-linecap: round;
        stroke-linejoin: round;
        stroke-width: 4px;
      }
    </style>
  </defs>
  <path class="cls-1" d="M128.94,117.28s-45.86-74.82,27.39-91.27c0,0,44.42-37.86,91.28,12.35,8.57,9.18,13.33,21.32,13.26,33.87-.07,11.35-4.9,29.2-13.3,44.01,0,0-3.1-38.72-35.62-41.3,0,0-37.34,4.03-54.73-19.79,0,0-23,21.71-28.28,62.13Z"/>
  <path class="cls-1" d="M129.1,116.07l-.16,1.21s-14.16-1.03-14.51,15.55c0,0,2.24,19.16,19.56,20.59,0,0,6.42,44.68,47.11,54.42,5.96,1.43,12.26,2.48,18.09.6,9.92-3.2,38.85-13.88,46.33-55.03,0,0,18.05-4.11,18.05-21.15,0,0-.52-18.59-16-16l2.58-3.1"/>
  <path class="cls-1" d="M159.68,197.77s-1.43,28.96-12.27,31.55l-32.65,10.33,15.09,32.01-9.81,12.91,49.56,83.12"/>
  <path class="cls-1" d="M219.77,199.03s1.04,25.55,9.81,28.65l36.56,11.96-16.52,32.01,11.23,13.42-48.92,82.6"/>
  <line class="cls-1" x1="150.53" y1="227.68" x2="173.22" y2="367.67"/>
  <line class="cls-1" x1="229.6" y1="229.67" x2="207.81" y2="367.67"/>
  <path class="cls-1" d="M157.31,269.53s35.42,5.69,65.88,0"/>
  <path class="cls-1" d="M116.9,244.18s-58.11-.45-71.9,45.7c-1.68,5.64-2.4,11.53-2.4,17.41v52.55c0,4.32,3.51,7.83,7.83,7.83h279.13c4.32,0,7.83-3.51,7.83-7.83v-49.13c0-18.28-7.52-35.93-21.23-48.02-11.15-9.82-25.27-19.98-50.01-18.63"/>
  <path class="cls-1" d="M285.66,247.94s10.95,22.85,10.44,46.25"/>
  <circle class="cls-1" cx="296.11" cy="312.95" r="18.06"/>
  <path class="cls-1" d="M80.81,294.89c-4.65-19.61,10.03-45.13,10.03-45.13"/>
  <path class="cls-1" d="M79.9,335.15l-10.97,4.65s-18.07-31.32,11.87-44.91c0,0,34.87-1.04,33.95,31.48l-7.11-.52"/>
  <path class="cls-1" d="M128.94,117.28s2.48,25.99,5.05,36.14"/>
  <path class="cls-1" d="M247.57,116.25s.79,25.85-2.05,37.15"/>
</svg>