<?xml version="1.0" encoding="UTF-8"?>
<svg id="Layer_1" data-name="Layer 1" xmlns="http://www.w3.org/2000/svg" viewBox="0 0 380 380">
  <defs>
    <style>
      .cls-1 {
        fill: none;
        stroke: #000;
        stroke-linecap: round;
        stroke-linejoin: round;
        stroke-width: 4px;
      }
    </style>
  </defs>
  <g>
    <path class="cls-1" d="M306.92,79.15c-9.34-8.52-34-29.29-56.16-32.81,0,0-51.13-30.23-101.81,0,0,0-40.76,19.27-54.62,32.77-2.06,2.01-3.17,4.78-3.09,7.65.41,14.68,2.89,65.13,17.7,66.27,0,0,16.89,5.78,24.45-32.45,0,0,5.33,43.12,40.9,54.68,0,0,28.45,21.34,53.35,0,0,0,41.35-19.12,42.68-52.9-.05,1.33.77,3.11,1.13,4.37.97,3.42,2.11,6.8,3.48,10.09,2.56,6.17,6.7,15.16,14.01,16.71,10.83,2.3,14.72-7.85,17.05-16.41,4.32-15.83,4.7-32.85,4.79-49.14.02-3.36-1.38-6.58-3.86-8.84Z"/>
    <path class="cls-1" d="M160.85,40.3s43.23,33.6,23.22,76.72c0,0-12.35,29.05-50.14,1.04,0,0,.73-54.96,21.65-75.35"/>
    <ellipse class="cls-1" cx="235.42" cy="99.62" rx="23.65" ry="28.59" transform="translate(-15 48.26) rotate(-11.35)"/>
    <circle class="cls-1" cx="167.33" cy="103.69" r="6.08"/>
    <circle class="cls-1" cx="235.42" cy="104.91" r="6.08"/>
    <path class="cls-1" d="M189.88,151.58l-1.68-2.9c-2.24-3.89.56-8.75,5.05-8.75h15.43c4.49,0,7.29,4.86,5.05,8.75l-1.68,2.9c-4.93,8.53-17.25,8.53-22.17,0Z"/>
    <path class="cls-1" d="M200.97,160.3s1.33,11.11-7.41,14.08c0,0-8.14,3.61-17.7,1.95"/>
    <path class="cls-1" d="M228.89,174.65s13.27-16.28,3.49-33.17c0,0-14.08-19.02-40.01-13.44,0,0-25.19,4.99-25.93,25.29,0,0-3.7,15.15,11.11,23.43"/>
    <path class="cls-1" d="M201.04,167.11s12.62,16.56,26.6,8.15"/>
    <path class="cls-1" d="M249.95,45.88s16.54,19.6,20.61,77.46"/>
  </g>
  <path class="cls-1" d="M150.85,159.61s-20.7,20.57-21.12,75.97c-.06,8.13.94,16.24,2.87,24.14,2.89,11.84,6.5,23.77,12.08,34.33,3.18,6.03,4.91,12.8,4.92,19.62,0,3.55-.46,7.11-1.38,10.54-1.44,5.36-1.52,8.76,1.78,13.47,6.17,8.8,18.42,10.77,28.15,8.02,8.85-2.51,16.74-8.6,15.1-18.76-.51-3.15-1.16-5.81-2.95-8.59-1.69-2.62-1.03-7.18-1.18-10.26-.26-5.1-.69-10.18-1.26-15.26-1.61-14.21-4.36-28.36-8.83-41.96"/>
  <path class="cls-1" d="M225.85,250.88c-7.17,17.03-11.12,36.12-11.75,54.53-.09,2.69-.1,5.39-.02,8.08.09,2.87.37,4.67-.87,7.32-.42.9-.8,1.83-1.13,2.77-.83,2.39-1.38,4.92-1.35,7.46.09,7.48,5.63,12.13,12.37,14.25,3.19,1,6.52,1.52,9.85,1.8,0,0,27.86,0,20.75-26.08,1-14.29,2.97-28.69,6.24-42.63,1.33-5.67,2.96-11.3,5.3-16.64,2-4.57,4.22-9.08,5.7-13.85,1.59-5.13,1.93-10.39,2.1-15.73.75-23.85-6.56-47.4-18.14-68.06-.71-1.27-1.44-2.54-2.19-3.79"/>
  <line class="cls-1" x1="159.49" y1="334.06" x2="161.65" y2="345.51"/>
  <line class="cls-1" x1="181.39" y1="334.06" x2="181.39" y2="343.54"/>
  <line class="cls-1" x1="219.92" y1="334.06" x2="219.92" y2="343.54"/>
  <path class="cls-1" d="M241.5,334.06s-.84,8.87-3.21,12.44"/>
  <path class="cls-1" d="M129.72,232.1s-33.85,31.42-1.68,79.43"/>
  <path class="cls-1" d="M276.82,311.33c36.16-37.54-3.72-74.48-3.72-74.48"/>
  <path class="cls-1" d="M149.55,313.9c-7.38-2.18-18.23-4.24-25.5-.55-5.63,2.86-4.9,14.1-.49,17.6,2.87,2.28,6.83,2.91,10.38,3.1,0,0,8.21,3.56,13.01-5.93"/>
  <path class="cls-1" d="M253.71,321.02c3.07-8.86,15.24-11.67,23.16-8.16,3.54,1.57,8.35,4.95,8.56,8.94.36,6.73-3.89,7.97-8.6,8.71,0,0-1.72,6.92-21.34.4"/>
  <path class="cls-1" d="M133.94,319.83s-8.92,2.96,0,14.23"/>
  <path class="cls-1" d="M276.82,318.05s4.15,7.11,0,12.45"/>
  <path class="cls-1" d="M115.42,259.02c-3.88-.93-38.95-34.92-34.18-84.87.23-2.44-1.32-4.8-3.71-5.33-7.34-1.64-8.05,34.15-8.21,39.02-.34,10.4.15,20.93,2.36,31.11,2.41,11.14,7.38,20.55,14.31,29.55,8.29,10.77,21.89,22.44,34.06,28.62"/>
  <line class="cls-1" x1="193.48" y1="333.4" x2="210.74" y2="333.4"/>
  <path class="cls-1" d="M261.36,178.63s-24.25,3.88-22.27,29.96c0,0,3.89,24.11,32.6,28.26"/>
  <path class="cls-1" d="M140.02,281.88s21.32-8.88,26.01,4.75c0,0,3.85,8.89-16.48,18.97"/>
</svg>