<?xml version="1.0" encoding="UTF-8"?>
<svg id="Layer_1" data-name="Layer 1" xmlns="http://www.w3.org/2000/svg" viewBox="0 0 380 380">
  <defs>
    <style>
      .cls-1 {
        fill: none;
        stroke: #000;
        stroke-linecap: round;
        stroke-linejoin: round;
        stroke-width: 4px;
      }
    </style>
  </defs>
  <g>
    <path class="cls-1" d="M114.42,78.69s-32.81-9.65-36.02-27.66c0,0-9.01-41.4,110.64-38.39,0,0,84.03-.16,105.64,24.49,5.14,5.87,5.45,14.51,1.05,20.95-4.84,7.09-15.05,17.03-35.29,20.6,0,0-56.61-39.24-146.02,0Z"/>
    <path class="cls-1" d="M114.42,78.69l7.08,28.3s68.83,12.22,133.15,0l5.79-28.3"/>
    <path class="cls-1" d="M121.49,107c-.64,14.15,2.23,53.38,2.23,53.38,4.85,43.18,39.11,58.93,56.11,64.06,5.88,1.77,12.17,1.56,17.94-.53,17.07-6.18,52.38-23.86,56.3-63.53,0,0,1.86-41.8.57-53.38"/>
    <path class="cls-1" d="M121.36,112.43s-23.03-2.61-22.38,23.32c0,0,.64,22.04,23.8,24.62"/>
    <path class="cls-1" d="M255.33,112.35s21.92-3.06,24.25,21.94c.15,1.57.07,3.17-.26,4.71-1.22,5.7-5.99,18.85-24.31,21.37"/>
    <path class="cls-1" d="M147.73,207.5s2.71,27.82-5.66,47.93c0,0-105.49-3.36-110,66.75v35.04c0,5.68,4.61,10.29,10.29,10.29h295.25c5.68,0,10.29-4.61,10.29-10.29v-30.92c0-3.92-.65-7.81-1.95-11.5-6-17.1-28.92-59.39-108.99-59.37,0,0-13.2-28.12-6.13-50.32"/>
    <polyline class="cls-1" points="142.08 255.43 189.04 273.14 237.92 255.43"/>
    <path class="cls-1" d="M95.12,367.51s3.05-59.87,53.96-84.4c23.55-11.35,50.93-11.54,75.03-1.4,25.05,10.54,57.36,33.96,58.47,85.8"/>
    <path class="cls-1" d="M119.47,367.51s5.88-63.04,57.34-65.29v37.63s-12.86,11.58-13.51,27.66"/>
    <path class="cls-1" d="M258.18,367.51s-3.15-64-56.28-65.29v37.97s14.79,13.81,14.15,27.32"/>
    <polyline class="cls-1" points="146.27 284.53 114.42 257.42 78.24 316.69 107.34 324.87"/>
    <polyline class="cls-1" points="234.63 286.31 260.44 257.32 298.99 320.32 273.73 327.32"/>
  </g>
  <line class="cls-1" x1="162.54" y1="304.66" x2="176.81" y2="334.87"/>
  <line class="cls-1" x1="131.17" y1="331.33" x2="176.81" y2="339.85"/>
  <polyline class="cls-1" points="248.92 333.19 201.9 340.19 223.15 306.86"/>
</svg>