<?xml version="1.0" encoding="UTF-8"?>
<svg id="Layer_1" data-name="Layer 1" xmlns="http://www.w3.org/2000/svg" viewBox="0 0 380 380">
  <defs>
    <style>
      .cls-1 {
        fill: none;
        stroke: #000;
        stroke-linecap: round;
        stroke-linejoin: round;
        stroke-width: 4px;
      }
    </style>
  </defs>
  <path class="cls-1" d="M94.11,144.93l45.63,7.13s23.87-15.68,32.42-17.46h32.78s20.66,7.48,33.85,17.46l48.45-8.73"/>
  <polyline class="cls-1" points="85.96 163.47 143.3 177 160.05 186.97 219.54 186.97 238.78 175.57 295.07 164.17"/>
  <line class="cls-1" x1="81.31" y1="227.59" x2="158.62" y2="196.24"/>
  <line class="cls-1" x1="79.17" y1="217.61" x2="139.42" y2="176.12"/>
  <line class="cls-1" x1="241.28" y1="176.12" x2="302.2" y2="217.61"/>
  <line class="cls-1" x1="221.68" y1="196.24" x2="300.06" y2="227.59"/>
  <polyline class="cls-1" points="150.7 181.41 164.21 203.72 216.69 203.72 228.94 181.41"/>
  <path class="cls-1" d="M178.22,134.6s0-11.4,11.76-11.04c0,0,10.69-1.07,11.76,11.04"/>
  <path class="cls-1" d="M164.21,203.72s-1.67,15.32,14,17.81"/>
  <path class="cls-1" d="M201.73,221.53s15.32-4.63,14.96-17.81"/>
  <line class="cls-1" x1="175.72" y1="203.72" x2="175.72" y2="221.53"/>
  <line class="cls-1" x1="205.29" y1="203.72" x2="205.29" y2="219.44"/>
  <circle class="cls-1" cx="189.97" cy="232.23" r="15.85"/>
  <circle class="cls-1" cx="189.97" cy="232.23" r="9.51"/>
  <ellipse class="cls-1" cx="73.47" cy="146.02" rx="20.66" ry="7.48"/>
  <path class="cls-1" d="M79.17,123.53l51.58-9.51c2.39-.44,4.68,1.16,5.08,3.56h0c.39,2.33-1.15,4.54-3.47,4.99l-33.6,6.49-19.59-1.23"/>
  <path class="cls-1" d="M69.4,123.53l-52.24-9.53c-2.32-.42-4.53,1.16-4.87,3.5h0c-.3,2.08.99,4.06,3.02,4.62l29.31,6.66,24.79-.95"/>
  <path class="cls-1" d="M66.35,216.38v-24.66c0-2.62,2.13-4.75,4.75-4.75h0c2.69,0,4.87,2.18,4.87,4.87v25.77"/>
  <path class="cls-1" d="M66.35,238.61v21.88c0,3.08,2.5,5.58,5.58,5.58h0c2.23,0,4.04-1.81,4.04-4.04v-23.42"/>
  <path class="cls-1" d="M69.4,146.02v-27.02c0-2.8,2.27-5.07,5.07-5.07h0c2.6,0,4.7,2.11,4.7,4.7v27.38s-3.86,2.51-9.77,0Z"/>
  <rect class="cls-1" x="63.14" y="218.09" width="16.03" height="20.19" rx="4.33" ry="4.33"/>
  <path class="cls-1" d="M313.12,216.38v-24.66c0-2.62-2.13-4.75-4.75-4.75h0c-2.69,0-4.87,2.18-4.87,4.87v25.77"/>
  <path class="cls-1" d="M313.12,238.61v21.88c0,3.08-2.5,5.58-5.58,5.58h0c-2.23,0-4.04-1.81-4.04-4.04v-23.42"/>
  <rect class="cls-1" x="300.3" y="218.09" width="16.03" height="20.19" rx="4.33" ry="4.33" transform="translate(616.63 456.37) rotate(-180)"/>
  <path class="cls-1" d="M52.81,146.02l.53,10.55c.11,2.16,1.44,4.07,3.43,4.91,6.02,2.54,19.57,6.66,33.61.03,1.88-.89,3.1-2.76,3.2-4.83l.56-10.66"/>
  <ellipse class="cls-1" cx="306.53" cy="146.02" rx="20.66" ry="7.48"/>
  <path class="cls-1" d="M300.83,123.53l-51.58-9.51c-2.39-.44-4.68,1.16-5.08,3.56h0c-.39,2.33,1.15,4.54,3.47,4.99l33.6,6.49,19.59-1.23"/>
  <path class="cls-1" d="M310.6,123.53l52.24-9.53c2.32-.42,4.53,1.16,4.87,3.5h0c.3,2.08-.99,4.06-3.02,4.62l-29.31,6.66-24.79-.95"/>
  <path class="cls-1" d="M310.6,146.02v-27.02c0-2.8-2.27-5.07-5.07-5.07h0c-2.6,0-4.7,2.11-4.7,4.7v27.38s3.86,2.51,9.77,0Z"/>
  <path class="cls-1" d="M327.19,146.02l-.53,10.45c-.11,2.22-1.47,4.19-3.52,5.05-6.07,2.55-19.56,6.59-33.54-.01-1.87-.88-3.08-2.74-3.18-4.8l-.56-10.68"/>
</svg>