<?xml version="1.0" encoding="UTF-8"?>
<svg id="Layer_1" data-name="Layer 1" xmlns="http://www.w3.org/2000/svg" viewBox="0 0 380 380">
  <defs>
    <style>
      .cls-1 {
        fill: none;
        stroke: #000;
        stroke-linecap: round;
        stroke-linejoin: round;
        stroke-width: 4px;
      }
    </style>
  </defs>
  <ellipse class="cls-1" cx="185.63" cy="188.41" rx="66.83" ry="70.33"/>
  <path class="cls-1" d="M239.76,58.71s-72.32-28.43-96.26-12.97c-14.54,9.39-30.23,18.21-39.18,34.04-5.82,10.29-13.78,19.15-23.15,26.34-9.45,7.26-21.01,11.22-28.8,20.44-15.9,18.81-21.93,43.6-10.56,66.37.7,1.41,1.4,3.24,2.43,4.44,7.36,8.52,14.47,17.28,21.3,26.23,4.81,6.32,9.63,12.74,13.66,19.6,5.07,8.63,5.17,19.33,8.31,28.71,2.3,6.87,5.37,13.48,9.22,19.62,25.25,40.32,90.07,54.84,134.16,43.73,16.14-4.07,30.85-12.52,41.79-25.17,10.23-11.84,19.05-25.21,22.7-40.63,2.57-10.86,16.51-20.62,23.71-28.99,13-15.08,23.67-28.7,24.65-49.48.55-11.57.58-23.3-1.51-34.73-2.44-13.37-9.31-22.3-17.93-32.33-5.3-6.17-10.12-12.76-14.41-19.67-7.44-11.97-11.41-21.31-23.64-28.87-5.98-3.7-12.39-6.69-18.96-9.17-8.87-3.35-18.86-4.1-27.53-7.51Z"/>
  <path class="cls-1" d="M314.07,125.54s34.91,44.39,10.47,75.81c0,0-36.41,42.39-42.89,64.84,0,0-23.44,67.83-80.3,59.85"/>
  <path class="cls-1" d="M100.6,271.68s17.46,38.08,59.35,43.73"/>
  <circle class="cls-1" cx="165.94" cy="145.49" r="8.6"/>
</svg>