<?xml version="1.0" encoding="UTF-8"?>
<svg id="Layer_1" data-name="Layer 1" xmlns="http://www.w3.org/2000/svg" viewBox="0 0 380 380">
  <defs>
    <style>
      .cls-1 {
        fill: none;
        stroke: #000;
        stroke-linecap: round;
        stroke-linejoin: round;
        stroke-width: 4px;
      }
    </style>
  </defs>
  <path class="cls-1" d="M28.99,182.31s-12.34,64.92,5.53,85.99c0,0,7.28,10.23,19.66,13.16,2.37.56,4.81-.58,5.9-2.75l1.92-3.83c1.01-2.01-.1-4.45-2.28-4.99-5.5-1.38-14.43-5.2-16.46-15.63,0,0-5.53-32.56,3.41-54.27,0,0,9.79-28.45,22.77-39.31"/>
  <path class="cls-1" d="M54.74,182.94s5.11.21,11.71-7.02c0,0,15.75-13.83,28.09-11.71,0,0,7.33.74,13.58,4.11,4.04,2.17,6.86,6.09,7.69,10.6.3,1.64.53,3.25.44,4.02,0,0-2.46,12.49-3.35,19.7-.23,1.9-.68,3.75-1.33,5.55-4.1,11.2-18.73,51.24-20.01,56.9,0,0-2.04,5.17-1.67,12.42.12,2.46-.69,4.88-2.27,6.76-1.92,2.29-4.4,5.51-5.68,8.33-.84,1.84.31,3.96,2.3,4.29l28.16,4.6c1.97.32,3.72-1.29,3.55-3.28l-1.19-14.61s-1.92-19.37,18.52-41.5l13.2-13.41"/>
  <path class="cls-1" d="M134.88,194.65s7.12,23.14,12.23,32.99c.72,1.38,1.13,2.9,1.22,4.46l3.03,50.17c.14,2.34-.47,4.67-1.73,6.64-1.37,2.15-3.21,5.15-4.6,7.95-1.01,2.03.47,4.42,2.74,4.42h25.55c2.38,0,4.23-2.07,3.97-4.44l-1.49-13.27c-.11-.96-.1-1.92.02-2.88l8.1-62.79c.3-2.29.29-4.61,0-6.9l-2.74-21.03"/>
  <path class="cls-1" d="M184.36,211.89s34.27,24.9,90.46,12.13"/>
  <path class="cls-1" d="M285.46,170.6s-20.01,30.65-9.79,55.55c0,0,8.51,20.01,19.37,37.03,0,0,6.14,12.85,8.95,20.43.86,2.31.54,4.88-.82,6.94-.82,1.25-1.75,2.8-2.49,4.43-1.09,2.4.54,5.16,3.18,5.34l21.47,1.51c2.26.16,4.19-1.63,4.19-3.9v-8.89c0-2.12-.34-4.22-1.01-6.24-3.1-9.28-11.93-38.15-6.44-50.92,3.27-7.5,6.66-14.95,10.43-22.21,3.61-6.95,8.12-13.63,10.44-21.31,2.56-8.49,4.32-17.5,2.99-26.37-.51-3.35-1.53-6.67-3.42-9.5"/>
  <path class="cls-1" d="M343.34,153.91s6.6,6.9,9.8,25.84c0,0,4.41,26.82,4.65,36.18,0,0-4.65,13.2,6.63,27.24,0,0,4.49-7.42,3.75-14.87-.06-.62-.19-1.23-.37-1.82-.63-2.04-2.49-7.35-5.74-10.74-.91-.94-1.41-2.21-1.38-3.52.22-9.21-.25-45.8-19.03-83.35,0,0-14.81-28.81-59.68-35.52-2.06-.31-4.15-.4-6.23-.27-6.66.43-23.46,1.65-36.46,3.65,0,0-17.03,2.34-39.8-1.92,0,0-25.75-4.68-32.56-8.09,0,0-10.64-16.18-41.08-3.83,0,0-19.91-6.87-29.59-4.1-1.34.38-2.55,1.13-3.52,2.13-2.66,2.71-9.97,10.01-12.22,10.7,0,0-13.4,7.66-18.95,12.74-.89.82-1.62,1.8-2.14,2.89-1.69,3.58-6.11,13.28-6.79,18.42,0,0-16.6,29.58-20.22,45.55"/>
  <path class="cls-1" d="M259.32,226.71l7.72,13.63c1.05,1.85,1.53,3.97,1.37,6.09l-2.59,35.94c-.09,1.28-.71,2.46-1.7,3.26-1.9,1.52-5.06,4.4-6.54,7.68-1.33,2.94.85,6.26,4.07,6.26h24.14c2.06,0,3.62-1.85,3.28-3.88l-1.39-8.2c-.2-1.15-.14-2.34.17-3.47l6.09-22.6"/>
  <path class="cls-1" d="M104.55,92.49s14.9-8.51,21.28-9.58"/>
  <path class="cls-1" d="M166.91,86.74s37.03,49.38,19.58,61.51c0,0-26.46,6.81-29.72,11.71,0,0-12.63,11.71-24.34,21.71,0,0-11.22,8.44-16.57-2.48"/>
  <path class="cls-1" d="M122.42,108.67s-1.28,15.96-12.98,21.07c0,0-8.15,10.67,3.59,42.16"/>
  <path class="cls-1" d="M62.62,152.51s10.44,7.81,15.12,15.72"/>
  <path class="cls-1" d="M67.96,156.98s-35.14,22.35-56.21,13.62c0,0,5.85,10.72,22.76,10.52,1.44-.02,2.87-.18,4.29-.46,3.44-.68,11.03-2.32,18.98-5.02"/>
  <circle class="cls-1" cx="73.96" cy="126.49" r="3.78"/>
</svg>