<?xml version="1.0" encoding="UTF-8"?>
<svg id="Layer_1" data-name="Layer 1" xmlns="http://www.w3.org/2000/svg" viewBox="0 0 380 380">
  <defs>
    <style>
      .cls-1 {
        fill: none;
        stroke: #000;
        stroke-linecap: round;
        stroke-linejoin: round;
        stroke-width: 4px;
      }
    </style>
  </defs>
  <path class="cls-1" d="M175.84,111.77h-59.53c-4.25,0-7.69,3.44-7.69,7.69v37.62H41.86c-9.38,0-16.99,7.61-16.99,16.99v37.22c0,4.47,3.62,8.09,8.09,8.09h190.94c4.81,0,7.99-5,5.95-9.35l-42.58-90.99c-2.08-4.44-6.53-7.27-11.43-7.27Z"/>
  <rect class="cls-1" x="8.69" y="226.67" width="250.42" height="63.11" rx="30.61" ry="30.61"/>
  <rect class="cls-1" x="18.4" y="233.8" width="233.02" height="47.65" rx="23.11" ry="23.11"/>
  <circle class="cls-1" cx="57.64" cy="257.63" r="16.68"/>
  <circle class="cls-1" cx="57.64" cy="257.63" r="10.84"/>
  <circle class="cls-1" cx="109.05" cy="257.63" r="16.68"/>
  <circle class="cls-1" cx="109.05" cy="257.63" r="10.84"/>
  <circle class="cls-1" cx="159.86" cy="257.63" r="16.68"/>
  <circle class="cls-1" cx="159.86" cy="257.63" r="10.84"/>
  <circle class="cls-1" cx="211.27" cy="257.63" r="16.68"/>
  <circle class="cls-1" cx="211.27" cy="257.63" r="10.84"/>
  <line class="cls-1" x1="59.26" y1="219.39" x2="59.26" y2="226.67"/>
  <line class="cls-1" x1="86.77" y1="219.39" x2="86.77" y2="226.67"/>
  <line class="cls-1" x1="176.54" y1="219.39" x2="176.54" y2="226.67"/>
  <line class="cls-1" x1="206.12" y1="219.39" x2="206.12" y2="225.05"/>
  <path class="cls-1" d="M124.39,120.67h45.56c4.04,0,7.74,2.27,9.57,5.88l22.37,44.08c1.91,3.76-.88,8.19-5.1,8.09l-73.48-1.67c-3.45-.08-6.21-2.9-6.21-6.35v-42.74c0-4.02,3.26-7.28,7.28-7.28Z"/>
  <line class="cls-1" x1="119.89" y1="189.45" x2="138.96" y2="189.45"/>
  <line class="cls-1" x1="46.2" y1="171.65" x2="46.2" y2="202.39"/>
  <line class="cls-1" x1="62.09" y1="171.65" x2="62.09" y2="202.39"/>
  <path class="cls-1" d="M49.15,157.08v-13.45c0-2.4,1.95-4.35,4.35-4.35h22.45c2.4,0,4.35,1.95,4.35,4.35v13.45"/>
  <path class="cls-1" d="M59.26,139.28l-3.54-14.8c-.46-1.94,1.01-3.81,3.01-3.81h7.28c1.45,0,2.7,1.01,3.02,2.42l3.59,16.19"/>
  <path class="cls-1" d="M188.7,122.11l116.31-31.25c4.78-1.28,9.92-.63,14.09,2.05,2.48,1.59,4.88,4.02,6.58,7.73,4.07,8.91-3.38,19.89-11.71,23.09l-104.33,40.07"/>
  <path class="cls-1" d="M297.69,129.98c4.48,8.29,8.96,16.57,13.44,24.86,7.58,14.02,15.17,28.04,22.75,42.07,1.83,3.39,3.67,6.78,5.5,10.16,2.11,3.9,6.1,6.43,10.32,7.51,4.49,1.15,9.72.75,13.08-2.91,3.97-4.33,5.09-12.08,2.95-17.42-.71-1.77-1.59-3.5-2.38-5.24-2.86-6.29-5.72-12.59-8.58-18.88-7.1-15.61-14.19-31.22-21.29-46.83-2.3-5.05-4.59-10.1-6.89-15.16"/>
  <path class="cls-1" d="M332.29,195.92l-50.93,23.46-18.61-2.02s6.87,16.43,6.88,16.44c3.83,9.15,10.32,17.46,18.4,23.2,10.47,7.43,24.57,10.38,37.11,7.57,8.6-1.93,16.94-5.52,24.88-9.28,6.87-3.26,13.88-7.71,17.72-14.5,6.14-10.87,3.6-24.21-1.9-34.79"/>
  <circle class="cls-1" cx="304.02" cy="108.13" r="10.11"/>
  <circle class="cls-1" cx="351.19" cy="197.53" r="9.1"/>
  <line class="cls-1" x1="269.63" y1="233.8" x2="336.86" y2="202.39"/>
</svg>