<?xml version="1.0" encoding="UTF-8"?>
<svg id="Layer_1" data-name="Layer 1" xmlns="http://www.w3.org/2000/svg" viewBox="0 0 380 380">
  <defs>
    <style>
      .cls-1 {
        fill: none;
        stroke: #000;
        stroke-linecap: round;
        stroke-linejoin: round;
        stroke-width: 4px;
      }
    </style>
  </defs>
  <path class="cls-1" d="M85.36,88.93l21.45-67.82c1.41-4.47,5.56-7.51,10.25-7.51h94.1c4.67,0,8.81,3.02,10.24,7.47l21.7,67.85"/>
  <path class="cls-1" d="M55.04,88.93h219.89c3.3,0,5.56,3.32,4.35,6.39-4.73,11.96-17.88,18.5-29.36,22.22-15.57,5.04-32.03,6.51-48.3,7.22-21.1.92-42.26,1.89-63.37.93-20.02-.92-41.32-2.3-60.31-9.19-10.72-3.9-22.04-10.13-27.12-20.88-1.46-3.1.8-6.67,4.23-6.67Z"/>
  <line class="cls-1" x1="95.74" y1="56.12" x2="154.25" y2="56.12"/>
  <line class="cls-1" x1="176.13" y1="56.12" x2="232.6" y2="56.12"/>
  <path class="cls-1" d="M95.74,121.3s-17.52,87.98,61.75,105.36c5.02,1.1,10.22,1.05,15.2-.22,19.75-5.06,68.51-25.65,61.91-105.13"/>
  <path class="cls-1" d="M75.6,115.59s-22.37,33.84,20.73,49.29"/>
  <path class="cls-1" d="M255.32,115.59s10.56,43.98-22.73,46.64"/>
  <path class="cls-1" d="M124.99,212.52c-.59,10.54.85,21.81,4.91,31.58,2.69,6.47,6.84,12.46,12.86,16.22,9.41,5.87,23.96,6.81,34.17,2.5,6.7-2.83,12.03-8.04,15.94-14.09,6.93-10.71,9.9-23.71,11.5-36.21"/>
  <path class="cls-1" d="M303.6,279.49s-43.72-40.56-103.62-46.35"/>
  <path class="cls-1" d="M124.99,233.13s-102.08,19.32-108.52,67.6l-2.82,57.52c-.22,4.43,3.32,8.14,7.75,8.14h318.89c3.2,0,5.79-2.59,5.79-5.79v-98.5c0-3.2-2.59-5.79-5.79-5.79h-30.9c-3.2,0-5.79,2.59-5.79,5.79v104.29"/>
  <path class="cls-1" d="M69.79,366.4v-54.77c0-3.53,2.86-6.39,6.39-6.39h175.54c3.53,0,6.39,2.86,6.39,6.39v54.77"/>
  <line class="cls-1" x1="78.67" y1="246.63" x2="78.67" y2="305.24"/>
  <line class="cls-1" x1="100.53" y1="239.26" x2="100.53" y2="305.24"/>
  <line class="cls-1" x1="226.59" y1="238.83" x2="226.59" y2="305.24"/>
  <line class="cls-1" x1="251.79" y1="246.63" x2="251.79" y2="305.24"/>
  <line class="cls-1" x1="92.9" y1="334.21" x2="110.47" y2="334.21"/>
  <line class="cls-1" x1="219" y1="334.21" x2="235.21" y2="334.21"/>
  <line class="cls-1" x1="303.6" y1="305.24" x2="346.09" y2="305.24"/>
  <line class="cls-1" x1="303.6" y1="334.21" x2="346.09" y2="334.21"/>
  <line class="cls-1" x1="324.85" y1="129.48" x2="324.85" y2="256.31"/>
  <path class="cls-1" d="M282.02,129.48v55.81c0,11.93,9.23,21.75,21.13,22.64.56.04.44.07,4.25.09h41.56c.72,0,4.23-1.02,7.17-3.04.03-.02.07-.05.1-.07,6.4-4.42,10.13-11.78,10.13-19.56v-55.88"/>
</svg>