<?xml version="1.0" encoding="UTF-8"?>
<svg id="Layer_1" data-name="Layer 1" xmlns="http://www.w3.org/2000/svg" viewBox="0 0 380 380">
  <defs>
    <style>
      .cls-1 {
        fill: none;
        stroke: #000;
        stroke-linecap: round;
        stroke-linejoin: round;
        stroke-width: 4px;
      }
    </style>
  </defs>
  <polyline class="cls-1" points="166.36 75.3 166.36 9.97 212.28 9.97 212.28 75.3"/>
  <path class="cls-1" d="M237.21,219.48c19.16-2.21,34.82-14.61,34.82-14.61,23.09-18.78,20.14-95.67,20.14-95.67-17.68-37.82-102.85-33.89-102.85-33.89-90.57-1.96-103.46,33.89-103.46,33.89,0,0-5.4,87.6,23.58,99.55,0,0,15.12,7.05,32.86,10.73"/>
  <path class="cls-1" d="M292.17,110.16c-114.45-28-206.31-.96-206.31-.96"/>
  <path class="cls-1" d="M166.36,24.22s-60.66,13.95-63.7,67.89"/>
  <path class="cls-1" d="M212.28,24.22s56.37,10.02,63.96,67.89"/>
  <path class="cls-1" d="M141.45,100.77s-4.99,22.22-15.31,30.79c0,0-2.89,43.45,12.55,63.1,0,0,14.47,18.55,34.02,27.78,8.14,3.84,17.52,4.17,25.93.99,12.12-4.58,31.1-13.65,41.15-28.28,0,0,16.76-22.25,10.99-64.67,0,0-16.52-18.79-17.5-30.54"/>
  <path class="cls-1" d="M111.78,103.81v23.07s-17.58,21.27,16.32,40.11"/>
  <path class="cls-1" d="M264.17,104.28v21.12s20.36,15.86-12.17,41.58"/>
  <line class="cls-1" x1="111.78" y1="126.88" x2="126.14" y2="131.57"/>
  <line class="cls-1" x1="250.79" y1="130.49" x2="264.17" y2="125.41"/>
  <circle class="cls-1" cx="188.69" cy="33.55" r="9.09"/>
  <path class="cls-1" d="M143.83,200.53v29.93c0,3.08-2.28,5.68-5.33,6.09-19.34,2.59-84.79,14.71-87.5,60.57,0,.15-.01.29-.01.44v61.92c0,5.83,4.73,10.56,10.56,10.56h256.91c5.83,0,10.56-4.73,10.56-10.56v-62.14s2.36-51.88-88.58-60.44c-3.22-.3-5.67-3.02-5.6-6.25l.68-30.11"/>
  <path class="cls-1" d="M143.83,235.93s40.02,38.31,93.2,0"/>
  <line class="cls-1" x1="175.67" y1="225.6" x2="175.67" y2="370.03"/>
  <line class="cls-1" x1="202.89" y1="221.76" x2="202.89" y2="370.03"/>
  <line class="cls-1" x1="107.22" y1="310.8" x2="107.22" y2="370.03"/>
  <line class="cls-1" x1="270.46" y1="310.8" x2="270.46" y2="370.03"/>
  <line class="cls-1" x1="50.98" y1="333.19" x2="107.22" y2="333.19"/>
  <line class="cls-1" x1="50.98" y1="357.75" x2="107.22" y2="357.75"/>
  <line class="cls-1" x1="107.22" y1="322.38" x2="175.67" y2="322.38"/>
  <line class="cls-1" x1="107.22" y1="346.45" x2="175.67" y2="346.45"/>
  <line class="cls-1" x1="202.89" y1="322.38" x2="270.46" y2="322.38"/>
  <line class="cls-1" x1="202.89" y1="346.45" x2="270.46" y2="346.45"/>
  <line class="cls-1" x1="270.46" y1="333.19" x2="329.01" y2="333.19"/>
  <line class="cls-1" x1="270.46" y1="357.75" x2="329.01" y2="357.75"/>
</svg>