<?xml version="1.0" encoding="UTF-8"?>
<svg id="Layer_1" data-name="Layer 1" xmlns="http://www.w3.org/2000/svg" viewBox="0 0 380 380">
  <defs>
    <style>
      .cls-1 {
        fill: none;
        stroke: #000;
        stroke-linecap: round;
        stroke-linejoin: round;
        stroke-width: 4px;
      }
    </style>
  </defs>
  <path class="cls-1" d="M231.7,287.67h-47.86v-148.91s1.23-14.73,26.59-15.55h108.82s18,1.23,24.14,21.68l15.14,45.41v76.09l8.59-.41v13.7c0,4.41-3.57,7.98-7.98,7.98h-52.98"/>
  <path class="cls-1" d="M48.43,287.67h-31.91s-8.18-6.95,0-12.68h31.91"/>
  <line class="cls-1" x1="123.7" y1="287.67" x2="183.84" y2="287.67"/>
  <path class="cls-1" d="M16.52,274.99v-140.11c0-6.44,5.22-11.66,11.66-11.66h140.32c8.47,0,15.34,6.87,15.34,15.34v.2"/>
  <line class="cls-1" x1="123.7" y1="274.99" x2="230.48" y2="274.99"/>
  <polyline class="cls-1" points="306.98 274.99 327.84 274.99 327.84 265.99 358.52 266.4"/>
  <circle class="cls-1" cx="86.07" cy="281.33" r="37.64"/>
  <circle class="cls-1" cx="86.07" cy="281.33" r="11.29"/>
  <circle class="cls-1" cx="269.34" cy="281.33" r="37.64"/>
  <circle class="cls-1" cx="269.34" cy="281.33" r="11.29"/>
  <polyline class="cls-1" points="28.18 123.22 28.18 101.53 48.43 83.13 66.43 83.13 66.43 123.22 314.75 89.26 314.75 77.81 272.61 61.03 68.07 87.22"/>
  <polygon class="cls-1" points="264.43 67.99 302.27 83.53 266.48 87.63 264.43 67.99"/>
  <polygon class="cls-1" points="203.89 76.58 206.75 96.22 254.61 89.88 251.75 70.03 203.89 76.58"/>
  <polygon class="cls-1" points="144.57 84.35 192.84 77.81 195.7 97.44 147.02 103.38 144.57 84.35"/>
  <polygon class="cls-1" points="86.07 91.51 133.32 85.58 136.18 104.4 88.32 111.35 86.07 91.51"/>
  <polyline class="cls-1" points="66.43 94.17 75.64 93.15 78.3 111.35 66.43 114.01"/>
  <polyline class="cls-1" points="16.52 155.33 175.05 155.33 175.05 274.99"/>
  <path class="cls-1" d="M37.18,274.99s1.63-35.45,40.93-42.91c6.1-1.16,12.39-.95,18.39.66,12.54,3.36,32.61,13.23,38.25,42.25"/>
  <path class="cls-1" d="M219.64,274.99s5.93-44.33,48.89-43.64c0,0,41.52-.74,48.27,43.64"/>
  <line class="cls-1" x1="130.25" y1="155.33" x2="130.25" y2="259.65"/>
  <circle class="cls-1" cx="152.75" cy="175.17" r="9.61"/>
  <circle class="cls-1" cx="153.77" cy="236.23" r="9.61"/>
  <line class="cls-1" x1="16.52" y1="165.56" x2="130.25" y2="165.56"/>
  <line class="cls-1" x1="16.52" y1="175.17" x2="130.25" y2="175.17"/>
  <line class="cls-1" x1="16.52" y1="184.78" x2="130.25" y2="184.78"/>
  <line class="cls-1" x1="16.52" y1="194.4" x2="130.25" y2="194.4"/>
  <line class="cls-1" x1="16.52" y1="204.01" x2="130.25" y2="204.01"/>
  <line class="cls-1" x1="16.52" y1="213.62" x2="130.25" y2="213.62"/>
  <line class="cls-1" x1="183.84" y1="234.69" x2="249.6" y2="234.48"/>
  <line class="cls-1" x1="183.84" y1="249.01" x2="229.25" y2="249.01"/>
  <line class="cls-1" x1="285.22" y1="234.48" x2="358.52" y2="234.48"/>
  <line class="cls-1" x1="306.98" y1="249.01" x2="358.52" y2="249.01"/>
  <path class="cls-1" d="M327.84,265.99v-3.48c0-3.39,2.75-6.14,6.14-6.14h24.55"/>
  <rect class="cls-1" x="201.44" y="139.99" width="38.45" height="52.77" rx="13.75" ry="13.75"/>
  <path class="cls-1" d="M341.85,196.54l-4.88.89c-1.88.34-3.61-1.1-3.61-3.01v-17.39c0-1.98,1.86-3.44,3.78-2.97l4.67,1.13c3,.73,5.17,3.33,5.34,6.41l.43,7.66c.2,3.53-2.26,6.65-5.74,7.29Z"/>
  <path class="cls-1" d="M344.03,176.15l-12.01-33.7c-.79-2.21-2.88-3.68-5.22-3.68h-63.2c-3.06,0-5.54,2.48-5.54,5.54v42.91c0,3.06,2.48,5.54,5.54,5.54h69.16"/>
  <line class="cls-1" x1="258.05" y1="205.44" x2="275.48" y2="205.44"/>
  <line class="cls-1" x1="249.6" y1="123.22" x2="249.6" y2="233.06"/>
  <path class="cls-1" d="M270.77,123.22v-1.23c0-4.86,3.94-8.8,8.8-8.8h18.61c4.86,0,8.8,3.94,8.8,8.8v1.23"/>
  <path class="cls-1" d="M280.63,113.19s-.45-10.64,8.24-10.64c0,0,9.57-.31,9.51,10.64"/>
</svg>