<?xml version="1.0" encoding="UTF-8"?>
<svg id="Layer_1" data-name="Layer 1" xmlns="http://www.w3.org/2000/svg" viewBox="0 0 380 380">
  <defs>
    <style>
      .cls-1 {
        fill: none;
        stroke: #000;
        stroke-linecap: round;
        stroke-linejoin: round;
        stroke-width: 4px;
      }
    </style>
  </defs>
  <g>
    <path class="cls-1" d="M34.89,201.7c-2.22-5.32,1.78-15.91,3.44-20.78,5.91-17.28,18.39-31.33,33.49-41.3,27.36-18.07,70.05-30.21,102.79-24.04,28.66,5.4,55.97,16.68,79.13,34.52-.52-.41-1.05-.82-1.57-1.22,4,3.08,8.09,6.04,12.07,9.16,5.77,4.52,11.37,8.49,15.39,14.72,2.2-5.52,7.13-10.88,10.83-15.45,6.08-7.51,12.93-14.63,20.95-20.08,9.59-6.52,21.45-10.34,32.6-5.41,0,0,3.09,33.94-24.07,62.33,0,0,33.54,46.29,24.17,68.5,0,0-40.22,3.7-66.76-42.58-14.71,12.87-31.6,23.82-48.78,33.03-15.02,8.06-30.92,14.82-47.56,18.7-50.31,11.74-107.66-8.51-136.28-51.18-.68-1.02,8.84-2.31,13.13-2.84.58-.07.7-.85.17-1.1-5.52-2.58-21.42-10.81-23.16-14.98Z"/>
    <path class="cls-1" d="M104.14,123.7s60.09,65.34,3.1,143.8"/>
    <circle class="cls-1" cx="84.81" cy="178.1" r="11.11"/>
    <path class="cls-1" d="M151.67,113.95s36.21-59.69,78.58-33.77c0,0,9.98,11.67-13.32,48.21"/>
    <path class="cls-1" d="M203.32,264.83s17.06,25.18,12.12,39.16c0,0-32.5,14.6-63.77-28.9"/>
  </g>
  <path class="cls-1" d="M131.23,186.43c-.03-1.75,13.01-6.89,14.65-7.57,5.59-2.34,12.58-4.99,18.74-3.61,6.01,1.34,8.4,7.28,9.72,12.77,1.69,7-.87,18.65-8.63,21.14-4.18,1.34-9.96-.43-14.15-1.12-6.77-1.12-13.56-2.52-20.05-4.79,0,0-.28-16.79-.28-16.8Z"/>
</svg>