<?xml version="1.0" encoding="UTF-8"?>
<svg id="Layer_1" data-name="Layer 1" xmlns="http://www.w3.org/2000/svg" viewBox="0 0 380 380">
  <defs>
    <style>
      .cls-1 {
        fill: none;
        stroke: #000;
        stroke-linecap: round;
        stroke-linejoin: round;
        stroke-width: 4px;
      }
    </style>
  </defs>
  <rect class="cls-1" x="34.94" y="79.73" width="310.11" height="271.02" rx="13.53" ry="13.53" transform="translate(-6.61 6.02) rotate(-1.78)"/>
  <line class="cls-1" x1="181.73" y1="54.11" x2="182.53" y2="79.89"/>
  <ellipse class="cls-1" cx="181.56" cy="39.51" rx="10.02" ry="14.6"/>
  <rect class="cls-1" x="76.39" y="119.27" width="227.2" height="192.63" transform="translate(-6.62 6.02) rotate(-1.78)"/>
  <line class="cls-1" x1="36.09" y1="87.33" x2="73.45" y2="122.85"/>
  <line class="cls-1" x1="43.24" y1="351.57" x2="79.44" y2="315.38"/>
  <line class="cls-1" x1="300.53" y1="115.78" x2="335.92" y2="79.89"/>
  <line class="cls-1" x1="306.53" y1="308.31" x2="345.26" y2="341.85"/>
  <path class="cls-1" d="M230.3,242.61c-8.83-2.38-57.06-36.68-57.06-36.68-25.81-19.02-60.11,33.62-60.11,33.62-17.32,24.45-35.34,22.72-35.34,22.72"/>
  <path class="cls-1" d="M173.59,312.45s39.73-38.94,61.8-74.6c3.16-5.11,6.21-9.79,12.7-10.94,11.28-2.01,20.54,6.81,27.71,14.25,8.43,8.75,16.85,18.33,29.3,21.14"/>
  <circle class="cls-1" cx="206.63" cy="174.68" r="23.67"/>
</svg>