<?xml version="1.0" encoding="UTF-8"?>
<svg id="Layer_1" data-name="Layer 1" xmlns="http://www.w3.org/2000/svg" viewBox="0 0 380 380">
  <defs>
    <style>
      .cls-1 {
        fill: none;
        stroke: #000;
        stroke-linecap: round;
        stroke-linejoin: round;
        stroke-width: 4px;
      }
    </style>
  </defs>
  <path class="cls-1" d="M44.75,87.13c2.12-9,7.5-19.32,16.58-22.8,9.84-3.77,21.52.33,27.13,8.96"/>
  <path class="cls-1" d="M145.48,137.93s-5.04,11.59-36.27,0c0,0-43.45-14-81.19-15.53-2.64-.11-5.25-.77-7.51-2.14-5.4-3.26-10.41-11,11.68-27.47,3.6-2.68,7.72-4.59,12.11-5.56,8.53-1.88,24.1-5.4,34.12-8.2,2.11-.59,4.1-1.55,5.86-2.87,6.72-5.06,27.25-17.94,45.09-2.06,3.25,2.9,5.77,6.52,7.48,10.53,1.28,3,4.28,7.4,11.17,9.74,0,0,32.24,12.83,28.21,27.94"/>
  <path class="cls-1" d="M18.26,118.55s-3.76,14.34,24.45,19.88c0,0,3.93.44,15.03,13.89,1.58,1.91,2.82,4.08,3.72,6.39,3.96,10.18,19.05,40.53,53.29,24.04"/>
  <path class="cls-1" d="M88.46,187.57s27.8,40.02,72.64,61.68"/>
  <path class="cls-1" d="M135.91,81.51s29.95,11.71,48.86,19.74c5.14,2.18,10.6,3.47,16.17,3.79,12.35.71,36.08,3.18,51.61,11.86,1.71.96,3.29,2.12,4.77,3.41,7.19,6.24,31.62,27.71,41.93,40.22,1.69,2.05,3.65,3.87,5.87,5.34,8.74,5.81,30.78,21.69,28.76,33.03"/>
  <path class="cls-1" d="M293.08,189.81s-61,10.47-41.93,61.27c2.19,5.83,6.57,10.56,12.15,13.32,15.52,7.67,49.56,17.22,79.14-24.72"/>
  <path class="cls-1" d="M275.95,227.09s14.81-35.16,74.57-26.56c6.03.87,10.99,5.26,12.43,11.18,2.4,9.83,2.38,27.37-12.38,54.04-1.92,3.46-4.76,6.32-8.2,8.28-8.54,4.87-25.89,14.65-37.07,20.26-1.86.94-3.55,2.17-5,3.67-3.34,3.43-9.36,9.93-12.2,14.91-2.12,3.72-6.93,5.16-10.53,2.85-2.48-1.59-3.93-4.67-1.62-10.55,0,0,7.56-11.08,14.61-14.1,0,0-38.48.48-60.08,11.11-1.41.7-3,.96-4.55.73-4.38-.64-11.47-2.88.75-10.67,1.21-.77,2.57-1.26,3.99-1.47,7.99-1.19,36.78-5.88,46.28-12.8"/>
  <path class="cls-1" d="M281.49,271.11s-53.9,7.24-79.59,0"/>
  <path class="cls-1" d="M244.58,288.36s-5.42-13.11,14.73-15.05"/>
  <path class="cls-1" d="M186.79,220.54s-25.69,18.89-40.3,52.77c0,0-8.56,15.37-34.25,15.05h-30.62c-2.45,0-4.85.98-6.41,2.87-1.26,1.53-1.86,3.56.25,5.82,1.57,1.69,3.83,2.58,6.14,2.58h40.22s-8.23,5.31-22.62,5.56c-2.7.05-5.28,1.43-6.53,3.83-1.32,2.54-.87,5.77,7.33,7.78,1.65.4,3.38.35,5.01-.11,7.22-2.05,29.18-8.16,37.96-9,0,0,33.75,2.33,46.34-17.13,0,0,31.74-43.83,28.21-65.99,0,0-3.02-13.1-15.62-20.65,0,0-15.62-11.59-21.16-20.15"/>
  <circle class="cls-1" cx="107.16" cy="92.09" r="18.39"/>
  <ellipse class="cls-1" cx="107.16" cy="92.09" rx="11.62" ry="6.55"/>
  <circle class="cls-1" cx="47.25" cy="98.63" r="4.28"/>
  <path class="cls-1" d="M103.95,206.12s-18.53,36.83-37.46,39.01c-1.43.16-2.83.5-4.12,1.13-4.18,2.04-13.93,6.28-20.49,5-2.16-.42-4.41.49-5.71,2.26-.93,1.27-1.52,2.91-.93,4.86,1.07,3.49,5.05,5.16,8.43,3.78,6.71-2.75,20.53-7.87,30.4-7.87l-8.65,8.95c-2.25,2.33-3.49,5.51-3.16,8.73.26,2.58,1.42,5.1,4.83,5.57,3.61.5,7.02-1.79,8.3-5.2,1.98-5.27,6.26-13.76,13.39-14.07,0,0,14.64.95,19.66,6.99.7.84,1.52,1.56,2.51,2.02,2.86,1.3,8.09,2.81,6.33-4.67-.29-1.22-.93-2.32-1.85-3.18-.82-.77-2.12-1.88-4.13-3.44-.83-.64-1.57-1.42-2.12-2.32s-1.73-2.44-3.99-4.42c0,0,15.04-7.12,20.36-22.95"/>
  <path class="cls-1" d="M135.91,280.83s-5.79-6.18-17.38-1.74c-1.88.72-2.12,3.28-.39,4.31,1.5.89,3.62,2.09,6.65,3.71"/>
  <path class="cls-1" d="M169.16,201.9s10.96,17.98,8.5,26.62c0,0-34.8-15.99-37.86-43.6-.88-7.92,4.27-15.4,12.06-17.07,3.45-.74,7.32-.75,11.08.97,3.18,1.46,6.64,2.16,10.13,2.31,8.58.38,23.55,2.54,30.84,12.62,0,0,28.15,26.19,43.54,25.19"/>
</svg>