<?xml version="1.0" encoding="UTF-8"?>
<svg id="Layer_1" data-name="Layer 1" xmlns="http://www.w3.org/2000/svg" viewBox="0 0 380 380">
  <defs>
    <style>
      .cls-1 {
        fill: none;
        stroke: #000;
        stroke-linecap: round;
        stroke-linejoin: round;
        stroke-width: 4px;
      }
    </style>
  </defs>
  <g>
    <path class="cls-1" d="M104.55,70.92c-3.88,6.03-8.16,9.07-12.05,9.64-5.08.75-9.49-3.45-8.85-8.54.82-6.54,6.84-12.43,6.84-12.43,2.57-1.78,7.15-7.29,9.49-10.2.87-1.08,1.38-2.39,1.59-3.76,1.46-9.55,14.94-19.18,14.94-19.18l-.51-9.18c-.02-.42-.16-.82-.4-1.16-2.43-3.35-1.79-6.14-.59-8.08,1.71-2.75,5.71-3.13,7.7-.58,1.77,2.27.82,5.42.33,6.67-.15.39-.22.8-.18,1.22l.88,11.11s3.27-.37,6.19,1.64l4.32-11.7c.2-.54.23-1.14.09-1.7-.54-2.09-1.36-7.58,4.95-7.77,1.14-.03,2.27.32,3.15,1.05,2.07,1.73,3.23,5.11-.54,8.77-.48.47-.81,1.07-.91,1.73l-2.02,12.36,3.29,2.06"/>
    <path class="cls-1" d="M95.14,80.76s2.43,5.53,12.35-4.17c1.25-1.23,2.9-1.98,4.64-2.15,8.08-.79,31.11-4.16,30.66-17.04"/>
    <path class="cls-1" d="M113.45,28.88s-9.82-3.79-15.02-1.87c0,0-.8,6.07,5.22,13.03"/>
    <path class="cls-1" d="M141.15,34.68s9.04-12.31,25.74-8.21c0,0,1.92,18.62-20.54,19.44,0,0,17.44,34.35,19.07,70.33.11,2.43.43,4.85.97,7.22,1.62,7.17,5.69,21.33,13.97,29.45,3.14,3.08,5.95,6.49,8.25,10.24,2.73,4.46,6.28,9.7,8.67,11.19,0,0,21.5,15.88,43.97,19.72,3.68.63,7.18,2.07,10.19,4.29,7.75,5.71,19.74,18.54,17.86,42.54,0,0-4.11,27.39-2.19,35.05,0,0,9.04,15.06,5.2,21.36,0,0-5.18,31.8-2.43,46.99.28,1.54.08,3.12-.55,4.55-.9,2.03-2,4.91-1.67,6.25,0,0,6.57,15.61-9.86,15.88,0,0-13.42.55-9.58-6.3l7.82-12.18c1-1.56,1.61-3.33,1.79-5.17,1-10.27,3.7-45.73-4.68-61.79,0,0-23.55-30.12-21.63-46.01"/>
    <path class="cls-1" d="M190.16,258.41s23.03,4.25,42.87-8.01"/>
    <path class="cls-1" d="M211.6,259.13s21.29,23.93,19.64,38.45l-4.56,34.11c-.33,2.43-1.17,4.77-2.47,6.85-.76,1.21-1.61,3.07-2.19,5.81-.52,2.42-1.63,4.66-3.2,6.57-3.04,3.69-7.16,9.87-3.45,12.65,0,0,17,3.83,17.67-6.57v-5.22c0-1.41.44-2.79,1.27-3.94l3.13-4.38c.96-1.34,1.48-2.95,1.48-4.6v-3.76s2.25-29.18,6.54-40.41c.78-2.04.88-4.28.2-6.36-1.74-5.31-4.63-15.17-3.34-18.69"/>
    <path class="cls-1" d="M127.83,71.43s5.92,44.85,2.91,77.44c0,0,0,28.33,4.33,41.53,1.03,3.13,1.25,6.47.61,9.7-1.01,5.07-2.58,12.3-4.08,16.56-.78,2.21-1.03,4.56-.75,6.88.6,4.9,2.14,13.05,6.01,19.25,1.01,1.61,1.67,3.41,1.84,5.31.87,9.49,3.36,37.87,2.45,44,0,0-.92,4.66,1.08,10.32.38,1.08.54,2.23.5,3.38l-1.37,36.27c-.13,3.54-1.37,6.94-3.53,9.73-4.73,6.11-12.22,16.93-6.54,17.52,0,0,17.53,5.21,18.07-5.06v-9.01c0-1.16.46-2.27,1.28-3.09h0c2.16-2.16,3.38-5.09,3.38-8.15v-33.29s4.82-18.76,4.82-18.76c.25-.98.36-1.99.32-3-.21-5.23-.63-22.7,3.08-27.48"/>
    <path class="cls-1" d="M141.15,228.84s4.46,19.16,17.06,24.09"/>
    <path class="cls-1" d="M154.02,224.45s-5.2,10.95,11.5,43.82c0,0,5.75,19.72,4.38,26.56,0,0-1.08,6.91,2.51,13.25,1.04,1.83,1.6,3.89,1.6,5.99v31.34c0,2.23-.37,4.44-1.11,6.55l-5.47,15.71s-2.19,6.3,4.38,6.57c0,0,15.61-.27,15.06-8.76v-5.48s1.05-3.56,1.05-3.56c.57-1.97.57-4.05,0-6.02l-1.59-5.48s-3.41-32.86-1.7-38.61l1.47-4.07c.69-1.91.87-3.97.53-5.97l-.58-3.38s-.55-27.11,2.74-30.67c0,0,5.48-12.05,3.83-17.25"/>
    <path class="cls-1" d="M132.1,360.01s11.51,1.11,17.26,4.25"/>
    <path class="cls-1" d="M168.62,364.26s8.38-1.33,17.97,3.51"/>
    <path class="cls-1" d="M216.67,353.76s10.76,1.32,16.37,3.23"/>
    <path class="cls-1" d="M251.21,360.01s10.33,1.6,17.5,4.09"/>
    <path class="cls-1" d="M263.98,212.75s15.46,8.42,18.47,54.16c0,0,10.41,5.48,10.95,17.8,0,0,0,8.49,3.01,11.23,0,0-17.8-4.93-18.07-28.21,0,0-1.89-19.42-9.16-37.78"/>
    <circle class="cls-1" cx="125.54" cy="47.27" r="3.97"/>
    <path class="cls-1" d="M147.99,38.78s3.01-9,10.41-6.85"/>
    <line class="cls-1" x1="90.76" y1="63.98" x2="88.57" y2="67.26"/>
    <line class="cls-1" x1="97.06" y1="63.98" x2="95.14" y2="68.63"/>
    <path class="cls-1" d="M218.38,186.56l2.86,14.49c.42,2.12,1.9,3.87,3.92,4.63l8.19,3.09c3.28,1.24,6.97.72,9.78-1.37l10.2-7.57"/>
    <path class="cls-1" d="M177.21,207.77l1.91,11.96c.27,1.7,1.28,3.18,2.76,4.06l8.54,5.06c2.39,1.42,5.38,1.36,7.72-.14l3.93-2.54c4.17-2.69,5.38-8.24,2.7-12.42l-8.38-13.07c-.92-1.44-2.62-2.18-4.31-1.87l-9.83,1.81c-3.34.62-5.58,3.79-5.04,7.14Z"/>
    <path class="cls-1" d="M134.27,187.61l12.94,13.24c2.53,2.59,2.95,6.59,1,9.65l-4.78,7.52c-1.43,2.25-4.5,2.73-6.55,1.03l-4.77-3.96"/>
    <path class="cls-1" d="M153.19,61.87l-6.7,12.94c-.85,1.65-1.02,3.57-.46,5.34l2.73,8.58c.6,1.89,2.35,3.17,4.33,3.17h9.13"/>
    <path class="cls-1" d="M141.25,141.76h0c2.32-.85,4.92-.33,6.73,1.36l7.37,6.87c2.8,2.6,3.63,6.7,2.09,10.19l-3.79,8.55c-1.16,2.61-4.25,3.73-6.81,2.48l-5.44-2.67c-2.35-1.15-3.83-3.54-3.83-6.15v-15.36c0-2.36,1.47-4.46,3.68-5.27Z"/>
    <path class="cls-1" d="M252.24,247.52l-4.72,4.21c-2,1.78-2.49,4.71-1.18,7.04l3.12,5.55c1.08,1.93,3.13,3.13,5.34,3.13h.53c3.18,0,5.75-2.57,5.75-5.75v-10.22c0-2.11-1.25-4.02-3.18-4.86h0c-1.9-.83-4.1-.47-5.65.9Z"/>
    <path class="cls-1" d="M140.37,268.22l4.8-1.09c2.36-.54,4.61,1.25,4.61,3.67v10.52c0,2.43-1.29,4.68-3.38,5.9l-4.57,2.67"/>
  </g>
  <g id="Generative_Object" data-name="Generative Object">
    <path class="cls-1" d="M214.17,216c1.84-.72,17.55,2.19,18.58,4.29,1.61,3.26-4.1,12.58-6.74,13.68-10.25,4.28-15.86-16.41-11.84-17.97Z"/>
  </g>
  <path class="cls-1" d="M154.23,101.55c5.98-.51,3.41,11.11,1.84,14.91-1.48,3.58-7.91,10.61-12.05,9.6-2.78-.68-7.28-10.78-6.74-13.68.64-3.43,13.94-10.57,16.95-10.82Z"/>
  <path class="cls-1" d="M182.27,155.03s-5.83-5.03-11.76,1.92c0,0-15.15,18.14-14.89,32.98.02,1.02.59,1.94,1.5,2.41,2.92,1.51,9.93,4.77,16.72,5.13.61.03,1.2-.08,1.77-.31,3.3-1.31,15.07-6.68,25.04-19.68"/>
  <path class="cls-1" d="M259.75,207.36c-2.35.42-4.69,1.06-6.89,1.97-2.14.88-5.53,2.56-5.97,5.12-.3,1.74,1.24,3.09,2.21,4.35,1.59,2.08,3.15,4.19,4.68,6.32,1.7,2.37,3.47,4.72,4.71,7.37,1.27,2.72,1.39,5.95,3.13,8.44,1.74,2.48,4.44,2.66,7.05,1.38"/>
  <polyline class="cls-1" points="138.56 245.2 148.36 256.84 141.01 261.13"/>
  <path class="cls-1" d="M153.62,224.57s19.3-2.39,18.88,1.38c0,0,1.24,3.12,1.22,5.8,0,0,.96,25.83-3.73,25.82,0,0-8.75.61-9.61-.98"/>
  <path class="cls-1" d="M184.91,281.83l-2.86-2.25s-9.88,9.59-5.52,13.79c0,0,8.29,9.12,9.62,2.56"/>
</svg>