<?xml version="1.0" encoding="UTF-8"?>
<svg id="Layer_1" data-name="Layer 1" xmlns="http://www.w3.org/2000/svg" viewBox="0 0 380 380">
  <defs>
    <style>
      .cls-1 {
        fill: none;
        stroke: #000;
        stroke-linecap: round;
        stroke-linejoin: round;
        stroke-width: 4px;
      }
    </style>
  </defs>
  <ellipse class="cls-1" cx="128.08" cy="144.81" rx="50.74" ry="40.4" transform="translate(-63.12 173.38) rotate(-57.01)"/>
  <ellipse class="cls-1" cx="215.76" cy="122.96" rx="39.21" ry="46.56" transform="translate(-18.58 205.15) rotate(-49)"/>
  <ellipse class="cls-1" cx="191.27" cy="207.29" rx="39.1" ry="50.3" transform="translate(-44.06 51.81) rotate(-13.85)"/>
  <path class="cls-1" d="M155.71,102.26s17.46-32.86-31.94-44.5c-9.79-2.31-20.1-1.15-29.1,3.35-14.64,7.33-33.23,24.39-17.92,44.21"/>
  <path class="cls-1" d="M83.15,166.64s-27.25,22.99-47.02,6.4c-3.87-3.24-6.26-7.92-6.73-12.94-1.05-11.26-.64-34.04,17.91-43.82,0,0,26.45-20.38,51.94,0"/>
  <path class="cls-1" d="M238.93,91.28s-12.97-20.16,6.73-29.67c0,0,34.75-20.63,59.46,12.22,1.95,2.59,3.29,5.59,3.93,8.77,1.64,8.28,3.06,25.1-9.38,35.05"/>
  <path class="cls-1" d="M257.44,117.65s27.27-8.49,46.63,3.74c13.35,8.43,22.07,23.11,22.34,38.99.12,6.89-.45,15.24-4.62,21.24-4.05,5.84-11.62,6.53-18.06,7.93-15.32,3.34-29.8-1.55-43.47-8.21-8.33-4.06-18.63-11.18-16.1-21.93"/>
  <path class="cls-1" d="M323.76,179.06c5.91,3.4,14.96,1.42,14.96,1.42,17.33-3.47,25.14-22.79,22.5-38.84-2.84-17.29-18.46-29.6-34.87-33.3-6.11-1.38-12.62-1.9-18.85-1.11"/>
  <path class="cls-1" d="M65.42,176.68s-43.92,26.89-25.24,67.65c0,0,10.24,23.09,44.18,7.81"/>
  <path class="cls-1" d="M152.58,189.91s.43-6.07-9.63-4.35"/>
  <path class="cls-1" d="M118.64,192.73s-47.21,29.52-30.91,73c0,0,14.22,35.08,59.72,13.25,0,0,20.21-11.26,17.77-36.71"/>
  <path class="cls-1" d="M224.31,243s27.79,26.12,49.87,10.83c0,0,35.23-26.52-1.23-66.58"/>
  <path class="cls-1" d="M219.32,175.51s16.31-3.01,30.32-1.06"/>
  <path class="cls-1" d="M321.39,182.18s37.22,17.11,29.54,51.9c-1.22,5.53-4.77,10.32-9.83,12.86-6.1,3.07-15.81,5.09-29.17-.59"/>
  <path class="cls-1" d="M289.49,228.7s20.95,9.27,30.11,29.99c5.78,13.08,3.51,28.54-6.02,39.21-5.32,5.95-12.58,10.08-21.5,5.61-3.75-1.88-6.79-4.93-8.91-8.55-.85-1.45-1.93-3.28-3.21-5.46"/>
  <path class="cls-1" d="M202.64,256.3s-12.34,29.13,5.32,54.6c0,0,31.05,46.42,61.27,13.5,3.36-3.66,5.93-7.97,7.55-12.67,4.08-11.88,8.56-36.38-15.11-53.38"/>
  <path class="cls-1" d="M289.49,301.98s4.26,28.95-17.07,38.8c0,0-13.87,8.48-28.64-4.59"/>
  <path class="cls-1" d="M222.71,326.69s-.43,26.75-22.83,32.82c-3.48.94-7.17.79-10.59-.37-5.5-1.86-13.68-6.16-17.08-15.65"/>
  <path class="cls-1" d="M202.98,301.98s-9.01,36-42.89,43.33c-5.74,1.24-11.77.76-17.04-1.82-10.18-4.99-21.94-19.06-11.9-58.68"/>
  <path class="cls-1" d="M75.26,255.52s-25.11,9.14-16.57,42.72c1.71,6.71,6.53,12.2,13.07,14.48,7.59,2.66,19.21,2.87,34.99-7.33,0,0,13.73-18.35,18.12-19.27"/>
  <path class="cls-1" d="M106.75,305.4s-19.82,42.75,32.5,35.81"/>
  <path class="cls-1" d="M180.63,92.42s19.86-44.73,3.56-57.98c0,0-10.02,1.7-11.97,4.08,0,0,14.21,44.73-10.86,68.39"/>
</svg>