<?xml version="1.0" encoding="UTF-8"?>
<svg id="Layer_1" data-name="Layer 1" xmlns="http://www.w3.org/2000/svg" viewBox="0 0 380 380">
  <defs>
    <style>
      .cls-1 {
        fill: none;
        stroke: #000;
        stroke-linecap: round;
        stroke-linejoin: round;
        stroke-width: 4px;
      }
    </style>
  </defs>
  <path class="cls-1" d="M170.18,263.87c-8.67.9-35.27,2.39-35.27,2.39-53.51,2.99-79.51-19.43-79.51-19.43-20.33-16.44,0-42.15,0-42.15,8.67-70.25,63.97-83.7,63.97-83.7,38.26-13.75,88.78,4.48,88.78,4.48l72.34,25.11,28.83-44.22c1.2-1.84,3.35-2.82,5.52-2.52l17.96,2.5-14.95,43.96"/>
  <path class="cls-1" d="M182.14,262.08s50.52-6.28,58.29-42.15c0,0,5.68-15.25,8.37-28.7l35.87-12.26,13.09,16.19c2.06,2.55,5.36,3.75,8.57,3.11l11.51-2.26-2.69-17.04"/>
  <path class="cls-1" d="M141.41,116.32s-49.25,23.79-58.22,80.59c0,0-23.29,2.67-31.38,13.29"/>
  <path class="cls-1" d="M154.64,116.2s-53.21,27.2-60.38,81.31c0,0,32.72,5.4,58.13,24.23,0,0,53.96-80.13,2.25-105.54"/>
  <path class="cls-1" d="M181.87,207.13c2.01-8.59,5.73-27.73,5.19-49.77-.05-2.01,1.66-3.62,3.66-3.42l27.16,2.67c3.23.32,5.75,2.92,5.97,6.15.68,9.78,1.49,30.25-2.13,44.2-.77,2.95-3.43,5-6.48,5h-29.54c-2.54,0-4.41-2.36-3.83-4.83Z"/>
  <ellipse class="cls-1" cx="317.32" cy="164.63" rx="13.22" ry="14.35"/>
  <line class="cls-1" x1="157.03" y1="104.54" x2="157.03" y2="116.32"/>
  <line class="cls-1" x1="172.57" y1="104.54" x2="172.57" y2="116.32"/>
  <path class="cls-1" d="M145.07,87.5s16.14-14.95,39.16,0c0,0,33.18,14.65-19.58,15.84,0,0-50.97,1.79-19.58-15.84Z"/>
  <path class="cls-1" d="M145.07,87.5s23.62,5.98,39.16,0"/>
  <path class="cls-1" d="M134.86,94.08s-89.95-6.64-118.27.85c-2.33.62-2.27,3.95.08,4.47,10.22,2.26,41.04,4.58,118.51-1.13"/>
  <path class="cls-1" d="M189.23,88.83s124.74-43.48,171.71-23.98c5.68,2.36,5.53,10.46-.2,12.69-15.56,6.06-56.95,14.22-166.35,17.86"/>
  <path class="cls-1" d="M88.64,262.08s-26.07,26.6-28.76,49.32c0,0-17.64-4.78-19.13,0-1.49,4.78,5.38,9.57,18.23,8.67,0,0,71-13.15,82.43-23.91,0,0,7.29-7.11,2.39-8.88-1.22-.44-2.58-.3-3.73.3-1.88.97-5.21,2.72-6.36,3.54,0,0,3.74-18.02,10.01-24.57"/>
  <path class="cls-1" d="M99.96,264.49s-25.58,21.5-28.27,43.62l51.27-13s5.83-19.73,11.96-28.85"/>
  <path class="cls-1" d="M209.95,253.73s28.39,12.38,39,39.88l-45.84,13.9s-6.65-37.96-29.05-52.61c0,0-10-2.24-5.36,7.17,0,0,21.82,18.68,25.41,48.13,0,0-19.28-2.09-17.34,2.24,0,0,1.79,8.67,18.83,7.02,0,0,35.87-7.92,64.87-20.03,4.75-1.99,8.61-6.04,10.97-10.56,1.18-2.25,2.07-3.35-.05-4.8-1.93-1.31-5.13-.33-6.89.71,0,0-5.08,4.63-6.28,5.53,0,0-15.26-31.35-39.99-41.08"/>
  <path class="cls-1" d="M234.05,134.46s26.7,19.46,14.75,56.77"/>
  <polyline class="cls-1" points="304.1 160.23 268.95 153.92 268.95 164.63 304.1 164.63"/>
  <polyline class="cls-1" points="330.54 160.97 358.18 159.28 358.18 168.84 330.54 165.63"/>
  <path class="cls-1" d="M191.86,92.13s101.3-20.68,145.69-19.78"/>
  <path class="cls-1" d="M321.91,151.17s-9.75,2.75-9.74,12.89c0,0-.85,9.85,9.74,14.03"/>
</svg>