<?xml version="1.0" encoding="UTF-8"?>
<svg id="Layer_1" data-name="Layer 1" xmlns="http://www.w3.org/2000/svg" viewBox="0 0 380 380">
  <defs>
    <style>
      .cls-1 {
        stroke-linecap: round;
      }

      .cls-1, .cls-2 {
        fill: none;
        stroke: #000;
        stroke-linejoin: round;
        stroke-width: 4px;
      }
    </style>
  </defs>
  <path class="cls-2" d="M106.81,120.64c.24-7.96.36-15.95,2.64-23.54,4.98-16.65,20.93-29.4,38.27-30.61,17.33-1.21,34.9,9.21,42.15,25,6.96,15.16,4.87,33.67,13.61,47.87,5.54,9.01,15,15.19,25.15,18.14s20.99,2.89,31.45,1.38c16.37-2.36,32.23-8.26,46.17-17.16.53,7.39-1.27,14.92-5.08,21.27,2.38-.65,4.77-1.3,7.15-1.94-2.33,37.72-16.66,76.21-45.84,100.23-29.37,24.18-70.78,30.75-107.92,22.52-17.61-3.9-34.96-11.17-47.73-23.9-10.27-10.24-16.95-23.87-19.27-38.15-1.23-7.53-1.34-15.27-.24-22.83s3.8-13.61,6.41-20.42c6.17-16.09,11.51-32.75,12.72-50.05.18-2.59.27-5.2.35-7.81Z"/>
  <path class="cls-2" d="M122.74,76.92c-4.43-5.11-5.96-12.22-4.55-18.78,1.33-6.17,4.25-12.13,11.31-11.71,3.47.21,6.57,2.07,9.05,4.41,0,0,0-15.28,15.28-16.81,0,0,15.28.51,14.77,16.3.01-.34,3.04-1.01,3.32-1.08,2.4-.57,4.96-.78,7.39-.24,6.5,1.46,8.88,7.99,9.57,13.93.87,7.47-1.51,11.83-7.45,16.31"/>
  <path class="cls-2" d="M107.52,103.92l-34.18,12.13s33.34,13.23,33.38,13.25c-2.37-.94-6.15-.42-8.51.14-5.8,1.4-8.97,6-9.32,11.83-.21,3.38-.1,9.01,1.98,11.81,2.21,2.99,7.33,3.72,10.75,3.72"/>
  <path class="cls-1" d="M262.06,181.06s-.04-.04-.07-.05c-1.38-1.1-9.6.86-11.38.93-9.89.4-19.85-.45-29.49-2.7-11.99-2.79-23.08-9.88-35.04-2.45-13.32,8.28-10.7,33.25-1.47,43.74,7.05,8.02,17.72,11.87,28.16,12.7,15.07,1.2,34.63-3.42,44.47-15.3,0,0,4.92-5.94-8.15-6.11,2.7.04,6.12-1.69,8.4-2.9,3.1-1.64,8.04-5.75,9.47-8.97,2.53-5.68-7.23-7.24-11.41-7.32,3.77.07,10.17-8.49,6.51-11.57Z"/>
  <circle class="cls-2" cx="137.36" cy="101.78" r="6.62"/>
  <path class="cls-1" d="M154.56,283.79c0,13.95,0,27.9,0,41.85,0-.19-9.41.83-10.38,1.03-5.5,1.15-11.04,3.41-13.57,8.71,3.87-1.28,8.23-1.92,12.03,0,0,0-9.99,4.75-9.99,7.47s4.08-2.04,12.91-2.04c-1.81,0-3.01,7.83-2.8,8.47,2.17-1.04,4.54-2.47,6.57-3.84,3.8-2.58,7.83-4.94,11.14-8.17,1.48-1.45,3.65-3.52,4.33-5.53,1.44-4.29.91-6.91.76-11.31-.4-11.46,0-23.18,0-34.65"/>
  <path class="cls-1" d="M192.85,288.96c0,13.95,0,25.13,0,39.08,0-.19-9.41.83-10.38,1.03-5.5,1.15-11.04,3.41-13.57,8.71,3.87-1.28,8.23-1.92,12.03,0,0,0-9.99,4.75-9.99,7.47s4.08-2.04,12.91-2.04c-1.81,0-3.01,7.83-2.8,8.47,2.17-1.04,4.54-2.47,6.57-3.84,3.8-2.58,7.83-4.94,11.14-8.17,1.48-1.45,3.65-3.52,4.33-5.53,1.44-4.29.91-6.91.76-11.31-.4-11.46,0-23.18,0-34.65"/>
</svg>