<?xml version="1.0" encoding="UTF-8"?>
<svg id="Layer_1" data-name="Layer 1" xmlns="http://www.w3.org/2000/svg" viewBox="0 0 380 380">
  <defs>
    <style>
      .cls-1 {
        stroke-width: 3.98px;
      }

      .cls-1, .cls-2 {
        fill: none;
        stroke: #000;
        stroke-linecap: round;
        stroke-linejoin: round;
      }

      .cls-2 {
        stroke-width: 3.94px;
      }
    </style>
  </defs>
  <path class="cls-2" d="M140.05,255.38s-70.77-88.34-70.77-125.48c0,0-7.35-112.93,121.3-115.94,20.9-.49,43.05,5.03,61.65,14.29,40.44,20.15,66.49,68.83,56.36,113.97-7.12,31.71-29.52,54.85-46.69,81.26-6.48,9.97-14.88,22.67-21.47,31.9,0,0-2.51,7.53-18.07-2.51,0,0-10.54,7.03-22.59-1,0,0-6.02,9.54-17.57,1,0,0-9.54,5.02-22.08,1,0,0-7.53,7.03-20.08,1.51Z"/>
  <path class="cls-2" d="M182.21,252.87C110.44,36.54,190.59,13.95,190.59,13.95c0,0,82.98,11.04,9.19,237.91"/>
  <path class="cls-2" d="M222.37,252.87c15.46-23.62,24.41-50.35,35.65-76.05,11-25.16,23.89-51.39,20.86-79.68C270.65,20.2,190.59,13.95,190.59,13.95c0,0-114.3,11.4-83.3,125.03,2.45,8.99,5.73,17.73,9.61,26.2,8.73,19.08,29.94,64.85,43.23,88.69l23.14,62.24"/>
  <rect class="cls-1" x="150.93" y="317.11" width="79.42" height="9.54" rx="2.96" ry="2.96"/>
  <polyline class="cls-1" points="156.06 326.65 156.06 366.08 224.99 366.08 224.99 326.65"/>
  <line class="cls-1" x1="140.05" y1="255.38" x2="173.24" y2="316.11"/>
  <line class="cls-1" x1="238.15" y1="258.09" x2="208.7" y2="317.11"/>
  <line class="cls-2" x1="191.35" y1="256.41" x2="191.35" y2="317.11"/>
  <line class="cls-2" x1="219.19" y1="255.38" x2="198.22" y2="317.11"/>
</svg>