<?xml version="1.0" encoding="UTF-8"?>
<svg id="Layer_1" data-name="Layer 1" xmlns="http://www.w3.org/2000/svg" viewBox="0 0 380 380">
  <defs>
    <style>
      .cls-1 {
        fill: none;
        stroke: #000;
        stroke-linecap: round;
        stroke-linejoin: round;
        stroke-width: 4px;
      }
    </style>
  </defs>
  <path class="cls-1" d="M128.23,78.51c-1.03-3.78-1.59-7.44-1.79-10.95-1.22-21.79,11.85-41.88,32.02-50.2,59.15-24.4,80.98,30.2,80.98,30.2"/>
  <path class="cls-1" d="M204.95,112.89c-32.96-61.79-82.04-31.37-82.04-31.37-50.63,31.97-16.82,80.19-16.82,80.19-6.69,9.68,4.63,19.08,4.63,19.08,8.17,6.55,19.85-3.2,25.09-8.37,1.81-1.79,4.33-2.67,6.86-2.41,13.22,1.4,55.07,5.12,80.82-.47,0,0,2.01,4.52,5.37,8.5,4.17,4.94,11.88,4.55,15.55-.77.86-1.25,1.75-2.68,2.64-4.33,1.27-2.35,3.67-3.86,6.33-3.95,2.62-.09,6.15.12,10,1.25,4.64,1.36,9.7.09,13.04-3.4,5.24-5.48,10.74-15.57,7.67-32.77-1.02-5.7-3.37-11.08-6.96-15.63-8.38-10.64-27.39-27.03-58.53-13.14-6.7,2.99-12.53,7.65-16.84,13.59-4.59,6.33-9.5,15.31-8.65,24"/>
  <path class="cls-1" d="M270.7,111.57s16.4-36.82-17.63-58.51c-5.63-3.59-12.08-5.73-18.75-6.17-14.45-.94-40.67,2.4-56.75,34.64"/>
  <path class="cls-1" d="M182.39,21.24s20.51-.81,33.89,12.36"/>
  <path class="cls-1" d="M226.12,57.8s27.36-3.48,36.51,23.73"/>
  <path class="cls-1" d="M241.51,111.57s26.78,2.71,30.9,24.16"/>
  <path class="cls-1" d="M108.15,113.92s12.36-28.12,36.04-26.68"/>
  <path class="cls-1" d="M126.17,180.79s86.51,15.01,136.46-5.59l-3.46,28.61c-1.3,10.78-9.93,19.2-20.74,20.23-26.83,2.55-76.54,6.07-106.48.7-6.47-1.16-11.52-6.24-12.61-12.73l-4.93-29.35"/>
  <path class="cls-1" d="M131.94,224.74s27.69,135.32,43.66,141.24c3.79,1.4,7.9,2.24,11.91,2.64,5.29.53,12.95.76,17.17-3.08,1.64-1.5,2.55-3.8,3.46-5.82,1.74-3.85,3.16-7.87,4.52-11.87,6.04-17.8,10.69-36.09,15.23-54.3,5.87-23.54,11.27-47.19,16.48-70.88"/>
  <line class="cls-1" x1="238.42" y1="183.95" x2="258.03" y2="208.68"/>
  <line class="cls-1" x1="205.98" y1="186.68" x2="242.29" y2="232.04"/>
  <line class="cls-1" x1="170.97" y1="186.68" x2="233.5" y2="269.73"/>
  <line class="cls-1" x1="130.05" y1="181.4" x2="224.26" y2="307.76"/>
  <line class="cls-1" x1="132.17" y1="225.81" x2="215.64" y2="337.88"/>
  <line class="cls-1" x1="149.59" y1="300.02" x2="200.71" y2="367.8"/>
  <line class="cls-1" x1="120.22" y1="215.17" x2="152.97" y2="184.16"/>
  <line class="cls-1" x1="136.59" y1="239.7" x2="188.32" y2="186.68"/>
  <line class="cls-1" x1="142.42" y1="271.52" x2="228.64" y2="184.16"/>
  <line class="cls-1" x1="152.97" y1="303.41" x2="260.05" y2="190.31"/>
  <line class="cls-1" x1="159.18" y1="333" x2="236.06" y2="256.56"/>
  <line class="cls-1" x1="173.79" y1="362.12" x2="222.12" y2="313.12"/>
  <path class="cls-1" d="M262.62,175.2s2.58-.1,2.71-4.3"/>
</svg>