<?xml version="1.0" encoding="UTF-8"?>
<svg id="Layer_1" data-name="Layer 1" xmlns="http://www.w3.org/2000/svg" viewBox="0 0 380 380">
  <defs>
    <style>
      .cls-1 {
        fill: none;
        stroke: #000;
        stroke-linecap: round;
        stroke-linejoin: round;
        stroke-width: 4px;
      }
    </style>
  </defs>
  <path class="cls-1" d="M181.57,44.6s-58.08-1.02-76.92,55.02l-32.13,217.91c-.81,5.47-.08,11.1,2.4,16.05,3.38,6.75,10.63,14.14,26.17,16.68,0,0,111.57,16.3,171.68-2.55,0,0,20.38-3.57,19.36-30.57l-32.6-217.02s-15.28-59.09-77.94-55.53Z"/>
  <path class="cls-1" d="M166.29,44.44s-6.11-20.73,0-21.24h28.79c2.66,0,5,1.76,5.71,4.33.91,3.29,1.02,8.68-2.4,16.91"/>
  <path class="cls-1" d="M105.62,96.86h-33.9c-3.56,0-5.07,4.52-2.23,6.66,11.07,8.33,28.41,22.45,30.1,30.32"/>
  <path class="cls-1" d="M75.9,294.54s94.87,29.64,213.11,1.92"/>
  <line class="cls-1" x1="112.2" y1="83.06" x2="253.65" y2="85.73"/>
  <line class="cls-1" x1="116.9" y1="76.07" x2="249.94" y2="78.18"/>
  <path class="cls-1" d="M250.77,80.61s12.41-2.67,26.85,1.48c20.46,5.88,33.36,24.88,33.36,46.17l1,130.82s.12,24.87-24.86,24.87"/>
  <path class="cls-1" d="M257.65,93.11s27.37-5.85,38,19.89c2.11,5.1,3.07,10.6,3.11,16.11l.96,126.92s-2.08,16.42-14.52,15.08"/>
</svg>