<?xml version="1.0" encoding="UTF-8"?>
<svg id="Layer_1" data-name="Layer 1" xmlns="http://www.w3.org/2000/svg" viewBox="0 0 380 380">
  <defs>
    <style>
      .cls-1 {
        fill: none;
        stroke: #000;
        stroke-linecap: round;
        stroke-linejoin: round;
        stroke-width: 4px;
      }
    </style>
  </defs>
  <path class="cls-1" d="M15.64,172.81s23.23-21.55,41.7-27.99c0,0-.65-13.25,12.78-19.03,0,0,11.75-5.78,16.61,2.8,0,0,5.47-2.11,8.27-3.61"/>
  <path class="cls-1" d="M128.34,113.1s45.71-14.97,99.26-19.64"/>
  <path class="cls-1" d="M256.71,91.35s7.65-.66,7.84,0c.37,1.3.28,2.68.79,3.99,1.91,4.91,6.71,2.03,7.98-1.64-.12.34,1.54,2.2,1.8,2.51.74.89,1.67,1.95,2.83,2.28,2.78.77,4.25-3.07,5.19-5.02,0,0,.25,4.34,3.42,6.2l-.75,1.87"/>
  <path class="cls-1" d="M27.59,192.77s35.64-30.97,53.74-35.64"/>
  <path class="cls-1" d="M118.27,140.9s42.36-20.34,100.76-25.38"/>
  <path class="cls-1" d="M257.65,111.98s12.16-1.32,20.18-1.14"/>
  <path class="cls-1" d="M339.93,115.53s11.88,0,22.2,2.8"/>
  <path class="cls-1" d="M29.37,161.38s7.54-14.04,9.22-22.44c0,0-2.24-14.09,12.87-31.25v11.57s.37,11.57-9.89,19.59l-2.62,15.66"/>
  <path class="cls-1" d="M36.49,145.94c-3.96-14.37-11.34-17.35-11.34-17.35,0,0-.18,15.1,9.7,19.76"/>
  <path class="cls-1" d="M86.73,128.59s1.49,8.4-2.8,10.36c0,0-5.04,3.26-6.16-6.44,0,0,.19,9.7-4.29,10.08,0,0-5.6,1.49-6.16-5.78,0,0-.37,8.77-4.48,10.45,0,0-3.17,1.87-5.5-2.43"/>
  <line class="cls-1" x1="61.16" y1="147.65" x2="61.16" y2="150.79"/>
  <line class="cls-1" x1="73.49" y1="142.58" x2="73.49" y2="146.13"/>
  <line class="cls-1" x1="82.88" y1="139.77" x2="82.88" y2="142.77"/>
  <path class="cls-1" d="M119.51,117.02c.91-2.28,2.73-3.31,4.48-3.68s3.57.63,4.15,2.34c1.53,4.53-1.47,9.36-1.47,9.36l-8.55,14.8c-.65,1.13-.35,2.58.71,3.35l16.33,11.87c6.86,4.99,14.53,9.41,20.32,15.68,3.95,4.27,7.3,9.17,9.61,14.51,3.52,8.14,4.2,17.17,1.32,25.61,0,0-5.6,19.59-18.47,36.57"/>
  <path class="cls-1" d="M120.88,114.71s.27-4.57-5.52-4.42c-2.59.07-4.98,1.48-6.32,3.7-.69,1.15-1.32,2.6-1.59,4.34"/>
  <path class="cls-1" d="M108.85,114.3s-2.35-3.74-6-2.64c-1.41.42-2.52,1.51-3.11,2.86l-15.8,36.27s-7.46,15.3,2.05,33.03c0,0,13.25,21.08,17.54,23.88"/>
  <path class="cls-1" d="M66.11,164.18s4.42,17.4,15.04,25.05"/>
  <path class="cls-1" d="M85.99,183.82s-17.35,18.47-15.11,44.78c0,0,4.85,42.94,51.5,58.4,5.07,1.68,9.88,3.64,15.16,4.79,13.08,2.86,26.68,3.18,39.92,1.27,15.65-2.26,29.94-7.97,43.92-15.11,11.34-5.79,22.6-11.74,33.69-17.99,10.16-5.73,20.76-11.49,29.78-18.95.33-.28.66-.55.99-.84"/>
  <path class="cls-1" d="M143.25,160.96s15.24-1.12,24.6-2.02c1.93-.19,3.84-.51,5.73-.96,5.38-1.29,17.1-4.11,19.35-4.55"/>
  <path class="cls-1" d="M232.78,90.89s2.2-1.46,3.42.7"/>
  <path class="cls-1" d="M243.47,90.59s.72-2.62,1.73,0"/>
  <path class="cls-1" d="M254.41,90.1s1-.39,2.3,0"/>
  <path class="cls-1" d="M126.04,113.26s.68-3.53,3.48-1.28"/>
  <path class="cls-1" d="M116.59,110.21s1.85-2.89,4.29-.96"/>
  <path class="cls-1" d="M105.39,111.46c.17-1.66,2.16-2.79,3.46-.64"/>
  <path class="cls-1" d="M286.57,99.67s6.72-1.68,7.09-7.65c0,0,46.46.37,69.78,6.72"/>
  <line class="cls-1" x1="268.59" y1="98.73" x2="268.59" y2="101.53"/>
  <line class="cls-1" x1="278.92" y1="98.73" x2="278.17" y2="101.53"/>
  <path class="cls-1" d="M276.53,135.72c.75-10.08-10.3-13.85-10.3-13.85,6.34-8.77,16.98-4.94,16.98-4.94-.75-2.71-6.72-7.67-6.72-7.67,7.28-4.04,17.17,0,17.17,0-.93-4.04-4.1-9.12-4.1-9.12,6.9-.28,13.81,6.44,13.81,6.44-1.12-7.28-4.1-10.13-4.1-10.13,27.61-4.9,39,16.65,39,16.65,12.5,22.01-5.6,44.04-5.6,44.04,0,0,20.52,18.47,11.57,47.77,0,0,25.19,11.75,19.22,37.88,0,0-5.6,22.2-30.23,23.14l1.12-7.28s-4.66,6.72-15.49,7.28c0,0,3.73-6.16,2.8-11.01,0,0-2.99,5.22-15.11,3.55,0,0,2.61-2.8,2.99-6.9,0,0-12.69,3.57-16.05-12.02"/>
  <path class="cls-1" d="M293.66,136.61c-5.48-1.2-11.39-1.1-16.9-.22-12.21,1.96-22.71,8.89-29.37,19.32-3.4,5.31-5.11,11.6-6.09,17.77-1.04,6.56-1.59,13.43-1.13,20.14.56,8.17,2.89,16.39,7.7,23.1s12.53,12.77,19.97,16.84c12.63,6.9,28.28,7.25,41.95,3.79,2.31-.58,4.58-1.27,6.83-2.05"/>
  <path class="cls-1" d="M285.92,199.63c1.72-1.39,3.17-2.98,3.79-5.22.96-3.45.67-8.24-2.1-10.89-2.94-2.8-7.65-3.31-11.49-3.25-3.3.17-6.63.69-9.85,1.43-4.64,1.06-10.72,2.79-13.33,7.17-1.83,3.06-1.48,7.8-.4,11.11,1.26,3.85,4.21,6.58,8.09,7.73,2.38.7,5.91-.07,8.25-.49,5.65-1.01,11.26-3.3,15.89-6.7.39-.29.78-.58,1.15-.88Z"/>
  <path class="cls-1" d="M257.65,179.15s-.88,3.71-.93,5.21"/>
  <path class="cls-1" d="M263.24,208.33s1.49,1.61,4.57,3.1"/>
  <circle class="cls-1" cx="281.37" cy="167.03" r="3.55"/>
  <circle class="cls-1" cx="294.09" cy="208.25" r="3.55"/>
  <path class="cls-1" d="M299.63,123.88c1.54-2.42,3.75-4.54,6.23-5.98,8.96-5.19,22.77,2.39,24.72,12.22,1.22,6.15-2.76,11.68-7.07,15.62"/>
  <path class="cls-1" d="M341.61,218.34c2.46,2.02,4.59,4.57,6.17,7.31,6.01,10.42-.48,25.56-13.45,24.59"/>
  <path class="cls-1" d="M293.66,92.02c-2.75-4.97-8.94-6.1-14.13-6.22-4.06-.09-13.95-.61-14.93,4.8-.05.25-.06.5-.05.76"/>
  <path class="cls-1" d="M272.37,126.17s-3.74,6.37-5.5,12.97"/>
  <path class="cls-1" d="M242.53,167.21c-.97-1.03-1.29-2.61-1.45-3.97-.64-5.47,1.28-11.26,3.16-16.29,2.27-6.08,5.41-11.76,7.62-17.86,2.24-6.17,4.31-12.46,5.74-18.88.56-2.55,1.04-5.14,1.16-7.75.15-3.35.05-9.22-3.37-11.19-4.59-2.64-8.85,6.71-9.44,9.76.65-3.36,2.43-10.55-3.06-10.51-5.28.04-7.83,5.59-8.57,10.08.44-2.38.86-4.8.68-7.22-.19-2.5-2.13-2.92-4.21-2.22-4.01,1.34-5.87,6.34-6.92,9.99-2.62,9.1-6.12,17.74-11.25,25.77-4.46,6.99-10.64,12.7-15.35,19.53-4.21,6.1-7.82,12.77-9.9,19.91-1.51,5.15-2.19,10.64-1.19,15.96.27,1.46,1.47,3.12,2.2,4.36,1.88,3.19,4.19,6.16,6.97,8.61,1.97,1.74,4.01,3.33,5.83,5.25,1.53,1.62,3.34,3.49,4.04,5.66"/>
  <path class="cls-1" d="M234.98,93.13s1.62-.56,2.44,0"/>
  <path class="cls-1" d="M245.95,92.02s4.48-.72,6.47-.85"/>
</svg>