<?xml version="1.0" encoding="UTF-8"?>
<svg id="Layer_1" data-name="Layer 1" xmlns="http://www.w3.org/2000/svg" viewBox="0 0 380 380">
  <defs>
    <style>
      .cls-1 {
        stroke-linecap: round;
      }

      .cls-1, .cls-2 {
        fill: none;
        stroke: #000;
        stroke-miterlimit: 10;
        stroke-width: 4px;
      }
    </style>
  </defs>
  <path class="cls-2" d="M333.85,206.71c0,59.16-43.25,90.58-106.25,90.58s-120.94-72.29-113.89-126.86c18.91-34.4,22.09-38.73,38.66-68.53,18.21-10.13,41.47-15.14,67.73-15.14,61.06,3.1,113.75,60.79,113.75,119.95Z"/>
  <path class="cls-2" d="M152.37,101.9s-38.58-19.79-57.49,10.58c0,0-19.07,30.66,18.82,57.95"/>
  <path class="cls-2" d="M148.21,109.35s126.96,20.57,165.91,155.35"/>
  <path class="cls-2" d="M145.33,114.47s120.82,18.6,157.46,160.95"/>
  <path class="cls-1" d="M113.13,97.55c-3.24-6.49-6.02-13.28-8.18-20.2-2.12-6.76-5.55-17.73-2.3-24.53,4.69-9.8,22.3,1.9,26.96,5.73"/>
  <path class="cls-1" d="M32.9,141c-2.13-5.55-1.81-12.25,1.97-17.04,3.91-4.96,9.66-5.45,15.53-5.57,13.56-.28,27.26,3.44,40.09,7.41"/>
  <path class="cls-1" d="M115.67,200.28s-26.06-1.63-32.57,22.54"/>
  <path class="cls-1" d="M147.1,257.38s-23.7,11.94-16.26,38.28"/>
  <path class="cls-1" d="M223.49,297.29s-11.75,28.13,19.24,33.71"/>
  <path class="cls-1" d="M333.85,201.75s12.71,3.1,14.57,13.95"/>
  <circle class="cls-1" cx="214.52" cy="110.93" r="12.4"/>
  <circle class="cls-1" cx="269.46" cy="135.73" r="12.4"/>
  <circle class="cls-1" cx="305.01" cy="187.8" r="12.4"/>
  <circle class="cls-1" cx="240.56" cy="258.62" r="13.64"/>
  <circle class="cls-1" cx="213.28" cy="201.75" r="13.64"/>
  <circle class="cls-1" cx="159.88" cy="172.02" r="13.64"/>
</svg>