<?xml version="1.0" encoding="UTF-8"?>
<svg id="Layer_1" data-name="Layer 1" xmlns="http://www.w3.org/2000/svg" viewBox="0 0 380 380">
  <defs>
    <style>
      .cls-1 {
        fill: none;
        stroke: #000;
        stroke-linecap: round;
        stroke-linejoin: round;
        stroke-width: 4px;
      }
    </style>
  </defs>
  <g>
    <path class="cls-1" d="M113.96,66.65s-33.18-24.19-69.81,7.6l17.28,3.46s-47.69,5.53-53.22,52.53h12.44s-14.52,25.58-8.29,46.31l11.75-11.06s-12.44,41.47,13.82,57.37c0,0,2.76-4.84,4.84-14.52,0,0,6.22,65.67,71.2,37.33,0,0,55.3,24.88,72.58-35.25,0,0,0,6.91,4.15,12.44,0,0,20.05-12.44,17.28-52.53,0,0,8.29,2.76,8.29,8.99,0,0,6.91-34.56-9.68-50.46,0,0,4.84,2.76,15.21,2.76,0,0-5.53-47-56.68-55.99,0,0,15.9-4.15,19.35-1.38,0,0-33.87-35.25-70.5-7.6Z"/>
    <path class="cls-1" d="M114.98,98.79c-22.25-.2-45.32,12.48-56.11,31.84-11.85,21.27-11.67,49.24,4.1,68.34,13.28,16.09,32.08,20.05,52.02,20.2,10.77.08,22.09-2.25,32.03-6.27,7.82-3.16,15.19-7.79,20.6-14.34,10.6-12.83,11.96-34.38,8.84-50.47-3.32-17.16-13.68-31.57-29-40.07-6.22-3.45-12.94-5.91-19.83-7.64-4.13-1.04-8.38-1.55-12.66-1.59Z"/>
    <path class="cls-1" d="M144.5,106.48c4.44-9.13,16.59-14.97,26.29-10.94,8.96,3.73,13.89,16.99,10.85,25.94-1.71,5.03-5.65,8.92-9.99,11.81"/>
    <path class="cls-1" d="M151.08,110.18c7.43-6.72,18.49-9.7,21.53,2.64,1.28,5.22-1.26,9.6-5.7,12.35"/>
    <path class="cls-1" d="M84.04,105.8c-4.44-9.13-16.59-14.97-26.29-10.94-8.96,3.73-13.89,16.99-10.85,25.94,1.71,5.03,5.65,8.92,9.99,11.81"/>
    <path class="cls-1" d="M77.46,109.5c-7.43-6.72-18.49-9.7-21.53,2.64-1.28,5.22,1.26,9.6,5.7,12.35"/>
    <path class="cls-1" d="M89.4,104.35l13.72,65.06s-2.61,11.29,11.25,15.67c0,0,12.25-2.3,11.33-15.9l12.39-65.5"/>
    <path class="cls-1" d="M103.13,169.41s11.98-3.46,22.58-.23"/>
    <path class="cls-1" d="M101.51,168.61s-15.99,6.78-9.4,21.52c1.6,3.58,5.02,5.99,8.93,6.39,4.64.47,11.28.11,13.28-4.51l.06-6.92"/>
    <path class="cls-1" d="M126.86,168.61s15.9,6.79,9.22,23.15c0,0-7.16,11.76-21.08.6"/>
    <circle class="cls-1" cx="77.46" cy="158.64" r="5.08"/>
    <circle class="cls-1" cx="150.04" cy="158.64" r="5.08"/>
  </g>
  <path class="cls-1" d="M217.68,163.73s75.03-15.71,95.76,38.9c0,0,8.99,27.65,0,55.3,0,0,5.53,11.4.69,17.8,0,0-1.38,4.09-17.97,4.32,0,0-23.99,1.11-32.66,3.98-2.1.7-4.28,1.09-6.5,1.09h-9.13c-2.27,0-4.17-1.76-4.31-4.03-.33-5.4.71-14.06,11.36-11.64"/>
  <path class="cls-1" d="M234.41,281.42h-1.12c-2.21,0-4-1.78-4.03-3.98-.07-5.03,1.02-13.05,8.6-13.25"/>
  <path class="cls-1" d="M285.56,185.08s-48.85-29.23-45.85,15.47c0,0,4.38,48.15,35.48,60.37,3.94,1.55-19.35,2.3-19.35,2.3-2.3-3.69-8.53-4.38-8.53-4.38-10.38-2.55-12.41,14.04-12.81,21.1-.09,1.67,1.23,3.08,2.9,3.08h6.33"/>
  <path class="cls-1" d="M68.25,249.39s-4.8,10.6-28.3,9.91c-6.04-.18-7.95,6.33-10.07,10.77-2.81,5.85-2.2,10.24,4.31,12.95"/>
  <path class="cls-1" d="M47.89,262.76s-11.36,6.45-13.74,19.81c-.8,4.5,2.9,8.56,7.46,8.21.71-.05,1.46-.17,2.26-.37,0,0,11.64,4.04,28.51.41,0,0,52.59-2.02,58.12-4.09,0,0,7.59-1.83,16.28-1.74,3.57.04,7.13-.89,10.1-2.87,2.44-1.63,4.7-4.01,5.12-7.37,0,0-3.4-21.43,7.2-25.34"/>
  <path class="cls-1" d="M123.08,248.67s-24.13,16.35-54.82,20.53c-1.26.17-3.61-1.2-4.89-1.54-2.27-.6-4.56-.98-6.89-1.04-2.49-.07-4.93.81-6.76,2.5-5.89,5.43-8.34,13.3-5.84,21.28"/>
  <path class="cls-1" d="M161.64,276.36s53.15.19,68.84-6.82"/>
  <path class="cls-1" d="M314.76,207.63c2.21,2.9,3.78,6.33,5.18,9.67,1.85,4.4,3.3,8.96,4.51,13.58,1.21,4.58,1.39,9.65,3.95,13.77,1.57,2.52,3.92,4.71,6.15,6.65,7.01,6.11,15.32,10.75,23.59,14.91,10.6,5.34,16.41,18.46,12.37,29.79-3.86,10.82-15.25,15.35-25.74,17.02-3.42.55-6.89.81-10.36.89"/>
  <path class="cls-1" d="M332.57,306.76c9.13-.19,21.66-.93,28.03-8.48,3.08-3.65,4.12-9.87,2.87-14.45-1.44-5.28-6.34-8.7-10.89-11.18-4.07-2.23-8.43-3.84-12.63-5.81-9.25-4.35-17.55-11.62-22.95-20.34-.22-.35-.43-.7-.63-1.06"/>
  <path class="cls-1" d="M289.02,305.38s6.22,9.91,19.58-1.38c0,0,14.22-9.88,23.09,3.11,2.16,3.16,1.94,7.45-.62,10.29-2.09,2.32-5.8,4.76-12.34,6.41,0,0-8.29.92-16.59-2.3,0,0,3-.46,7.6-4.84,0,0-8.29,3.46-14.75-.23,0,0,6.45-.46,8.29-2.53,0,0-13.82.23-14.29-8.53Z"/>
</svg>