<?xml version="1.0" encoding="UTF-8"?>
<svg id="Layer_1" data-name="Layer 1" xmlns="http://www.w3.org/2000/svg" viewBox="0 0 380 380">
  <defs>
    <style>
      .cls-1 {
        stroke-linecap: round;
      }

      .cls-1, .cls-2 {
        fill: none;
        stroke: #000;
        stroke-linejoin: round;
        stroke-width: 4px;
      }
    </style>
  </defs>
  <g>
    <path class="cls-2" d="M94.46,102.06c-.93-1.57-2.21-2.91-3.68-4-4.85-3.56-16.77-15.86-12.46-48.71,0,0,2.01-12.06,1.68-22.12,0,0,1.17-15.47,18.49-10.18,2.43.74,4.57,2.22,6.16,4.2,4.21,5.24,13.19,16.34,15.23,18.38,0,0,6.7,7.04,9.05,9.05,0,0,14.38,15.58,10,39.66-.49,2.68.43,5.42,2.44,7.25,1.18,1.07,2.47,2.28,3.52,3.35,1.28,1.3,2.94,2.14,4.74,2.41,5.77.88,18.43,3.38,23.52,8.99,0,0,2.62-9.43,3.92-16.01.29-1.48.02-3.01-.77-4.3-1.17-1.92-2.86-4.98-3.49-7.5,0,0-9.05-12.73-9.05-15.41,0,0,3.02,2.01,10.05,5.36,0,0,1.01-14.74.34-16.76,0,0,7.04,11.06,7.04,13.74,0,0,1.34-13.74,6.03-15.08,0,0,1.01,13.4,2.01,15.08,0,0,4.69-5.92,7.71-6.31,0,0-3.35,6.65-4.02,13.35,0,0-2.08,9.71-2.98,14.34-.26,1.33-.25,2.68,0,4.01.72,3.69,1.42,7.38,2.07,11.09,1.05,5.98.77,10.68-1.2,16.4-1.29,3.74-2.69,9.87-5.94,12.47,0,0-4.02,1.68-6.7,0,0,0,16.76,11.39,24.46,32.51,0,0,7.04,16.42,7.37,19.77,0,0,16.42-36.53,23.79-35.86,0,0,20.11,3.02,32.17,22.45,0,0,6.03,7.37,8.71-1.34,0,0,.34-22.45,8.04-27.14,0,0,.67,8.71,2.01,10.72,0,0,9.72-17.43,15.41-16.09,0,0-10.05,16.09-9.72,19.44,0,0,16.09-13.4,19.77-11.39,0,0-14.74,11.73-18.43,18.1,0,0,7.37-1.68,10.05-.34,0,0-6.12,6.6-10.82,10.41-1.39,1.12-2.51,2.53-3.29,4.14-2.06,4.26-7.34,12.33-17.05,10.59,0,0-22.64-7.55-27.1-14.11-.54-.8-1.2-1.51-1.9-2.18-2.87-2.72-8.67-7.2-7.37,2.37.3,2.24.28,4.51-.15,6.73-1.53,7.93-5.81,25.41-14.08,26.96-.17.03,2.96,6.37,3.16,6.7,3.31,5.41,7.89,9.99,13.12,13.55,7.73,5.27,16.8,7.8,25.84,9.77,9.82,2.14,19.53,4.44,29.13,7.43,14.87,4.63,31.72,10.35,36.08,26.96,2.98,11.36-.52,23.31-5.79,33.43-2.52,4.84-6.17,8.93-9.9,12.87-3.61,3.81-7.88,7.21-10.68,11.71-3.69,5.91-6.41,12.97-6.85,19.95-.26,4.22.56,8.47,2.54,12.22,2.18,4.13,5.65,6.81,8.9,10.03,1.47,1.46,4.79,4.15,4.79,6.37,0,.05-8.13-3.01-8.81-3.31-7.36-3.17-10.9-11.04-13.2-18.22-1.34-4.17-2.22-8.93-1.5-13.3.97-5.88,2.77-11.91,5.82-17.06,2.94-4.97,7.62-8.1,11.64-12.11,3.22-3.21,5.77-8.09,7.85-12.1,4.66-9,6.62-18.81,3.58-28.66-1.44-4.67-4-7.5-8.33-9.67-5.73-2.87-12.2-4.28-18.48-5.32-6.66-1.11-13.38-1.88-20.13-2.17-3.29-.14-6.59.02-9.86-.34-5.45-.61-10.79-2.16-15.93-4-11.62-4.16-22.57-10.17-32.95-16.78-.36-.23-.7-.49-1.03-.74-.89-.67-4.08-2.04-11.78,3.61,0,0-9.05,6.37-19.77,3.69,0,0,9.38,9.38,10.39,12.73,0,0,4.48,12.15-11.87,10.84-.85-.07-1.71-.1-2.56-.11-3.17-.02-11.33-.27-18.39-2.15-2.75-.74-5.65-.78-8.44-.21-6.98,1.41-19.6,3.75-23.42,3.03,0,0,8.38-7.37,14.74-9.38,0,0-20.78-1.68-22.12-3.02,0,0,17.76-6.03,22.79-5.03,0,0-5.36-9.72-9.05-10.39,0,0,14.41,3.35,18.43,8.04,0,0-3.02-3.02-4.02-8.71,0,0,11.06,4.02,13.4,8.38,0,0-13.4-18.43,1.68-21.45,0,0,14.41-2.68,18.43-5.03,0,0-19.52-10.4-31.38-16.84-4.86-2.64-8.98-6.46-11.96-11.12-4.34-6.76-10.27-16.8-11.87-23.37-.37-1.5-1.81-2.46-3.33-2.17-4.31.82-13.12,1.35-24.61-4.05-2.76-1.29-5.2-3.18-7.17-5.5-2.27-2.66-5.64-6.39-8.24-8.35-.81-.61-1.77-.99-2.79-1.11-3-.34-11-1.53-18.95-5.24,0,0-5.36,2.01-12.06,2.01,0,0,3.02-2.68,6.03-8.38,0,0-11.39-.34-14.74-5.03,0,0,10.39,1.01,15.08-1.01,0,0-11.39-7.04-11.39-11.39,0,0,16.76,6.7,20.11,6.37,0,0-5.7-6.7-3.35-11.39,0,0,6.7,8.38,12.4,11.73,0,0,7.03,5.52,9.79,8.53.8.87,1.77,1.57,2.86,2.05,4.72,2.1,16.79,7.38,20.53,8.19,0,0-5.51-13.17-1.61-23.69.44-1.18.54-2.46.32-3.7-.54-3.15-2.12-9.35-6.7-17.08Z"/>
    <path class="cls-2" d="M77.95,52.48s11.7,2.9,0,14.3"/>
    <path class="cls-2" d="M115.57,34.67s-5.88,9.46,8.42,9.22"/>
  </g>
  <path class="cls-1" d="M117.19,144.86s6.18,17.14,3.4,24.4"/>
  <path class="cls-1" d="M162.6,124.42s9.72,8.88,15.58,10.39"/>
  <path class="cls-1" d="M156.73,184.73s6.37,14.07-7.71,17.76"/>
  <path class="cls-1" d="M169.13,193.61s3.35,10.22-6.53,15.58"/>
  <path class="cls-1" d="M182.46,203.84s1.75,7.37-7.97,12.73"/>
</svg>