<?xml version="1.0" encoding="UTF-8"?>
<svg id="Layer_1" data-name="Layer 1" xmlns="http://www.w3.org/2000/svg" viewBox="0 0 380 380">
  <defs>
    <style>
      .cls-1 {
        fill: none;
        stroke: #000;
        stroke-linecap: round;
        stroke-linejoin: round;
        stroke-width: 4px;
      }
    </style>
  </defs>
  <g>
    <path class="cls-1" d="M198.79,85.69s-4.2-21.01,16.81-25.21l75.64-9.81s9.81-2.8,12.61,17.51l43.42,59.53v153.41c0,3.84-2.18,7.35-5.63,9.04l-79.81,39.25s-89.65,1.4-109.26-12.61v-182.09l46.22-49.03Z"/>
    <polyline class="cls-1" points="303.85 68.18 198.79 85.69 262.45 149.19 152.57 134.72"/>
    <polyline class="cls-1" points="347.27 127.71 262.45 149.19 261.83 329.42"/>
    <ellipse class="cls-1" cx="80.67" cy="120.55" rx="47.94" ry="22.41"/>
    <path class="cls-1" d="M32.73,120.55l8.17,178.8c.37,8.19,5.29,15.48,12.74,18.88,13.82,6.31,37.73,12.95,63.01.48,7.38-3.64,11.96-11.26,11.96-19.49V120.55"/>
    <path class="cls-1" d="M34.61,161.66s48.24,19.94,93.99,0"/>
  </g>
  <polyline class="cls-1" points="271.79 253.87 271.79 200.21 280.62 249.11 282.32 197.49 287.08 245.38"/>
  <line class="cls-1" x1="288.43" y1="197.49" x2="298.28" y2="193.42"/>
  <line class="cls-1" x1="291.93" y1="243.25" x2="301.78" y2="239.17"/>
  <line class="cls-1" x1="294.03" y1="195.17" x2="296.86" y2="241.21"/>
  <polyline class="cls-1" points="304.38 191.38 307.55 239.17 320.34 235.19"/>
  <line class="cls-1" x1="321.72" y1="185.94" x2="325.11" y2="233.15"/>
  <polyline class="cls-1" points="335.3 184.25 325.11 209.55 340.06 228.57"/>
</svg>