<?xml version="1.0" encoding="UTF-8"?>
<svg id="Layer_1" data-name="Layer 1" xmlns="http://www.w3.org/2000/svg" viewBox="0 0 380 380">
  <defs>
    <style>
      .cls-1 {
        fill: none;
        stroke: #000;
        stroke-linecap: round;
        stroke-linejoin: round;
        stroke-width: 4px;
      }
    </style>
  </defs>
  <g>
    <path class="cls-1" d="M124.41,84.55c3.39-9.44,10.17-17.48,18.57-22.88,24.64-15.86,59.14-3.64,68.15,24.28-.02-.05,7.97,2.95,8.91,3.73,2.47,2.06,5.36,5.66,5.59,9.03.48,7.01-7.43,13.23-13.9,13.2-3.15,15.02-14.99,27.88-29.7,32.25-9.4,2.79-19.63,2.26-29-.67-7.29-2.28-14.2-6.04-19.57-11.47-5.37-5.43-9.13-12.59-9.83-20.19.04.44-5.76-1.79-6.24-2.09-2-1.29-3.69-3.09-4.85-5.17-4.81-8.63,1.98-19.85,11.82-19.88.02-.05.03-.09.05-.14Z"/>
    <path class="cls-1" d="M167.96,84.78s.06.07.09.11c2.39-4.8,7.34-8.24,12.68-8.77,5.34-.52,10.88,1.9,14.09,6.2,3.21,4.3,3.95,10.32,1.85,15.26-1.9,4.47-5.85,7.8-10.14,10.06-.62.33-1.28.66-1.67,1.25-.36.54-.42,1.22-.46,1.87-.18,3.44.32,6.92-.17,10.34-1.02,7.08-6.68,13.25-13.65,14.89-6.96,1.64-14.78-1.36-18.87-7.22-2.26-3.24-3.4-7.16-3.95-11.07-.4-2.86-.51-5.76-.32-8.64.03-.46.06-.95-.12-1.37-.23-.51-.72-.83-1.19-1.14-3.36-2.24-6.19-5.39-7.63-9.15-2.26-5.89-.35-12.6,4.02-17,1.39-1.4,3.06-2.54,4.92-3.24,3.66-1.37,7.84-.94,11.42.62,3.54,1.54,6.55,4.12,9.1,7.01Z"/>
    <line class="cls-1" x1="160.74" y1="120.23" x2="172.93" y2="120.23"/>
    <path class="cls-1" d="M101.76,237.36l43.62-26.17c2.28-1.37,4.27-3.18,5.84-5.33l12.58-17.23"/>
    <path class="cls-1" d="M145.51,140.44l-7.84,42.07c-.83,4.46-3.37,8.41-7.07,11.03l-42.83,30.22"/>
    <path class="cls-1" d="M158.81,146.54s-9.97,33.5,17.45,55.38"/>
    <path class="cls-1" d="M174.64,146.16l4.02,89.34c.05,1.15-.53,2.24-1.51,2.85l-56.01,34.47s-9.07-.81-14.82.79c-2.64.74-4.36,3.27-4.03,5.99.46,3.81,2.64,9.48,11.11,11.77,0,0,10.8,3.05,19.66,0,0,0,6.09-.55,12.46-4.15l50.13-33.1c4.81-3.17,8.56-7.71,10.74-13.04,4.68-11.42,11.87-32.95,11.01-55.77"/>
    <path class="cls-1" d="M212.58,222.9s7.98,6.99,16.29,7.82"/>
    <path class="cls-1" d="M251.02,190.29s-28.25,21.03-19.94,54.13c0,0,2.49,26.46,36,40.58l17.86,11.91c1.96,1.31,2.29,4.06.69,5.79l-21.1,22.82c-1.71,1.85-4.39,2.47-6.74,1.54-6.39-2.55-19.52-6.23-27.7,2.19-2.29,2.36-1.51,6.29,1.49,7.65l25.98,11.79s8.7,3.6,17.28-3.88l40.84-41.09c3.13-3.15,3.57-8.08,1.06-11.73l-25.01-36.34,12.23-13.5c3.77-4.16,6.8-8.95,8.84-14.18,4.79-12.26,8.65-33.69-11.33-51.8,0,0-51.16-46.98-91.37-58.52"/>
    <path class="cls-1" d="M307.88,183.08c-1.23-18.67-18.95-30.68-30.18-43.62-11.44-13.18-21.58-27.73-30.4-42.78-9.56-18.81-18.33-49.23,2.62-64.25,9.57-6.86,21.41-10.77,32.88-6.53,9.65,3.57,25.81,15.63,18.59,27.39-6.42,10.46-17.51-5.9-22.28-8.75-9.72-5.79-20.66-.27-23.31,9.94-4.48,17.33,7.28,36.51,16.67,50.22,0,0,49.45,57.32,52.5,63.69,0,0,25.71,42.46-12.07,59.31"/>
    <circle class="cls-1" cx="152.16" cy="90.32" r="4.88"/>
    <circle class="cls-1" cx="184.29" cy="90.32" r="4.88"/>
    <path class="cls-1" d="M122.47,271.99s.33,5.25-2.44,6.91c0,0,5.82.83,7.2-1.66,0,0,.16,4.43-2.13,5.82,0,0,3.15.28,4.9-.55,0,0,.92,3.42-.46,3.97,0,0,.83.65,4.06-.46,0,0,.92,4.15-.55,5.35"/>
    <path class="cls-1" d="M46.5,222.9s26.76,43.08,56.2,58.78c0,0,2.85-3.15,6.36-1.11"/>
    <path class="cls-1" d="M107.54,288.68s1.79-3.13,4.28-2.11"/>
    <path class="cls-1" d="M219.75,227.72c-3.65,9.72-5.21,21.12-3.03,31.32,1.27,5.9,4,11.42,8.33,15.67,7.92,7.78,20.05,9.85,30.3,13.02,0,0-12.07,17.74-14.77,20.03-3.52-.7-7.09-1.28-10.65-1.7-2.33-.27-4.76-.6-7.11-.43-3.22.23-7.43,3.78-9.05,6.51-2.79,4.71,22.7,9.8,25.72,10.59,9.72,1.04,11.6-4.85,13.18-6.58l23.26-24.78"/>
  </g>
  <path class="cls-1" d="M46.5,154.7s24.26,76.53,91.04,108.02"/>
  <path class="cls-1" d="M162.93,275.9s63.97,25.17,77.66,31.86"/>
  <path class="cls-1" d="M287.25,333.3s23.53,17.51,25.21,22.55"/>
  <path class="cls-1" d="M254.81,313.88s9.32,3.92,13.24,7.23"/>
  <path class="cls-1" d="M121.68,292.67s27.47,11.74,48.89,25.69c0,0,53.15,30.2,58.3,37.48"/>
</svg>