<?xml version="1.0" encoding="UTF-8"?>
<svg id="Layer_1" data-name="Layer 1" xmlns="http://www.w3.org/2000/svg" viewBox="0 0 380 380">
  <defs>
    <style>
      .cls-1 {
        fill: none;
        stroke: #000;
        stroke-linecap: round;
        stroke-linejoin: round;
        stroke-width: 4px;
      }
    </style>
  </defs>
  <path class="cls-1" d="M207.77,187.94s9.11-14.49-33.11-34.77c0,0-40.56-22.35-48.84,17.38,0,0-1.66,28.56,26.9,30.22,0,0,51.74,3.31,55.05-12.83Z"/>
  <path class="cls-1" d="M291.54,173.13c-7.69-6.77-17.07-.13-25.14,2.08-8.72,2.39-17.62,4.33-26.61,5.32-5.96.65-12.21,1.02-18.12-.24-3.62-.77-7.43.13-10.13,2.66-3.78,3.54-4.89,11.7-.5,15.19,3.68,2.93,8.34,3.76,12.9,4.22,15.81,1.58,31.23,4.93,47.11,1.72,10.15-2.05,19.62-10.01,23.19-19.77,1.45-3.95.45-8.4-2.71-11.18Z"/>
  <path class="cls-1" d="M170.93,97.29s-15.73-6.62-26.49,7.45l-18.64,29.39"/>
  <path class="cls-1" d="M131.19,137.85l19.87-29.8s3.69-7.04,16.95-4.55"/>
  <line class="cls-1" x1="100.58" y1="170.94" x2="82.73" y2="198.61"/>
  <line class="cls-1" x1="88.12" y1="201.63" x2="105.96" y2="174.79"/>
  <path class="cls-1" d="M167.2,95.73s3.73-6.31-5.79-9.21c0,0-8.28-1.04-17.8,9.21l-24.44,36.77"/>
  <path class="cls-1" d="M84.87,194.99c-3.69-1.82-7.67-3.13-11.61-4.3-4.72-1.4-9.53-2.51-14.37-3.41-11.7-2.16-23.51-3.01-34.89-6.8-.65-.22.09,8.64.25,9.18,3.03,10.13,12.77,12.43,21.87,13.91,7.91,1.29,16.83,1.35,23.86,5.48"/>
  <path class="cls-1" d="M91.5,198.31c3.28,2.8,5.35,5.3,7.86,8.8s4.68,7.34,6.27,11.38c1.97,5.01,2.15,10.16,4.68,15.04,2.45,4.71,5.07,9.81,8.87,13.6.39.39-6.76,2.95-7.25,3.01-21.28,2.67-14.46-26.33-30-32.82"/>
  <path class="cls-1" d="M206.51,116.59l-35.06-9.69c-1.09-.3-1.73-1.43-1.43-2.52l2.42-8.75c.3-1.08,1.4-1.72,2.49-1.44l35.13,9.03c2.87.74,4.6,3.67,3.86,6.54l-.77,3c-.75,2.9-3.74,4.63-6.63,3.83Z"/>
  <path class="cls-1" d="M160.03,86.5s.74-3.83,10.9-3.56h15.1c1.34-.01,2.66.36,3.75,1.13,1.48,1.04,3.11,2.88,2.91,5.86,0,0,.18,4.6-7.17,6.25"/>
  <rect class="cls-1" x="109.52" y="132.75" width="12.36" height="43.12" rx="3.73" ry="3.73" transform="translate(105.07 -38.26) rotate(33.7)"/>
  <path class="cls-1" d="M63.51,194.86h7.46c1.67,0,3.03,1.36,3.03,3.03v52.21c0,3.73-3.03,6.76-6.76,6.76h0c-3.73,0-6.76-3.03-6.76-6.76v-52.21c0-1.67,1.36-3.03,3.03-3.03Z" transform="translate(136.63 .65) rotate(33.7)"/>
  <path class="cls-1" d="M101.39,163.52v-38.01c0-2.17,1.76-3.93,3.93-3.93h0c2.17,0,3.93,1.76,3.93,3.93v27.32"/>
  <path class="cls-1" d="M101.39,126.4s-13.8,5.82-13.52,20.5c0,0,.33,12.06,11.89,17.85"/>
  <path class="cls-1" d="M109.95,126.4s7.04,2.79,11.45,8.43"/>
  <line class="cls-1" x1="132.72" y1="135.56" x2="144.85" y2="146.9"/>
  <line class="cls-1" x1="124.73" y1="151.89" x2="131.62" y2="156.37"/>
  <line class="cls-1" x1="119.74" y1="159.38" x2="125.81" y2="170.55"/>
  <line class="cls-1" x1="139.88" y1="197.5" x2="154.93" y2="225.87"/>
  <line class="cls-1" x1="112.28" y1="170.55" x2="145.82" y2="232.24"/>
  <rect class="cls-1" x="145.68" y="221.88" width="46.91" height="43.88" rx="11.21" ry="11.21" transform="translate(-104.03 127.92) rotate(-32.26)"/>
  <path class="cls-1" d="M176.56,265.08l147.8-36.71s3.59,21.11-5.93,28.56l-141.87,22.08s-34.08,6.19-33.38-32.36"/>
  <path class="cls-1" d="M261.26,242.57c.85-7.29,2.83-13.95,5.8-19.82"/>
  <path class="cls-1" d="M347.33,216.6c6.68,9.02,10.59,19.91,10.59,30.11,0,27.74-20.43,50.22-47.63,50.22-20.52,0-39.21-12.48-46.33-31.54"/>
  <path class="cls-1" d="M280.55,238.14c4.19-12.24,15.8-21.04,29.46-21.04,17.2,0,31.13,13.94,31.13,31.13s-13.94,31.13-31.13,31.13c-11.79,0-22.05-6.56-27.34-16.22"/>
  <path class="cls-1" d="M294.13,176.77s17.67-2.21,39.33,7.45c0,0,19.79,9.94,24.45,16.84,0,0,7.23-.85,10.99,1.53,1.62,1.03,2,3.23.87,4.79-2.48,3.42-9.23,9.8-24.45,8.17,0,0-18.36-11.34-44.83-8.39-3.36.37-6.67,1.16-9.85,2.3-5.93,2.13-15.97,6.49-24.79,13.95,0,0-11.87.97-8.14-18.07"/>
  <path class="cls-1" d="M339.98,187.73s12.94-22.57,20.8-11.18c0,0,18.35,8.5,5.66,24.5"/>
  <line class="cls-1" x1="360.78" y1="176.55" x2="360.78" y2="200.24"/>
  <path class="cls-1" d="M257.95,217.93l-49.58-7.95c-3.7-.59-7.19,1.89-7.84,5.58l-4.7,26.59"/>
  <path class="cls-1" d="M104.86,250.41c0,26.67-20.81,46.67-47.48,46.67s-48.29-21.62-48.29-48.29c0-21.34,13.84-39.44,33.02-45.83"/>
  <path class="cls-1" d="M77.5,225.56c6.49,5.62,10.59,13.91,10.59,23.17,0,16.92-13.72,30.64-30.64,30.64s-30.64-13.72-30.64-30.64,13.72-30.64,30.64-30.64c2.12,0,4.18.21,6.17.62"/>
</svg>