<?xml version="1.0" encoding="UTF-8"?>
<svg id="Layer_1" data-name="Layer 1" xmlns="http://www.w3.org/2000/svg" viewBox="0 0 380 380">
  <defs>
    <style>
      .cls-1 {
        fill: none;
        stroke: #000;
        stroke-linecap: round;
        stroke-linejoin: round;
        stroke-width: 4px;
      }
    </style>
  </defs>
  <path class="cls-1" d="M90.41,104.53c.32-1.71.66-3.41,1.03-5.1,3.39-15.67,16.44-28.5,29.57-36.64.72-.45,1.44-.91,2.18-1.32,17.74-10.39,38.01-16.73,58.57-17.05,19.45-.3,38.96,4.85,55.73,14.7,14.3,8.4,26.82,20.51,33.53,35.68,10.55,23.86,5.62,51.39,8.78,77.28-12.05-1.15-21.42,10.59-25.48,22-5.42,15.25-5.84,31.76-5.96,47.94-.16,21.24,1.09,44.92,16.37,59.68-22.22,22.6-53.04,37.18-84.73,37.52-31.69.34-62.92-14.22-81.46-39.92,21.06-31.45,23.91-73.91,8.56-108.51-3.48-7.85-8.4-15.79-16.31-19.12-2.12-.89-4.64-1.64-5.59-3.73-.5-1.1-.44-2.36-.38-3.56,1.11-19.64,1.93-40.35,5.58-59.85Z"/>
  <path class="cls-1" d="M129.3,56.66s-21.85-17.07-34.33-21.23c0,0-21.05,19.8,0,51.94"/>
  <path class="cls-1" d="M235.5,56.46s19.94-19.85,37.77-21.04c0,0,8.64,30.28-5.28,52.2"/>
  <path class="cls-1" d="M84.79,165.55s-33.79,80.26-10.61,157.52c0,0,14.26-1.28,24.37-23.77"/>
  <path class="cls-1" d="M279.8,172.12s35.06,65.97,10.1,150.96c0,0-14.26-5.84-24.96-21.4"/>
  <path class="cls-1" d="M118.15,231.55s59.78-66.53,130.03,4.18"/>
  <path class="cls-1" d="M144.3,333.63s-21.4.74-20.21,19.76l17.24-2.97,5.39,8.91,11.84-10.1,13.07,10.1s4.17-5.99-3.56-20.82"/>
  <path class="cls-1" d="M218.41,331.89s21.44-.55,22.58,18.47l-17.47-.84-4.26,9.51-12.99-8.58-11.74,11.62s-4.87-8.48.99-24.15"/>
  <path class="cls-1" d="M182.63,104.96s-21.66-32.36-54.38-19.61c-12.23,4.77-21.59,18.62-23.41,31.14-3.52,24.16,13.89,53.63,40.65,52.77,4.23-.14,8.4-1.08,12.34-2.59,1.39-.53,14.47-8.53,13.91-9.4,0,0,11.43,19.02,11.43,19.02,0,0,10.45-18.99,10.46-19.02-1.15,2.09,19.49,9.96,21,10.3,27.21,6.07,52.27-26.77,45.22-52.16-2.29-8.26-7.43-15.42-13.49-21.36-6.37-6.24-14.69-10.16-23.59-10.8-12.46-.89-30.23,1.89-40.14,21.71Z"/>
  <path class="cls-1" d="M124.05,114.47s30.35-3.57,38.08,14.86l9.61,27.93"/>
  <path class="cls-1" d="M239.98,117.44c-6.11-.93-12.41-1.23-18.56-.76-4.57.35-9.38,1.1-13.5,3.24-7.33,3.82-8.08,12.99-9.92,20.2-1.46,5.71-2.92,11.42-4.37,17.13"/>
  <circle class="cls-1" cx="144.3" cy="126.35" r="8.62"/>
  <circle class="cls-1" cx="220.09" cy="128.25" r="8.62"/>
  <path class="cls-1" d="M167.48,144.87s11.08-5.12,29.31,0"/>
</svg>