<?xml version="1.0" encoding="UTF-8"?>
<svg id="Layer_1" data-name="Layer 1" xmlns="http://www.w3.org/2000/svg" viewBox="0 0 380 380">
  <defs>
    <style>
      .cls-1 {
        stroke-linecap: round;
      }

      .cls-1, .cls-2 {
        fill: none;
        stroke: #000;
        stroke-linejoin: round;
        stroke-width: 4px;
      }
    </style>
  </defs>
  <path class="cls-2" d="M222.97,48.51c34.04-6.06,57.12-2.02,57.12-2.02-4.62-27.69,12.69-24.52,12.69-24.52,21.35,2.88,18.46,34.04,18.46,34.04,13.85,5.19,23.94,35.19,23.94,35.2,1.34,4.31,1.62,8.85,2.99,13.19,2.59,8.21,5.09,17.62,9.2,25.21,2.62,4.84,5.74,9.39,8.74,14,5.49,8.42,9.34,14.84,6.74,25.11-1.47,5.8-4.36,10.66-6.9,15.97-8.53,17.77-32.12,22.18-49.8,23.86-.38,10.46.33,21.02-.3,31.54-.65,10.89-1.89,21.74-3.72,32.49-3.68,21.73-9.73,43.05-18.06,63.46-2.05,5.01-4.33,10.11-8.26,13.82-5.25,4.95-12.7,6.76-19.86,7.6-9.45,1.11-19.05.89-28.43-.66-5.03-.83-11.23-3.59-10.82-8.68.26-3.28,3.27-5.51,5.61-7.82,7.06-6.99,9.24-17.45,10.31-27.32,1.43-13.24.38-26.58-1.02-39.78-.71-6.73-1.53-13.45-2.16-20.18-.53-5.61-1.67-10.52-8.01-12.04-4.79-1.15-9.79.45-14.31,2.41-5.8,2.51-11.67,5.97-14.46,11.65-3.53,7.2-1.13,15.91,2.59,23.01,5.31,10.14,13.14,18.83,18.06,29.16,4.92,10.33,6.33,23.65-.93,32.49-5.75,6.99-15.74,9.43-24.68,7.96-8.93-1.47-16.96-6.3-24.17-11.76-26.79-20.29-44.84-49.76-62.26-78.5-3.69,13.64-7.38,27.28-11.07,40.93-1.39,5.12-2.63,11.08.52,15.35,2.97,4.01,9.16,5.38,10.73,10.11,1.16,3.49-.95,7.39-3.99,9.45-3.04,2.06-6.81,2.68-10.45,3.17-14.97,2.03-31.81,2.19-43.27-7.66-6.49-5.58-10.28-13.62-13.36-21.6-16.7-43.16-17.94-91.58-6.82-136.51,6.66-26.93,18.27-53.65,38.97-72.12,17.04-15.21,38.88-23.7,60.21-31.88,24.82-9.52,50.37-19.18,76.95-18.97-12.91.08-23.9,10.79-28.11,23-4.21,12.21-2.99,25.57-.94,38.32,2.07,12.85,5.12,26.03,13.02,36.38,4.44,5.81,10.37,10.68,13.16,17.44,1.54,3.73,2.03,7.84,3.63,11.55,3.45,8,11.46,12.98,19.3,16.78,14.26,6.91,29.56,11.64,45.22,14.05,6.16.95,12.37,1.46,18.59,1.71,4.18.17,8.28.94,12.33,1.96,2.96.74,7.79,2.7,10.28-.29"/>
  <path class="cls-2" d="M221.27,83.67c3.38-.37,6.71-.96,8.86-3.82,3.09-4.12,2.26-10.25,1.21-14.9-.87-3.87-2.47-7.61-4.72-10.89-4.34-6.32-14.59-13.45-22.43-9.34-16.26,8.51-24.77,28.53-19.61,45.9,3.06,10.28,19.61,4.17,23.46-1.52,1.9-2.82,5.33-4.21,8.67-4.85,1.46-.28,3.02-.41,4.57-.58Z"/>
  <path class="cls-1" d="M78.35,86.85s-38.55,53.79-18.08,110.04c4.51,12.4,11.04,24.68,17.9,35.94,5.3,8.69,12.35,20.57,22.49,24.26-1.44-.55-.21-5.93-.08-6.96.63-5.3.08-22.68-.1-26.9-.12-2.82-.06-5.63.36-8.43s1.01-6.22,2.04-8.98c2.09-5.64,6.29-9.72,7.86-15.78,1.84-7.1,4.13-71.24,5.04-75.53.9-4.24,2.5-8.6,4.23-12.57,3.76-8.66,9.17-16.51,14.99-23.9,0,0,18.68-20.61,43.06-28.75"/>
  <path class="cls-2" d="M280.09,46.49s24.1,4.64,31.16,9.52"/>
  <path class="cls-2" d="M276.47,130.5c.48-3.22.2-6.62,1.52-9.59,2.63-5.89,9.3-6.73,14.76-4.52,6.63,2.68,9.51,9.8,9.16,16.65-.32,6.31-3.09,12.24-6.27,17.71-1.79,3.06-3.77,6.1-6.52,8.34-2.75,2.24-6.4,3.61-9.88,2.9-8.24-1.68-14.41-12.29-9.59-19.56,2.08-3.14,5-5.8,6.23-9.36.29-.83.47-1.69.6-2.56Z"/>
  <path class="cls-2" d="M328.84,109.78c.11,3.16,2.17,7.07,3.37,9.9,2.07,4.86,6.86,16.89,12.3,18.47,2.52-6.41-4.58-15.71-6.73-21.16,0,0-9.52-24.23-8.94-7.21Z"/>
  <path class="cls-2" d="M326.54,167.28c.98-.85,2.32-1.23,3.61-1.5,6.34-1.37,13.11-1.36,18.91-4.26,1.18-.59,2.47-1.31,3.74-.95,1.02.29,1.75,1.26,1.98,2.3s.03,2.12-.31,3.13c-1.21,3.6-4.1,6.33-6.92,8.88-.86.78-1.75,1.57-2.86,1.91-.99.31-2.05.22-3.07.14-2.89-.24-20.98-2.85-15.49-9.24.13-.15.26-.28.41-.41Z"/>
  <path class="cls-2" d="M344.83,177.28s.33,9.3-4.51,12.73"/>
  <path class="cls-1" d="M307.21,187.95s7.79,13.85,39.52,0"/>
  <circle class="cls-2" cx="291.05" cy="131.99" r="4.62"/>
  <ellipse class="cls-2" cx="334.73" cy="119.3" rx="2.31" ry="4.62" transform="translate(-19.78 143.69) rotate(-23.55)"/>
</svg>