<?xml version="1.0" encoding="UTF-8"?>
<svg id="Layer_1" data-name="Layer 1" xmlns="http://www.w3.org/2000/svg" viewBox="0 0 380 380">
  <defs>
    <style>
      .cls-1 {
        stroke-miterlimit: 10;
      }

      .cls-1, .cls-2 {
        fill: none;
        stroke: #000;
        stroke-width: 4px;
      }

      .cls-2 {
        stroke-linejoin: round;
      }
    </style>
  </defs>
  <path class="cls-2" d="M85.58,57.33s10.96-37.51,55.28-32.77c4.5.48,8.86,1.87,12.86,3.99,7.74,4.11,15.56,8.08,23.52,11.74,4.23,1.94,8.5,3.82,12.87,5.43,4.19,1.55,10.11,2.24,12.92,6.18,2.5,3.51-2.2,4.89-4.99,5.43,0,0-8.48,1.53-17.14,0,3.35.59,3.1,8.33,2.01,10.5-2.12,4.23-9.59-2.7-11.35-4.39,0,0,21.66,21.91.47,44.32,0,0,25.17,20.38,36.89,73.87,5.01,16.64,11.06,33.56,19.55,48.75,4.78,8.55,11.52,15.89,16.64,24.25,4.02,6.55,10.16,15.26,10.16,23.29,0,0-5.09,9.17-18.85,2.55,0,0-15.79-12.23-22.42-24.96.47.91-2.26,4.83-2.72,5.52-2.68,3.93-6.31,6.27-10.88,4.19-2.53-1.15-4.92-2.64-7.13-4.3-7.53-5.64-12.91-13.68-15.43-22.73.41,1.45-6.66,5.06-7.58,5.41-7.69,2.95-14.04-3-18.55-8.58-5.09-6.3-8.23-14.12-7.54-22.3,0,0-18.8,16.3-32.56-14.77,0,0-24.96-66.23-1.53-86.6,0,0,34.66-22.42,61.94-3.57"/>
  <path class="cls-1" d="M98.37,69.56c1.59.83,2.29,2.82,4.3,3.28,2.4.55,4.28-2.28,4.79-4.25.56-2.13-.3-3.68-1.61-5.3s-3.08-2.98-5.04-3.84c-1.31-.57-2.7-.94-4.11-1.12-1.33-.17-3.85.49-4.96.03-3.88-1.59-10.27-3.08-13.16,1.02-1.42,2.02-1.82,4.98-1.48,7.39.14,1.02.43,2.07,1.19,2.81.48.46,2.81,1.68,3.42,1.01,0,0,5.96-6.62,16.66-1.02Z"/>
  <path class="cls-1" d="M110.09,111.33s-19.87-7.13-21.91-12.23c0,0,7.57-26.29,14.48-26.13"/>
  <path class="cls-1" d="M81.72,70.57s-6.27,15.79,6.47,28.53"/>
  <path class="cls-2" d="M90.66,101.88c-9.84,8.67-17.42,20.69-21.93,32.91-9.62,26.08-2.41,57.58,13.17,79.99,12.4,17.85,30.17,31.44,49.33,41.35,9.14,4.73,18.58,9,28.45,11.99,6.73,2.04,13.8,2.99,20.72,4.18,0,0,11.72,30.57,21.91,35.15,0,0,12.23,2.26,8.66-24.6,0,0,10.7,50.58,36.17,49.56,0,0,7.64,0,3.06-22.42,0,0,23.43,44.83,59.09,45.85,0,0,14.26,0,0-18.34,0,0-37.7-38.72-54-59.6"/>
  <circle class="cls-1" cx="121.3" cy="64.88" r="5.69"/>
</svg>