<?xml version="1.0" encoding="UTF-8"?>
<svg id="Layer_1" data-name="Layer 1" xmlns="http://www.w3.org/2000/svg" viewBox="0 0 380 380">
  <defs>
    <style>
      .cls-1 {
        stroke-linecap: round;
        stroke-linejoin: round;
      }

      .cls-1, .cls-2 {
        fill: none;
        stroke: #000;
        stroke-width: 4px;
      }

      .cls-2 {
        stroke-miterlimit: 10;
      }
    </style>
  </defs>
  <path class="cls-1" d="M59.91,249.22c-.36-.36-.66-.82-.91-1.4-4.91-11.31-.36-29.54,2.71-40.56,7.19-25.82,21.21-49.58,36.68-71.24,0,0,17.66-92.38,91.7-95.09,0,0,62.49-10.87,90.34,95.1,1.25,4.74,8.99,10.6,11.94,14.59,12.02,16.24,21.24,35.15,25.97,54.82,1.87,7.77,10.14,41.46-.45,44.08-8.55,2.11-23.53-13.9-23.88-21.11,1.03,21.77-7,45.52-20.05,62.7-27.63,36.36-79.55,44.95-120.88,30.44-16.68-5.85-32.34-15.27-43.75-28.94-6.72-8.05-11.77-17.38-15.01-27.35-1.87-5.76-3.15-11.71-3.92-17.72-.48-3.71-3.21-16.86-.85-19.81-3.2,4-23.61,27.53-29.64,21.49Z"/>
  <path class="cls-2" d="M132.34,311.95c-5.36.7-10.96,2.08-15.74,4.66-4.17,2.26-10.29,8.74-9.1,14.01,1.08,4.82,8.19,6.84,12.52,7.88,15.15,3.64,29.8-4.62,40.62-14.57"/>
  <path class="cls-2" d="M251.2,311.95c3.94-.24,8.28.34,11.77,2.25,4,2.18,7.94,8.81,8.1,13.34.21,5.92-4.35,7.01-9.3,8.48-15.17,4.49-30.56-.46-42.48-10.35"/>
  <path class="cls-1" d="M175.82,128.55s10.19-19.02,27.85,0l-13.92,23.09-13.92-23.09Z"/>
  <path class="cls-2" d="M189.7,313.22c-10.67.42-21.41-1.27-31.35-5.28-38.2-15.38-46.62-62.32-47.09-98.76-.11-8.14.16-16.29.7-24.41,0,0-.68-95.62,42.79-98.33,0,0,20.38-.68,34.98,23.77-1.68-2.83,8.84-12.09,10.68-13.8,9.67-9.01,17.36-13.31,30.22-9.38,14.03,4.29,25.78,18.93,28.92,31.95,5.18,21.43,6.67,43.85,7.96,65.79,1.74,29.54.88,60.62-12.11,87.87-11.85,24.84-38.55,39.52-65.7,40.58Z"/>
  <circle class="cls-2" cx="152.72" cy="125.83" r="7.93"/>
  <circle class="cls-2" cx="226.76" cy="125.83" r="7.93"/>
</svg>