<?xml version="1.0" encoding="UTF-8"?>
<svg id="Layer_1" data-name="Layer 1" xmlns="http://www.w3.org/2000/svg" viewBox="0 0 380 380">
  <defs>
    <style>
      .cls-1 {
        fill: none;
        stroke: #000;
        stroke-linecap: round;
        stroke-linejoin: round;
        stroke-width: 4px;
      }
    </style>
  </defs>
  <g>
    <path class="cls-1" d="M91.8,54.47c72.5-65.25,145.72-2.07,147.94,0"/>
    <path class="cls-1" d="M117.79,35.55c-12.68-12.88-29.37-9.77-44.87-4.91-5.67,1.78-11.4,3.54-16.67,6.34-10.48,5.56-9.87,15.2-8.38,25.67,1.52,10.69,5.06,23.44,14.84,29.49,2.52,1.55,5.72,1.53,8.24,0,5.96-3.63,17.02-12.36,19.56-28.23.14-.86.17-1.74.16-2.61-.06-4.53.24-20.66,7.09-33.73"/>
    <path class="cls-1" d="M212.12,36.63s16.68-14.14,27.62-11.09c0,0,45.45,5.92,44.3,28.93,0,0-2.42,34.88-17.94,39.3-2.49.71-5.17-.06-7.04-1.86-5.66-5.45-18.87-20.49-19.33-42.61,0,0-.66-12.95-9.29-22.15"/>
    <path class="cls-1" d="M67.12,94.17c-4.48,12.84-5.6,27.45-3.6,40.84,2.54,16.97,11.61,32.68,24.88,43.53,10.13,8.28,22,12.47,34.49,15.62,30.11,7.58,63.23,9.52,92.88-1,13.37-4.75,25.08-11.38,33.75-22.65,7.98-10.37,13.58-22.58,15.8-35.49,2.35-13.69.74-27.74-3.72-40.84"/>
    <path class="cls-1" d="M165.23,101.54c-11.53.18-22.04,7.6-28.75,16.54-7.12,9.48-12.83,28.94-4.33,39.34,7.39,8.1,20.32,9.91,33.9,10.37,8.91-.86,24.91-.67,31.59-7.63,9.2-9.59,2.29-29.85-3.13-39.45-4.66-8.27-11.89-14.94-21-17.92-2.74-.9-5.52-1.29-8.28-1.25Z"/>
    <ellipse class="cls-1" cx="150.55" cy="137.33" rx="12.66" ry="5.75" transform="translate(.63 275.34) rotate(-85)"/>
    <ellipse class="cls-1" cx="177.82" cy="137.33" rx="5.75" ry="12.66" transform="translate(-11.29 16.02) rotate(-5)"/>
    <circle class="cls-1" cx="117.79" cy="101.08" r="8.61"/>
    <circle class="cls-1" cx="213.25" cy="101.08" r="8.61"/>
  </g>
  <path class="cls-1" d="M135.61,277.68c-1.71,22.01-4.24,38.77-4.24,38.77,1.33,2.77,2.64,5.78,2.96,8.87.67,6.38-4.91,12.37-9.73,15.69-2.12,1.47-4.41,2.76-6.78,3.81-1.33.59-2.88-.01-3.5-1.32l-2.79-5.9-5.58,3.86c-1.1.76-2.63.45-3.34-.69-7.65-12.27,1.15-27.77,1.15-27.77,1.73-12.51-5.18-39.7-5.18-39.7-13.81-60.41,2.38-86.77,2.38-86.77"/>
  <path class="cls-1" d="M113.7,241.32s6.29,29.97,38.66,49.39"/>
  <path class="cls-1" d="M156.39,244.77s-6.22,25.03-3.63,49.19c0,0-.36,14.02-4.36,25.66-1.22,3.54-2.14,9.51-1.89,13.25.31,4.58,1.53,8.78,3.86,11.99,1.08,1.49,3.16,1.82,4.61.67s3.52-2.56,5.55-3.24v5.94c0,1.79,1.72,3.08,3.43,2.57,4.31-1.27,11.36-3.51,13.1-5.01,0,0-.06-12.56,6.59-20.33,0,0-8.55,6.66-20.97,3.45,0,0-16.72-5.22-13.27-12.55"/>
  <path class="cls-1" d="M177.06,345.08s-.02,1.29.1,2.87c.15,1.92,2.23,3.05,3.91,2.09s4.05-2.42,6.65-4.24v6.3c0,1.61,1.3,2.91,2.91,2.89,4.4-.03,13.25-1.26,22.62-9.2.41-.35.34-2.12.36-2.58.09-2.19-.32-4.4-1.19-6.41-2.65-6.12-9.07-8.85-14.68-11.58-4.56-2.22-10.85-5.88-14.08.24,3.19-8.86,6.38-17.73,9.57-26.59,1.72-4.78,3.51-9.53,5.08-14.37,1.29-3.99,2.09-8.61,5.27-11.62,2.28-2.17,4-4.91,5.44-7.69,3.11-6.01,5.07-12.61,6.6-19.18.76-3.26,1.42-6.56,1.89-9.88"/>
  <path class="cls-1" d="M237.73,182s3.49,14.44,12.98,22.21c0,0,56.1,40.56,26.32,100.55,0,0-16.68,30.73-63.79,41.04"/>
  <path class="cls-1" d="M212.12,257.97s35.58-36.5,52.41-13.2"/>
  <path class="cls-1" d="M133.61,300.81s4.44,10.72,16.32,13.59"/>
  <path class="cls-1" d="M95.26,256s-4.64,20.27-32.69,27.6c0,0-18.1.43-15.52,9.49l7.75,6.9h-6.01c-.96,0-1.61,1-1.19,1.87,1.98,4.16,7.79,13.85,19.29,14.53,0,0,9.49-.56,10.79-2.01,0,0,21.1-4.8,26.08-1.4,0,0,3.64,12.99,27.62,3.45"/>
  <path class="cls-1" d="M62.57,283.61s17.69,5.48,15.1,30.79"/>
  <path class="cls-1" d="M313.67,285.91c4.33-.78,8.99-.86,12.96-2.96,4.7-2.49,6.23-7.18,6.53-12.22.28-4.61-.65-9.01-3.93-12.45-.07-.08-.15-.15-.22-.23-3.54-3.66-8.17-5.59-13.29-4.31-4.61,1.15-9.15,3.64-10.89,8.31-1.13,3.03-.98,6.37-.26,9.47.56,2.39,1.6,4.78,1.21,7.28-.39,2.46-1.67,5.11-3.03,7.17-2.39,3.63-7.01,5.34-11.19,5.78-2.88.31-5.47-.43-7.51-2.5"/>
  <path class="cls-1" d="M278.42,301.75c5.18-1.37,10.7-.37,15.97-1.47,4.87-1.01,9.85-2.85,13.61-6.21,3.5-3.13,6.16-7.45,6.58-12.2.59-6.57-8.43-16.79.77-20.66,2.74-1.15,7.41-.46,9.49,2.68,1.62,2.44,1.95,4.71,1.28,7.4-1,3.97-6.44,6.87-10.2,8.05"/>
  <path class="cls-1" d="M303.09,285.43c-3.29-1.2-7.5-8.73-7.5-8.73-4.95-11.88,2.59-18.74,2.59-18.74,0,0-2.61,16.24,7.29,22.04"/>
</svg>