<?xml version="1.0" encoding="UTF-8"?>
<svg id="Layer_1" data-name="Layer 1" xmlns="http://www.w3.org/2000/svg" viewBox="0 0 380 380">
  <defs>
    <style>
      .cls-1 {
        fill: none;
        stroke: #000;
        stroke-linecap: round;
        stroke-linejoin: round;
        stroke-width: 4px;
      }
    </style>
  </defs>
  <path class="cls-1" d="M346.11,165.66c0,72.11-60.84,128.39-137.91,128.39s-135.19-56.28-135.19-128.39S129.5,35.1,206.57,35.1s139.54,58.46,139.54,130.57Z"/>
  <path class="cls-1" d="M249.85,41.51s-8.2,10.72-7.11,22.96l-63.38,204.55s-12.11-2.43-9.25,17.95"/>
  <path class="cls-1" d="M306.67,228.5s75.35-123.77-63.92-164.02c0,0-146.89-51.41-142.26,117.78,0,0,7.34,74.26,78.88,86.77,0,0,97.92,16.32,127.3-40.53Z"/>
  <path class="cls-1" d="M98.22,88.02s14.71,2.66,17.87,12l190.58,128.48s11.71-5.98,19.46,4.62"/>
  <path class="cls-1" d="M73.92,181.12s15.95-7.03,26.56,1.13l225.32-40.4s6.84-9.97,17.11-4.09"/>
  <path class="cls-1" d="M73.01,165.66c-1.75,2.66-2.07,6.3-2.32,9.37-1.15,13.77,1.67,28,4.5,41.39,2.47,11.71,3.34,22.33,2.62,34.34-.33,5.52-.84,11.13-2.24,16.5-1.75,6.73-6.96,11.93-11.64,16.82-9.79,10.26-23.54,16.99-28.62,31.22-4.63,12.97,2.49,23.24,14.3,28.79,0,0,20.67,7.62,36.45-24.21,0,0,9.25-30.47,55.22-22.3,7.93,1.41,15.04,5.65,22.75,7.85,36.61,10.44,81.63,7.22,115.7-10.2,23.05-11.79,40.82-31.41,49.63-55.84,2.62-7.26,4.46-14.78,5.65-22.4"/>
  <ellipse class="cls-1" cx="56.96" cy="320.17" rx="8.98" ry="7.07" transform="translate(-227.68 162.9) rotate(-50.99)"/>
  <path class="cls-1" d="M280.92,149.9l-2.82-13.99c3.13.24,8.02.3,8.17-3.82.25-6.57-7.92-11.23-13.45-11.86-7.18-.82-13.71,3.27-18.01,8.74-2.84,3.62-4.66,15.04,2.76,14.5,3.39-.24,6.86-2.91,9.38-5.01l-.99,14.12"/>
  <path class="cls-1" d="M179.2,168.14c-1.51-3.84-3.91-8.88-7.75-10.83-11.57-5.88-24.73,30.63-3.43,31.47,0,0,4.55-1.09,3.74-8.98l8.66,4.77c3.68,2.02,8.23-.3,8.77-4.46l1.8-14.09"/>
  <path class="cls-1" d="M277.56,195.04s1.19-14.69-8.25-11.42c0,0-18.14,9.79-3.72,27.47,0,0,13.6,14.62,26.34-3.47,1.06-1.5,1.32-3.51.45-5.13-.88-1.64-2.86-3.15-7.21-2.59,0,0,5.03-1.75,8.57-3.06,1.63-.6,2.06-2.7.79-3.89-1.92-1.8-4.68-4.26-7.69-6.67-3.07-2.45-7.65-.72-8.32,3.15l-.97,5.6Z"/>
  <ellipse class="cls-1" cx="152.16" cy="94.94" rx="15.78" ry="13.6"/>
  <ellipse class="cls-1" cx="229.47" cy="229.16" rx="15.78" ry="13.6"/>
  <ellipse class="cls-1" cx="227.95" cy="115.06" rx="15.78" ry="13.6"/>
  <ellipse class="cls-1" cx="136.39" cy="203.1" rx="15.78" ry="13.6"/>
  <ellipse class="cls-1" cx="129.94" cy="144.71" rx="11.56" ry="9.96"/>
  <ellipse class="cls-1" cx="306.46" cy="165.66" rx="11.56" ry="9.96"/>
</svg>