<?xml version="1.0" encoding="UTF-8"?>
<svg id="Layer_1" data-name="Layer 1" xmlns="http://www.w3.org/2000/svg" viewBox="0 0 380 380">
  <defs>
    <style>
      .cls-1 {
        fill: none;
        stroke: #000;
        stroke-linecap: round;
        stroke-linejoin: round;
        stroke-width: 4px;
      }
    </style>
  </defs>
  <path class="cls-1" d="M186.76,114.47s-169.89.58-177.96,46.7c0,0,7.5,53.62,181.63,55.35,0,0,162.6,1.15,178.17-57.08,0,0-7.32-44.97-181.83-44.97Z"/>
  <path class="cls-1" d="M8.8,161.17s-1.73,42.09,69.19,55.35c0,0,106.67,29.98,223.72,0,0,0,85.34-20.76,66.88-57.08"/>
  <path class="cls-1" d="M97.59,206.14s-24.32-4.54-36.73-18.97c-19.37-22.53,31.51-33.08,45.28-36.33,30.78-7.26,62.6-9.83,94.17-8.55,28.76,1.16,57.35,5.54,85.25,12.54,0,0,92.69,17.06-11.6,54.94"/>
  <path class="cls-1" d="M290.75,194.65s-26.11-20.7-129.16-15.6c0,0-78.42,1.15-69.19,20.18"/>
  <path class="cls-1" d="M51.04,208.97s38.88,20.94,44.48,29.98c.23.38.35.82.35,1.26h0c0,5.61,3.63,10.59,8.98,12.29,24.46,7.75,95.44,25.45,170.1-.9,3.76-1.33,6.7-4.32,7.96-8.1h0c1.36-4.08,3.83-7.7,7.14-10.46l24.28-20.19"/>
</svg>