<?xml version="1.0" encoding="UTF-8"?>
<svg id="Layer_1" data-name="Layer 1" xmlns="http://www.w3.org/2000/svg" viewBox="0 0 380 380">
  <defs>
    <style>
      .cls-1 {
        fill: none;
        stroke: #000;
        stroke-linecap: round;
        stroke-linejoin: round;
        stroke-width: 4px;
      }
    </style>
  </defs>
  <path class="cls-1" d="M188.29,29.17l-26.22,7.95s-8.64,28.06,26.15,48.09c0,0,31.18-14.22,26.75-48.31l-26.69-7.74Z"/>
  <path class="cls-1" d="M264.19,87.67s21.83-6.08,22.95-21.71c1.57-22.01-18.42-35.76-36.33-43.5-9.52-4.11-19.49-7.14-29.56-9.55-8.62-2.06-17.3-4.08-26.15-4.86-8.26-.72-16.27.25-24.41,1.58-15.74,2.57-31.33,7.28-45.05,15.56-1.92,1.16-3.79,2.38-5.62,3.67-6.46,4.57-12.34,10.03-17.12,16.35-3.09,4.08-6.05,8.43-7.93,13.22-4.18,10.7,2.95,19.48,11.34,25.53,2.3,1.66,5.26,3.44,8.18,3.69h149.71Z"/>
  <path class="cls-1" d="M215.4,51.59s37.77,2.39,47.21,13.56c1.05,1.24,1.58,2.84,1.58,4.47v18.06s-4.37,30.5-74.2,31.17c0,0-64.15,1.5-75.51-31.17,0,0-.09-17.59,2.43-20.71,0,0,7.55-12.03,44.56-15.33"/>
  <path class="cls-1" d="M114.48,87.67l-.09,33.51s10.19,4.34,14.2,9.36v-25.75"/>
  <path class="cls-1" d="M248.57,106.25l1.05,24.29s9.88-8.02,14.56-6.68v-36.18"/>
  <path class="cls-1" d="M114.39,121.18s-9.89,15.68-4.84,29.99c1.82,5.16,6.57,8.69,12.01,9.22.9.09,8.17-1.17,9.19-1.12,0,0-.26,44.43,45.4,56.51,7.96,2.11,16.33,2.13,24.32.16,17.87-4.4,44.3-20.94,48.17-58.5,0,0,6.91,3.44,9.35,3,6.27-1.13,11.29-5.78,12.98-11.91,1.92-6.96,2.49-17.22-6.78-24.68"/>
  <path class="cls-1" d="M114.39,159.27s.78,20.98-2.64,33.45c-1.43,5.2,2.55,10.32,7.94,10.32h30.35"/>
  <path class="cls-1" d="M266.34,157.44s-.08,22.22,3.14,34.63c1.44,5.55-2.71,10.98-8.44,10.98h-31.56"/>
  <path class="cls-1" d="M157.94,208.37s4.33,25.09-6.03,29.77"/>
  <path class="cls-1" d="M220.81,208.37s-2.07,20.41,5.28,29.77"/>
  <path class="cls-1" d="M144.22,234.8l45.07,32.42,42.08-32.42c14.05,1.3,28.15,3.7,41.84,7.1,7.51,1.87,15.01,4.09,22.1,7.23,20.34,9.01,31.95,29.76,32.72,51.5v61.51c0,5.55-4.5,10.04-10.04,10.04H62.03c-5.55,0-10.04-4.5-10.04-10.04,0,0,0-66.16,0-66.19,0-18.74,10.95-33.48,26.65-42.44,19.85-11.34,42.79-17.67,65.58-18.71Z"/>
  <polyline class="cls-1" points="128.59 236.36 161.04 282.59 189.29 267.21 220.54 282.59 248.57 237.03"/>
  <polyline class="cls-1" points="170.67 277.34 183.32 291.94 198.02 291.94 208.64 276.73"/>
  <line class="cls-1" x1="169.62" y1="372.18" x2="183.32" y2="291.94"/>
  <line class="cls-1" x1="198.02" y1="291.94" x2="208.64" y2="372.18"/>
  <path class="cls-1" d="M54.99,280.58s13.04,11.69,27.07-3.85c0,0,13.7-12.27,0-25.1"/>
  <path class="cls-1" d="M323.59,280.58s-13.04,11.69-27.07-3.85c0,0-13.7-12.27,0-25.1"/>
  <line class="cls-1" x1="90.41" y1="324.02" x2="90.41" y2="372.18"/>
  <line class="cls-1" x1="290.43" y1="324.02" x2="290.43" y2="372.18"/>
  <rect class="cls-1" x="108.96" y="324.01" width="39.27" height="24.1" rx="7.91" ry="7.91"/>
  <rect class="cls-1" x="231.77" y="324.01" width="39.27" height="24.1" rx="7.91" ry="7.91" transform="translate(502.81 672.11) rotate(-180)"/>
  <path class="cls-1" d="M128.59,130.54s.47,16.5,2.16,28.74"/>
  <path class="cls-1" d="M249.63,130.54s-.56,11.95-.98,26.91"/>
</svg>