<?xml version="1.0" encoding="UTF-8"?>
<svg id="Layer_1" data-name="Layer 1" xmlns="http://www.w3.org/2000/svg" viewBox="0 0 380 380">
  <defs>
    <style>
      .cls-1 {
        fill: none;
        stroke: #000;
        stroke-linecap: round;
        stroke-linejoin: round;
        stroke-width: 4px;
      }
    </style>
  </defs>
  <path class="cls-1" d="M153.24,136.62c-9.68-.34-19.33.93-28.85,2.55-13.92,2.35-27.32,4.92-40.66,9.64-12.88,4.56-25.61,9.58-38.23,14.82-7.29,1.46-19.24,3.21-19.24,3.21h-7.77c-2.45,0-4.34,2.15-4.04,4.58.23,1.87.73,3.58.73,3.58.87,4.95,0,10.78,0,10.78-4.78,3.11-5.64,16.82-5.8,21.63-.03,1.09-.36,2.15-.95,3.07-.95,1.49-2.29,3.75-2.29,4.63,0,0,.78,9.52,5.05,10.88,0,0,32.82,6.99,47.97,8.16"/>
  <rect class="cls-1" x="154.01" y="126.22" width="32.64" height="11.66" rx="3.57" ry="3.57"/>
  <path class="cls-1" d="M159.16,126.22v9.33s.39,1.55,1.65,2.33"/>
  <path class="cls-1" d="M164.1,126.22v9.33s.39,1.55,1.65,2.33"/>
  <path class="cls-1" d="M187.34,136.59c13.01,1.53,25.93,2.19,37.78,8.33,7.8,4.04,15.63,8.02,23.43,12.06,8.8,4.56,17.81,8.91,26.43,13.82,2.3,1.31,4.87,2.04,7.52,2.13,10.48.34,39.44,1.92,63.4,9.25,0,0,23.51,5.83,23.9,17.68.02.51,1.95,2.41,2.25,3,3.05,5.97,1.75,16.91-.21,23.14h-33.13"/>
  <path class="cls-1" d="M262.82,176.64c.08,0-2.53-5.56-2.91-6.04-2.32-2.9-7.35-6.66-11.02-7.53-5.56-1.32-6.51,11.55.13,12.21,0,0,13.78,1.36,13.8,1.36Z"/>
  <path class="cls-1" d="M54.33,160.02s26.63-1.83,31.09-1.45"/>
  <path class="cls-1" d="M246.11,162.85c-12.16-9.49-27.74-15.53-42.73-18.53-18.66-3.74-38.86-2.5-57.69-1.25-8.73.58-17.44,1.44-26.1,2.72s-16.72,3.36-25.07,5.48c-2.52.64-4.79,1.55-6.07,3.97l-4.01,7.62s14.77,4.66,29.92,5.05c0,0,115.03,6.88,131.74,6.16"/>
  <line class="cls-1" x1="182.63" y1="142.27" x2="188.36" y2="171.94"/>
  <line class="cls-1" x1="173.3" y1="142.27" x2="179.87" y2="171.5"/>
  <line class="cls-1" x1="168.39" y1="142.27" x2="174.6" y2="171.28"/>
  <line class="cls-1" x1="160.81" y1="143.03" x2="166.45" y2="170.85"/>
  <polyline class="cls-1" points="84.45 162.85 85.43 169.74 127.59 225.99 115.93 224.05"/>
  <path class="cls-1" d="M177.14,171.41s3.3,6.39,3.11,14.94c0,0-1.17,35.56-3.11,41.58,0,0-40.03,1.75-49.55-1.94"/>
  <path class="cls-1" d="M262.82,176.64s12.44,20.21,2.72,51.3h15.51"/>
  <line class="cls-1" x1="177.14" y1="227.94" x2="265.54" y2="227.94"/>
  <path class="cls-1" d="M220.27,185.58l15.54-5.83,14.57,5.83s-.58,13.8-15.06,25.26c0,0-12.73-9.72-15.06-25.26Z"/>
  <path class="cls-1" d="M366.28,192.49s-11.94-7.69-36.61-7.1c0,0,10.69,11.85,29.34,16.9,0,0,8.52-.17,7.27-9.8Z"/>
  <path class="cls-1" d="M347.15,197.81s-67.61-10.8-96.77-9.32"/>
  <path class="cls-1" d="M220.27,186.75s-177.27-1.94-206.18,0"/>
  <path class="cls-1" d="M15.19,174.99s8.84-5.16,27.11-.88c0,0,.19,3.28-7.97,7.18,0,0-10.88,3.71-19.14,4.48"/>
  <line class="cls-1" x1="113.43" y1="235.9" x2="281.86" y2="235.9"/>
  <path class="cls-1" d="M336.27,235.9s47.8-1.36,35.56-9.91"/>
  <circle class="cls-1" cx="86.79" cy="225.99" r="27.79"/>
  <circle class="cls-1" cx="86.79" cy="225.99" r="9.72"/>
  <circle class="cls-1" cx="309.46" cy="225.99" r="27.79"/>
  <circle class="cls-1" cx="309.46" cy="225.99" r="9.72"/>
</svg>