<?xml version="1.0" encoding="UTF-8"?>
<svg id="Layer_1" data-name="Layer 1" xmlns="http://www.w3.org/2000/svg" viewBox="0 0 380 380">
  <defs>
    <style>
      .cls-1 {
        fill: none;
        stroke: #000;
        stroke-linecap: round;
        stroke-linejoin: round;
        stroke-width: 4px;
      }
    </style>
  </defs>
  <path class="cls-1" d="M336.73,111.4c-19.53-10.19-42.49-7.31-62.02,1.3-19.97,8.81-31.72,26.67-49.39,36.75-37.34,21.31-74.71,36.33-87.98,81.76-12.41,42.47,12.07,82.96,53.35,93.61,32.08,8.28,67.52,8.57,97.69-6.5,39.59-19.77,60.62-62.19,71.46-103.21,9.08-34.33,14.42-84.13-23.12-103.71Z"/>
  <path class="cls-1" d="M230.68,147.2c6.07-16.73,9.43-35.91,6.61-53.6-6.95-43.69-58.49-54.26-91.6-34.56-19.56,11.64-37.81,25.94-52.65,43.28-16.84,19.68-23.63,44.4-42.51,62.83-10.96,10.7-21.12,22.53-28.52,36-21.67,39.42.93,76.02,37.69,94.64,1.74.88,3.49,1.73,5.25,2.55,0,0,33.78,12.94,77.21-12.09"/>
  <ellipse class="cls-1" cx="273.08" cy="199.5" rx="10.58" ry="8.68" transform="translate(-42.42 77.72) rotate(-15.04)"/>
  <ellipse class="cls-1" cx="276.08" cy="278.76" rx="12.34" ry="9.66"/>
  <ellipse class="cls-1" cx="312.97" cy="153.24" rx="6.11" ry="8.99" transform="translate(-1.21 303.99) rotate(-51.72)"/>
  <ellipse class="cls-1" cx="72.89" cy="198.19" rx="6.65" ry="7.83" transform="translate(-110.03 92.67) rotate(-39.83)"/>
  <ellipse class="cls-1" cx="162.17" cy="96.04" rx="7.83" ry="6.65" transform="translate(60.82 254.95) rotate(-88.11)"/>
  <ellipse class="cls-1" cx="80.11" cy="273.28" rx="7.83" ry="6.59" transform="translate(-196.61 206.01) rotate(-60)"/>
  <ellipse class="cls-1" cx="191.06" cy="252.73" rx="9.64" ry="10.96" transform="translate(-59.05 58.25) rotate(-15.04)"/>
</svg>