<?xml version="1.0" encoding="UTF-8"?>
<svg id="Layer_1" data-name="Layer 1" xmlns="http://www.w3.org/2000/svg" viewBox="0 0 380 380">
  <defs>
    <style>
      .cls-1 {
        fill: none;
        stroke: #000;
        stroke-linecap: round;
        stroke-linejoin: round;
        stroke-width: 4px;
      }
    </style>
  </defs>
  <path class="cls-1" d="M133.7,204.43s9.4-54.18,48.19-65.46c5.63-1.64,11.64-1.75,17.28-.15,16.17,4.57,48.63,22.84,49.34,95.98,0,0,4.54,58.36-30.18,89.1-14.23,12.59-35.3,13.2-50.2,1.42-19.58-15.48-45.43-47.46-37.71-94.98"/>
  <path class="cls-1" d="M214.36,145.98s30.33-17.14,55.18,0c0,0,60.22,52.51,20.07,145.23,0,0-24.99,51.06-71.28,32.7"/>
  <path class="cls-1" d="M258.89,138.36s44.11-28.78,70.88,26.66c14.95,30.96,18.15,68.31,5.33,100.54-11.24,28.24-32.55,56.09-66.08,50.81"/>
  <path class="cls-1" d="M163.09,145.97s-50.32-20.14-72.31,27.66c0,0-30.49,81.38,11.27,137.03,6.36,8.47,15.61,14.31,26,16.36,10.88,2.14,26.01,3.34,40.08-1.69"/>
  <path class="cls-1" d="M130.43,140.71s-81.65-31.29-92.86,70.29c-1.95,17.7.44,35.68,7.35,52.09,9.51,22.61,28.19,51.4,62.09,54.01"/>
  <path class="cls-1" d="M135.82,138.36s7.54-22.09,41-16.35"/>
  <path class="cls-1" d="M208.47,120.74s20.36-3.51,40.23,16.56"/>
  <path class="cls-1" d="M176.82,138.36s1.72-72.37,39.45-91.22c3.53-1.77,7.82-.94,10.37,2.08l7.97,9.42c4.34,5.13-2.03,11.18-7.98,14.29-11.8,6.16-22.92,19.73-22.08,38.56l1.89,30.01"/>
</svg>