<?xml version="1.0" encoding="UTF-8"?>
<svg id="Layer_1" data-name="Layer 1" xmlns="http://www.w3.org/2000/svg" viewBox="0 0 380 380">
  <defs>
    <style>
      .cls-1 {
        fill: none;
        stroke: #000;
        stroke-linecap: round;
        stroke-linejoin: round;
        stroke-width: 4px;
      }
    </style>
  </defs>
  <path class="cls-1" d="M211.19,101.85s-5.48-47.26,13.62-63.97c0,0,29.04,32.62,31.03,91.51.09.25,2.02.56,2.27.63,1.69.46,3.38.92,5.07,1.37,6.19,1.68,12.3,3.48,18.07,6.47,5.5,2.85,10.66,6.44,15.08,10.8.96.95,1.88,1.93,2.76,2.95,7.58,8.77,12.07,22.74,12.07,34.28,0,0,9.95,7.16,7.96,20.29-2.41,15.92-19.64,26.74-33.92,30.72-8.49,2.37-17.32,2.86-26.1,2.78-7.83-.07-16.34.45-24.04-.93-12.03-2.15-27.83-10.41-32-22.76-3.48-10.34-2.73-22.7-.22-33.37.79-3.36.96-6.85.3-10.25-1.05-5.38-3.86-12.39-11.34-14.73,0,0-36.2-11.94-52.12-46.55-3.4-8.49-5.87-17.49-7.64-26.45-1.48-7.45-2.43-15.09-2.11-22.7.09-2.13.04-4.27.33-6.39.13-.97.27-2.13.81-2.98.69-1.1,2.44-.75,3.49-.55,1.48.27,2.98.53,4.44.85,3.44.76,6.77,1.93,10.13,2.99,8.45,2.65,16.63,6.19,24.32,10.58,21.7,12.39,38.49,31.66,47.78,54.88,2.3,5.74,4.14,11.66,5.59,17.67"/>
  <path class="cls-1" d="M130.34,57c.98-.03,55.88,2.76,77.76,97.44,0,0-27.45,3.58-68.43-43.37"/>
  <path class="cls-1" d="M310.54,197.46c6.13,1.75-3.77,12.68-3.77,12.68-3.34-.28-7.2-4.9-9.22-7.66-.8-1.09-.43-2.64.79-3.23,2.75-1.32,7.65-3.1,12.2-1.8Z"/>
  <path class="cls-1" d="M306.77,210.15s-5.97,23.08-25.46,17.11"/>
  <path class="cls-1" d="M303.79,219.19s2.66,7.26,2.98,6.97"/>
  <path class="cls-1" d="M278.12,210.15s-15.91,4.38-21.88,20.29"/>
  <path class="cls-1" d="M281.31,215.72s-18.3,9.55-19.89,28.65"/>
  <path class="cls-1" d="M278.12,223.5s-4.38,8.15-6.76,21.68"/>
  <path class="cls-1" d="M316.82,203.28s7.43.13,8.75,1.39"/>
  <path class="cls-1" d="M313.9,208.69s11.4,2.12,14.59,8.49"/>
  <path class="cls-1" d="M312.34,213.99s8.49,5.04,10.08,10.61"/>
  <path class="cls-1" d="M199.74,202.28s-45.74-13.22-86.59,27.76c0,0-42.17,46.55-15.91,85.8,0,0,15.03,16.52,33.45,23.01,5.12,1.8,10.56,2.5,15.99,2.2,8.36-.46,24.88-1.49,28.8-2.67,0,0,7.69,5.84,17.24,2.92,0,0,11.67-1.06,11.4-7.43,0,0,5.04-2.39-2.39-11.4,0,0-12.25-11.4-32.52-4.77,0,0,29.98-19.1-4.09-58.88-5.09-5.94-12.57-9.42-20.39-9.32-9.22.12-21.58,3.68-32.92,18.07"/>
  <path class="cls-1" d="M247.09,305.5c11.94-3.45,27.65-20.16,27.65-20.16,21.02-19.1,15.34-50.01,15.34-50.01"/>
  <path class="cls-1" d="M241.26,278.18s.27,19.36,7.43,31.56c0,0,2.92,8.75,7.56,12.73,0,0,14.46,6.9,5.17,13.53,0,0,.27,4.77-11.67,2.65,0,0-5.3,6.92-18.04.54,0,0-6.17-3.21-8.54-9.41-.39-1.02-.9-1.99-1.59-2.83-4.76-5.79-23.15-28.64-24.08-37.64"/>
  <path class="cls-1" d="M271.36,288.72s-3.58,21.82,4.64,25.26c0,0,18.04,5.57,8.22,14.06,0,0-1.06,2.92-6.1,1.86,0,0-5.3,5.57-12.47,2.12"/>
  <path class="cls-1" d="M247.09,330.16s5.57,4.24,2.65,8.49"/>
  <path class="cls-1" d="M256.24,328.57s6.5,2.39,5.17,7.43"/>
  <path class="cls-1" d="M189.8,328.57s7.8,8.64,4.3,12.54"/>
  <path class="cls-1" d="M197.49,327.51s6.37,4.24,6.63,6.37"/>
  <path class="cls-1" d="M196.43,319.03s14.61.26,18.31-.67"/>
  <path class="cls-1" d="M88.63,283.48c-.23-1.85-1.07-3.72-2.35-5.08-1.86-1.97-4.47-2.29-7.04-2.41s-4.91-.48-7.4-1.31c-2.53-.85-5.05-1.8-7.44-2.99-1.88-.94-4.1-2.1-5.25-3.94-.03-.06-.07-.11-.1-.17-2.65-4.77-2.92.62-2.92.62-.59,2.68-1.01,5.42-1.32,8.15-.25,2.24-.43,4.49-.37,6.74.02,1.02.09,2.04.26,3.04s.65,1.92.76,2.88c.3,2.77-1.96,2.3-3.3.85,0,0-2.92,7.43,3.71,13.26,0,0-1.59,7.43,8.22,15.25,0,0,7.29,21.79,45.02,8.17"/>
  <path class="cls-1" d="M271.36,322.74s8.09,2.12,6.76,7.16"/>
  <path class="cls-1" d="M278.12,320.35s6.37,1.06,6.1,7.69"/>
  <path class="cls-1" d="M205.8,331.01s11.66,2.92,16.37-1.11"/>
  <circle class="cls-1" cx="254.25" cy="184.02" r="11.4"/>
</svg>