<?xml version="1.0" encoding="UTF-8"?>
<svg id="Layer_1" data-name="Layer 1" xmlns="http://www.w3.org/2000/svg" viewBox="0 0 380 380">
  <defs>
    <style>
      .cls-1 {
        fill: none;
        stroke: #000;
        stroke-linecap: round;
        stroke-linejoin: round;
        stroke-width: 4px;
      }
    </style>
  </defs>
  <path class="cls-1" d="M317.94,127.44s1.21-10.9-13.32-12.92c0,0,1.21-18.97-18.57-15.34,0,0-4.04-11.7-17.76-8.48,0,0,0-24.22-26.64-10.49,0,0-10.9-13.26-24.22-4.21,0,0-7.67-9.51-18.16-6.28,0,0-13.32-18.69-28.66-.67,0,0-16.14-.54-20.18,10.36,0,0-15.74-8.07-22.6,4.84,0,0-21.39-7.26-26.64,13.72,0,0-14.53,2.02-14.93,12.11,0,0-17.76-5.65-19.37,17.35,0,0-44.8,10.09-24.22,23.41,0,0,29.66,24.52,155.29,24.32,0,0,145.8-1.72,144.59-33.6,0,0,0-8.88-24.62-14.13Z"/>
  <path class="cls-1" d="M69.22,117.44s-52.95,11.26-43.26,33.46c0,0,17.13,29.41,171.71,31.42,0,0,140.4-1.36,156.34-32.67,2.2-4.33,1.33-9.58-1.89-13.22-4.8-5.42-15.84-14.66-36.05-15.82"/>
  <path class="cls-1" d="M25.96,150.91s6.95,148.47,164.4,153.72c0,0,147.12,8.1,164.87-158.18"/>
  <path class="cls-1" d="M115.4,287.87s-8.85,30.93,74.52,30.88c0,0,81.06,2.34,75.89-29.74"/>
  <path class="cls-1" d="M91.92,144.79s3.23-7.26,10.49-2.83"/>
  <path class="cls-1" d="M140.14,117.44s3.23-7.26,10.49-2.83"/>
  <path class="cls-1" d="M154.8,151.68s.08-7.95,8.51-6.76"/>
  <path class="cls-1" d="M209.66,149.84s.16-7.95,8.58-6.67"/>
  <path class="cls-1" d="M173.46,97.19s3.23-7.26,10.49-2.83"/>
  <path class="cls-1" d="M216.29,106.43s5.14-6.07,10.86.23"/>
  <path class="cls-1" d="M260.66,116.3s6.71-4.26,10.3,3.46"/>
  <path class="cls-1" d="M288.53,136.18s6.71-4.26,10.3,3.46"/>
</svg>