<?xml version="1.0" encoding="UTF-8"?>
<svg id="Layer_1" data-name="Layer 1" xmlns="http://www.w3.org/2000/svg" viewBox="0 0 380 380">
  <defs>
    <style>
      .cls-1 {
        fill: none;
        stroke: #000;
        stroke-linecap: round;
        stroke-linejoin: round;
        stroke-width: 4px;
      }
    </style>
  </defs>
  <path class="cls-1" d="M258.44,179.11c-3.04,8.36,11.03,17.49,11.03,17.49,32.32,22.81,74.14,20.53,74.14,20.53,29.66-1.9,24.33-19.01,24.33-19.01-7.6-51.71-66.92-63.11-66.92-63.11,0,0-5.69-9.44-19.84-19.79-18.41-13.47-51.14-28.5-104.27-26.3,0,0-66.07,5.24-102.4,34.13,0,0-39.54,30.08-57.28,68.94,0,0-20.62,45.79,17.74,73,0,0,41.4,28.39,91.25,26.19,0,0,37.01-3.21,49-1.52,0,0,65.23.68,73.17-17.07,0,0,1.18-18.42-64.04-39.37,0,0-39.2-18.25-147.01-18.76"/>
  <path class="cls-1" d="M236.39,160.48s0,17.49,3.8,20.91"/>
  <path class="cls-1" d="M208.63,158.57s-2.66,9.89,11.03,22.81c0,0-1.14,11.03,10.27,13.69,0,0,6.08,1.14,2.28-7.22,0,0,2.66,9.12,12.55,10.27,0,0,2.96.46,2.96-4.27,0,0,7.6,1.86,3.89-5.75,0,0,5.76-3.3,1.02-6.72,0,0-6.26-5.86-13.19-3.04"/>
  <path class="cls-1" d="M241.12,185.74s6.25,3.21,6.59,8.11"/>
  <path class="cls-1" d="M245.18,182.53s5.44,2.66,6.42,5.58"/>
  <path class="cls-1" d="M70.62,193s31.41-11.48,17.06,23.16"/>
  <line class="cls-1" x1="68.09" y1="215.13" x2="83.63" y2="200.78"/>
  <path class="cls-1" d="M89.76,194.94s59.43-30.16,62.98-33.37c0,0,24.18-4.02,56.19,3.23"/>
  <path class="cls-1" d="M237.26,172.89s11.97,2.03,19.57,7.78"/>
  <path class="cls-1" d="M281.18,115.21s13.68.23,23.65,9.86c0,0,13.71-2.51,7.65,3.55,0,0,8.03-.66,7.22,5.75,0,0,.27,2.37-4.22,1.69"/>
  <path class="cls-1" d="M309.22,132s7.44,3.04,6.42,5.58"/>
  <ellipse class="cls-1" cx="318.17" cy="198.13" rx="6.08" ry="4.51"/>
  <path class="cls-1" d="M30.57,252.15s37.51,33.63,119.47,12.17"/>
  <path class="cls-1" d="M217.12,267.19s23.66-2.03,31.26,5.41"/>
  <path class="cls-1" d="M71.8,139.27s-24.33,15.21-26.36,28.9c0,0-2.03,7.67-3.55,23.02,0,0,.84,4.02-7.77,8.24,0,0-3.74,1.53.83,6.08,1.14,1.14,1.81,2.67,1.95,4.28l.1,1.13"/>
  <path class="cls-1" d="M69.27,185.74s30.08-36.76,57.79-49.56"/>
  <path class="cls-1" d="M80.08,184.22s5.91-.55,8.1-7.34c.69-2.13,2.55-3.67,4.75-4.1l4.55-.89.48-1.91c.61-2.45,2.82-4.17,5.34-4.17h5.16s-1.35-10.31,5.24-9.12l3.21,1.9,1.34-.87c1.5-.97,3.42-.84,4.83.26,1.29,1.01,3.15,1.76,5.32.61,0,0,2.87-.04,2.87-5.96"/>
  <path class="cls-1" d="M135.51,140.79s-2.87,15.55,5.75,7.94c0,0,4.33-4.21,9.44-2.38,2.16.77,4.53.59,6.43-.69l2.04-1.39c2.23-1.52,5.24-1.17,7.08.81l3.23,3.48,4.55-2.32c2.24-1.14,4.96-.78,6.81.92l.8.73,6.84.35c1.86.1,3.56,1.07,4.58,2.63l1.59,2.42s1.69-3.72,3.38-4.39c0,0,4.06-3.04,6.59,4.39,0,0,2.88,1.86,3.8-1.69"/>
</svg>