<?xml version="1.0" encoding="UTF-8"?>
<svg id="Layer_1" data-name="Layer 1" xmlns="http://www.w3.org/2000/svg" viewBox="0 0 380 380">
  <defs>
    <style>
      .cls-1 {
        fill: none;
        stroke: #000;
        stroke-linecap: round;
        stroke-linejoin: round;
        stroke-width: 4px;
      }
    </style>
  </defs>
  <path class="cls-1" d="M345.2,192.99s-40.7-126.32-189.75-127.38c0,0-25.37-47.57-98.31-41.76,0,0,43.43,52.86,29.65,65.54,0,0-69.82,35.41-47.62,127.38,0,0,12.16,34.36,24.84,45.46,0,0-16.91,57.61,7.93,93.55,0,0,3.94,14.8,29.19-78.75,0,0,16.12-18.5,68.52-28.01,0,0-19.39-33.3-82.86-4.23,0,0-18.02-61.84,43.82-69.24l-23.79,50.21s40.7,8.91,79.28-39.68c0,0,54.44,29.11,79.28,18.01,0,0-4.76-13.21-2.11-21.14,0,0,3.17,44.4,81.93,10.04Z"/>
  <path class="cls-1" d="M261.68,139.61s-19.03,11.63-13.74,32.77"/>
  <path class="cls-1" d="M251.11,130.09s-24.19,14.91-15.86,45.46"/>
  <path class="cls-1" d="M233.51,130.09s-18.87,14.27-11.99,35.41"/>
  <path class="cls-1" d="M197.62,191.66l11.74,57.36s20.54-12.89,26.39-44.24"/>
  <circle class="cls-1" cx="282.3" cy="172.38" r="6.87"/>
</svg>