<?xml version="1.0" encoding="UTF-8"?>
<svg id="Layer_1" data-name="Layer 1" xmlns="http://www.w3.org/2000/svg" viewBox="0 0 380 380">
  <defs>
    <style>
      .cls-1 {
        fill: none;
        stroke: #000;
        stroke-linecap: round;
        stroke-linejoin: round;
        stroke-width: 4px;
      }
    </style>
  </defs>
  <path class="cls-1" d="M8.52,166.3c6.88,17,15.09,33.55,24.04,49.54,14.34,25.58,31.98,54.37,57.75,69.88,8.38,5.05,18.06,7.73,27.37,10.48,50.44,14.95,102.52,14.38,154.55,12.84,16.45-.49,33-.42,49.33-2.66,8.68-1.19,26.6-2.69,30.81-12.27,0,0,14.19-22.05,18.96-52.19,1.12-7.09-4.15-13.61-11.32-14.08-11.22-.75-22.56-.47-33.75-1.68-12.77-1.37-25.2-4.97-37.65-7.92s-25.15-6.83-37.49-10.97c-24.7-8.27-48.88-18.01-73.43-26.71-3.2-1.13-6.41-2.25-9.62-3.34-16.43-5.59-32.87-11.46-49.98-14.66-20.99-3.92-42.75-3.25-64-2.91-9.14.15-18.25.6-27.39.98-5.91.25-14.49.05-18.18,5.66"/>
  <path class="cls-1" d="M120.83,163.09v-28.39c0-3.29,2.57-6.02,5.86-6.19,15.2-.81,57.68-.64,99.75,21.73,0,0,52.02,28.4,86.3,34.73,3.13.58,5.41,3.29,5.41,6.48v33.74"/>
  <path class="cls-1" d="M204.16,140.31s3.76-46.04-63.16-41.76c-3.49.22-6.19,3.18-6.07,6.68l.8,23.06"/>
  <path class="cls-1" d="M144.03,85.44s11.37-2.66,23.92,3.35l1.5-14.31s-20.92-7.79-27.09-2.33v26.12"/>
  <path class="cls-1" d="M309.01,184.2v-25.82c0-6.52-5.28-11.8-11.8-11.8h0c-4.22,0-7.64,3.42-7.64,7.64v22.51"/>
  <path class="cls-1" d="M25.22,198.9c4.21-2.09,9.14-2.89,13.74-3.53,16.78-2.33,34.12-.94,50.84,1.19,34.75,4.42,68.91,13.35,102.35,23.58,42.21,12.91,84.05,24.83,127.43,33.54,14.5,2.91,34,5,48.77,1.03"/>
  <path class="cls-1" d="M16.74,182.86c4.21-2.09,9.14-2.89,13.74-3.53,16.78-2.33,42.6-1.59,59.32.53,34.75,4.42,68.91,13.35,102.35,23.58,42.21,12.91,84.05,24.83,127.43,33.54,14.5,2.91,35.96,5,50.73,1.03"/>
  <circle class="cls-1" cx="125.76" cy="248.58" r="31.4"/>
  <circle class="cls-1" cx="125.76" cy="248.58" r="15.07"/>
  <circle class="cls-1" cx="201.17" cy="261.46" r="15.07"/>
  <circle class="cls-1" cx="260.25" cy="272.51" r="15.07"/>
  <circle class="cls-1" cx="313.5" cy="280.06" r="15.07"/>
  <circle class="cls-1" cx="140.83" cy="151.88" r="8.35"/>
  <circle class="cls-1" cx="171.49" cy="159.58" r="8.35"/>
  <circle class="cls-1" cx="204.2" cy="168.22" r="8.35"/>
  <circle class="cls-1" cx="236.91" cy="180.77" r="8.35"/>
  <circle class="cls-1" cx="268.97" cy="191.36" r="8.35"/>
  <circle class="cls-1" cx="300.6" cy="203.78" r="8.35"/>
  <path class="cls-1" d="M117.53,218.28s-2.96,8.96,3.3,16.32"/>
  <path class="cls-1" d="M155.85,240.2s-11.99-1.08-15.73,3.82"/>
  <path class="cls-1" d="M111.43,253.25s-8.29,7.39-15.77,4.19"/>
  <path class="cls-1" d="M129.72,263.12s6.98,9.54,5,15.78"/>
  <path class="cls-1" d="M301.4,116.59s-.32-7.9,6.87-10.08c2.78-.84,5.81-.63,8.44.59,3.15,1.45,6.92,4.7,6.39,11.93.01-.14,4.1,1.78,4.36,1.97,2.46,1.74,3.72,4.59,2.66,7.55-.71,1.99-2.92,3.98-4.62,5.13-2.21,1.5-4.87,2.01-7.27.64-1.67,2.69-4.93,6.52-8.46,6.02-3.93-.56-7.73-2.06-8.38-6.46,0,0-7.97-2.66-8.67-9.4-.23-2.22.58-4.4,2.18-5.97,1.44-1.41,3.65-2.74,6.49-1.91Z"/>
  <path class="cls-1" d="M339.5,83.37s4.21-5.98,9.53-3.77c0,0,7.09,2.73,3.54,10.19,0,0,5.64,3.32.82,7.09,0,0-2.67,2.36-7.25,0,0,0-3.77,2.81-6.65,1.18,0,0-1.99-.74-2.44-4.95,0,0-4.13-1.92-2.88-7.31,0,0,1.33-3.77,5.32-2.44Z"/>
</svg>