<?xml version="1.0" encoding="UTF-8"?>
<svg id="Layer_1" data-name="Layer 1" xmlns="http://www.w3.org/2000/svg" viewBox="0 0 380 380">
  <defs>
    <style>
      .cls-1 {
        fill: none;
        stroke: #000;
        stroke-linecap: round;
        stroke-linejoin: round;
        stroke-width: 4px;
      }
    </style>
  </defs>
  <path class="cls-1" d="M168.56,177.8c-11.49,12.04-22.03,23.67-22.03,23.67-33.37,18.6-57.45,64.56-57.45,64.56-3.09,2.74-4.24,11.07-4.67,16.91-1.18,16.07,14.29,25.26,26.65,31.66,14.23,7.37,30.02,11.15,46.05,11.14,36.7-.02,72.18-9.16,103.71-27.94.02-.01.04-.02.05-.03,16.27-10.01,30.94-22.31,46.5-33.34,8.36-5.92,17.05-11.36,25.69-16.85,14.35-9.12,28.59-18.02,26.59-37.51-.51-4.93-.03-11.25-2.34-15.72-1.56-3.02-4.62-5.58-7.25-7.65,1.04,16.72-16.91,32.39-29.98,40.03-8.81,5.15-17.27,10.98-24.99,17.68-8.11,7.05-15.88,14.2-24.74,20.33-9.73,6.73-19.83,12.89-30.01,18.9-5.74,3.39-11.8,7.86-18.04,10.29-17.91,6.97-37.08,10.44-56.23,11.46-17.79.95-39.76,2.25-55.5-7.53-11.01-6.84-19.07-19.1-21.49-31.84,0,.05-18.03-1.39-19.15-1.58-12.95-2.18-25.94-6.55-36.47-14.59-4.62-3.53-11.08-8.28-12.75-14.18-1.39-4.9-.05-12.01,2.72-16.16,0,0-2.19-24.75,12.04-39.46,0,0,41.03-27.29,54.71-29.48,13.84-2.21,21.96,13.85,25.95,24.52,4.69,12.52,10.72,28.12,10.16,41.69"/>
  <path class="cls-1" d="M146.53,201.47c14.7.55,27.9,12.47,36.17,23.52,15.89,21.23,23.03,48.65,17.71,75.01"/>
  <path class="cls-1" d="M178.81,140.74c.74-1.76,1.77-3.31,3.72-4.26,4.02-1.96,9.5-.32,13.24,1.52,12.06,5.92,23.98,12.14,35.45,19.14,7.14,4.35,13.53,9.83,20.61,14.27,9.22,5.78,19.66,6.07,29.31,10.3,8.01,3.51,15.37,10.2,13.1,19.76-1.14,4.82-1.57,9.21-4.4,13.54-7.4,11.32-21.36,10.39-32.69,6.84-15-4.69-30.1-9.5-43.77-17.42-8.29-4.81-16.6-9.58-24.84-14.5-6.34-3.79-12.67-7.61-18.87-11.63-3.1-2.01-7.92-4.29-10.04-7.47-2.45-3.68,6.85-11.57,8.84-13.77,2.67-2.94,5.4-5.92,7.54-9.28,1.35-2.12,1.81-4.76,2.77-7.04Z"/>
  <path class="cls-1" d="M208.24,201.47s-1.56,2.88-3.14,6.89c-5.68,14.36.13,30.15,4,44.25s7.76,27.94,13.21,41.32"/>
  <path class="cls-1" d="M191.39,135.66c1.61-4.89,4.4-9.59,7.99-13.27,3.14-3.21,7.02-5.65,11.41-6.69,2.6-.62,5.31-.75,7.97-.47,6.62.69,13.46-3.46,19.56-5.73,6.84-2.54,13.73-4.93,20.7-7.08,7.28-2.25,14.54-4.66,22.05-6.04,8.3-1.53,18.24-1.55,26.43.66,5.47,1.48,10.55,4.24,14.85,7.91,5.68,4.85,9.91,11.18,12.96,17.95.85,1.9,1.42,3.91,1.69,5.98.92,7.21,1.01,23.83-15.4,32.67-5.27,2.64-10.83,4.83-16.44,6.62-10.71,3.43-21.87,2.92-32.51-.53-9.18-2.98-21.1-6.87-27.65-14.3"/>
  <path class="cls-1" d="M199.71,139.97s2.62-9.17,14.66-14.6c0,0,12.58-7.07,23.53,3.33,0,0,15.87,13.68,15.32,18.6,0,0-20.29,10.77-19.63,11.18"/>
  <path class="cls-1" d="M253.22,147.3s12.58,10.4,25.72,8.21c0,0,28.45-.64,41.03-30.14,0,0-24.62-11.85-42.13-2.35l-32.56,12.63"/>
  <path class="cls-1" d="M294.73,110.65s17.58-7.2,25.24,14.73"/>
  <path class="cls-1" d="M317.94,101.65s14.62-10.99,27.75-6.19c0,0,12.45,9,10.26,13.96,0,0,3.97,3.84-4.79,9.92l-14.32,8.29"/>
  <path class="cls-1" d="M332.55,117.44s14.09-9.16,23.39-8.03"/>
  <path class="cls-1" d="M350.06,186.7s-3.57-31.15-12.73-45.94"/>
  <path class="cls-1" d="M23.43,219.52s.64,30.09,76.92,28.18"/>
  <path class="cls-1" d="M95.68,150.61s9.27-6.9,14.19-13.04"/>
  <path class="cls-1" d="M124.25,199s3.38-32.24,13.23-36.08"/>
  <path class="cls-1" d="M159.66,170.83c-7.47-.34-21.46-8.09-31.01-13.93-7.13-4.36-12.52-10.71-16.93-17.72-4.64-7.38-9.37-15.34-4.84-24.02,2.07-3.98,3.97-7.65,7.21-10.82,2.66-2.61,5.73-4.78,8.98-6.59,5.06-2.83,10.59-4.87,16.23-6.21.95-.22,1.9-.43,2.85-.59,0,0,.61-13.68,32.04-22.98,0,0,53.22-17.06,76.23-12.73,3.42.64,6.52,2.4,8.93,4.92,5.31,5.56,15.92,17.99,13.02,25.87,0,0,.3,6.75-14.62,16.78"/>
  <path class="cls-1" d="M201.76,106.93c-.58-7.11-13.94-18.17-13.94-18.17-3.4-2.94-6.83-4.21-9.89-4.61-4.82-.62-9.52,1.57-12.42,5.47-5.11,6.85-18.98,16.1-18.98,16.1"/>
  <path class="cls-1" d="M160.13,118.93s6.53-6.18,13.72-10.19c3.64-2.04,7.94-2.61,11.97-1.56,4.27,1.11,12.51,1.94,26.21-1.46,0,0,34.8-16.01,41.2-30.64,0,0,1.63-7.11-12.05-8.21"/>
  <path class="cls-1" d="M187.82,88.76s45.69-18.26,57.46-4.75"/>
  <path class="cls-1" d="M261.23,62.18s19.89-13.89,29.19-4.87c0,0,10.4,10.9,0,21.72,0,0-2.33,3.71-17.65,7,0,0,2.94,4.21,3.43,11.07"/>
  <path class="cls-1" d="M271.23,76.5s14.76-10.17,23.82-6.34"/>
  <path class="cls-1" d="M142.15,90.95c-.87,2.4-.88,5.14-.35,7.61,1.22,5.77,5.9,9.81,10.31,13.3,5.35,4.23,10.13,9.09,15.28,13.55,4.26,3.68,9.69,8.44,14.96,10.65"/>
</svg>