<?xml version="1.0" encoding="UTF-8"?>
<svg id="Layer_1" data-name="Layer 1" xmlns="http://www.w3.org/2000/svg" viewBox="0 0 380 380">
  <defs>
    <style>
      .cls-1 {
        fill: none;
        stroke: #000;
        stroke-linecap: round;
        stroke-linejoin: round;
        stroke-width: 4px;
      }
    </style>
  </defs>
  <path class="cls-1" d="M261.09,118.7l14.77-50.43c6.62-28.02-32.6-36.68-32.6-36.68-52.47-44.83-93.23-7.64-93.23-7.64-18.34,12.74-32.09-12.74-32.09-12.74,0,0-20.38,53.49,0,109.53"/>
  <path class="cls-1" d="M163.03,65.1s28.09,12.12,56.71,0l25.56,35.6s9.87,91.53-52.55,96.62c0,0-68.53-1.08-54.6-100.19l24.88-32.03Z"/>
  <path class="cls-1" d="M221.53,202.25h30.31c3.05,0,5.52,2.47,5.52,5.52v30.65l28.87,11.55"/>
  <path class="cls-1" d="M309.88,272.06s9.12,9.83,8.27,39.38l-.73,51c-.06,4.49-3.72,8.1-8.22,8.09l-234.85-.16c-4.53,0-8.2-3.68-8.2-8.21v-71.15c0-12.29,5.19-24.09,14.48-32.14,17.15-14.87,43.09-19.77,43.09-19.77v-31.33c0-3.05,2.47-5.52,5.52-5.52h30.82"/>
  <path class="cls-1" d="M245.84,117.34s22.9-4.93,23.07,15.62c0,0,1.6,20.19-26.88,15.87"/>
  <path class="cls-1" d="M136.28,118.7s-22.93-4.25-23.43,14.43c0,0-1.85,18.35,26.5,16.31"/>
  <path class="cls-1" d="M161.11,185.1v71.37c0,2.36-2.58,3.81-4.6,2.58l-32.79-19.96"/>
  <path class="cls-1" d="M126.09,203.76l35.02,22.35s29.68,27.59,60.42,0"/>
  <path class="cls-1" d="M221.53,185.88v72.37c0,2.3,2.59,3.64,4.47,2.31l31.36-22.15"/>
  <line class="cls-1" x1="255.47" y1="203.43" x2="221.53" y2="224.8"/>
  <ellipse class="cls-1" cx="299.3" cy="195.12" rx="21.4" ry="25.19"/>
  <path class="cls-1" d="M287.13,215.84v46.9c0,4.65,2.33,9.05,6.29,11.49,3.32,2.04,7.7,2.98,12.55-.55,3.44-2.51,5.39-6.6,5.39-10.86v-46.98"/>
  <path class="cls-1" d="M251.07,370.49v-67.71s.17-11.21,12.06-11.21c0,0,10.53.17,11.72,9.85v15.62c0,2.49.61,4.97,1.96,7.07,1.68,2.61,4.75,5.24,10.32,5.33,0,0,9.08.14,11.64-8.6.39-1.32.52-2.71.52-4.09l-.05-40.71"/>
  <line class="cls-1" x1="225.99" y1="260.57" x2="225.8" y2="370.47"/>
  <line class="cls-1" x1="157.72" y1="260" x2="157.72" y2="370.53"/>
  <line class="cls-1" x1="277.92" y1="195.98" x2="320.7" y2="195.98"/>
  <circle class="cls-1" cx="22.23" cy="220.31" r="13.36"/>
  <circle class="cls-1" cx="71.27" cy="201.25" r="13.36"/>
  <circle class="cls-1" cx="310.88" cy="93.33" r="13.36"/>
  <polyline class="cls-1" points="84.17 197.32 84.17 136.59 35.58 154.93 35.43 218.29"/>
  <line class="cls-1" x1="36.3" y1="176.79" x2="82.17" y2="160.81"/>
  <polyline class="cls-1" points="324.23 50.6 371.13 33.34 371.13 10.47 324.23 27.46 324.23 91.98"/>
</svg>