<?xml version="1.0" encoding="UTF-8"?>
<svg id="Layer_1" data-name="Layer 1" xmlns="http://www.w3.org/2000/svg" viewBox="0 0 380 380">
  <defs>
    <style>
      .cls-1 {
        fill: none;
        stroke: #000;
        stroke-linecap: round;
        stroke-linejoin: round;
        stroke-width: 4px;
      }
    </style>
  </defs>
  <path class="cls-1" d="M89.84,307.03c-5.58-1.52-10.63-3.59-15.02-7.54-13.02-11.72-10.78-33.76-9.72-49.71.8-12.08,3.99-26.98,14.86-37.55,1.8-1.75,3.96-3.11,6.27-4.09,19.41-8.27,123.08-52.4,123.08-52.4,0,0,21.54-8.48,36.04-2.83l83.74,25.18c9.73,2.93,17.66,10.13,21.27,19.63,2.06,5.44,3.53,12.43,3.53,21.29v23.79c0,3.13-.47,6.24-1.45,9.2-2.07,6.27-6.97,16.07-18.34,23.2l-124.88,51.25s-12.98,9.9-39.13,2.47c0,0-80.07-21.87-80.24-21.92Z"/>
  <path class="cls-1" d="M189.17,150.97s.92-23.1,22.16-12.26c0,0-.95-16.55,11.07-19.38"/>
  <path class="cls-1" d="M235.83,135.16s1.41-23.24,22.62-22.89c0,0,25.1-1.06,24.04,26.86,0,0,4.57-19.82,22.22-13.01,3.81,1.47,7.09,4.13,8.98,7.75,2.35,4.5,3.22,11.35-4.69,19.4"/>
  <path class="cls-1" d="M327.38,142.67s14.27-9.9,24.62,2.07c1.45,1.68,2.37,3.75,2.98,5.88,1.46,5.05,2.69,15.24-8.52,20.68"/>
  <path class="cls-1" d="M196.59,119.34s-5.13-11.69,3.04-19.96c1.91-1.93,4.37-3.21,7.03-3.78,6.27-1.37,18.62-1.57,21.75,16.67"/>
  <path class="cls-1" d="M51.67,226.79s-9.54-9.9,3.53-16.26c0,0-23.16,4.21-21.48-18.72.41-5.66,2.98-11.01,7.42-14.55,5.54-4.41,14.67-6.68,27.49,6.05,0,0-.71-21.21,19.09-14.49,0,0,8.48,3.89,7.07,15.91"/>
  <path class="cls-1" d="M44.24,251.18s-20.45-6.51-20.15,13.08c0,0-.71,11.31,16.97,12.37,0,0-21.56,8.84-10.6,28.28,0,0,7.78,13.43,24.04,6.72"/>
  <circle class="cls-1" cx="148.18" cy="112.66" r="18.73"/>
  <circle class="cls-1" cx="142.15" cy="62.08" r="13.79"/>
  <line class="cls-1" x1="88.65" y1="241.34" x2="109.99" y2="248"/>
  <path class="cls-1" d="M148.18,260.02c12.72,5.31,26.39,8.4,40.22,7.95,22.09-.72,42.77-11.86,62.96-19.77,22.87-8.96,45.92-17.46,68.8-26.4,3.59-1.4,7.17-2.8,10.76-4.2"/>
  <path class="cls-1" d="M135.79,114.74s.71-10.96,8.48-13.79"/>
</svg>