<?xml version="1.0" encoding="UTF-8"?>
<svg id="Layer_1" data-name="Layer 1" xmlns="http://www.w3.org/2000/svg" viewBox="0 0 380 380">
  <defs>
    <style>
      .cls-1 {
        fill: none;
        stroke: #000;
        stroke-linecap: round;
        stroke-linejoin: round;
        stroke-width: 4px;
      }
    </style>
  </defs>
  <path class="cls-1" d="M203.92,156.15c0,3.38-7.02-4.02-14.43-4.02s-13.41,7.73-13.41,4.36,6-13.58,13.41-13.58,14.43,9.87,14.43,13.24Z"/>
  <g>
    <path class="cls-1" d="M223.57,332.03l69.57-6.87c3.01-.3,4.99-3.27,4.11-6.16l-4.79-15.68c-.94-3.07-2.88-5.74-5.52-7.56l-52.41-36.3c-10.95-10.44-18.34-64.43-18.34-64.43-1.02-51.09-12.79-70.62-20.52-77.96-3.61-3.43-9.25-3.38-12.76.15-19.47,19.63-20.96,78.06-20.96,78.06-7.64,56.53-18.08,63.66-18.08,63.66l-50.71,36.73c-2.46,1.78-4.29,4.3-5.22,7.19l-5.17,16.09c-.93,2.9,1.05,5.92,4.07,6.22l67.71,6.85"/>
    <line class="cls-1" x1="86.27" y1="308.34" x2="154.31" y2="308.34"/>
    <line class="cls-1" x1="223.32" y1="308.34" x2="293.09" y2="308.34"/>
    <path class="cls-1" d="M167.47,296.13h43.37c6.89,0,12.48,5.59,12.48,12.48v35.9h-68.33v-35.9c0-6.89,5.59-12.48,12.48-12.48Z"/>
    <polyline class="cls-1" points="164.15 344.51 173.32 363.44 206.94 363.44 215.42 344.51"/>
    <polyline class="cls-1" points="102.9 326.81 103.55 353.97 135.63 353.97 135.63 330.12"/>
    <polyline class="cls-1" points="242.71 330.14 242.71 353.97 275.52 353.97 275.99 326.86"/>
    <path class="cls-1" d="M103.55,353.97l-6.02,14.88c-.69,1.71.57,3.58,2.41,3.58h38.76c1.81,0,3.07-1.8,2.44-3.5l-5.5-14.96"/>
    <path class="cls-1" d="M242.71,353.97l-5.59,14.95c-.64,1.7.62,3.51,2.44,3.51h39.17c1.82,0,3.08-1.82,2.43-3.52l-5.63-14.94"/>
    <line class="cls-1" x1="161.95" y1="195.28" x2="161.95" y2="295.02"/>
    <line class="cls-1" x1="216.19" y1="195.04" x2="216.19" y2="296.13"/>
    <path class="cls-1" d="M103.29,288.34V122.7l13.84-36.21c.66-1.73,3.1-1.74,3.78-.02l14.05,35.55v143.38"/>
    <line class="cls-1" x1="103.29" y1="122.7" x2="134.95" y2="122.7"/>
    <line class="cls-1" x1="103.29" y1="169.22" x2="134.95" y2="169.22"/>
    <line class="cls-1" x1="103.29" y1="214.73" x2="134.95" y2="214.73"/>
    <path class="cls-1" d="M275.62,287.84V122.2s-13.84-36.21-13.84-36.21c-.66-1.73-3.1-1.74-3.78-.02l-14.05,35.55v143.38"/>
    <line class="cls-1" x1="275.62" y1="122.2" x2="243.95" y2="122.2"/>
    <line class="cls-1" x1="275.62" y1="168.72" x2="243.95" y2="168.72"/>
    <line class="cls-1" x1="275.62" y1="214.23" x2="243.95" y2="214.23"/>
    <path class="cls-1" d="M152.18,242.42V73.64s.72-32.99,34.21-64.75c1.79-1.7,4.57-1.77,6.45-.17,7.85,6.71,27.07,26.63,33.1,64.92v166.91"/>
    <line class="cls-1" x1="152.18" y1="73.64" x2="225.94" y2="73.64"/>
  </g>
</svg>