<?xml version="1.0" encoding="UTF-8"?>
<svg id="Layer_1" data-name="Layer 1" xmlns="http://www.w3.org/2000/svg" viewBox="0 0 380 380">
  <defs>
    <style>
      .cls-1 {
        fill: none;
        stroke: #000;
        stroke-linecap: round;
        stroke-linejoin: round;
        stroke-width: 4px;
      }
    </style>
  </defs>
  <path class="cls-1" d="M212.68,98.49c-24.86-8.44-51.88-14.35-78.15-14.88-17.74-.36-33.19,1.97-46.31,14.6-8.31,8-15,17.65-19.7,28.17-6.81,15.25-9.2,32.08-8.35,48.68.65,12.77,4.47,25.03,7.17,37.45,1.55,7.15,2.36,14.39,3.55,21.6,2.37,14.47,5.61,28.85,10.06,42.82,4.18,13.09,9.13,26.18,16.66,37.76,5.15,7.91,11.63,16.06,20.13,20.54,6.21,3.28,12.69,2.85,19.43,2.2,11.53-1.11,22.88-4.05,33.76-7.97,31.92-11.51,60.32-31.65,85.22-54.37,15.2-13.87,27.6-33.91,35.94-52.44,5.87-13.03,9.96-27.14,10.07-41.53.13-16.96-4.65-35.87-18.99-46.16-11.85-8.51-24.78-15.58-37.85-22.01-10.56-5.2-21.49-10.68-32.65-14.47Z"/>
  <path class="cls-1" d="M279.45,132.38c20.47,12.35,40.55-.6,40.55-.6-2.81.56-5.26.66-7.18.58-2.23-.09-4.42-.73-6.31-1.92-15.27-9.6-47.53-10.4-47.53-10.4,37.71,1.79,46.08-36.45,46.08-36.45-23.09,38.75-75.59,21.97-75.59,21.97,32.79,11.82,35.52-7.06,35.52-7.06,1.36-12.91,8.15-28.19,8.15-28.19-43.47-3.74-60.45,28.19-60.45,28.19,21.74-31.25-14.26-56.38-14.26-56.38-40.75,30.57-17.33,47.44-17.33,47.44-11.25-12.68-30.22-36.58-30.22-36.58-12.91,15.62,0,30.6,0,30.6-10.41-10.41-47.55-30.6-47.55-30.6,5.43,32.6,26.49,30.6,26.49,30.6,0,0-19.02-2.75-13.58,38,0,0,32.46-31.09,54.2-33.89,0,0-35.18,16.91-24.99,46.8,0,0,29.12-12.91,35.62-30.57,1.85,6.33,4.03,12.59,6.43,18.73,3.17,8.13,8.21,15.38,11.46,23.48,2.35,5.87,3.78,12.19,5.59,18.24,0,0,14.04-14.11,19.02-52.3,0,0-2.7,37.52,18.46,47.08,0,0,8.48,3,7.8-35.04,0,0,9.74,16.85,29.18,25.68,5.76,2.61,10.43,7.12,13.04,12.88,3.99,8.81,8.58,22.78,7.46,38.85"/>
  <ellipse class="cls-1" cx="192.02" cy="221.16" rx="11.39" ry="6.79" transform="translate(-95.52 276.87) rotate(-60)"/>
  <ellipse class="cls-1" cx="220.85" cy="250.88" rx="11.39" ry="6.79" transform="translate(-106.85 316.71) rotate(-60)"/>
  <ellipse class="cls-1" cx="192" cy="259.9" rx="10.17" ry="6.07" transform="translate(-129.08 296.23) rotate(-60)"/>
  <ellipse class="cls-1" cx="155.88" cy="240.45" rx="11.39" ry="6.79" transform="translate(-116.72 328.79) rotate(-75)"/>
  <ellipse class="cls-1" cx="163.32" cy="274.42" rx="8.69" ry="5.18" transform="translate(-144.02 361.15) rotate(-75)"/>
</svg>