<?xml version="1.0" encoding="UTF-8"?>
<svg id="Layer_1" data-name="Layer 1" xmlns="http://www.w3.org/2000/svg" viewBox="0 0 380 380">
  <defs>
    <style>
      .cls-1 {
        fill: none;
        stroke: #000;
        stroke-linecap: round;
        stroke-linejoin: round;
        stroke-width: 4px;
      }
    </style>
  </defs>
  <path class="cls-1" d="M328.23,218.34c-17.19-25.02-78.24-54.95-158.47-54.95-89.87,0-160.13,20.65-160.13,67.85,0,6.93,1.06,13.89,3.59,20.37,11.92,30.55,50.19,39.36,79.07,43.56,49.46,7.2,99.72,6.19,147.77-8.33,30.81-9.31,67.49-23.85,87.47-50.62"/>
  <path class="cls-1" d="M151.24,80.14h17.69s7.52,1.06,9.64,10.92v25.92"/>
  <path class="cls-1" d="M149.69,90.7h14.44s2.82-.35,2.47,8.63l.03,17.64"/>
  <path class="cls-1" d="M135.23,164.49l6.12-31.29c.75-3.81,4.09-6.57,7.98-6.57h47.03c3.96,0,7.34,2.86,8.01,6.76l5.56,32.56"/>
  <path class="cls-1" d="M147.57,126.63l.36-1.61c1.03-4.61,5.12-7.9,9.84-7.9h31.07c4.86,0,9.03,3.47,9.92,8.25l.23,1.26"/>
  <ellipse class="cls-1" cx="148.89" cy="85.07" rx="4.31" ry="5.63"/>
  <path class="cls-1" d="M140.45,137.82s35.95-2.37,64.68,0"/>
  <path class="cls-1" d="M267.48,179.56s29.39,55.16,0,97.71"/>
  <path class="cls-1" d="M11.42,246.03s101.98,33.99,267.88,1.94"/>
  <path class="cls-1" d="M20.06,263.71s98.42,31.47,253.81,2.23"/>
  <path class="cls-1" d="M46.95,183.46h21.07c7.08,0,12.81,5.74,12.81,12.81v25.24c0,7.08-5.74,12.81-12.81,12.81H9.78"/>
  <path class="cls-1" d="M59.94,178.66h6.5c11.16,0,20.73,8.01,20.73,19.17v21.3c0,11.16-9.05,20.21-20.21,20.21H10.3"/>
  <ellipse class="cls-1" cx="319.9" cy="227.45" rx="33.81" ry="8.72"/>
  <circle class="cls-1" cx="361.9" cy="228.42" r="5.9"/>
  <line class="cls-1" x1="351.6" y1="224.42" x2="357.57" y2="224.42"/>
  <line class="cls-1" x1="348.63" y1="232.05" x2="356.53" y2="231.46"/>
  <path class="cls-1" d="M280.54,184.72s25.02-39.82,63.64-26.69c3.97,1.35,5.77,5.96,3.77,9.66-7.18,13.24-22.58,42.71-17.96,51.49"/>
  <path class="cls-1" d="M281.06,271.71s24.51,39.3,63.12,26.17c3.97-1.35,5.77-5.96,3.77-9.66-7.18-13.24-22.58-42.71-17.96-51.49"/>
  <circle class="cls-1" cx="113.32" cy="224.42" r="16.18"/>
  <circle class="cls-1" cx="113.32" cy="224.42" r="9.22"/>
  <circle class="cls-1" cx="151.93" cy="224.42" r="16.18"/>
  <circle class="cls-1" cx="151.93" cy="224.42" r="9.22"/>
  <circle class="cls-1" cx="190.02" cy="224.42" r="16.18"/>
  <circle class="cls-1" cx="190.02" cy="224.42" r="9.22"/>
  <circle class="cls-1" cx="228.12" cy="224.42" r="16.18"/>
  <circle class="cls-1" cx="228.12" cy="224.42" r="9.22"/>
  <path class="cls-1" d="M359.26,222.51s-11.57-25.44-1.69-37.33c0,0,6.45-3.17,9.09,0,0,0,9.77,11.78-2.38,37.33"/>
  <path class="cls-1" d="M359.26,234.32s-11.57,25.44-1.69,37.33c0,0,6.45,3.17,9.09,0,0,0,9.77-11.78-2.38-37.33"/>
</svg>