<?xml version="1.0" encoding="UTF-8"?>
<svg id="Layer_1" data-name="Layer 1" xmlns="http://www.w3.org/2000/svg" viewBox="0 0 380 380">
  <defs>
    <style>
      .cls-1 {
        fill: none;
        stroke: #000;
        stroke-linecap: round;
        stroke-linejoin: round;
        stroke-width: 4px;
      }
    </style>
  </defs>
  <path class="cls-1" d="M63.18,252.42c-15.31-4.67-23.37-15.41-26.16-23.61-2.11-6.19-1.81-12.97.64-19.04,7.5-18.59,6.28-42.81,6.28-42.81,2.47-75.1,65.14-72.9,65.14-72.9,0,0,64.64,1.75,63.65,72.9,0,0-.39,24.33,6.33,43.27,2.96,8.36,2.41,17.65-1.74,25.48-3.54,6.67-10.45,15.72-21.15,18.24"/>
  <path class="cls-1" d="M153.98,157.68s-12.83-20.23-22.21-23.19c0,0-9.38-3.45-20.23,8.88,0,0-9.87,13.82-44.9,14.31v25.81c0,8.08,2.18,16.04,6.52,22.86,5.58,8.78,15.63,18.24,33.34,19.76,1.86.16,3.72.08,5.56-.24,7.43-1.28,26.99-6.45,37.93-26.21,2.64-4.76,4-10.13,4-15.58v-26.4Z"/>
  <path class="cls-1" d="M89.12,221.23s1.69,13.02-2.75,21.61c0,0-5.43,15.99,0,35.73l23.93,62.41,21.47-61.92s3.95-23.6,0-36.23c0,0-3.45-11.64-1.48-23.48"/>
  <path class="cls-1" d="M86.38,278.57s22.7,5.92,45.4.49"/>
  <path class="cls-1" d="M86.38,242.84s-48.56,18.27-67.39,44.88c-4.69,6.63-7.12,14.58-7.12,22.7v49.81c0,5.86,4.75,10.61,10.61,10.61h188.15c5.19,0,9.61-3.75,10.46-8.87l16.08-96.5c.39-2.36-1.09-4.64-3.41-5.23l-20.8-5.29c-2.36-.6-4.78.74-5.53,3.06l-25.32,79.03"/>
  <line class="cls-1" x1="43.45" y1="340.99" x2="43.45" y2="370.85"/>
  <path class="cls-1" d="M157.93,255.23l-9.38,15.45,9.38,10.68-47.62,59.63c-25.91-13.58-50.43-59.63-50.43-59.63l9.23-10.68-9.23-15.45"/>
  <path class="cls-1" d="M131.77,242.84s58.86,26.88,66.93,42.41"/>
  <path class="cls-1" d="M213.99,255.23l6.77-24.24c.85-3.06,2.71-5.74,5.28-7.61l7.95-5.8c4.08-2.97,9.83-2.3,12.96,1.67,3.93,4.99,6.97,12.34.3,19.85,0,0-13.05,14.09-14.67,20.86"/>
  <rect class="cls-1" x="109.07" y="9.15" width="259.06" height="22.7" rx="3.06" ry="3.06"/>
  <line class="cls-1" x1="121.9" y1="31.85" x2="121.9" y2="69.85"/>
  <path class="cls-1" d="M354.81,31.85v138.28c0,3.7-3,6.69-6.69,6.69h-152.69"/>
  <line class="cls-1" x1="270.43" y1="138.67" x2="239.2" y2="215.74"/>
  <path class="cls-1" d="M153.96,113.6l.02-42.31c0-2.66,2.15-4.81,4.81-4.81h35.11c2.66,0,4.81,2.15,4.81,4.81v45.07c0,2.66-2.15,4.81-4.81,4.81h-33.53"/>
  <line class="cls-1" x1="229.48" y1="64.42" x2="325.53" y2="64.42"/>
  <line class="cls-1" x1="229.48" y1="93.82" x2="325.53" y2="94.06"/>
  <line class="cls-1" x1="229.48" y1="124.12" x2="263.19" y2="124.12"/>
  <path class="cls-1" d="M66.64,163.27s-19.24-6.7-20.56,16.88c0,0,.66,15.35,20.56,13.38"/>
  <path class="cls-1" d="M154.79,162.84s16.83-6.31,18.14,17.27c0,0,.13,15.4-19.77,13.42"/>
</svg>