<?xml version="1.0" encoding="UTF-8"?>
<svg id="Layer_1" data-name="Layer 1" xmlns="http://www.w3.org/2000/svg" viewBox="0 0 380 380">
  <defs>
    <style>
      .cls-1 {
        fill: none;
        stroke: #000;
        stroke-linecap: round;
        stroke-linejoin: round;
        stroke-width: 4px;
      }
    </style>
  </defs>
  <path class="cls-1" d="M277.99,65.48c28.91-27.03,41.06-7.54,41.06-7.54,16.97,7.54,9.43,24.51,9.43,24.51,18.23,13.83,11.94,28.28,11.94,28.28"/>
  <path class="cls-1" d="M305.23,73.86s-19.69-6.29-26.19-5.24c0,0-24.72-37.11-52.38-.12,0,0-46.72,1.17-57.41,20.02,0,0-20.32-5.87-21.58,5.87,0,0-17.6-4.4-15.92,9.22,0,0-23.26-1.89-21.16,14.46,0,0-19.9-1.26-19.9,15.08,0,0-23.26.63-18.86,20.11,0,0-14.04,2.3-11.52,18.02,0,0-12.78,3.77-10.69,21.16,0,0-15.71,7.33-15.08,27.66"/>
  <path class="cls-1" d="M74.35,224.08s-21.76-25.05-52.63,9.23c-5.15,5.72-7.25,13.55-5.57,21.06,2.35,10.51,9.19,24.73,28.53,31.8,1.24.45,3.17,1.38,4.32,2.04,5.16,2.95,16.18,9.98,20.09,18.16,1.74,3.64,5.49,5.98,9.51,5.76,2.35-.13,4.49-1.07,5.28-3.76.47-1.59.2-3.31-.58-4.78-1.65-3.12-5.54-9.65-11.26-14.14,0,0,31.3,3.5,43.16,14.29,2.03,1.85,4.44,3.27,7.12,3.88,4.05.92,9.04.99,8.87-4.34-.12-3.86-2.81-7.17-6.48-8.38-9.32-3.08-30.09-10.31-33.81-14.67,0,0,10.54,1.57,15.67,2.13,1.21.13,2.4.41,3.54.84,3.92,1.5,13.48,4.28,10.96-5.28,0,0-.84-4.82-19.9-5.45,0,0-15.29,1.35-24.51-3.89"/>
  <path class="cls-1" d="M58.63,203.76s4.41-1.19,10.43-1.4c15.66-.54,29.37,10.53,32.44,25.89,3.25,16.21-2.17,30.66-18.01,37.18-14.71,6.06-31.29,2.64-44.98-4.48"/>
  <path class="cls-1" d="M117.26,284.76s17.01,9.09,48.64,4.48"/>
  <path class="cls-1" d="M230.85,175.68s13.2,34.36-35.83,54.47"/>
  <path class="cls-1" d="M185.39,175.68c-6.68,6.13-12.95,12.76-18.79,19.7-8.15,9.69-19,22.67-19.32,36.04-.31,12.9,6.35,27.11,10.92,38.99,4.7,12.23,10.53,25.43,20.27,34.54,0,0,10.42,12.15,35.27,9.85,0,0,15.43-1.47,27.37,2.51l8.33,4.32c1.66.86,3.18,1.97,4.58,3.21,2.41,2.14,8.87,7.37,12.73.84,0,0,3.06-6.28-9.51-11.93l-12.15-5.24,25.77,1.26s8.27-.53,14.01,2.93c1.91,1.15,4.16,1.68,6.39,1.54,3.35-.21,6.93-1.87,5.37-8.46,0,0,1.26-3.35-16.34-5.24,0,0-18.65-2.72-31.64-3.98"/>
  <path class="cls-1" d="M178.06,221.15s21.37-5.04,41.77,57.08c.75,2.29,2.49,4.12,4.75,4.98,2.73,1.04,6.51,2.56,9.49,4.11,4.34,2.25,9.26,3.11,14.08,2.32,2.62-.43,5.5-1.06,8.27-1.99,0,0,12.99-2.39,15.29,5.36v6.34"/>
  <path class="cls-1" d="M216.4,129.59s1.05,10.06,21.58,2.51c0,0,50.07-22,68.3-21.37,0,0,15.71-.42,32.06,0,0,0,3.62,4.89-7.49,13.49-1.25.97-2.62,1.77-4.01,2.52-2.25,1.21-6.88,5.1-7.98,16.88,0,0-3.77,33.73-40.85,37.29,0,0-23.47,4.19-34.99-9.64"/>
  <circle class="cls-1" cx="253.27" cy="80.94" r="19.51"/>
  <ellipse class="cls-1" cx="253.27" cy="80.94" rx="11.52" ry="5.91"/>
  <path class="cls-1" d="M319.06,57.94s2.3,12.39,1.05,17.09c0,0,5.45,2.6,8.38,7.42"/>
  <circle class="cls-1" cx="307.74" cy="86.85" r="4.92"/>
  <line class="cls-1" x1="118.97" y1="133.36" x2="127.35" y2="128.33"/>
  <line class="cls-1" x1="89.22" y1="151.17" x2="96.35" y2="146.03"/>
  <line class="cls-1" x1="78.33" y1="175.68" x2="85.66" y2="172.33"/>
  <line class="cls-1" x1="61.57" y1="187" x2="67.43" y2="182.8"/>
  <path class="cls-1" d="M199.84,124.14s-9.85,29.12,28.7,32.26"/>
  <path class="cls-1" d="M225.82,84.96s-5.23,3.69-14.51,4.62c-3.18.32-6.07,1.96-7.88,4.59-6.12,8.87-20.52,27.77-29.57,23.9"/>
  <path class="cls-1" d="M169.26,88.52s-12.99,10.57-17.03,19.42c-1.85,4.06,1.28,8.65,5.74,8.65h10.04"/>
  <path class="cls-1" d="M307.74,166.98s10.06,28.39-4.92,43.69c0,0,12.18,17.46,19.93,40.44.73,2.17,2,4.13,3.68,5.68,4.56,4.21,14.05,12.32,21.11,14.01,0,0,21.58,4.03,15.92,13.96,0,0-6.21,4.58-13.45-1.88-1.21-1.08-2.51-2.06-3.94-2.84-3.84-2.09-11.25-5.24-19.06-3.79,0,0,9.64,20.95,1.47,24.09,0,0-9.64,4.7-9.43-9.8,0,0-1.68-17.02-16.24-14.08,0,0-7.76,3.34-11.4,7.94-2.41,3.05-6.28,4.71-10.08,3.86-2.56-.58-4.68-2.22-4.6-6.14,0,0,2.72-3.98,8.38-5.24,0,0,8.38-4.19,9.64-6.49,0,0-14.36-1.84-19.44,0-.85.31-1.71.58-2.61.68-3.03.35-8.84.46-7.07-4.22.93-2.47,3.26-4.13,5.87-4.43,3.74-.43,10.06-1.04,16.12-1.04l6.7-1.17s-10.27-11.61-14.67-19.15"/>
  <path class="cls-1" d="M222.14,280.65s65.7-15.92,80.68-95.75"/>
</svg>