<?xml version="1.0" encoding="UTF-8"?>
<svg id="Layer_1" data-name="Layer 1" xmlns="http://www.w3.org/2000/svg" viewBox="0 0 380 380">
  <defs>
    <style>
      .cls-1 {
        fill: none;
        stroke: #030303;
        stroke-linecap: round;
        stroke-linejoin: round;
        stroke-width: 4px;
      }
    </style>
  </defs>
  <path class="cls-1" d="M35.17,139.95s-8.69-.46-10.52,10.98v4.71c0,2.5,1.2,4.85,3.23,6.32l45.58,32.9c2.46,1.77,5.41,2.73,8.44,2.73h16.61c4.65,0,9.18,1.45,12.99,4.12,5.02,3.53,10.01,7.1,14.99,10.68,15.03,10.81,29.93,21.81,44.56,33.15,14.14,10.96,28.35,22.11,41.15,34.65,17.84,17.49,35.93,33.66,57.26,46.86,18.92,11.72,42.05,23.96,65.05,22.13,3.49-.28,6.95-.93,10.27-2.05,0,0,28.81-14.18-8.69-42.99-8.5-6.21-17.21-12.15-25.96-18-19.39-12.98-39.19-25.38-59.57-36.74-8.68-4.84-17.47-9.49-26.42-13.82-10.88-5.27-22.21-9.44-32.96-15-8.16-4.23-16.31-8.46-24.46-12.71-11.1-5.79-22.32-11.44-33.23-17.6,0,0-16.92-8.69-15.09-22.41,0,0,.91-1.83-2.74-5.95"/>
  <path class="cls-1" d="M62.61,118c-3.21,0-11.11-1.44-10.12-6.15.43-2.02,2.77-3.11,4.63-3.46-.79.15.06-9.58.28-10.26,3.66-11.7,23.24-7.21,26.71,2.49,0,0,8.93-14.52,25.8-7.95,6.28,2.45,10.5,9.51,9.91,16.22-.64,7.18-7.42,10.52-13.75,11.86"/>
  <path class="cls-1" d="M69.01,120.75s7.74,7.77,17.13,3.66c0,0,15.64,8.24,23.53,2.16,1.48-1.14,3.59-.91,4.7.59l3.3,4.47c1.34,1.82,1.9,4.09,1.55,6.32l-4.94,31.27c-3.13,6.96-18.46,10.48-25.6,11.76-2.3.41-4.67-.07-6.63-1.34l-43.55-28.37c-2.2-1.43-3.51-3.89-3.45-6.52.21-9.08,1.96-28,2.83-36.95.13-1.36,1.9-1.79,2.64-.64,2.01,3.13,4.7,6.72,4.7,6.72.24-2.15.98-5.06,1.63-7.34.36-1.26,2.15-1.26,2.52,0,.68,2.31.88,4.14.88,4.14"/>
  <circle class="cls-1" cx="153.16" cy="43" r="12.35"/>
  <circle class="cls-1" cx="167.3" cy="93.31" r="10.75"/>
  <circle class="cls-1" cx="130.72" cy="123.96" r="11.89"/>
  <circle class="cls-1" cx="114.74" cy="58.55" r="7.32"/>
  <circle class="cls-1" cx="42.03" cy="90.97" r="5.74"/>
  <path class="cls-1" d="M130.72,118.02s6.77,1.83,5.03,9.6"/>
  <path class="cls-1" d="M64.9,96.71s6.27-3.4,12.51,4.37"/>
  <path class="cls-1" d="M100.11,96.71s15.44,3.15,14.63,12.15"/>
  <path class="cls-1" d="M25.41,147.81s19.37,16.84,29.88,24.61"/>
  <path class="cls-1" d="M71.15,181.57s3.92,8.4,27.59,5.48c2.08-.26,4.18.25,5.88,1.47l155.55,111.04c9.5,7.2,19.73,13.62,30.17,19.35,14.27,7.83,33.91,18.28,50.76,13.92,9.34-2.42,7.46-11.07,5.95-18.76"/>
  <path class="cls-1" d="M52.51,158.34s-.1-16.1,5.07-26.17"/>
  <path class="cls-1" d="M42.03,153.57s-1.68-8.63,5.74-25.05"/>
  <path class="cls-1" d="M64.9,168.46s-1.37-18,4.12-28.51"/>
  <path class="cls-1" d="M82.16,179.7s1.5-22.35,6.06-37.47"/>
  <path class="cls-1" d="M92.35,180.26s2.27-16.36,3.19-32.45"/>
  <path class="cls-1" d="M107.44,172.42s.47-11.43,0-25.61"/>
</svg>