<?xml version="1.0" encoding="UTF-8"?>
<svg id="Layer_1" data-name="Layer 1" xmlns="http://www.w3.org/2000/svg" viewBox="0 0 380 380">
  <defs>
    <style>
      .cls-1 {
        fill: none;
        stroke: #000;
        stroke-linecap: round;
        stroke-linejoin: round;
        stroke-width: 4px;
      }
    </style>
  </defs>
  <path class="cls-1" d="M13.56,82.16s16.45-5.17,26.78-2.35c0,0,17.36,10.15,19.46,25.81,1.46,10.88-7.29,20.36-18.27,20.29-4.48-.03-9.92-.88-16.23-3.34l-7.33-3.81c-2.71-1.41-4.41-4.21-4.41-7.27v-29.33Z"/>
  <path class="cls-1" d="M54.61,93.06l70.78-8.08s9.33,3.44,10.34,17.46"/>
  <path class="cls-1" d="M306.76,64.78l31.17-4.1c3.08-.41,6.14,1.03,7.71,3.71,2.53,4.3,4.51,10.8-3.17,14.59l4.59,1.64c4.77,1.7,10.2.6,13.66-3.11,4.83-5.18,5.72-12.73,5.72-12.73.47-15.04-17.86-21.14-17.86-21.14l-16.92,2.35v13.63"/>
  <line class="cls-1" x1="317.63" y1="82.16" x2="342.47" y2="78.97"/>
  <path class="cls-1" d="M336.6,49.74s21.84,5.64,17.62,24.43"/>
  <path class="cls-1" d="M18.26,84.98s33.36,8.46,22.55,31.01"/>
  <path class="cls-1" d="M138.54,321.33s-23.49,4.7-31.95,4.23c0,0-4.23-86.46,2.35-118.88,0,0,6.11-58.73,4.23-70.01,0,0-.88-19.19-3.26-31.21"/>
  <path class="cls-1" d="M111.83,86.53s-.54-9.06,34.7-10c0,0,116.53-14.1,139.55-14.57,0,0,19.26-6.44,28.19,12.29,0,0,14.57,28.59,9.4,84.51,0,0-3.29,75.18-3.29,94.91,0,0-.47,37.12,2.35,46.99,0,0-150.36,34.77-184.19,35.71,0,0,.47-215.05-2.82-233.92l-75.72,8.85"/>
  <line class="cls-1" x1="151.48" y1="326.95" x2="302.72" y2="295.5"/>
  <path class="cls-1" d="M114.58,316.63s18.79-1.41,23.96-3.76"/>
</svg>