<?xml version="1.0" encoding="UTF-8"?>
<svg id="Layer_1" data-name="Layer 1" xmlns="http://www.w3.org/2000/svg" viewBox="0 0 380 380">
  <defs>
    <style>
      .cls-1 {
        fill: none;
        stroke: #000;
        stroke-linecap: round;
        stroke-linejoin: round;
        stroke-width: 4px;
      }
    </style>
  </defs>
  <rect class="cls-1" x="52.99" y="41.41" width="165.88" height="12.89" rx="6.44" ry="6.44" transform="translate(-1.57 4.73) rotate(-1.98)"/>
  <path class="cls-1" d="M65.61,56.74v92.77s-6.45-1.12-8.98,8.69l-6.72,24.1"/>
  <path class="cls-1" d="M209.33,51.76l23.55,97.74h107.88s9.53-1.4,11.49,11.21l1.68,16.25"/>
  <line class="cls-1" x1="355.33" y1="189.57" x2="356.45" y2="196.3"/>
  <line class="cls-1" x1="356.45" y1="208.06" x2="358.69" y2="220.11"/>
  <line class="cls-1" x1="361.21" y1="243.65" x2="361.21" y2="251.78"/>
  <path class="cls-1" d="M347.36,273.91h11.33s10.09-1.68,9.53-11.49c0,0,2.24-10.65-12.89-12.05h-14.97"/>
  <circle class="cls-1" cx="97.28" cy="259.87" r="47.23"/>
  <circle class="cls-1" cx="97.28" cy="259.87" r="23.62"/>
  <line class="cls-1" x1="166.53" y1="273.91" x2="227.2" y2="273.91"/>
  <line class="cls-1" x1="176.52" y1="250.37" x2="234.52" y2="250.37"/>
  <path class="cls-1" d="M16.79,254.02H7.6s-2.24-41.19,37.83-68.37c0,0,47.91-37.27,109.84,1.68,0,0,33.33,21.3,33.33,63.04"/>
  <path class="cls-1" d="M293.69,149.5v-45.11s-1.12-10.37,9.25-10.37c0,0,7.29-.28,8.13,9.81v45.67"/>
  <polyline class="cls-1" points="286.12 76.37 302.35 76.37 302.35 94.02"/>
  <rect class="cls-1" x="311.06" y="176.96" width="50.16" height="12.61" rx="6.3" ry="6.3"/>
  <rect class="cls-1" x="311.06" y="195.46" width="50.16" height="12.61" rx="6.3" ry="6.3"/>
  <path class="cls-1" d="M273.09,167.16h12.33c3.02,0,5.46,2.45,5.46,5.46v13.73c0,6.42-5.21,11.63-11.63,11.63h0c-6.42,0-11.63-5.21-11.63-11.63v-13.73c0-3.02,2.45-5.46,5.46-5.46Z"/>
  <line class="cls-1" x1="196.59" y1="220.11" x2="222.79" y2="220.11"/>
  <line class="cls-1" x1="196.59" y1="227.96" x2="222.79" y2="227.96"/>
  <path class="cls-1" d="M354.21,220.11h9.81c4.64,0,8.41,3.77,8.41,8.41v6.72c0,4.64-3.77,8.41-8.41,8.41h-9.81c-6.5,0-11.77-5.27-11.77-11.77h0c0-6.5,5.27-11.77,11.77-11.77Z"/>
  <path class="cls-1" d="M365.98,220.11s-9.95,11.77,0,23.54"/>
  <path class="cls-1" d="M206.79,153.99h-116.16c-4.74,0-8.64-3.75-8.83-8.49l-2.8-70.1c-.28-6.91,5.07-12.75,11.97-13.09l98.74-4.41c5.18-.23,9.75,3.37,10.73,8.45l14.99,77.15c1.06,5.44-3.11,10.49-8.64,10.49Z"/>
  <path class="cls-1" d="M95.58,153.99l-3.15-16.78c-1.05-5.57,2.66-10.93,8.24-11.92l9.21-1.64c5.86-1.04,11.46,2.86,12.52,8.72l2.39,13.28c.62,3.43-1.15,6.85-4.3,8.34h0"/>
  <line class="cls-1" x1="183.09" y1="145.1" x2="206.33" y2="131.09"/>
  <line class="cls-1" x1="193.59" y1="138.77" x2="200.59" y2="146.5"/>
  <path class="cls-1" d="M83.34,190.51c-2.96.93-5.93,1.86-8.89,2.79-1.85-4.45-7.6-6.17-12.29-5.05-4.41,1.05-8.73,4.14-12.07,7.11-1.57,1.4-2.12,3.03-2.22,5.22-.04.79,1.61,6.52,1.69,6.42-1.66,2.2-3.32,4.4-4.98,6.61-2.8-2.63-7.37-2.65-10.75-.83s-5.73,5.11-7.41,8.56c-1.41,2.9-2.45,6.1-2.1,9.3s2.35,6.38,5.42,7.35c-.75,2.65-1.5,5.3-2.25,7.96-3.35-.41-6.7,1.49-8.66,4.23-1.97,2.74-2.71,6.19-2.82,9.56-.12,3.72.55,7.6,2.72,10.62,2.17,3.02,6.07,4.98,9.68,4.1.57,2.75,1.15,5.5,1.72,8.26-3.26.91-5.45,4.2-5.86,7.56s.69,6.73,2.21,9.75c1.7,3.36,4.07,6.56,7.43,8.26,3.36,1.71,7.84,1.57,10.52-1.09,2.17,1.95,4.34,3.91,6.51,5.86-2.81,1.85-3.37,5.98-2.03,9.07,1.35,3.09,4.13,5.29,6.99,7.07,3.14,1.95,6.64,3.57,10.33,3.6s7.59-1.89,8.98-5.31c2.75.57,5.51,1.14,8.26,1.71-.82,3.43.98,7.12,3.8,9.24s6.47,2.85,10,2.84c3.53-.01,7.18-.77,10-2.89,2.82-2.12,4.64-5.8,3.87-9.24,2.76-.74,5.51-1.49,8.27-2.23.98,3.56,4.94,5.64,8.63,5.65,3.69,0,7.18-1.59,10.5-3.22,1.95-.96,3.98-2,5.23-3.79,4.95-3.5.28-11.53.28-11.53,0,0,2.96-6.16,6.4-6.59,2.46,2.2,6.36,2.12,9.28.58,2.92-1.54,5.03-4.25,6.81-7.03,2.04-3.18,3.81-6.74,3.74-10.51s-2.55-7.72-6.28-8.33c.46-2.65.92-5.29,1.38-7.94,7.03-.54,13.17-2.21,13.17-14.06,0-11.5-5.84-13.66-12.85-14.35-.62-2.74-1.24-5.48-1.87-8.22,3.23-.98,5.47-4.19,5.96-7.54.49-3.34-.52-6.76-2.11-9.74-1.72-3.24-4.24-6.2-7.57-7.74-3.33-1.54-7.56-1.44-10.43.85-1.95-2.15-3.91-4.3-5.86-6.45,2.52-2.85,2.27-7.41.26-10.63-2.02-3.22-5.42-5.32-8.9-6.85-2.93-1.3-6.14-2.29-9.31-1.82s-6.25,2.76-6.76,5.92c-2.82-.96-5.65-1.92-8.47-2.88.92-3.51-1.11-7.31-4.11-9.36s-6.76-2.65-10.39-2.77c-3.62-.12-7.47.25-10.38,2.4-2.91,2.15-4.37,6.58-2.27,9.54-.05.01-.09.03-.14.04Z"/>
  <g>
    <circle class="cls-1" cx="287.4" cy="279.64" r="35.51"/>
    <circle class="cls-1" cx="287.4" cy="279.64" r="17.75"/>
    <path class="cls-1" d="M277.02,227.98c-2.21.69-4.41,1.38-6.62,2.08-1.38-3.32-5.66-4.6-9.16-3.76-3.28.79-6.5,3.08-8.99,5.29-1.17,1.04-1.58,2.26-1.65,3.89-.03.59,1.2,4.86,1.26,4.78-1.24,1.64-2.47,3.28-3.71,4.92-2.08-1.96-5.49-1.97-8-.62s-4.27,3.81-5.52,6.37c-1.05,2.16-1.83,4.54-1.57,6.93.26,2.38,1.75,4.75,4.04,5.47-.56,1.98-1.12,3.95-1.68,5.93-2.49-.3-4.99,1.11-6.45,3.15s-2.02,4.61-2.1,7.12c-.09,2.77.41,5.66,2.02,7.91,1.61,2.25,4.52,3.71,7.21,3.05.43,2.05.86,4.1,1.28,6.15-2.43.67-4.06,3.13-4.37,5.63s.51,5.01,1.64,7.26c1.26,2.5,3.03,4.88,5.53,6.15s5.84,1.17,7.83-.81c1.62,1.45,3.23,2.91,4.85,4.36-2.09,1.38-2.51,4.45-1.51,6.75s3.08,3.94,5.21,5.26c2.34,1.45,4.94,2.66,7.69,2.68,2.75.02,5.65-1.41,6.69-3.96,2.05.42,4.1.85,6.15,1.27-.61,2.55.73,5.31,2.83,6.88s4.82,2.12,7.45,2.11c2.63,0,5.35-.57,7.45-2.15,2.1-1.58,3.46-4.32,2.89-6.88,2.05-.55,4.11-1.11,6.16-1.66.73,2.65,3.68,4.2,6.43,4.21s5.35-1.19,7.82-2.39c1.46-.71,2.96-1.49,3.89-2.82,3.69-2.6.21-8.59.21-8.59,0,0,2.21-4.59,4.77-4.91,1.83,1.64,4.74,1.58,6.91.43s3.75-3.17,5.07-5.23c1.52-2.37,2.84-5.02,2.78-7.83s-1.9-5.75-4.67-6.21c.34-1.97.69-3.94,1.03-5.91,5.24-.4,9.81-1.65,9.81-10.47,0-8.56-4.35-10.17-9.57-10.69-.46-2.04-.93-4.08-1.39-6.12,2.41-.73,4.07-3.12,4.44-5.61s-.39-5.03-1.57-7.26c-1.28-2.42-3.16-4.62-5.64-5.77s-5.63-1.08-7.77.63c-1.46-1.6-2.91-3.2-4.37-4.8,1.88-2.12,1.69-5.52.19-7.92-1.5-2.4-4.04-3.96-6.63-5.11-2.18-.96-4.57-1.71-6.93-1.36-2.36.35-4.65,2.05-5.03,4.41-2.1-.72-4.21-1.43-6.31-2.15.69-2.62-.83-5.45-3.06-6.97s-5.03-1.97-7.74-2.07c-2.7-.09-5.56.19-7.73,1.79-2.17,1.6-3.26,4.9-1.69,7.1-.03.01-.07.02-.1.03Z"/>
  </g>
  <path class="cls-1" d="M190,153.99s16.7-11.51,24.6-13.55"/>
</svg>