<?xml version="1.0" encoding="UTF-8"?>
<svg id="Layer_1" data-name="Layer 1" xmlns="http://www.w3.org/2000/svg" viewBox="0 0 380 380">
  <defs>
    <style>
      .cls-1 {
        fill: none;
        stroke: #000;
        stroke-linecap: round;
        stroke-linejoin: round;
        stroke-width: 4px;
      }
    </style>
  </defs>
  <path class="cls-1" d="M95.02,95.94c.01-14.22,14.6-18.87,26.83-20.58,12.01-1.68,24-3.57,35.95-5.65,8.98-1.56,18.2-2.7,27.05-4.98.9-.23,1.83-.3,2.75-.19,11.64,1.43,23.27,2.89,34.83,4.89,12.42,2.15,25.04,3.99,37.39,6.44,8.8,1.75,18.63,5.49,20.5,15.38l3.2,184.48c.17,9.76-7.7,17.77-17.46,17.77H112.32c-9.65,0-17.47-7.83-17.47-17.48l.16-180.09Z"/>
  <line class="cls-1" x1="165.16" y1="68.46" x2="149.37" y2="31.59"/>
  <line class="cls-1" x1="210.49" y1="67.65" x2="227.23" y2="31.59"/>
  <line class="cls-1" x1="96.13" y1="108.51" x2="279.48" y2="108.51"/>
  <path class="cls-1" d="M94.84,190.93c6.32,5.2,14.73,8.26,22.39,10.72,16.1,5.16,33.02,6.94,49.83,7.79,17.4.88,34.88,1.3,52.27.06,18.56-1.33,37.67-4.96,53.72-14.84,3.23-1.99,6.29-4.28,9-6.94"/>
  <path class="cls-1" d="M148.5,108.51s4.38,19.58,16.66,19.58h48.52s16.07-2.05,17.24-19.58"/>
  <line class="cls-1" x1="109.04" y1="121.08" x2="109.04" y2="174.56"/>
  <path class="cls-1" d="M110.33,182.04s-.7,3.06,1.84,4.38"/>
  <line class="cls-1" x1="153.47" y1="231.55" x2="222.15" y2="231.55"/>
  <line class="cls-1" x1="154.11" y1="247.62" x2="222.79" y2="247.62"/>
  <line class="cls-1" x1="94.84" y1="268.37" x2="282.06" y2="268.37"/>
  <path class="cls-1" d="M123.91,227.02h14.92c1.06,0,1.92.86,1.92,1.92v22.45c0,1.06-.86,1.92-1.92,1.92h-14.92c-5.62,0-10.19-4.57-10.19-10.19v-5.93c0-5.62,4.57-10.19,10.19-10.19Z"/>
  <path class="cls-1" d="M248.51,227.02h14.92c1.06,0,1.92.86,1.92,1.92v22.45c0,1.06-.86,1.92-1.92,1.92h-14.92c-5.62,0-10.19-4.57-10.19-10.19v-5.93c0-5.62,4.57-10.19,10.19-10.19Z" transform="translate(503.67 480.34) rotate(180)"/>
  <line class="cls-1" x1="142.65" y1="293.51" x2="90.34" y2="349.62"/>
  <line class="cls-1" x1="232.96" y1="293.51" x2="289.66" y2="349.62"/>
  <line class="cls-1" x1="128.41" y1="308.78" x2="248.39" y2="308.78"/>
  <line class="cls-1" x1="108.68" y1="329.95" x2="269.78" y2="329.95"/>
  <path class="cls-1" d="M121.72,54.86s-2.02-19.56,29-24.28h76.9s24.96-.67,26.31,24.28"/>
</svg>