<?xml version="1.0" encoding="UTF-8"?>
<svg id="Layer_1" data-name="Layer 1" xmlns="http://www.w3.org/2000/svg" viewBox="0 0 380 380">
  <defs>
    <style>
      .cls-1 {
        fill: none;
        stroke: #000;
        stroke-linecap: round;
        stroke-linejoin: round;
        stroke-width: 4px;
      }
    </style>
  </defs>
  <rect class="cls-1" x="9.85" y="92.58" width="223.48" height="123.2" rx="8.66" ry="8.66"/>
  <path class="cls-1" d="M243.95,214.78v-82.52c0-10.55,8.55-19.1,19.1-19.1h51.14c13.02,0,24.8,7.69,30.04,19.61l20.27,46.14v27.23"/>
  <polyline class="cls-1" points="15.5 215.78 15.5 240.02 26.79 240.02"/>
  <line class="cls-1" x1="90.21" y1="240.02" x2="99.51" y2="240.02"/>
  <polyline class="cls-1" points="162.94 240.02 230.01 240.02 230.01 224.08"/>
  <polyline class="cls-1" points="160.18 215.78 160.18 224.08 233.34 224.08 233.34 212.13"/>
  <polyline class="cls-1" points="15.5 227.9 7.86 227.9 7.86 245.67 15.5 245.67 15.5 240.02"/>
  <rect class="cls-1" x="179.21" y="245.67" width="49.35" height="24.91"/>
  <polyline class="cls-1" points="166.26 240.02 179.21 258.12 240.64 258.12"/>
  <line class="cls-1" x1="230.01" y1="234.71" x2="238.32" y2="234.71"/>
  <polyline class="cls-1" points="261.23 215.78 238.32 215.78 238.32 240.02 243.3 240.02"/>
  <line class="cls-1" x1="266.15" y1="128.11" x2="266.15" y2="206.48"/>
  <line class="cls-1" x1="275.51" y1="188.55" x2="292.11" y2="188.55"/>
  <rect class="cls-1" x="322" y="132.1" width="15.09" height="31.88" rx="7.47" ry="7.47"/>
  <path class="cls-1" d="M341.71,128.11s-9.12-1.66-10.59,3.98"/>
  <path class="cls-1" d="M331.11,163.98l.31,6.1c.2,4.02,3.52,7.17,7.54,7.17h24.52"/>
  <path class="cls-1" d="M324.2,132.1h0c0-2.33-1.89-4.21-4.21-4.21h-40.27c-2.33,0-4.21,1.89-4.21,4.21v40.94c0,2.33,1.89,4.21,4.21,4.21h40.27c2.33,0,4.21-1.89,4.21-4.21v-10.4"/>
  <path class="cls-1" d="M364.9,206.48h7.24v19.59h-7.24c-5.35,0-9.7-4.35-9.7-9.7v-.19c0-5.35,4.35-9.7,9.7-9.7Z"/>
  <line class="cls-1" x1="365" y1="226.07" x2="365" y2="233.38"/>
  <path class="cls-1" d="M327.64,233.38h36.26c4.26,0,7.71,3.45,7.71,7.71v16.47c0,4.26-3.45,7.71-7.71,7.71h-44.91"/>
  <path class="cls-1" d="M257,268.91h-13.04s-13.28-39.52,24.91-56.78c0,0,35.27-14.28,56.65,17.6,0,0,11.9,19.59,4.03,35.53"/>
  <circle class="cls-1" cx="286.98" cy="253.64" r="33.78"/>
  <circle class="cls-1" cx="286.98" cy="253.64" r="11.82"/>
  <circle class="cls-1" cx="58.67" cy="253.64" r="33.78"/>
  <circle class="cls-1" cx="58.67" cy="253.64" r="11.82"/>
  <circle class="cls-1" cx="131.33" cy="253.64" r="33.78"/>
  <circle class="cls-1" cx="131.33" cy="253.64" r="11.82"/>
  <line class="cls-1" x1="92.45" y1="249.32" x2="97.55" y2="249.32"/>
  <line class="cls-1" x1="9.85" y1="170.61" x2="233.34" y2="170.61"/>
</svg>