<?xml version="1.0" encoding="UTF-8"?>
<svg id="Layer_1" data-name="Layer 1" xmlns="http://www.w3.org/2000/svg" viewBox="0 0 380 380">
  <defs>
    <style>
      .cls-1 {
        fill: none;
        stroke: #000;
        stroke-linecap: round;
        stroke-linejoin: round;
        stroke-width: 4px;
      }
    </style>
  </defs>
  <path class="cls-1" d="M229.01,29.67S83.78-3.79,36.27,156.83c0,0,34.13-32.79,60.23,13.38,0,0,41.49-28.11,60.23,14.72,0,0,43.5-33.46,61.57,17.4,0,0,42.16-36.81,60.9,14.05,0,0,34.8-39.49,60.9,17.4,0,0,34.8-167.31-111.09-204.12Z"/>
  <path class="cls-1" d="M156.73,184.94s24.76-117.79,72.28-155.26c0,0-94.36-2.68-132.51,140.54"/>
  <path class="cls-1" d="M229.01,29.67c20.08,98.38-10.71,172.66-10.71,172.66"/>
  <path class="cls-1" d="M279.2,216.39s35.47-143.89-50.19-186.72"/>
  <path class="cls-1" d="M221.65,26.78c-.12-5.45,2.77-14.58,9.82-13.25,7.17,1.35,5.92,11.14,4.34,16.14"/>
  <line class="cls-1" x1="186.85" y1="174.14" x2="156.73" y2="301.38"/>
  <line class="cls-1" x1="200.76" y1="177.99" x2="170.99" y2="304.82"/>
  <path class="cls-1" d="M156.9,301.46l12.09,2.49c3,.62,4.87,3.61,4.11,6.57l-6.64,26.01s-5.2,38.13-47.27,28.51c-6.98-1.6-13.24-5.58-17.56-11.3-5.6-7.41-10.54-18.41,1.59-20.95.79-.16,1.57-.35,2.35-.51,1.5-.31,5.39-.19,11.26,6.67,3.19,3.73,7.81,6.03,12.71,5.97,5.2-.06,11.22-2.42,14.83-11.42l6.22-27.95c.64-2.86,3.45-4.68,6.31-4.09Z"/>
</svg>