<?xml version="1.0" encoding="UTF-8"?>
<svg id="Layer_1" data-name="Layer 1" xmlns="http://www.w3.org/2000/svg" viewBox="0 0 380 380">
  <defs>
    <style>
      .cls-1 {
        fill: none;
        stroke: #000;
        stroke-linecap: round;
        stroke-linejoin: round;
        stroke-width: 4px;
      }
    </style>
  </defs>
  <path class="cls-1" d="M25.31,183.21L349.16,56.49c2.29-.89,4.85.39,5.49,2.76,7.17,26.5,39.25,165.46-57.3,228.91,0,0-177.28,129.4-272.04-104.94Z"/>
  <path class="cls-1" d="M50.17,173.49c3.38,8.69,7.65,17.07,12.2,25.19,10.31,18.41,22.86,35.72,37.89,50.57,18.24,18.02,40.46,32.22,65.5,38.46,32,7.97,65.24,1.93,95.04-11.14,21.5-9.42,39-25.2,52.8-44.06,18.12-24.78,28.06-54.54,29.25-85.17,1.09-28.21-4.83-56.31-14.48-82.71"/>
  <path class="cls-1" d="M25.31,183.21c-11.38,11.44-12.74,29.95-8.89,44.76,5.49,21.15,21.1,43.58,38.17,57.19,8.14,6.49,17.93,11.53,27.22,16.1,27.21,13.37,68.9,21.16,99.22,22.36"/>
  <path class="cls-1" d="M123.99,190.9c-2.44,5.07-2.09,10.3.79,11.68,2.87,1.38,7.18-1.61,9.62-6.68s.21-11.63.21-11.63c0,0-8.18,1.55-10.62,6.62Z"/>
  <path class="cls-1" d="M147.47,203.37c-.6,5.6,1.49,10.41,4.66,10.75,3.17.34,6.23-3.92,6.83-9.52.6-5.6-3.7-11.02-3.7-11.02,0,0-7.19,4.2-7.79,9.79Z"/>
  <path class="cls-1" d="M167.44,216.58c-.6,5.6,1.49,10.41,4.66,10.75s6.23-3.92,6.83-9.52-3.7-11.02-3.7-11.02c0,0-7.19,4.2-7.79,9.79Z"/>
  <path class="cls-1" d="M195.8,217.48c.28,5.62,3.09,10.05,6.28,9.89,3.18-.16,5.54-4.85,5.26-10.47-.28-5.62-5.37-10.31-5.37-10.31,0,0-6.44,5.27-6.16,10.89Z"/>
  <path class="cls-1" d="M270.91,188.13c3.97,2.75,8.44,3.15,10,.9,1.56-2.25-.4-6.3-4.36-9.04-3.97-2.75-9.82-1.74-9.82-1.74,0,0,.21,7.13,4.18,9.88Z"/>
  <path class="cls-1" d="M285.63,168.22c3.97,2.75,8.44,3.15,10,.9s-.4-6.3-4.36-9.04c-3.97-2.75-9.82-1.74-9.82-1.74,0,0,.21,7.13,4.18,9.88Z"/>
  <path class="cls-1" d="M293.26,146.38c4.14,2.48,8.63,2.59,10.04.25s-.81-6.26-4.94-8.74c-4.14-2.48-9.91-1.1-9.91-1.1,0,0,.68,7.1,4.82,9.59Z"/>
  <path class="cls-1" d="M221.93,216.57c1.09,5.52,4.51,9.49,7.64,8.88,3.13-.62,4.78-5.59,3.69-11.11-1.09-5.52-6.81-9.43-6.81-9.43,0,0-5.61,6.15-4.52,11.67Z"/>
  <path class="cls-1" d="M247.07,206.37c4.2,4.49,9.67,6.2,12.22,3.81,2.54-2.38,1.2-7.95-3.01-12.44s-11.76-4.81-11.76-4.81c0,0-1.65,8.95,2.55,13.43Z"/>
</svg>