<?xml version="1.0" encoding="UTF-8"?>
<svg id="Layer_1" data-name="Layer 1" xmlns="http://www.w3.org/2000/svg" viewBox="0 0 380 380">
  <defs>
    <style>
      .cls-1 {
        fill: none;
        stroke: #000;
        stroke-linecap: round;
        stroke-linejoin: round;
        stroke-width: 4px;
      }
    </style>
  </defs>
  <path class="cls-1" d="M161.04,304.46c-61.3-30.21-79.89-66.72-79.89-66.72-24.96-34.94-18.43-86.49-14.89-105.47.79-4.25-1.44-8.49-5.38-10.27-11.36-5.11-17.05-9.53-17.05-9.53-23.47-15.25-24.85-32.05-23.08-41.71.45-2.48,3.79-3.1,5.01-.89,2.88,5.23,7.1,5.94,9.19,5.95,2.76,0,5.52.26,8.25.65,30.55,4.38,37.94,20.9,37.94,20.9,0,0,24.72-24.13,47.91-22.96,3.62.18,7.27-.39,10.48-2.08,1.34-.71,2.67-1.61,3.84-2.78,1.4-1.39,3.78-.35,3.64,1.62-1.04,14.41-8.86,43.13-53.35,52.8-2.73.59-4.55,3.19-4.09,5.94,2.27,13.63,11.31,50.84,43.11,58.07,0,0,38.95,11.62,82.09-8.9,8.46-4.02,16.36-9.16,23.59-15.12,18.87-15.57,83.34-65.23,111.98-42.61,7.69,6.07,8.96,27.44,9.35,35.82,2.37,51.53-34.46,106.38-77.91,132.47-27.25,16.36-66.23,23.56-97.52,18.59"/>
  <path class="cls-1" d="M350.33,121.36s-53.46,67.25-101.76,110.02c-1.32,1.17-2.07,2.85-2.01,4.62.43,13.59-2.71,73.9-92.56,75.48,0,0,39.26-28.16,43.33-46.01.12-.54-.28-1.05-.83-1.03-9.29.33-79.44,1.24-124.63-43.53"/>
  <circle class="cls-1" cx="248.17" cy="191.54" r="11.99"/>
  <path class="cls-1" d="M328.12,172.89s-18.66,41.76-46.2,57.75"/>
  <path class="cls-1" d="M314.8,221.75s-8.88,31.98-54.64,47.09"/>
</svg>